<?xml version="1.0" encoding="utf-8" standalone="no"?>
<!DOCTYPE svg PUBLIC "-//W3C//DTD SVG 1.1//EN"
  "http://www.w3.org/Graphics/SVG/1.1/DTD/svg11.dtd">
<!-- Created with matplotlib (https://matplotlib.org/) -->
<svg height="248.518125pt" version="1.1" viewBox="0 0 370.942187 248.518125" width="370.942187pt" xmlns="http://www.w3.org/2000/svg" xmlns:xlink="http://www.w3.org/1999/xlink">
 <defs>
  <style type="text/css">
*{stroke-linecap:butt;stroke-linejoin:round;}
  </style>
 </defs>
 <g id="figure_1">
  <g id="patch_1">
   <path d="M 0 248.518125 
L 370.942187 248.518125 
L 370.942187 0 
L 0 0 
z
" style="fill:#ffffff;"/>
  </g>
  <g id="axes_1">
   <g id="patch_2">
    <path d="M 28.942188 224.64 
L 363.742188 224.64 
L 363.742188 7.2 
L 28.942188 7.2 
z
" style="fill:#ffffff;"/>
   </g>
   <g id="matplotlib.axis_1">
    <g id="xtick_1">
     <g id="line2d_1">
      <defs>
       <path d="M 0 0 
L 0 3.5 
" id="m2c908d6afe" style="stroke:#000000;stroke-width:0.8;"/>
      </defs>
      <g>
       <use style="stroke:#000000;stroke-width:0.8;" x="44.160369" xlink:href="#m2c908d6afe" y="224.64"/>
      </g>
     </g>
     <g id="text_1">
      <!-- −1.00 -->
      <defs>
       <path d="M 10.59375 35.5 
L 73.1875 35.5 
L 73.1875 27.203125 
L 10.59375 27.203125 
z
" id="DejaVuSans-8722"/>
       <path d="M 12.40625 8.296875 
L 28.515625 8.296875 
L 28.515625 63.921875 
L 10.984375 60.40625 
L 10.984375 69.390625 
L 28.421875 72.90625 
L 38.28125 72.90625 
L 38.28125 8.296875 
L 54.390625 8.296875 
L 54.390625 0 
L 12.40625 0 
z
" id="DejaVuSans-49"/>
       <path d="M 10.6875 12.40625 
L 21 12.40625 
L 21 0 
L 10.6875 0 
z
" id="DejaVuSans-46"/>
       <path d="M 31.78125 66.40625 
Q 24.171875 66.40625 20.328125 58.90625 
Q 16.5 51.421875 16.5 36.375 
Q 16.5 21.390625 20.328125 13.890625 
Q 24.171875 6.390625 31.78125 6.390625 
Q 39.453125 6.390625 43.28125 13.890625 
Q 47.125 21.390625 47.125 36.375 
Q 47.125 51.421875 43.28125 58.90625 
Q 39.453125 66.40625 31.78125 66.40625 
z
M 31.78125 74.21875 
Q 44.046875 74.21875 50.515625 64.515625 
Q 56.984375 54.828125 56.984375 36.375 
Q 56.984375 17.96875 50.515625 8.265625 
Q 44.046875 -1.421875 31.78125 -1.421875 
Q 19.53125 -1.421875 13.0625 8.265625 
Q 6.59375 17.96875 6.59375 36.375 
Q 6.59375 54.828125 13.0625 64.515625 
Q 19.53125 74.21875 31.78125 74.21875 
z
" id="DejaVuSans-48"/>
      </defs>
      <g transform="translate(28.837713 239.238438)scale(0.1 -0.1)">
       <use xlink:href="#DejaVuSans-8722"/>
       <use x="83.789062" xlink:href="#DejaVuSans-49"/>
       <use x="147.412109" xlink:href="#DejaVuSans-46"/>
       <use x="179.199219" xlink:href="#DejaVuSans-48"/>
       <use x="242.822266" xlink:href="#DejaVuSans-48"/>
      </g>
     </g>
    </g>
    <g id="xtick_2">
     <g id="line2d_2">
      <g>
       <use style="stroke:#000000;stroke-width:0.8;" x="82.205824" xlink:href="#m2c908d6afe" y="224.64"/>
      </g>
     </g>
     <g id="text_2">
      <!-- −0.75 -->
      <defs>
       <path d="M 8.203125 72.90625 
L 55.078125 72.90625 
L 55.078125 68.703125 
L 28.609375 0 
L 18.3125 0 
L 43.21875 64.59375 
L 8.203125 64.59375 
z
" id="DejaVuSans-55"/>
       <path d="M 10.796875 72.90625 
L 49.515625 72.90625 
L 49.515625 64.59375 
L 19.828125 64.59375 
L 19.828125 46.734375 
Q 21.96875 47.46875 24.109375 47.828125 
Q 26.265625 48.1875 28.421875 48.1875 
Q 40.625 48.1875 47.75 41.5 
Q 54.890625 34.8125 54.890625 23.390625 
Q 54.890625 11.625 47.5625 5.09375 
Q 40.234375 -1.421875 26.90625 -1.421875 
Q 22.3125 -1.421875 17.546875 -0.640625 
Q 12.796875 0.140625 7.71875 1.703125 
L 7.71875 11.625 
Q 12.109375 9.234375 16.796875 8.0625 
Q 21.484375 6.890625 26.703125 6.890625 
Q 35.15625 6.890625 40.078125 11.328125 
Q 45.015625 15.765625 45.015625 23.390625 
Q 45.015625 31 40.078125 35.4375 
Q 35.15625 39.890625 26.703125 39.890625 
Q 22.75 39.890625 18.8125 39.015625 
Q 14.890625 38.140625 10.796875 36.28125 
z
" id="DejaVuSans-53"/>
      </defs>
      <g transform="translate(66.883168 239.238438)scale(0.1 -0.1)">
       <use xlink:href="#DejaVuSans-8722"/>
       <use x="83.789062" xlink:href="#DejaVuSans-48"/>
       <use x="147.412109" xlink:href="#DejaVuSans-46"/>
       <use x="179.199219" xlink:href="#DejaVuSans-55"/>
       <use x="242.822266" xlink:href="#DejaVuSans-53"/>
      </g>
     </g>
    </g>
    <g id="xtick_3">
     <g id="line2d_3">
      <g>
       <use style="stroke:#000000;stroke-width:0.8;" x="120.251278" xlink:href="#m2c908d6afe" y="224.64"/>
      </g>
     </g>
     <g id="text_3">
      <!-- −0.50 -->
      <g transform="translate(104.928622 239.238438)scale(0.1 -0.1)">
       <use xlink:href="#DejaVuSans-8722"/>
       <use x="83.789062" xlink:href="#DejaVuSans-48"/>
       <use x="147.412109" xlink:href="#DejaVuSans-46"/>
       <use x="179.199219" xlink:href="#DejaVuSans-53"/>
       <use x="242.822266" xlink:href="#DejaVuSans-48"/>
      </g>
     </g>
    </g>
    <g id="xtick_4">
     <g id="line2d_4">
      <g>
       <use style="stroke:#000000;stroke-width:0.8;" x="158.296733" xlink:href="#m2c908d6afe" y="224.64"/>
      </g>
     </g>
     <g id="text_4">
      <!-- −0.25 -->
      <defs>
       <path d="M 19.1875 8.296875 
L 53.609375 8.296875 
L 53.609375 0 
L 7.328125 0 
L 7.328125 8.296875 
Q 12.9375 14.109375 22.625 23.890625 
Q 32.328125 33.6875 34.8125 36.53125 
Q 39.546875 41.84375 41.421875 45.53125 
Q 43.3125 49.21875 43.3125 52.78125 
Q 43.3125 58.59375 39.234375 62.25 
Q 35.15625 65.921875 28.609375 65.921875 
Q 23.96875 65.921875 18.8125 64.3125 
Q 13.671875 62.703125 7.8125 59.421875 
L 7.8125 69.390625 
Q 13.765625 71.78125 18.9375 73 
Q 24.125 74.21875 28.421875 74.21875 
Q 39.75 74.21875 46.484375 68.546875 
Q 53.21875 62.890625 53.21875 53.421875 
Q 53.21875 48.921875 51.53125 44.890625 
Q 49.859375 40.875 45.40625 35.40625 
Q 44.1875 33.984375 37.640625 27.21875 
Q 31.109375 20.453125 19.1875 8.296875 
z
" id="DejaVuSans-50"/>
      </defs>
      <g transform="translate(142.974077 239.238438)scale(0.1 -0.1)">
       <use xlink:href="#DejaVuSans-8722"/>
       <use x="83.789062" xlink:href="#DejaVuSans-48"/>
       <use x="147.412109" xlink:href="#DejaVuSans-46"/>
       <use x="179.199219" xlink:href="#DejaVuSans-50"/>
       <use x="242.822266" xlink:href="#DejaVuSans-53"/>
      </g>
     </g>
    </g>
    <g id="xtick_5">
     <g id="line2d_5">
      <g>
       <use style="stroke:#000000;stroke-width:0.8;" x="196.342188" xlink:href="#m2c908d6afe" y="224.64"/>
      </g>
     </g>
     <g id="text_5">
      <!-- 0.00 -->
      <g transform="translate(185.209375 239.238438)scale(0.1 -0.1)">
       <use xlink:href="#DejaVuSans-48"/>
       <use x="63.623047" xlink:href="#DejaVuSans-46"/>
       <use x="95.410156" xlink:href="#DejaVuSans-48"/>
       <use x="159.033203" xlink:href="#DejaVuSans-48"/>
      </g>
     </g>
    </g>
    <g id="xtick_6">
     <g id="line2d_6">
      <g>
       <use style="stroke:#000000;stroke-width:0.8;" x="234.387642" xlink:href="#m2c908d6afe" y="224.64"/>
      </g>
     </g>
     <g id="text_6">
      <!-- 0.25 -->
      <g transform="translate(223.25483 239.238438)scale(0.1 -0.1)">
       <use xlink:href="#DejaVuSans-48"/>
       <use x="63.623047" xlink:href="#DejaVuSans-46"/>
       <use x="95.410156" xlink:href="#DejaVuSans-50"/>
       <use x="159.033203" xlink:href="#DejaVuSans-53"/>
      </g>
     </g>
    </g>
    <g id="xtick_7">
     <g id="line2d_7">
      <g>
       <use style="stroke:#000000;stroke-width:0.8;" x="272.433097" xlink:href="#m2c908d6afe" y="224.64"/>
      </g>
     </g>
     <g id="text_7">
      <!-- 0.50 -->
      <g transform="translate(261.300284 239.238438)scale(0.1 -0.1)">
       <use xlink:href="#DejaVuSans-48"/>
       <use x="63.623047" xlink:href="#DejaVuSans-46"/>
       <use x="95.410156" xlink:href="#DejaVuSans-53"/>
       <use x="159.033203" xlink:href="#DejaVuSans-48"/>
      </g>
     </g>
    </g>
    <g id="xtick_8">
     <g id="line2d_8">
      <g>
       <use style="stroke:#000000;stroke-width:0.8;" x="310.478551" xlink:href="#m2c908d6afe" y="224.64"/>
      </g>
     </g>
     <g id="text_8">
      <!-- 0.75 -->
      <g transform="translate(299.345739 239.238438)scale(0.1 -0.1)">
       <use xlink:href="#DejaVuSans-48"/>
       <use x="63.623047" xlink:href="#DejaVuSans-46"/>
       <use x="95.410156" xlink:href="#DejaVuSans-55"/>
       <use x="159.033203" xlink:href="#DejaVuSans-53"/>
      </g>
     </g>
    </g>
    <g id="xtick_9">
     <g id="line2d_9">
      <g>
       <use style="stroke:#000000;stroke-width:0.8;" x="348.524006" xlink:href="#m2c908d6afe" y="224.64"/>
      </g>
     </g>
     <g id="text_9">
      <!-- 1.00 -->
      <g transform="translate(337.391193 239.238438)scale(0.1 -0.1)">
       <use xlink:href="#DejaVuSans-49"/>
       <use x="63.623047" xlink:href="#DejaVuSans-46"/>
       <use x="95.410156" xlink:href="#DejaVuSans-48"/>
       <use x="159.033203" xlink:href="#DejaVuSans-48"/>
      </g>
     </g>
    </g>
   </g>
   <g id="matplotlib.axis_2">
    <g id="ytick_1">
     <g id="line2d_10">
      <defs>
       <path d="M 0 0 
L -3.5 0 
" id="m69a61d998f" style="stroke:#000000;stroke-width:0.8;"/>
      </defs>
      <g>
       <use style="stroke:#000000;stroke-width:0.8;" x="28.942188" xlink:href="#m69a61d998f" y="208.437957"/>
      </g>
     </g>
     <g id="text_10">
      <!-- −3 -->
      <defs>
       <path d="M 40.578125 39.3125 
Q 47.65625 37.796875 51.625 33 
Q 55.609375 28.21875 55.609375 21.1875 
Q 55.609375 10.40625 48.1875 4.484375 
Q 40.765625 -1.421875 27.09375 -1.421875 
Q 22.515625 -1.421875 17.65625 -0.515625 
Q 12.796875 0.390625 7.625 2.203125 
L 7.625 11.71875 
Q 11.71875 9.328125 16.59375 8.109375 
Q 21.484375 6.890625 26.8125 6.890625 
Q 36.078125 6.890625 40.9375 10.546875 
Q 45.796875 14.203125 45.796875 21.1875 
Q 45.796875 27.640625 41.28125 31.265625 
Q 36.765625 34.90625 28.71875 34.90625 
L 20.21875 34.90625 
L 20.21875 43.015625 
L 29.109375 43.015625 
Q 36.375 43.015625 40.234375 45.921875 
Q 44.09375 48.828125 44.09375 54.296875 
Q 44.09375 59.90625 40.109375 62.90625 
Q 36.140625 65.921875 28.71875 65.921875 
Q 24.65625 65.921875 20.015625 65.03125 
Q 15.375 64.15625 9.8125 62.3125 
L 9.8125 71.09375 
Q 15.4375 72.65625 20.34375 73.4375 
Q 25.25 74.21875 29.59375 74.21875 
Q 40.828125 74.21875 47.359375 69.109375 
Q 53.90625 64.015625 53.90625 55.328125 
Q 53.90625 49.265625 50.4375 45.09375 
Q 46.96875 40.921875 40.578125 39.3125 
z
" id="DejaVuSans-51"/>
      </defs>
      <g transform="translate(7.2 212.237176)scale(0.1 -0.1)">
       <use xlink:href="#DejaVuSans-8722"/>
       <use x="83.789062" xlink:href="#DejaVuSans-51"/>
      </g>
     </g>
    </g>
    <g id="ytick_2">
     <g id="line2d_11">
      <g>
       <use style="stroke:#000000;stroke-width:0.8;" x="28.942188" xlink:href="#m69a61d998f" y="180.367536"/>
      </g>
     </g>
     <g id="text_11">
      <!-- −2 -->
      <g transform="translate(7.2 184.166755)scale(0.1 -0.1)">
       <use xlink:href="#DejaVuSans-8722"/>
       <use x="83.789062" xlink:href="#DejaVuSans-50"/>
      </g>
     </g>
    </g>
    <g id="ytick_3">
     <g id="line2d_12">
      <g>
       <use style="stroke:#000000;stroke-width:0.8;" x="28.942188" xlink:href="#m69a61d998f" y="152.297116"/>
      </g>
     </g>
     <g id="text_12">
      <!-- −1 -->
      <g transform="translate(7.2 156.096335)scale(0.1 -0.1)">
       <use xlink:href="#DejaVuSans-8722"/>
       <use x="83.789062" xlink:href="#DejaVuSans-49"/>
      </g>
     </g>
    </g>
    <g id="ytick_4">
     <g id="line2d_13">
      <g>
       <use style="stroke:#000000;stroke-width:0.8;" x="28.942188" xlink:href="#m69a61d998f" y="124.226695"/>
      </g>
     </g>
     <g id="text_13">
      <!-- 0 -->
      <g transform="translate(15.579688 128.025914)scale(0.1 -0.1)">
       <use xlink:href="#DejaVuSans-48"/>
      </g>
     </g>
    </g>
    <g id="ytick_5">
     <g id="line2d_14">
      <g>
       <use style="stroke:#000000;stroke-width:0.8;" x="28.942188" xlink:href="#m69a61d998f" y="96.156275"/>
      </g>
     </g>
     <g id="text_14">
      <!-- 1 -->
      <g transform="translate(15.579688 99.955494)scale(0.1 -0.1)">
       <use xlink:href="#DejaVuSans-49"/>
      </g>
     </g>
    </g>
    <g id="ytick_6">
     <g id="line2d_15">
      <g>
       <use style="stroke:#000000;stroke-width:0.8;" x="28.942188" xlink:href="#m69a61d998f" y="68.085854"/>
      </g>
     </g>
     <g id="text_15">
      <!-- 2 -->
      <g transform="translate(15.579688 71.885073)scale(0.1 -0.1)">
       <use xlink:href="#DejaVuSans-50"/>
      </g>
     </g>
    </g>
    <g id="ytick_7">
     <g id="line2d_16">
      <g>
       <use style="stroke:#000000;stroke-width:0.8;" x="28.942188" xlink:href="#m69a61d998f" y="40.015434"/>
      </g>
     </g>
     <g id="text_16">
      <!-- 3 -->
      <g transform="translate(15.579688 43.814653)scale(0.1 -0.1)">
       <use xlink:href="#DejaVuSans-51"/>
      </g>
     </g>
    </g>
    <g id="ytick_8">
     <g id="line2d_17">
      <g>
       <use style="stroke:#000000;stroke-width:0.8;" x="28.942188" xlink:href="#m69a61d998f" y="11.945014"/>
      </g>
     </g>
     <g id="text_17">
      <!-- 4 -->
      <defs>
       <path d="M 37.796875 64.3125 
L 12.890625 25.390625 
L 37.796875 25.390625 
z
M 35.203125 72.90625 
L 47.609375 72.90625 
L 47.609375 25.390625 
L 58.015625 25.390625 
L 58.015625 17.1875 
L 47.609375 17.1875 
L 47.609375 0 
L 37.796875 0 
L 37.796875 17.1875 
L 4.890625 17.1875 
L 4.890625 26.703125 
z
" id="DejaVuSans-52"/>
      </defs>
      <g transform="translate(15.579688 15.744232)scale(0.1 -0.1)">
       <use xlink:href="#DejaVuSans-52"/>
      </g>
     </g>
    </g>
   </g>
   <g id="line2d_18">
    <path clip-path="url(#p4d26d5777f)" d="M 44.160369 51.733958 
L 47.234749 55.794031 
L 50.30913 59.711688 
L 53.38351 63.489456 
L 56.45789 67.129861 
L 59.53227 70.635431 
L 62.60665 74.008691 
L 65.68103 77.252168 
L 68.755411 80.368389 
L 71.829791 83.35988 
L 74.904171 86.229169 
L 77.978551 88.978781 
L 81.052931 91.611243 
L 84.127311 94.129082 
L 87.201692 96.534824 
L 90.276072 98.830996 
L 93.350452 101.020125 
L 96.424832 103.104737 
L 99.499212 105.087358 
L 102.573592 106.970516 
L 105.647973 108.756737 
L 108.722353 110.448548 
L 111.796733 112.048474 
L 114.871113 113.559043 
L 117.945493 114.982782 
L 121.019873 116.322216 
L 124.094254 117.579873 
L 127.168634 118.758279 
L 130.243014 119.85996 
L 133.317394 120.887444 
L 136.391774 121.843257 
L 139.466154 122.729925 
L 142.540535 123.549975 
L 145.614915 124.305934 
L 148.689295 125.000328 
L 151.763675 125.635684 
L 154.838055 126.214528 
L 157.912435 126.739387 
L 160.986816 127.212788 
L 164.061196 127.637257 
L 167.135576 128.015321 
L 170.209956 128.349507 
L 173.284336 128.64234 
L 176.358716 128.896348 
L 179.433097 129.114057 
L 182.507477 129.297993 
L 185.581857 129.450684 
L 188.656237 129.574656 
L 191.730617 129.672436 
L 194.804997 129.74655 
L 197.879378 129.799524 
L 200.953758 129.833886 
L 204.028138 129.852162 
L 207.102518 129.856878 
L 210.176898 129.850561 
L 213.251278 129.835738 
L 216.325659 129.814935 
L 219.400039 129.790679 
L 222.474419 129.765497 
L 225.548799 129.741915 
L 228.623179 129.722459 
L 231.697559 129.709657 
L 234.77194 129.706034 
L 237.84632 129.714118 
L 240.9207 129.736435 
L 243.99508 129.775512 
L 247.06946 129.833875 
L 250.14384 129.91405 
L 253.218221 130.018565 
L 256.292601 130.149946 
L 259.366981 130.31072 
L 262.441361 130.503413 
L 265.515741 130.730552 
L 268.590121 130.994663 
L 271.664502 131.298273 
L 274.738882 131.643908 
L 277.813262 132.034096 
L 280.887642 132.471363 
L 283.962022 132.958234 
L 287.036402 133.497238 
L 290.110783 134.090901 
L 293.185163 134.741748 
L 296.259543 135.452307 
L 299.333923 136.225105 
L 302.408303 137.062667 
L 305.482683 137.967521 
L 308.557064 138.942193 
L 311.631444 139.98921 
L 314.705824 141.111098 
L 317.780204 142.310384 
L 320.854584 143.589594 
L 323.928964 144.951256 
L 327.003345 146.397895 
L 330.077725 147.932038 
L 333.152105 149.556212 
L 336.226485 151.272944 
L 339.300865 153.08476 
L 342.375245 154.994186 
L 345.449626 157.00375 
L 348.524006 159.115977 
" style="fill:none;stroke:#1f77b4;stroke-linecap:square;stroke-width:1.5;"/>
   </g>
   <g id="line2d_19">
    <path clip-path="url(#p4d26d5777f)" d="M 44.160369 206.305156 
L 47.234749 204.295375 
L 50.30913 202.354645 
L 53.38351 200.481044 
L 56.45789 198.672652 
L 59.53227 196.927546 
L 62.60665 195.243804 
L 65.68103 193.619507 
L 68.755411 192.052731 
L 71.829791 190.541555 
L 74.904171 189.084058 
L 77.978551 187.678319 
L 81.052931 186.322415 
L 84.127311 185.014425 
L 87.201692 183.752428 
L 90.276072 182.534503 
L 93.350452 181.358727 
L 96.424832 180.223179 
L 99.499212 179.125938 
L 102.573592 178.065082 
L 105.647973 177.038689 
L 108.722353 176.044839 
L 111.796733 175.081609 
L 114.871113 174.147078 
L 117.945493 173.239325 
L 121.019873 172.356427 
L 124.094254 171.496464 
L 127.168634 170.657514 
L 130.243014 169.837655 
L 133.317394 169.034966 
L 136.391774 168.247526 
L 139.466154 167.473412 
L 142.540535 166.710704 
L 145.614915 165.957479 
L 148.689295 165.211817 
L 151.763675 164.471796 
L 154.838055 163.735493 
L 157.912435 163.000989 
L 160.986816 162.26636 
L 164.061196 161.529686 
L 167.135576 160.789046 
L 170.209956 160.042516 
L 173.284336 159.288177 
L 176.358716 158.524107 
L 179.433097 157.748383 
L 182.507477 156.959085 
L 185.581857 156.154291 
L 188.656237 155.33208 
L 191.730617 154.490529 
L 194.804997 153.627718 
L 197.879378 152.741725 
L 200.953758 151.830628 
L 204.028138 150.892506 
L 207.102518 149.925437 
L 210.176898 148.9275 
L 213.251278 147.896773 
L 216.325659 146.831336 
L 219.400039 145.729265 
L 222.474419 144.58864 
L 225.548799 143.407539 
L 228.623179 142.184041 
L 231.697559 140.916224 
L 234.77194 139.602167 
L 237.84632 138.239947 
L 240.9207 136.827645 
L 243.99508 135.363337 
L 247.06946 133.845103 
L 250.14384 132.271021 
L 253.218221 130.639169 
L 256.292601 128.947626 
L 259.366981 127.194471 
L 262.441361 125.377782 
L 265.515741 123.495637 
L 268.590121 121.546115 
L 271.664502 119.527294 
L 274.738882 117.437253 
L 277.813262 115.27407 
L 280.887642 113.035824 
L 283.962022 110.720594 
L 287.036402 108.326457 
L 290.110783 105.851492 
L 293.185163 103.293778 
L 296.259543 100.651393 
L 299.333923 97.922416 
L 302.408303 95.104925 
L 305.482683 92.196998 
L 308.557064 89.196715 
L 311.631444 86.102153 
L 314.705824 82.911391 
L 317.780204 79.622507 
L 320.854584 76.233581 
L 323.928964 72.74269 
L 327.003345 69.147913 
L 330.077725 65.447328 
L 333.152105 61.639014 
L 336.226485 57.72105 
L 339.300865 53.691513 
L 342.375245 49.548483 
L 345.449626 45.290038 
L 348.524006 40.914255 
" style="fill:none;stroke:#ff7f0e;stroke-linecap:square;stroke-width:1.5;"/>
   </g>
   <g id="line2d_20">
    <path clip-path="url(#p4d26d5777f)" d="M 44.160369 191.909699 
L 47.234749 191.76604 
L 50.30913 191.5845 
L 53.38351 191.366166 
L 56.45789 191.112122 
L 59.53227 190.823455 
L 62.60665 190.501248 
L 65.68103 190.146588 
L 68.755411 189.760561 
L 71.829791 189.34425 
L 74.904171 188.898743 
L 77.978551 188.425123 
L 81.052931 187.924477 
L 84.127311 187.39789 
L 87.201692 186.846447 
L 90.276072 186.271234 
L 93.350452 185.673336 
L 96.424832 185.053838 
L 99.499212 184.413825 
L 102.573592 183.754384 
L 105.647973 183.076599 
L 108.722353 182.381555 
L 111.796733 181.670339 
L 114.871113 180.944035 
L 117.945493 180.203729 
L 121.019873 179.450506 
L 124.094254 178.685452 
L 127.168634 177.909652 
L 130.243014 177.124191 
L 133.317394 176.330154 
L 136.391774 175.528628 
L 139.466154 174.720697 
L 142.540535 173.907446 
L 145.614915 173.089962 
L 148.689295 172.269329 
L 151.763675 171.446633 
L 154.838055 170.622959 
L 157.912435 169.799393 
L 160.986816 168.977019 
L 164.061196 168.156924 
L 167.135576 167.340192 
L 170.209956 166.52791 
L 173.284336 165.721161 
L 176.358716 164.921033 
L 179.433097 164.128609 
L 182.507477 163.344976 
L 185.581857 162.571218 
L 188.656237 161.808422 
L 191.730617 161.057672 
L 194.804997 160.320055 
L 197.879378 159.596654 
L 200.953758 158.888556 
L 204.028138 158.196846 
L 207.102518 157.522609 
L 210.176898 156.866931 
L 213.251278 156.230897 
L 216.325659 155.615592 
L 219.400039 155.022102 
L 222.474419 154.451512 
L 225.548799 153.904908 
L 228.623179 153.383375 
L 231.697559 152.887997 
L 234.77194 152.419862 
L 237.84632 151.980053 
L 240.9207 151.569656 
L 243.99508 151.189758 
L 247.06946 150.841442 
L 250.14384 150.525794 
L 253.218221 150.243901 
L 256.292601 149.996846 
L 259.366981 149.785716 
L 262.441361 149.611596 
L 265.515741 149.475571 
L 268.590121 149.378726 
L 271.664502 149.322147 
L 274.738882 149.30692 
L 277.813262 149.334129 
L 280.887642 149.404861 
L 283.962022 149.520199 
L 287.036402 149.68123 
L 290.110783 149.88904 
L 293.185163 150.144713 
L 296.259543 150.449334 
L 299.333923 150.80399 
L 302.408303 151.209766 
L 305.482683 151.667746 
L 308.557064 152.179016 
L 311.631444 152.744663 
L 314.705824 153.36577 
L 317.780204 154.043423 
L 320.854584 154.778708 
L 323.928964 155.57271 
L 327.003345 156.426515 
L 330.077725 157.341207 
L 333.152105 158.317873 
L 336.226485 159.357597 
L 339.300865 160.461465 
L 342.375245 161.630562 
L 345.449626 162.865974 
L 348.524006 164.168786 
" style="fill:none;stroke:#2ca02c;stroke-linecap:square;stroke-width:1.5;"/>
   </g>
   <g id="line2d_21">
    <path clip-path="url(#p4d26d5777f)" d="M 44.160369 94.671876 
L 47.234749 94.935013 
L 50.30913 95.219637 
L 53.38351 95.524692 
L 56.45789 95.849122 
L 59.53227 96.191872 
L 62.60665 96.551884 
L 65.68103 96.928104 
L 68.755411 97.319475 
L 71.829791 97.724941 
L 74.904171 98.143447 
L 77.978551 98.573936 
L 81.052931 99.015352 
L 84.127311 99.46664 
L 87.201692 99.926743 
L 90.276072 100.394605 
L 93.350452 100.869171 
L 96.424832 101.349384 
L 99.499212 101.834189 
L 102.573592 102.32253 
L 105.647973 102.81335 
L 108.722353 103.305593 
L 111.796733 103.798204 
L 114.871113 104.290127 
L 117.945493 104.780305 
L 121.019873 105.267683 
L 124.094254 105.751205 
L 127.168634 106.229815 
L 130.243014 106.702456 
L 133.317394 107.168073 
L 136.391774 107.62561 
L 139.466154 108.07401 
L 142.540535 108.512219 
L 145.614915 108.939179 
L 148.689295 109.353835 
L 151.763675 109.755132 
L 154.838055 110.142012 
L 157.912435 110.51342 
L 160.986816 110.8683 
L 164.061196 111.205596 
L 167.135576 111.524253 
L 170.209956 111.823213 
L 173.284336 112.101422 
L 176.358716 112.357822 
L 179.433097 112.591359 
L 182.507477 112.800976 
L 185.581857 112.985617 
L 188.656237 113.144227 
L 191.730617 113.275749 
L 194.804997 113.379127 
L 197.879378 113.453305 
L 200.953758 113.497228 
L 204.028138 113.509839 
L 207.102518 113.490082 
L 210.176898 113.436902 
L 213.251278 113.349243 
L 216.325659 113.226048 
L 219.400039 113.066261 
L 222.474419 112.868827 
L 225.548799 112.632689 
L 228.623179 112.356792 
L 231.697559 112.04008 
L 234.77194 111.681496 
L 237.84632 111.279985 
L 240.9207 110.834491 
L 243.99508 110.343957 
L 247.06946 109.807328 
L 250.14384 109.223548 
L 253.218221 108.591561 
L 256.292601 107.91031 
L 259.366981 107.17874 
L 262.441361 106.395795 
L 265.515741 105.560419 
L 268.590121 104.671556 
L 271.664502 103.72815 
L 274.738882 102.729145 
L 277.813262 101.673485 
L 280.887642 100.560114 
L 283.962022 99.387976 
L 287.036402 98.156015 
L 290.110783 96.863175 
L 293.185163 95.5084 
L 296.259543 94.090635 
L 299.333923 92.608822 
L 302.408303 91.061907 
L 305.482683 89.448833 
L 308.557064 87.768544 
L 311.631444 86.019985 
L 314.705824 84.202098 
L 317.780204 82.31383 
L 320.854584 80.354122 
L 323.928964 78.32192 
L 327.003345 76.216167 
L 330.077725 74.035808 
L 333.152105 71.779786 
L 336.226485 69.447046 
L 339.300865 67.036531 
L 342.375245 64.547186 
L 345.449626 61.977954 
L 348.524006 59.32778 
" style="fill:none;stroke:#d62728;stroke-linecap:square;stroke-width:1.5;"/>
   </g>
   <g id="line2d_22">
    <path clip-path="url(#p4d26d5777f)" d="M 44.160369 98.448046 
L 47.234749 98.13637 
L 50.30913 97.861086 
L 53.38351 97.621483 
L 56.45789 97.416852 
L 59.53227 97.246483 
L 62.60665 97.109667 
L 65.68103 97.005695 
L 68.755411 96.933858 
L 71.829791 96.893446 
L 74.904171 96.883749 
L 77.978551 96.904058 
L 81.052931 96.953664 
L 84.127311 97.031857 
L 87.201692 97.137929 
L 90.276072 97.271169 
L 93.350452 97.430868 
L 96.424832 97.616318 
L 99.499212 97.826807 
L 102.573592 98.061628 
L 105.647973 98.32007 
L 108.722353 98.601425 
L 111.796733 98.904982 
L 114.871113 99.230033 
L 117.945493 99.575869 
L 121.019873 99.941779 
L 124.094254 100.327054 
L 127.168634 100.730985 
L 130.243014 101.152863 
L 133.317394 101.591977 
L 136.391774 102.04762 
L 139.466154 102.519081 
L 142.540535 103.005651 
L 145.614915 103.50662 
L 148.689295 104.02128 
L 151.763675 104.548921 
L 154.838055 105.088833 
L 157.912435 105.640307 
L 160.986816 106.202633 
L 164.061196 106.775103 
L 167.135576 107.357007 
L 170.209956 107.947635 
L 173.284336 108.546279 
L 176.358716 109.152228 
L 179.433097 109.764773 
L 182.507477 110.383205 
L 185.581857 111.006815 
L 188.656237 111.634893 
L 191.730617 112.266729 
L 194.804997 112.901615 
L 197.879378 113.538841 
L 200.953758 114.177698 
L 204.028138 114.817475 
L 207.102518 115.457465 
L 210.176898 116.096956 
L 213.251278 116.735241 
L 216.325659 117.37161 
L 219.400039 118.005352 
L 222.474419 118.63576 
L 225.548799 119.262123 
L 228.623179 119.883731 
L 231.697559 120.499877 
L 234.77194 121.10985 
L 237.84632 121.712941 
L 240.9207 122.30844 
L 243.99508 122.895638 
L 247.06946 123.473826 
L 250.14384 124.042295 
L 253.218221 124.600334 
L 256.292601 125.147235 
L 259.366981 125.682287 
L 262.441361 126.204783 
L 265.515741 126.714012 
L 268.590121 127.209265 
L 271.664502 127.689833 
L 274.738882 128.155006 
L 277.813262 128.604074 
L 280.887642 129.036329 
L 283.962022 129.451061 
L 287.036402 129.847561 
L 290.110783 130.225119 
L 293.185163 130.583025 
L 296.259543 130.920571 
L 299.333923 131.237048 
L 302.408303 131.531745 
L 305.482683 131.803953 
L 308.557064 132.052963 
L 311.631444 132.278065 
L 314.705824 132.478551 
L 317.780204 132.65371 
L 320.854584 132.802834 
L 323.928964 132.925213 
L 327.003345 133.020137 
L 330.077725 133.086897 
L 333.152105 133.124785 
L 336.226485 133.133089 
L 339.300865 133.111102 
L 342.375245 133.058113 
L 345.449626 132.973413 
L 348.524006 132.856293 
" style="fill:none;stroke:#9467bd;stroke-linecap:square;stroke-width:1.5;"/>
   </g>
   <g id="line2d_23">
    <path clip-path="url(#p4d26d5777f)" d="M 44.160369 77.954292 
L 47.234749 80.261137 
L 50.30913 82.456593 
L 53.38351 84.543012 
L 56.45789 86.52274 
L 59.53227 88.398129 
L 62.60665 90.171527 
L 65.68103 91.845284 
L 68.755411 93.42175 
L 71.829791 94.903273 
L 74.904171 96.292203 
L 77.978551 97.59089 
L 81.052931 98.801682 
L 84.127311 99.926931 
L 87.201692 100.968983 
L 90.276072 101.93019 
L 93.350452 102.812901 
L 96.424832 103.619465 
L 99.499212 104.352231 
L 102.573592 105.013549 
L 105.647973 105.605768 
L 108.722353 106.131238 
L 111.796733 106.592309 
L 114.871113 106.991328 
L 117.945493 107.330647 
L 121.019873 107.612614 
L 124.094254 107.839578 
L 127.168634 108.01389 
L 130.243014 108.137899 
L 133.317394 108.213953 
L 136.391774 108.244403 
L 139.466154 108.231598 
L 142.540535 108.177887 
L 145.614915 108.085619 
L 148.689295 107.957145 
L 151.763675 107.794813 
L 154.838055 107.600974 
L 157.912435 107.377975 
L 160.986816 107.128167 
L 164.061196 106.8539 
L 167.135576 106.557522 
L 170.209956 106.241383 
L 173.284336 105.907832 
L 176.358716 105.559219 
L 179.433097 105.197894 
L 182.507477 104.826205 
L 185.581857 104.446502 
L 188.656237 104.061135 
L 191.730617 103.672452 
L 194.804997 103.282804 
L 197.879378 102.89454 
L 200.953758 102.510009 
L 204.028138 102.13156 
L 207.102518 101.761543 
L 210.176898 101.402308 
L 213.251278 101.056203 
L 216.325659 100.725579 
L 219.400039 100.412784 
L 222.474419 100.120169 
L 225.548799 99.850082 
L 228.623179 99.604872 
L 231.697559 99.38689 
L 234.77194 99.198485 
L 237.84632 99.042006 
L 240.9207 98.919802 
L 243.99508 98.834224 
L 247.06946 98.787619 
L 250.14384 98.782339 
L 253.218221 98.820731 
L 256.292601 98.905147 
L 259.366981 99.037934 
L 262.441361 99.221443 
L 265.515741 99.458022 
L 268.590121 99.750022 
L 271.664502 100.099792 
L 274.738882 100.509681 
L 277.813262 100.982038 
L 280.887642 101.519213 
L 283.962022 102.123556 
L 287.036402 102.797415 
L 290.110783 103.54314 
L 293.185163 104.363081 
L 296.259543 105.259587 
L 299.333923 106.235008 
L 302.408303 107.291692 
L 305.482683 108.43199 
L 308.557064 109.65825 
L 311.631444 110.972822 
L 314.705824 112.378056 
L 317.780204 113.876301 
L 320.854584 115.469906 
L 323.928964 117.161221 
L 327.003345 118.952595 
L 330.077725 120.846377 
L 333.152105 122.844918 
L 336.226485 124.950566 
L 339.300865 127.16567 
L 342.375245 129.492581 
L 345.449626 131.933648 
L 348.524006 134.49122 
" style="fill:none;stroke:#8c564b;stroke-linecap:square;stroke-width:1.5;"/>
   </g>
   <g id="line2d_24">
    <path clip-path="url(#p4d26d5777f)" d="M 44.160369 152.87012 
L 47.234749 152.453128 
L 50.30913 152.065245 
L 53.38351 151.705912 
L 56.45789 151.374573 
L 59.53227 151.070669 
L 62.60665 150.793642 
L 65.68103 150.542935 
L 68.755411 150.31799 
L 71.829791 150.118249 
L 74.904171 149.943154 
L 77.978551 149.792149 
L 81.052931 149.664673 
L 84.127311 149.560171 
L 87.201692 149.478085 
L 90.276072 149.417855 
L 93.350452 149.378926 
L 96.424832 149.360738 
L 99.499212 149.362735 
L 102.573592 149.384357 
L 105.647973 149.425049 
L 108.722353 149.484251 
L 111.796733 149.561407 
L 114.871113 149.655957 
L 117.945493 149.767345 
L 121.019873 149.895013 
L 124.094254 150.038403 
L 127.168634 150.196957 
L 130.243014 150.370117 
L 133.317394 150.557326 
L 136.391774 150.758026 
L 139.466154 150.971658 
L 142.540535 151.197667 
L 145.614915 151.435492 
L 148.689295 151.684577 
L 151.763675 151.944365 
L 154.838055 152.214296 
L 157.912435 152.493814 
L 160.986816 152.78236 
L 164.061196 153.079377 
L 167.135576 153.384308 
L 170.209956 153.696593 
L 173.284336 154.015676 
L 176.358716 154.340999 
L 179.433097 154.672004 
L 182.507477 155.008133 
L 185.581857 155.348828 
L 188.656237 155.693532 
L 191.730617 156.041687 
L 194.804997 156.392735 
L 197.879378 156.746118 
L 200.953758 157.101278 
L 204.028138 157.457659 
L 207.102518 157.814701 
L 210.176898 158.171847 
L 213.251278 158.52854 
L 216.325659 158.884222 
L 219.400039 159.238334 
L 222.474419 159.59032 
L 225.548799 159.93962 
L 228.623179 160.285679 
L 231.697559 160.627936 
L 234.77194 160.965836 
L 237.84632 161.29882 
L 240.9207 161.626331 
L 243.99508 161.94781 
L 247.06946 162.2627 
L 250.14384 162.570443 
L 253.218221 162.870481 
L 256.292601 163.162257 
L 259.366981 163.445213 
L 262.441361 163.71879 
L 265.515741 163.982432 
L 268.590121 164.23558 
L 271.664502 164.477677 
L 274.738882 164.708165 
L 277.813262 164.926485 
L 280.887642 165.132081 
L 283.962022 165.324395 
L 287.036402 165.502868 
L 290.110783 165.666943 
L 293.185163 165.816063 
L 296.259543 165.949669 
L 299.333923 166.067203 
L 302.408303 166.168108 
L 305.482683 166.251827 
L 308.557064 166.317801 
L 311.631444 166.365472 
L 314.705824 166.394283 
L 317.780204 166.403676 
L 320.854584 166.393093 
L 323.928964 166.361977 
L 327.003345 166.309769 
L 330.077725 166.235912 
L 333.152105 166.139848 
L 336.226485 166.02102 
L 339.300865 165.878869 
L 342.375245 165.712837 
L 345.449626 165.522368 
L 348.524006 165.306903 
" style="fill:none;stroke:#e377c2;stroke-linecap:square;stroke-width:1.5;"/>
   </g>
   <g id="line2d_25">
    <path clip-path="url(#p4d26d5777f)" d="M 44.160369 109.533378 
L 47.234749 111.945161 
L 50.30913 114.23919 
L 53.38351 116.417543 
L 56.45789 118.482297 
L 59.53227 120.435529 
L 62.60665 122.279317 
L 65.68103 124.015738 
L 68.755411 125.646868 
L 71.829791 127.174786 
L 74.904171 128.601568 
L 77.978551 129.929291 
L 81.052931 131.160034 
L 84.127311 132.295873 
L 87.201692 133.338885 
L 90.276072 134.291147 
L 93.350452 135.154738 
L 96.424832 135.931733 
L 99.499212 136.624211 
L 102.573592 137.234248 
L 105.647973 137.763923 
L 108.722353 138.215311 
L 111.796733 138.59049 
L 114.871113 138.891538 
L 117.945493 139.120531 
L 121.019873 139.279548 
L 124.094254 139.370664 
L 127.168634 139.395958 
L 130.243014 139.357507 
L 133.317394 139.257387 
L 136.391774 139.097677 
L 139.466154 138.880453 
L 142.540535 138.607792 
L 145.614915 138.281773 
L 148.689295 137.904471 
L 151.763675 137.477965 
L 154.838055 137.004331 
L 157.912435 136.485647 
L 160.986816 135.92399 
L 164.061196 135.321437 
L 167.135576 134.680065 
L 170.209956 134.001952 
L 173.284336 133.289176 
L 176.358716 132.543812 
L 179.433097 131.767939 
L 182.507477 130.963633 
L 185.581857 130.132972 
L 188.656237 129.278033 
L 191.730617 128.400894 
L 194.804997 127.503631 
L 197.879378 126.588322 
L 200.953758 125.657044 
L 204.028138 124.711874 
L 207.102518 123.75489 
L 210.176898 122.788168 
L 213.251278 121.813787 
L 216.325659 120.833822 
L 219.400039 119.850352 
L 222.474419 118.865454 
L 225.548799 117.881205 
L 228.623179 116.899682 
L 231.697559 115.922962 
L 234.77194 114.953122 
L 237.84632 113.992241 
L 240.9207 113.042395 
L 243.99508 112.105661 
L 247.06946 111.184116 
L 250.14384 110.279839 
L 253.218221 109.394905 
L 256.292601 108.531392 
L 259.366981 107.691378 
L 262.441361 106.87694 
L 265.515741 106.090155 
L 268.590121 105.3331 
L 271.664502 104.607852 
L 274.738882 103.916489 
L 277.813262 103.261088 
L 280.887642 102.643726 
L 283.962022 102.06648 
L 287.036402 101.531428 
L 290.110783 101.040647 
L 293.185163 100.596214 
L 296.259543 100.200206 
L 299.333923 99.8547 
L 302.408303 99.561775 
L 305.482683 99.323506 
L 308.557064 99.141972 
L 311.631444 99.019249 
L 314.705824 98.957415 
L 317.780204 98.958547 
L 320.854584 99.024721 
L 323.928964 99.158017 
L 327.003345 99.36051 
L 330.077725 99.634278 
L 333.152105 99.981397 
L 336.226485 100.403947 
L 339.300865 100.904003 
L 342.375245 101.483642 
L 345.449626 102.144943 
L 348.524006 102.889982 
" style="fill:none;stroke:#7f7f7f;stroke-linecap:square;stroke-width:1.5;"/>
   </g>
   <g id="line2d_26">
    <path clip-path="url(#p4d26d5777f)" d="M 44.160369 43.386485 
L 47.234749 46.34379 
L 50.30913 49.230632 
L 53.38351 52.048013 
L 56.45789 54.796935 
L 59.53227 57.4784 
L 62.60665 60.09341 
L 65.68103 62.642967 
L 68.755411 65.128072 
L 71.829791 67.549727 
L 74.904171 69.908935 
L 77.978551 72.206697 
L 81.052931 74.444014 
L 84.127311 76.62189 
L 87.201692 78.741325 
L 90.276072 80.803322 
L 93.350452 82.808883 
L 96.424832 84.759008 
L 99.499212 86.654701 
L 102.573592 88.496963 
L 105.647973 90.286796 
L 108.722353 92.025202 
L 111.796733 93.713182 
L 114.871113 95.351739 
L 117.945493 96.941875 
L 121.019873 98.484591 
L 124.094254 99.980888 
L 127.168634 101.43177 
L 130.243014 102.838238 
L 133.317394 104.201294 
L 136.391774 105.521939 
L 139.466154 106.801176 
L 142.540535 108.040007 
L 145.614915 109.239432 
L 148.689295 110.400455 
L 151.763675 111.524077 
L 154.838055 112.611299 
L 157.912435 113.663125 
L 160.986816 114.680555 
L 164.061196 115.664591 
L 167.135576 116.616236 
L 170.209956 117.536491 
L 173.284336 118.426359 
L 176.358716 119.28684 
L 179.433097 120.118937 
L 182.507477 120.923652 
L 185.581857 121.701986 
L 188.656237 122.454942 
L 191.730617 123.183521 
L 194.804997 123.888726 
L 197.879378 124.571557 
L 200.953758 125.233018 
L 204.028138 125.874109 
L 207.102518 126.495833 
L 210.176898 127.099192 
L 213.251278 127.685187 
L 216.325659 128.25482 
L 219.400039 128.809094 
L 222.474419 129.34901 
L 225.548799 129.875569 
L 228.623179 130.389774 
L 231.697559 130.892627 
L 234.77194 131.38513 
L 237.84632 131.868284 
L 240.9207 132.343091 
L 243.99508 132.810553 
L 247.06946 133.271673 
L 250.14384 133.727451 
L 253.218221 134.17889 
L 256.292601 134.626992 
L 259.366981 135.072758 
L 262.441361 135.517191 
L 265.515741 135.961292 
L 268.590121 136.406062 
L 271.664502 136.852505 
L 274.738882 137.301622 
L 277.813262 137.754415 
L 280.887642 138.211885 
L 283.962022 138.675035 
L 287.036402 139.144866 
L 290.110783 139.62238 
L 293.185163 140.108579 
L 296.259543 140.604465 
L 299.333923 141.11104 
L 302.408303 141.629306 
L 305.482683 142.160265 
L 308.557064 142.704917 
L 311.631444 143.264267 
L 314.705824 143.839314 
L 317.780204 144.431061 
L 320.854584 145.040511 
L 323.928964 145.668664 
L 327.003345 146.316522 
L 330.077725 146.985089 
L 333.152105 147.675365 
L 336.226485 148.388352 
L 339.300865 149.125052 
L 342.375245 149.886467 
L 345.449626 150.673599 
L 348.524006 151.48745 
" style="fill:none;stroke:#bcbd22;stroke-linecap:square;stroke-width:1.5;"/>
   </g>
   <g id="line2d_27">
    <path clip-path="url(#p4d26d5777f)" d="M 44.160369 17.083636 
L 47.234749 20.777163 
L 50.30913 24.393371 
L 53.38351 27.933579 
L 56.45789 31.399108 
L 59.53227 34.791279 
L 62.60665 38.111411 
L 65.68103 41.360826 
L 68.755411 44.540842 
L 71.829791 47.652782 
L 74.904171 50.697964 
L 77.978551 53.67771 
L 81.052931 56.59334 
L 84.127311 59.446173 
L 87.201692 62.237531 
L 90.276072 64.968733 
L 93.350452 67.6411 
L 96.424832 70.255953 
L 99.499212 72.814611 
L 102.573592 75.318394 
L 105.647973 77.768624 
L 108.722353 80.166621 
L 111.796733 82.513704 
L 114.871113 84.811195 
L 117.945493 87.060413 
L 121.019873 89.262679 
L 124.094254 91.419312 
L 127.168634 93.531635 
L 130.243014 95.600966 
L 133.317394 97.628626 
L 136.391774 99.615935 
L 139.466154 101.564214 
L 142.540535 103.474784 
L 145.614915 105.348963 
L 148.689295 107.188073 
L 151.763675 108.993434 
L 154.838055 110.766367 
L 157.912435 112.508191 
L 160.986816 114.220227 
L 164.061196 115.903795 
L 167.135576 117.560216 
L 170.209956 119.19081 
L 173.284336 120.796896 
L 176.358716 122.379797 
L 179.433097 123.940831 
L 182.507477 125.481319 
L 185.581857 127.002582 
L 188.656237 128.50594 
L 191.730617 129.992713 
L 194.804997 131.464221 
L 197.879378 132.921785 
L 200.953758 134.366725 
L 204.028138 135.800362 
L 207.102518 137.224015 
L 210.176898 138.639005 
L 213.251278 140.046653 
L 216.325659 141.448278 
L 219.400039 142.845201 
L 222.474419 144.238743 
L 225.548799 145.630223 
L 228.623179 147.020962 
L 231.697559 148.41228 
L 234.77194 149.805498 
L 237.84632 151.201936 
L 240.9207 152.602914 
L 243.99508 154.009753 
L 247.06946 155.423772 
L 250.14384 156.846293 
L 253.218221 158.278635 
L 256.292601 159.722119 
L 259.366981 161.178065 
L 262.441361 162.647794 
L 265.515741 164.132625 
L 268.590121 165.633879 
L 271.664502 167.152877 
L 274.738882 168.690939 
L 277.813262 170.249384 
L 280.887642 171.829534 
L 283.962022 173.432709 
L 287.036402 175.060229 
L 290.110783 176.713414 
L 293.185163 178.393584 
L 296.259543 180.102061 
L 299.333923 181.840164 
L 302.408303 183.609213 
L 305.482683 185.410529 
L 308.557064 187.245433 
L 311.631444 189.115244 
L 314.705824 191.021283 
L 317.780204 192.96487 
L 320.854584 194.947326 
L 323.928964 196.969971 
L 327.003345 199.034125 
L 330.077725 201.141108 
L 333.152105 203.292241 
L 336.226485 205.488844 
L 339.300865 207.732237 
L 342.375245 210.023742 
L 345.449626 212.364677 
L 348.524006 214.756364 
" style="fill:none;stroke:#17becf;stroke-linecap:square;stroke-width:1.5;"/>
   </g>
   <g id="patch_3">
    <path d="M 28.942188 224.64 
L 28.942188 7.2 
" style="fill:none;stroke:#000000;stroke-linecap:square;stroke-linejoin:miter;stroke-width:0.8;"/>
   </g>
   <g id="patch_4">
    <path d="M 363.742188 224.64 
L 363.742188 7.2 
" style="fill:none;stroke:#000000;stroke-linecap:square;stroke-linejoin:miter;stroke-width:0.8;"/>
   </g>
   <g id="patch_5">
    <path d="M 28.942188 224.64 
L 363.742188 224.64 
" style="fill:none;stroke:#000000;stroke-linecap:square;stroke-linejoin:miter;stroke-width:0.8;"/>
   </g>
   <g id="patch_6">
    <path d="M 28.942188 7.2 
L 363.742188 7.2 
" style="fill:none;stroke:#000000;stroke-linecap:square;stroke-linejoin:miter;stroke-width:0.8;"/>
   </g>
  </g>
 </g>
 <defs>
  <clipPath id="p4d26d5777f">
   <rect height="217.44" width="334.8" x="28.942188" y="7.2"/>
  </clipPath>
 </defs>
</svg>
