<?xml version="1.0" encoding="utf-8" standalone="no"?>
<!DOCTYPE svg PUBLIC "-//W3C//DTD SVG 1.1//EN"
  "http://www.w3.org/Graphics/SVG/1.1/DTD/svg11.dtd">
<!-- Created with matplotlib (https://matplotlib.org/) -->
<svg height="252.317344pt" version="1.1" viewBox="0 0 382.6 252.317344" width="382.6pt" xmlns="http://www.w3.org/2000/svg" xmlns:xlink="http://www.w3.org/1999/xlink">
 <defs>
  <style type="text/css">
*{stroke-linecap:butt;stroke-linejoin:round;}
  </style>
 </defs>
 <g id="figure_1">
  <g id="patch_1">
   <path d="M 0 252.317344 
L 382.6 252.317344 
L 382.6 0 
L 0 0 
z
" style="fill:#ffffff;"/>
  </g>
  <g id="axes_1">
   <g id="patch_2">
    <path d="M 31.8 228.439219 
L 366.6 228.439219 
L 366.6 10.999219 
L 31.8 10.999219 
z
" style="fill:#ffffff;"/>
   </g>
   <g id="matplotlib.axis_1">
    <g id="xtick_1">
     <g id="line2d_1">
      <defs>
       <path d="M 0 0 
L 0 3.5 
" id="md44d6d9092" style="stroke:#000000;stroke-width:0.8;"/>
      </defs>
      <g>
       <use style="stroke:#000000;stroke-width:0.8;" x="31.8" xlink:href="#md44d6d9092" y="228.439219"/>
      </g>
     </g>
     <g id="text_1">
      <!-- $\mathdefault{10^{0}}$ -->
      <defs>
       <path d="M 12.40625 8.296875 
L 28.515625 8.296875 
L 28.515625 63.921875 
L 10.984375 60.40625 
L 10.984375 69.390625 
L 28.421875 72.90625 
L 38.28125 72.90625 
L 38.28125 8.296875 
L 54.390625 8.296875 
L 54.390625 0 
L 12.40625 0 
z
" id="DejaVuSans-49"/>
       <path d="M 31.78125 66.40625 
Q 24.171875 66.40625 20.328125 58.90625 
Q 16.5 51.421875 16.5 36.375 
Q 16.5 21.390625 20.328125 13.890625 
Q 24.171875 6.390625 31.78125 6.390625 
Q 39.453125 6.390625 43.28125 13.890625 
Q 47.125 21.390625 47.125 36.375 
Q 47.125 51.421875 43.28125 58.90625 
Q 39.453125 66.40625 31.78125 66.40625 
z
M 31.78125 74.21875 
Q 44.046875 74.21875 50.515625 64.515625 
Q 56.984375 54.828125 56.984375 36.375 
Q 56.984375 17.96875 50.515625 8.265625 
Q 44.046875 -1.421875 31.78125 -1.421875 
Q 19.53125 -1.421875 13.0625 8.265625 
Q 6.59375 17.96875 6.59375 36.375 
Q 6.59375 54.828125 13.0625 64.515625 
Q 19.53125 74.21875 31.78125 74.21875 
z
" id="DejaVuSans-48"/>
      </defs>
      <g transform="translate(23 243.037656)scale(0.1 -0.1)">
       <use transform="translate(0 0.765625)" xlink:href="#DejaVuSans-49"/>
       <use transform="translate(63.623047 0.765625)" xlink:href="#DejaVuSans-48"/>
       <use transform="translate(128.203125 39.046875)scale(0.7)" xlink:href="#DejaVuSans-48"/>
      </g>
     </g>
    </g>
    <g id="xtick_2">
     <g id="line2d_2">
      <g>
       <use style="stroke:#000000;stroke-width:0.8;" x="199.2" xlink:href="#md44d6d9092" y="228.439219"/>
      </g>
     </g>
     <g id="text_2">
      <!-- $\mathdefault{10^{1}}$ -->
      <g transform="translate(190.4 243.037656)scale(0.1 -0.1)">
       <use transform="translate(0 0.684375)" xlink:href="#DejaVuSans-49"/>
       <use transform="translate(63.623047 0.684375)" xlink:href="#DejaVuSans-48"/>
       <use transform="translate(128.203125 38.965625)scale(0.7)" xlink:href="#DejaVuSans-49"/>
      </g>
     </g>
    </g>
    <g id="xtick_3">
     <g id="line2d_3">
      <g>
       <use style="stroke:#000000;stroke-width:0.8;" x="366.6" xlink:href="#md44d6d9092" y="228.439219"/>
      </g>
     </g>
     <g id="text_3">
      <!-- $\mathdefault{10^{2}}$ -->
      <defs>
       <path d="M 19.1875 8.296875 
L 53.609375 8.296875 
L 53.609375 0 
L 7.328125 0 
L 7.328125 8.296875 
Q 12.9375 14.109375 22.625 23.890625 
Q 32.328125 33.6875 34.8125 36.53125 
Q 39.546875 41.84375 41.421875 45.53125 
Q 43.3125 49.21875 43.3125 52.78125 
Q 43.3125 58.59375 39.234375 62.25 
Q 35.15625 65.921875 28.609375 65.921875 
Q 23.96875 65.921875 18.8125 64.3125 
Q 13.671875 62.703125 7.8125 59.421875 
L 7.8125 69.390625 
Q 13.765625 71.78125 18.9375 73 
Q 24.125 74.21875 28.421875 74.21875 
Q 39.75 74.21875 46.484375 68.546875 
Q 53.21875 62.890625 53.21875 53.421875 
Q 53.21875 48.921875 51.53125 44.890625 
Q 49.859375 40.875 45.40625 35.40625 
Q 44.1875 33.984375 37.640625 27.21875 
Q 31.109375 20.453125 19.1875 8.296875 
z
" id="DejaVuSans-50"/>
      </defs>
      <g transform="translate(357.8 243.037656)scale(0.1 -0.1)">
       <use transform="translate(0 0.765625)" xlink:href="#DejaVuSans-49"/>
       <use transform="translate(63.623047 0.765625)" xlink:href="#DejaVuSans-48"/>
       <use transform="translate(128.203125 39.046875)scale(0.7)" xlink:href="#DejaVuSans-50"/>
      </g>
     </g>
    </g>
    <g id="xtick_4">
     <g id="line2d_4">
      <defs>
       <path d="M 0 0 
L 0 2 
" id="ma299b9954f" style="stroke:#000000;stroke-width:0.6;"/>
      </defs>
      <g>
       <use style="stroke:#000000;stroke-width:0.6;" x="82.192421" xlink:href="#ma299b9954f" y="228.439219"/>
      </g>
     </g>
    </g>
    <g id="xtick_5">
     <g id="line2d_5">
      <g>
       <use style="stroke:#000000;stroke-width:0.6;" x="111.670098" xlink:href="#ma299b9954f" y="228.439219"/>
      </g>
     </g>
    </g>
    <g id="xtick_6">
     <g id="line2d_6">
      <g>
       <use style="stroke:#000000;stroke-width:0.6;" x="132.584843" xlink:href="#ma299b9954f" y="228.439219"/>
      </g>
     </g>
    </g>
    <g id="xtick_7">
     <g id="line2d_7">
      <g>
       <use style="stroke:#000000;stroke-width:0.6;" x="148.807579" xlink:href="#ma299b9954f" y="228.439219"/>
      </g>
     </g>
    </g>
    <g id="xtick_8">
     <g id="line2d_8">
      <g>
       <use style="stroke:#000000;stroke-width:0.6;" x="162.062519" xlink:href="#ma299b9954f" y="228.439219"/>
      </g>
     </g>
    </g>
    <g id="xtick_9">
     <g id="line2d_9">
      <g>
       <use style="stroke:#000000;stroke-width:0.6;" x="173.269412" xlink:href="#ma299b9954f" y="228.439219"/>
      </g>
     </g>
    </g>
    <g id="xtick_10">
     <g id="line2d_10">
      <g>
       <use style="stroke:#000000;stroke-width:0.6;" x="182.977264" xlink:href="#ma299b9954f" y="228.439219"/>
      </g>
     </g>
    </g>
    <g id="xtick_11">
     <g id="line2d_11">
      <g>
       <use style="stroke:#000000;stroke-width:0.6;" x="191.540196" xlink:href="#ma299b9954f" y="228.439219"/>
      </g>
     </g>
    </g>
    <g id="xtick_12">
     <g id="line2d_12">
      <g>
       <use style="stroke:#000000;stroke-width:0.6;" x="249.592421" xlink:href="#ma299b9954f" y="228.439219"/>
      </g>
     </g>
    </g>
    <g id="xtick_13">
     <g id="line2d_13">
      <g>
       <use style="stroke:#000000;stroke-width:0.6;" x="279.070098" xlink:href="#ma299b9954f" y="228.439219"/>
      </g>
     </g>
    </g>
    <g id="xtick_14">
     <g id="line2d_14">
      <g>
       <use style="stroke:#000000;stroke-width:0.6;" x="299.984843" xlink:href="#ma299b9954f" y="228.439219"/>
      </g>
     </g>
    </g>
    <g id="xtick_15">
     <g id="line2d_15">
      <g>
       <use style="stroke:#000000;stroke-width:0.6;" x="316.207579" xlink:href="#ma299b9954f" y="228.439219"/>
      </g>
     </g>
    </g>
    <g id="xtick_16">
     <g id="line2d_16">
      <g>
       <use style="stroke:#000000;stroke-width:0.6;" x="329.462519" xlink:href="#ma299b9954f" y="228.439219"/>
      </g>
     </g>
    </g>
    <g id="xtick_17">
     <g id="line2d_17">
      <g>
       <use style="stroke:#000000;stroke-width:0.6;" x="340.669412" xlink:href="#ma299b9954f" y="228.439219"/>
      </g>
     </g>
    </g>
    <g id="xtick_18">
     <g id="line2d_18">
      <g>
       <use style="stroke:#000000;stroke-width:0.6;" x="350.377264" xlink:href="#ma299b9954f" y="228.439219"/>
      </g>
     </g>
    </g>
    <g id="xtick_19">
     <g id="line2d_19">
      <g>
       <use style="stroke:#000000;stroke-width:0.6;" x="358.940196" xlink:href="#ma299b9954f" y="228.439219"/>
      </g>
     </g>
    </g>
   </g>
   <g id="matplotlib.axis_2">
    <g id="ytick_1">
     <g id="line2d_20">
      <defs>
       <path d="M 0 0 
L -3.5 0 
" id="mf87051480c" style="stroke:#000000;stroke-width:0.8;"/>
      </defs>
      <g>
       <use style="stroke:#000000;stroke-width:0.8;" x="31.8" xlink:href="#mf87051480c" y="166.542374"/>
      </g>
     </g>
     <g id="text_4">
      <!-- $\mathdefault{10^{0}}$ -->
      <g transform="translate(7.2 170.341593)scale(0.1 -0.1)">
       <use transform="translate(0 0.765625)" xlink:href="#DejaVuSans-49"/>
       <use transform="translate(63.623047 0.765625)" xlink:href="#DejaVuSans-48"/>
       <use transform="translate(128.203125 39.046875)scale(0.7)" xlink:href="#DejaVuSans-48"/>
      </g>
     </g>
    </g>
    <g id="ytick_2">
     <g id="line2d_21">
      <g>
       <use style="stroke:#000000;stroke-width:0.8;" x="31.8" xlink:href="#mf87051480c" y="10.999219"/>
      </g>
     </g>
     <g id="text_5">
      <!-- $\mathdefault{10^{1}}$ -->
      <g transform="translate(7.2 14.798437)scale(0.1 -0.1)">
       <use transform="translate(0 0.684375)" xlink:href="#DejaVuSans-49"/>
       <use transform="translate(63.623047 0.684375)" xlink:href="#DejaVuSans-48"/>
       <use transform="translate(128.203125 38.965625)scale(0.7)" xlink:href="#DejaVuSans-49"/>
      </g>
     </g>
    </g>
    <g id="ytick_3">
     <g id="line2d_22">
      <defs>
       <path d="M 0 0 
L -2 0 
" id="mcdc5ef858b" style="stroke:#000000;stroke-width:0.6;"/>
      </defs>
      <g>
       <use style="stroke:#000000;stroke-width:0.6;" x="31.8" xlink:href="#mcdc5ef858b" y="228.439219"/>
      </g>
     </g>
    </g>
    <g id="ytick_4">
     <g id="line2d_23">
      <g>
       <use style="stroke:#000000;stroke-width:0.6;" x="31.8" xlink:href="#mcdc5ef858b" y="213.36553"/>
      </g>
     </g>
    </g>
    <g id="ytick_5">
     <g id="line2d_24">
      <g>
       <use style="stroke:#000000;stroke-width:0.6;" x="31.8" xlink:href="#mcdc5ef858b" y="201.049429"/>
      </g>
     </g>
    </g>
    <g id="ytick_6">
     <g id="line2d_25">
      <g>
       <use style="stroke:#000000;stroke-width:0.6;" x="31.8" xlink:href="#mcdc5ef858b" y="190.636314"/>
      </g>
     </g>
    </g>
    <g id="ytick_7">
     <g id="line2d_26">
      <g>
       <use style="stroke:#000000;stroke-width:0.6;" x="31.8" xlink:href="#mcdc5ef858b" y="181.616063"/>
      </g>
     </g>
    </g>
    <g id="ytick_8">
     <g id="line2d_27">
      <g>
       <use style="stroke:#000000;stroke-width:0.6;" x="31.8" xlink:href="#mcdc5ef858b" y="173.659639"/>
      </g>
     </g>
    </g>
    <g id="ytick_9">
     <g id="line2d_28">
      <g>
       <use style="stroke:#000000;stroke-width:0.6;" x="31.8" xlink:href="#mcdc5ef858b" y="119.719219"/>
      </g>
     </g>
    </g>
    <g id="ytick_10">
     <g id="line2d_29">
      <g>
       <use style="stroke:#000000;stroke-width:0.6;" x="31.8" xlink:href="#mcdc5ef858b" y="92.329429"/>
      </g>
     </g>
    </g>
    <g id="ytick_11">
     <g id="line2d_30">
      <g>
       <use style="stroke:#000000;stroke-width:0.6;" x="31.8" xlink:href="#mcdc5ef858b" y="72.896063"/>
      </g>
     </g>
    </g>
    <g id="ytick_12">
     <g id="line2d_31">
      <g>
       <use style="stroke:#000000;stroke-width:0.6;" x="31.8" xlink:href="#mcdc5ef858b" y="57.822374"/>
      </g>
     </g>
    </g>
    <g id="ytick_13">
     <g id="line2d_32">
      <g>
       <use style="stroke:#000000;stroke-width:0.6;" x="31.8" xlink:href="#mcdc5ef858b" y="45.506273"/>
      </g>
     </g>
    </g>
    <g id="ytick_14">
     <g id="line2d_33">
      <g>
       <use style="stroke:#000000;stroke-width:0.6;" x="31.8" xlink:href="#mcdc5ef858b" y="35.093158"/>
      </g>
     </g>
    </g>
    <g id="ytick_15">
     <g id="line2d_34">
      <g>
       <use style="stroke:#000000;stroke-width:0.6;" x="31.8" xlink:href="#mcdc5ef858b" y="26.072908"/>
      </g>
     </g>
    </g>
    <g id="ytick_16">
     <g id="line2d_35">
      <g>
       <use style="stroke:#000000;stroke-width:0.6;" x="31.8" xlink:href="#mcdc5ef858b" y="18.116483"/>
      </g>
     </g>
    </g>
   </g>
   <g id="line2d_36">
    <path clip-path="url(#pd36a73f2e4)" d="M -1 59.98247 
L 31.8 59.983882 
L 82.192421 67.225813 
L 111.670098 72.685548 
L 132.584843 78.609193 
L 148.807579 81.981443 
L 162.062519 84.311244 
L 173.269412 85.980996 
L 182.977264 88.820089 
L 191.540196 88.7014 
L 199.2 90.315695 
L 206.129135 92.421255 
L 212.454941 91.50503 
L 218.274117 93.069843 
L 223.661833 92.949905 
L 228.677677 93.940954 
L 233.369685 94.015009 
L 237.777149 94.612296 
L 241.932617 94.273374 
L 245.863353 94.74596 
L 249.592421 95.654845 
L 253.13951 95.331629 
L 256.521557 95.262549 
L 259.75324 95.511497 
L 262.847362 95.671008 
L 265.815157 96.132759 
L 268.666538 96.049836 
L 271.410294 96.278487 
L 274.054254 96.573561 
L 276.605425 96.51196 
L 279.070098 96.475286 
L 281.453948 97.153013 
L 283.762106 96.818904 
L 285.999234 96.444242 
L 288.169571 96.90475 
L 290.276991 97.069189 
L 292.325039 96.945932 
L 294.316969 97.062834 
L 296.255774 97.230101 
L 298.144215 97.086428 
L 299.984843 97.171902 
L 301.780018 97.414752 
L 303.531931 97.387354 
L 305.242619 97.512497 
L 306.913978 97.62769 
L 308.547775 97.617291 
L 310.145661 97.350181 
L 311.709181 97.775099 
L 313.239783 97.550698 
L 314.738824 97.649916 
L 316.207579 97.688907 
L 317.647247 97.881252 
L 319.05896 97.951723 
L 320.443781 97.85702 
L 321.802715 97.92809 
L 323.136714 97.836359 
L 324.446676 97.748333 
L 325.733451 97.965205 
L 326.997846 97.885506 
L 328.240627 97.948556 
L 329.462519 98.146184 
L 330.664214 98.139616 
L 331.846369 98.254396 
L 333.009608 98.193434 
L 334.154528 98.263528 
L 335.281696 98.303768 
L 336.391655 98.110657 
L 337.484922 98.263193 
L 338.561992 98.206047 
L 339.623338 98.405987 
L 340.669412 98.261077 
L 341.700648 98.217428 
L 342.71746 98.159284 
L 343.720247 98.464099 
L 344.70939 98.388632 
L 345.685255 98.758695 
L 346.648195 98.306031 
L 347.598547 98.269984 
L 348.536636 98.246816 
L 349.462775 98.21603 
L 350.377264 98.224355 
L 351.280392 98.429059 
L 352.172439 98.525628 
L 353.053673 98.374368 
L 353.924352 98.475155 
L 354.784728 98.491556 
L 355.635041 98.45222 
L 356.475523 98.304825 
L 357.306399 98.365838 
L 358.127887 98.427002 
L 358.940196 98.605593 
L 359.743529 98.514312 
L 360.538082 98.428841 
L 361.324046 98.619191 
L 362.101603 98.503522 
L 362.870932 98.525999 
L 363.632204 98.57967 
L 364.385588 98.684735 
L 365.131245 98.688516 
L 365.869332 98.684298 
" style="fill:none;stroke:#1f77b4;stroke-linecap:square;stroke-width:1.5;"/>
   </g>
   <g id="line2d_37">
    <path clip-path="url(#pd36a73f2e4)" d="M -1 38.106894 
L 31.8 38.112369 
L 82.192421 78.14912 
L 111.670098 105.801105 
L 132.584843 138.532499 
L 148.807579 151.580448 
L 162.062519 157.96618 
L 173.269412 164.849389 
L 182.977264 168.997407 
L 191.540196 170.642188 
L 199.2 172.740943 
L 206.129135 174.205929 
L 212.454941 174.269589 
L 218.274117 175.837255 
L 223.661833 176.297813 
L 228.677677 177.609848 
L 233.369685 177.871538 
L 237.777149 178.158887 
L 241.932617 178.768004 
L 245.863353 178.800317 
L 249.592421 179.042253 
L 253.13951 179.440673 
L 256.521557 179.507066 
L 259.75324 179.762595 
L 262.847362 179.999913 
L 265.815157 180.293594 
L 268.666538 180.449599 
L 271.410294 180.822458 
L 274.054254 180.72866 
L 276.605425 180.780097 
L 279.070098 180.838137 
L 281.453948 181.116654 
L 283.762106 181.221412 
L 285.999234 181.325722 
L 288.169571 181.54378 
L 290.276991 181.347857 
L 292.325039 181.511697 
L 294.316969 181.875991 
L 296.255774 182.057647 
L 298.144215 182.024047 
L 299.984843 182.12956 
L 301.780018 181.923943 
L 303.531931 182.029506 
L 305.242619 182.170596 
L 306.913978 182.341642 
L 308.547775 182.131544 
L 310.145661 181.951584 
L 311.709181 181.91602 
L 313.239783 182.327615 
L 314.738824 182.297878 
L 316.207579 182.288417 
L 317.647247 182.469379 
L 319.05896 182.522208 
L 320.443781 182.488001 
L 321.802715 182.454018 
L 323.136714 182.594596 
L 324.446676 182.476764 
L 325.733451 182.572541 
L 326.997846 182.508172 
L 328.240627 182.63958 
L 329.462519 182.590678 
L 330.664214 182.617854 
L 331.846369 182.928363 
L 333.009608 182.799108 
L 334.154528 182.810794 
L 335.281696 182.86603 
L 336.391655 182.832281 
L 337.484922 182.976721 
L 338.561992 182.926603 
L 339.623338 182.977536 
L 340.669412 182.889074 
L 341.700648 182.88969 
L 342.71746 183.202159 
L 343.720247 182.859365 
L 344.70939 183.089633 
L 345.685255 183.174868 
L 346.648195 183.174033 
L 347.598547 183.182668 
L 348.536636 182.992869 
L 349.462775 183.211532 
L 350.377264 183.291999 
L 351.280392 183.008706 
L 352.172439 183.423846 
L 353.053673 183.23245 
L 353.924352 183.140826 
L 354.784728 183.244633 
L 355.635041 182.988282 
L 356.475523 183.272281 
L 357.306399 183.133267 
L 358.127887 183.429483 
L 358.940196 183.313842 
L 359.743529 183.465447 
L 360.538082 183.313314 
L 361.324046 183.239673 
L 362.101603 183.415859 
L 362.870932 183.38758 
L 363.632204 183.345972 
L 364.385588 183.297705 
L 365.131245 183.258417 
L 365.869332 183.178658 
" style="fill:none;stroke:#ff7f0e;stroke-linecap:square;stroke-width:1.5;"/>
   </g>
   <g id="line2d_38">
    <path clip-path="url(#pd36a73f2e4)" d="M -1 50.570123 
L 31.8 50.574995 
L 82.192421 65.928162 
L 111.670098 78.401803 
L 132.584843 90.201587 
L 148.807579 97.039415 
L 162.062519 104.148303 
L 173.269412 109.526811 
L 182.977264 118.975937 
L 191.540196 120.451304 
L 199.2 124.972189 
L 206.129135 131.905099 
L 212.454941 134.431221 
L 218.274117 140.446335 
L 223.661833 141.65338 
L 228.677677 144.849175 
L 233.369685 148.124751 
L 237.777149 148.905725 
L 241.932617 152.946895 
L 245.863353 154.444753 
L 249.592421 158.064091 
L 253.13951 160.318446 
L 256.521557 160.217656 
L 259.75324 162.687071 
L 262.847362 164.996888 
L 265.815157 167.350501 
L 268.666538 168.777215 
L 271.410294 171.191203 
L 274.054254 172.464191 
L 276.605425 173.446441 
L 279.070098 174.855121 
L 281.453948 176.922448 
L 283.762106 177.013332 
L 285.999234 180.117433 
L 288.169571 179.595996 
L 290.276991 181.506062 
L 292.325039 181.668804 
L 294.316969 184.221842 
L 296.255774 184.860609 
L 298.144215 185.440293 
L 299.984843 185.772134 
L 301.780018 186.55889 
L 303.531931 188.227291 
L 305.242619 188.853708 
L 306.913978 190.427073 
L 308.547775 190.60369 
L 310.145661 191.719559 
L 311.709181 192.320733 
L 313.239783 193.651257 
L 314.738824 193.537226 
L 316.207579 193.269774 
L 317.647247 194.25428 
L 319.05896 195.630969 
L 320.443781 195.877288 
L 321.802715 196.822388 
L 323.136714 196.999262 
L 324.446676 196.486515 
L 325.733451 197.844188 
L 326.997846 198.665229 
L 328.240627 199.167178 
L 329.462519 199.608321 
L 330.664214 200.180678 
L 331.846369 201.509681 
L 333.009608 200.523566 
L 334.154528 201.366052 
L 335.281696 201.527229 
L 336.391655 202.283763 
L 337.484922 202.763987 
L 338.561992 203.329882 
L 339.623338 203.085691 
L 340.669412 204.137416 
L 341.700648 204.013038 
L 342.71746 204.338162 
L 343.720247 204.989296 
L 344.70939 205.129359 
L 345.685255 205.312268 
L 346.648195 205.755748 
L 347.598547 205.950549 
L 348.536636 206.441735 
L 349.462775 206.462967 
L 350.377264 206.980197 
L 351.280392 207.485422 
L 352.172439 207.841043 
L 353.053673 207.678884 
L 353.924352 208.481144 
L 354.784728 208.255618 
L 355.635041 207.866889 
L 356.475523 208.98337 
L 357.306399 208.161604 
L 358.127887 209.459606 
L 358.940196 208.964155 
L 359.743529 209.619167 
L 360.538082 209.702132 
L 361.324046 209.809906 
L 362.101603 210.385634 
L 362.870932 210.086161 
L 363.632204 210.032577 
L 364.385588 210.745733 
L 365.131245 210.39043 
L 365.869332 210.657206 
" style="fill:none;stroke:#2ca02c;stroke-linecap:square;stroke-width:1.5;"/>
   </g>
   <g id="patch_3">
    <path d="M 31.8 228.439219 
L 31.8 10.999219 
" style="fill:none;stroke:#000000;stroke-linecap:square;stroke-linejoin:miter;stroke-width:0.8;"/>
   </g>
   <g id="patch_4">
    <path d="M 366.6 228.439219 
L 366.6 10.999219 
" style="fill:none;stroke:#000000;stroke-linecap:square;stroke-linejoin:miter;stroke-width:0.8;"/>
   </g>
   <g id="patch_5">
    <path d="M 31.8 228.439219 
L 366.6 228.439219 
" style="fill:none;stroke:#000000;stroke-linecap:square;stroke-linejoin:miter;stroke-width:0.8;"/>
   </g>
   <g id="patch_6">
    <path d="M 31.8 10.999219 
L 366.6 10.999219 
" style="fill:none;stroke:#000000;stroke-linecap:square;stroke-linejoin:miter;stroke-width:0.8;"/>
   </g>
   <g id="legend_1">
    <g id="patch_7">
     <path d="M 297.4375 68.033594 
L 354.6 68.033594 
Q 356.6 68.033594 356.6 66.033594 
L 356.6 22.999219 
Q 356.6 20.999219 354.6 20.999219 
L 297.4375 20.999219 
Q 295.4375 20.999219 295.4375 22.999219 
L 295.4375 66.033594 
Q 295.4375 68.033594 297.4375 68.033594 
z
" style="fill:#ffffff;opacity:0.8;stroke:#cccccc;stroke-linejoin:miter;"/>
    </g>
    <g id="line2d_39">
     <path d="M 299.4375 29.097656 
L 319.4375 29.097656 
" style="fill:none;stroke:#1f77b4;stroke-linecap:square;stroke-width:1.5;"/>
    </g>
    <g id="line2d_40"/>
    <g id="text_6">
     <!-- line -->
     <defs>
      <path d="M 9.421875 75.984375 
L 18.40625 75.984375 
L 18.40625 0 
L 9.421875 0 
z
" id="DejaVuSans-108"/>
      <path d="M 9.421875 54.6875 
L 18.40625 54.6875 
L 18.40625 0 
L 9.421875 0 
z
M 9.421875 75.984375 
L 18.40625 75.984375 
L 18.40625 64.59375 
L 9.421875 64.59375 
z
" id="DejaVuSans-105"/>
      <path d="M 54.890625 33.015625 
L 54.890625 0 
L 45.90625 0 
L 45.90625 32.71875 
Q 45.90625 40.484375 42.875 44.328125 
Q 39.84375 48.1875 33.796875 48.1875 
Q 26.515625 48.1875 22.3125 43.546875 
Q 18.109375 38.921875 18.109375 30.90625 
L 18.109375 0 
L 9.078125 0 
L 9.078125 54.6875 
L 18.109375 54.6875 
L 18.109375 46.1875 
Q 21.34375 51.125 25.703125 53.5625 
Q 30.078125 56 35.796875 56 
Q 45.21875 56 50.046875 50.171875 
Q 54.890625 44.34375 54.890625 33.015625 
z
" id="DejaVuSans-110"/>
      <path d="M 56.203125 29.59375 
L 56.203125 25.203125 
L 14.890625 25.203125 
Q 15.484375 15.921875 20.484375 11.0625 
Q 25.484375 6.203125 34.421875 6.203125 
Q 39.59375 6.203125 44.453125 7.46875 
Q 49.3125 8.734375 54.109375 11.28125 
L 54.109375 2.78125 
Q 49.265625 0.734375 44.1875 -0.34375 
Q 39.109375 -1.421875 33.890625 -1.421875 
Q 20.796875 -1.421875 13.15625 6.1875 
Q 5.515625 13.8125 5.515625 26.8125 
Q 5.515625 40.234375 12.765625 48.109375 
Q 20.015625 56 32.328125 56 
Q 43.359375 56 49.78125 48.890625 
Q 56.203125 41.796875 56.203125 29.59375 
z
M 47.21875 32.234375 
Q 47.125 39.59375 43.09375 43.984375 
Q 39.0625 48.390625 32.421875 48.390625 
Q 24.90625 48.390625 20.390625 44.140625 
Q 15.875 39.890625 15.1875 32.171875 
z
" id="DejaVuSans-101"/>
     </defs>
     <g transform="translate(327.4375 32.597656)scale(0.1 -0.1)">
      <use xlink:href="#DejaVuSans-108"/>
      <use x="27.783203" xlink:href="#DejaVuSans-105"/>
      <use x="55.566406" xlink:href="#DejaVuSans-110"/>
      <use x="118.945312" xlink:href="#DejaVuSans-101"/>
     </g>
    </g>
    <g id="line2d_41">
     <path d="M 299.4375 43.775781 
L 319.4375 43.775781 
" style="fill:none;stroke:#ff7f0e;stroke-linecap:square;stroke-width:1.5;"/>
    </g>
    <g id="line2d_42"/>
    <g id="text_7">
     <!-- quad -->
     <defs>
      <path d="M 14.796875 27.296875 
Q 14.796875 17.390625 18.875 11.75 
Q 22.953125 6.109375 30.078125 6.109375 
Q 37.203125 6.109375 41.296875 11.75 
Q 45.40625 17.390625 45.40625 27.296875 
Q 45.40625 37.203125 41.296875 42.84375 
Q 37.203125 48.484375 30.078125 48.484375 
Q 22.953125 48.484375 18.875 42.84375 
Q 14.796875 37.203125 14.796875 27.296875 
z
M 45.40625 8.203125 
Q 42.578125 3.328125 38.25 0.953125 
Q 33.9375 -1.421875 27.875 -1.421875 
Q 17.96875 -1.421875 11.734375 6.484375 
Q 5.515625 14.40625 5.515625 27.296875 
Q 5.515625 40.1875 11.734375 48.09375 
Q 17.96875 56 27.875 56 
Q 33.9375 56 38.25 53.625 
Q 42.578125 51.265625 45.40625 46.390625 
L 45.40625 54.6875 
L 54.390625 54.6875 
L 54.390625 -20.796875 
L 45.40625 -20.796875 
z
" id="DejaVuSans-113"/>
      <path d="M 8.5 21.578125 
L 8.5 54.6875 
L 17.484375 54.6875 
L 17.484375 21.921875 
Q 17.484375 14.15625 20.5 10.265625 
Q 23.53125 6.390625 29.59375 6.390625 
Q 36.859375 6.390625 41.078125 11.03125 
Q 45.3125 15.671875 45.3125 23.6875 
L 45.3125 54.6875 
L 54.296875 54.6875 
L 54.296875 0 
L 45.3125 0 
L 45.3125 8.40625 
Q 42.046875 3.421875 37.71875 1 
Q 33.40625 -1.421875 27.6875 -1.421875 
Q 18.265625 -1.421875 13.375 4.4375 
Q 8.5 10.296875 8.5 21.578125 
z
M 31.109375 56 
z
" id="DejaVuSans-117"/>
      <path d="M 34.28125 27.484375 
Q 23.390625 27.484375 19.1875 25 
Q 14.984375 22.515625 14.984375 16.5 
Q 14.984375 11.71875 18.140625 8.90625 
Q 21.296875 6.109375 26.703125 6.109375 
Q 34.1875 6.109375 38.703125 11.40625 
Q 43.21875 16.703125 43.21875 25.484375 
L 43.21875 27.484375 
z
M 52.203125 31.203125 
L 52.203125 0 
L 43.21875 0 
L 43.21875 8.296875 
Q 40.140625 3.328125 35.546875 0.953125 
Q 30.953125 -1.421875 24.3125 -1.421875 
Q 15.921875 -1.421875 10.953125 3.296875 
Q 6 8.015625 6 15.921875 
Q 6 25.140625 12.171875 29.828125 
Q 18.359375 34.515625 30.609375 34.515625 
L 43.21875 34.515625 
L 43.21875 35.40625 
Q 43.21875 41.609375 39.140625 45 
Q 35.0625 48.390625 27.6875 48.390625 
Q 23 48.390625 18.546875 47.265625 
Q 14.109375 46.140625 10.015625 43.890625 
L 10.015625 52.203125 
Q 14.9375 54.109375 19.578125 55.046875 
Q 24.21875 56 28.609375 56 
Q 40.484375 56 46.34375 49.84375 
Q 52.203125 43.703125 52.203125 31.203125 
z
" id="DejaVuSans-97"/>
      <path d="M 45.40625 46.390625 
L 45.40625 75.984375 
L 54.390625 75.984375 
L 54.390625 0 
L 45.40625 0 
L 45.40625 8.203125 
Q 42.578125 3.328125 38.25 0.953125 
Q 33.9375 -1.421875 27.875 -1.421875 
Q 17.96875 -1.421875 11.734375 6.484375 
Q 5.515625 14.40625 5.515625 27.296875 
Q 5.515625 40.1875 11.734375 48.09375 
Q 17.96875 56 27.875 56 
Q 33.9375 56 38.25 53.625 
Q 42.578125 51.265625 45.40625 46.390625 
z
M 14.796875 27.296875 
Q 14.796875 17.390625 18.875 11.75 
Q 22.953125 6.109375 30.078125 6.109375 
Q 37.203125 6.109375 41.296875 11.75 
Q 45.40625 17.390625 45.40625 27.296875 
Q 45.40625 37.203125 41.296875 42.84375 
Q 37.203125 48.484375 30.078125 48.484375 
Q 22.953125 48.484375 18.875 42.84375 
Q 14.796875 37.203125 14.796875 27.296875 
z
" id="DejaVuSans-100"/>
     </defs>
     <g transform="translate(327.4375 47.275781)scale(0.1 -0.1)">
      <use xlink:href="#DejaVuSans-113"/>
      <use x="63.476562" xlink:href="#DejaVuSans-117"/>
      <use x="126.855469" xlink:href="#DejaVuSans-97"/>
      <use x="188.134766" xlink:href="#DejaVuSans-100"/>
     </g>
    </g>
    <g id="line2d_43">
     <path d="M 299.4375 58.453906 
L 319.4375 58.453906 
" style="fill:none;stroke:#2ca02c;stroke-linecap:square;stroke-width:1.5;"/>
    </g>
    <g id="line2d_44"/>
    <g id="text_8">
     <!-- nn -->
     <g transform="translate(327.4375 61.953906)scale(0.1 -0.1)">
      <use xlink:href="#DejaVuSans-110"/>
      <use x="63.378906" xlink:href="#DejaVuSans-110"/>
     </g>
    </g>
   </g>
  </g>
 </g>
 <defs>
  <clipPath id="pd36a73f2e4">
   <rect height="217.44" width="334.8" x="31.8" y="10.999219"/>
  </clipPath>
 </defs>
</svg>
