<?xml version="1.0" encoding="utf-8" standalone="no"?>
<!DOCTYPE svg PUBLIC "-//W3C//DTD SVG 1.1//EN"
  "http://www.w3.org/Graphics/SVG/1.1/DTD/svg11.dtd">
<!-- Created with matplotlib (https://matplotlib.org/) -->
<svg height="252.317344pt" version="1.1" viewBox="0 0 368.925 252.317344" width="368.925pt" xmlns="http://www.w3.org/2000/svg" xmlns:xlink="http://www.w3.org/1999/xlink">
 <defs>
  <style type="text/css">
*{stroke-linecap:butt;stroke-linejoin:round;}
  </style>
 </defs>
 <g id="figure_1">
  <g id="patch_1">
   <path d="M -0 252.317344 
L 368.925 252.317344 
L 368.925 0 
L -0 0 
z
" style="fill:#ffffff;"/>
  </g>
  <g id="axes_1">
   <g id="patch_2">
    <path d="M 26.925 109.835582 
L 179.106818 109.835582 
L 179.106818 10.999219 
L 26.925 10.999219 
z
" style="fill:#ffffff;"/>
   </g>
   <g id="matplotlib.axis_1">
    <g id="xtick_1">
     <g id="line2d_1">
      <defs>
       <path d="M 0 0 
L 0 3.5 
" id="mfb9b410af2" style="stroke:#000000;stroke-width:0.8;"/>
      </defs>
      <g>
       <use style="stroke:#000000;stroke-width:0.8;" x="33.842355" xlink:href="#mfb9b410af2" y="109.835582"/>
      </g>
     </g>
     <g id="text_1">
      <!-- −10 -->
      <defs>
       <path d="M 10.59375 35.5 
L 73.1875 35.5 
L 73.1875 27.203125 
L 10.59375 27.203125 
z
" id="DejaVuSans-8722"/>
       <path d="M 12.40625 8.296875 
L 28.515625 8.296875 
L 28.515625 63.921875 
L 10.984375 60.40625 
L 10.984375 69.390625 
L 28.421875 72.90625 
L 38.28125 72.90625 
L 38.28125 8.296875 
L 54.390625 8.296875 
L 54.390625 0 
L 12.40625 0 
z
" id="DejaVuSans-49"/>
       <path d="M 31.78125 66.40625 
Q 24.171875 66.40625 20.328125 58.90625 
Q 16.5 51.421875 16.5 36.375 
Q 16.5 21.390625 20.328125 13.890625 
Q 24.171875 6.390625 31.78125 6.390625 
Q 39.453125 6.390625 43.28125 13.890625 
Q 47.125 21.390625 47.125 36.375 
Q 47.125 51.421875 43.28125 58.90625 
Q 39.453125 66.40625 31.78125 66.40625 
z
M 31.78125 74.21875 
Q 44.046875 74.21875 50.515625 64.515625 
Q 56.984375 54.828125 56.984375 36.375 
Q 56.984375 17.96875 50.515625 8.265625 
Q 44.046875 -1.421875 31.78125 -1.421875 
Q 19.53125 -1.421875 13.0625 8.265625 
Q 6.59375 17.96875 6.59375 36.375 
Q 6.59375 54.828125 13.0625 64.515625 
Q 19.53125 74.21875 31.78125 74.21875 
z
" id="DejaVuSans-48"/>
      </defs>
      <g transform="translate(23.290012 124.43402)scale(0.1 -0.1)">
       <use xlink:href="#DejaVuSans-8722"/>
       <use x="83.789062" xlink:href="#DejaVuSans-49"/>
       <use x="147.412109" xlink:href="#DejaVuSans-48"/>
      </g>
     </g>
    </g>
    <g id="xtick_2">
     <g id="line2d_2">
      <g>
       <use style="stroke:#000000;stroke-width:0.8;" x="68.429132" xlink:href="#mfb9b410af2" y="109.835582"/>
      </g>
     </g>
     <g id="text_2">
      <!-- 0 -->
      <g transform="translate(65.247882 124.43402)scale(0.1 -0.1)">
       <use xlink:href="#DejaVuSans-48"/>
      </g>
     </g>
    </g>
    <g id="xtick_3">
     <g id="line2d_3">
      <g>
       <use style="stroke:#000000;stroke-width:0.8;" x="103.015909" xlink:href="#mfb9b410af2" y="109.835582"/>
      </g>
     </g>
     <g id="text_3">
      <!-- 10 -->
      <g transform="translate(96.653409 124.43402)scale(0.1 -0.1)">
       <use xlink:href="#DejaVuSans-49"/>
       <use x="63.623047" xlink:href="#DejaVuSans-48"/>
      </g>
     </g>
    </g>
    <g id="xtick_4">
     <g id="line2d_4">
      <g>
       <use style="stroke:#000000;stroke-width:0.8;" x="137.602686" xlink:href="#mfb9b410af2" y="109.835582"/>
      </g>
     </g>
     <g id="text_4">
      <!-- 20 -->
      <defs>
       <path d="M 19.1875 8.296875 
L 53.609375 8.296875 
L 53.609375 0 
L 7.328125 0 
L 7.328125 8.296875 
Q 12.9375 14.109375 22.625 23.890625 
Q 32.328125 33.6875 34.8125 36.53125 
Q 39.546875 41.84375 41.421875 45.53125 
Q 43.3125 49.21875 43.3125 52.78125 
Q 43.3125 58.59375 39.234375 62.25 
Q 35.15625 65.921875 28.609375 65.921875 
Q 23.96875 65.921875 18.8125 64.3125 
Q 13.671875 62.703125 7.8125 59.421875 
L 7.8125 69.390625 
Q 13.765625 71.78125 18.9375 73 
Q 24.125 74.21875 28.421875 74.21875 
Q 39.75 74.21875 46.484375 68.546875 
Q 53.21875 62.890625 53.21875 53.421875 
Q 53.21875 48.921875 51.53125 44.890625 
Q 49.859375 40.875 45.40625 35.40625 
Q 44.1875 33.984375 37.640625 27.21875 
Q 31.109375 20.453125 19.1875 8.296875 
z
" id="DejaVuSans-50"/>
      </defs>
      <g transform="translate(131.240186 124.43402)scale(0.1 -0.1)">
       <use xlink:href="#DejaVuSans-50"/>
       <use x="63.623047" xlink:href="#DejaVuSans-48"/>
      </g>
     </g>
    </g>
    <g id="xtick_5">
     <g id="line2d_5">
      <g>
       <use style="stroke:#000000;stroke-width:0.8;" x="172.189463" xlink:href="#mfb9b410af2" y="109.835582"/>
      </g>
     </g>
     <g id="text_5">
      <!-- 30 -->
      <defs>
       <path d="M 40.578125 39.3125 
Q 47.65625 37.796875 51.625 33 
Q 55.609375 28.21875 55.609375 21.1875 
Q 55.609375 10.40625 48.1875 4.484375 
Q 40.765625 -1.421875 27.09375 -1.421875 
Q 22.515625 -1.421875 17.65625 -0.515625 
Q 12.796875 0.390625 7.625 2.203125 
L 7.625 11.71875 
Q 11.71875 9.328125 16.59375 8.109375 
Q 21.484375 6.890625 26.8125 6.890625 
Q 36.078125 6.890625 40.9375 10.546875 
Q 45.796875 14.203125 45.796875 21.1875 
Q 45.796875 27.640625 41.28125 31.265625 
Q 36.765625 34.90625 28.71875 34.90625 
L 20.21875 34.90625 
L 20.21875 43.015625 
L 29.109375 43.015625 
Q 36.375 43.015625 40.234375 45.921875 
Q 44.09375 48.828125 44.09375 54.296875 
Q 44.09375 59.90625 40.109375 62.90625 
Q 36.140625 65.921875 28.71875 65.921875 
Q 24.65625 65.921875 20.015625 65.03125 
Q 15.375 64.15625 9.8125 62.3125 
L 9.8125 71.09375 
Q 15.4375 72.65625 20.34375 73.4375 
Q 25.25 74.21875 29.59375 74.21875 
Q 40.828125 74.21875 47.359375 69.109375 
Q 53.90625 64.015625 53.90625 55.328125 
Q 53.90625 49.265625 50.4375 45.09375 
Q 46.96875 40.921875 40.578125 39.3125 
z
" id="DejaVuSans-51"/>
      </defs>
      <g transform="translate(165.826963 124.43402)scale(0.1 -0.1)">
       <use xlink:href="#DejaVuSans-51"/>
       <use x="63.623047" xlink:href="#DejaVuSans-48"/>
      </g>
     </g>
    </g>
   </g>
   <g id="matplotlib.axis_2">
    <g id="ytick_1">
     <g id="line2d_6">
      <defs>
       <path d="M 0 0 
L -3.5 0 
" id="m7b87521953" style="stroke:#000000;stroke-width:0.8;"/>
      </defs>
      <g>
       <use style="stroke:#000000;stroke-width:0.8;" x="26.925" xlink:href="#m7b87521953" y="90.06831"/>
      </g>
     </g>
     <g id="text_6">
      <!-- 0 -->
      <g transform="translate(13.5625 93.867528)scale(0.1 -0.1)">
       <use xlink:href="#DejaVuSans-48"/>
      </g>
     </g>
    </g>
    <g id="ytick_2">
     <g id="line2d_7">
      <g>
       <use style="stroke:#000000;stroke-width:0.8;" x="26.925" xlink:href="#m7b87521953" y="50.533764"/>
      </g>
     </g>
     <g id="text_7">
      <!-- 10 -->
      <g transform="translate(7.2 54.332983)scale(0.1 -0.1)">
       <use xlink:href="#DejaVuSans-49"/>
       <use x="63.623047" xlink:href="#DejaVuSans-48"/>
      </g>
     </g>
    </g>
    <g id="ytick_3">
     <g id="line2d_8">
      <g>
       <use style="stroke:#000000;stroke-width:0.8;" x="26.925" xlink:href="#m7b87521953" y="10.999219"/>
      </g>
     </g>
     <g id="text_8">
      <!-- 20 -->
      <g transform="translate(7.2 14.798437)scale(0.1 -0.1)">
       <use xlink:href="#DejaVuSans-50"/>
       <use x="63.623047" xlink:href="#DejaVuSans-48"/>
      </g>
     </g>
    </g>
   </g>
   <g id="line2d_9">
    <path clip-path="url(#p01ec483f64)" d="M 33.842355 79.132092 
L 35.781154 82.182243 
L 37.996923 85.583005 
L 39.243294 87.109658 
L 40.212693 87.993069 
L 41.182092 88.568298 
L 42.013005 88.80474 
L 42.843919 88.809255 
L 43.674832 88.599811 
L 44.644232 88.125202 
L 45.890602 87.251684 
L 49.352742 84.650176 
L 50.322141 84.235141 
L 51.153055 84.079712 
L 51.983968 84.132214 
L 52.814882 84.401451 
L 53.784281 84.983132 
L 54.892166 85.96377 
L 56.277021 87.547057 
L 60.154618 92.257984 
L 61.262503 93.15817 
L 62.231902 93.643557 
L 63.062816 93.809539 
L 63.893729 93.738342 
L 64.724643 93.437527 
L 65.694042 92.823919 
L 66.801927 91.840987 
L 68.463754 90.028727 
L 70.679523 87.636493 
L 71.925893 86.628474 
L 72.895293 86.121789 
L 73.726206 85.911832 
L 74.55712 85.918638 
L 75.388033 86.137813 
L 76.357432 86.638342 
L 77.465317 87.473514 
L 79.26563 89.17244 
L 81.204428 90.943174 
L 82.312313 91.680674 
L 83.281712 92.061108 
L 84.112626 92.152935 
L 84.943539 92.011124 
L 85.774453 91.632533 
L 86.743852 90.905461 
L 87.851737 89.745306 
L 89.236593 87.932359 
L 93.114189 82.61267 
L 94.222074 81.535694 
L 95.191473 80.881457 
L 96.022387 80.553431 
L 96.8533 80.4406 
L 97.684214 80.52981 
L 98.653613 80.854824 
L 99.899983 81.529599 
L 103.362123 83.577587 
L 104.331522 83.830415 
L 105.162436 83.837316 
L 105.993349 83.622773 
L 106.824263 83.173066 
L 107.793662 82.350853 
L 108.763061 81.228973 
L 110.009432 79.418119 
L 111.809744 76.341633 
L 114.440971 71.8632 
L 115.687341 70.147763 
L 116.795226 68.981033 
L 117.764625 68.271047 
L 118.734024 67.853312 
L 119.703423 67.705067 
L 120.672822 67.781442 
L 122.057678 68.151308 
L 124.688904 68.917084 
L 125.658304 68.954943 
L 126.489217 68.795817 
L 127.320131 68.426401 
L 128.151044 67.826922 
L 129.120443 66.827952 
L 130.228328 65.306852 
L 131.474698 63.178395 
L 133.275011 59.58393 
L 136.321694 53.435399 
L 137.70655 51.16478 
L 138.814435 49.740741 
L 139.783834 48.80903 
L 140.753233 48.165264 
L 141.722632 47.779852 
L 142.830517 47.589697 
L 144.492344 47.580994 
L 146.154171 47.530972 
L 147.262056 47.267431 
L 148.231455 46.787835 
L 149.200854 46.022033 
L 150.170254 44.940573 
L 151.278138 43.311641 
L 152.524509 41.016248 
L 154.04785 37.690252 
L 159.033331 26.323471 
L 160.279702 24.198003 
L 161.387587 22.710919 
L 162.495471 21.601967 
L 163.603356 20.829155 
L 164.849726 20.263226 
L 168.727323 18.808422 
L 169.696722 18.089939 
L 170.666121 17.097202 
L 171.63552 15.794612 
L 172.189463 14.905357 
L 172.189463 14.905357 
" style="fill:none;stroke:#1f77b4;stroke-linecap:square;stroke-width:1.5;"/>
   </g>
   <g id="line2d_10">
    <path clip-path="url(#p01ec483f64)" d="M 33.842355 110.023116 
L 172.189463 27.725427 
L 172.189463 27.725427 
" style="fill:none;stroke:#ff7f0e;stroke-linecap:square;stroke-width:1.5;"/>
   </g>
   <g id="line2d_11">
    <path clip-path="url(#p01ec483f64)" d="M 33.842355 77.3623 
L 37.719952 80.102539 
L 41.597549 82.568525 
L 45.33666 84.686704 
L 49.075771 86.549869 
L 52.676396 88.103006 
L 56.277021 89.41967 
L 59.877647 90.49986 
L 63.478272 91.343576 
L 66.940412 91.931835 
L 70.402552 92.301461 
L 73.864692 92.452454 
L 77.326832 92.384814 
L 80.788971 92.09854 
L 84.251111 91.593633 
L 87.713251 90.870093 
L 91.313876 89.885685 
L 94.914502 88.664803 
L 98.515127 87.207448 
L 102.115753 85.513618 
L 105.854864 83.50435 
L 109.593975 81.240069 
L 113.333086 78.720773 
L 117.210682 75.838814 
L 121.088279 72.682601 
L 125.104361 69.124545 
L 129.120443 65.272297 
L 133.275011 60.977628 
L 137.568065 56.209055 
L 141.861118 51.104311 
L 146.292657 45.482286 
L 150.724196 39.502053 
L 155.29422 32.959762 
L 160.002731 25.820783 
L 164.711241 18.27742 
L 169.558237 10.089793 
L 172.189463 5.465628 
L 172.189463 5.465628 
" style="fill:none;stroke:#2ca02c;stroke-linecap:square;stroke-width:1.5;"/>
   </g>
   <g id="line2d_12">
    <path clip-path="url(#p01ec483f64)" d="M 33.842355 86.990595 
L 59.185219 86.990595 
L 59.323704 94.102728 
L 81.758371 94.102728 
L 81.896856 84.893673 
L 130.228328 84.893673 
L 130.366814 29.100109 
L 172.189463 29.100109 
L 172.189463 29.100109 
" style="fill:none;stroke:#d62728;stroke-linecap:square;stroke-width:1.5;"/>
   </g>
   <g id="patch_3">
    <path d="M 26.925 109.835582 
L 26.925 10.999219 
" style="fill:none;stroke:#000000;stroke-linecap:square;stroke-linejoin:miter;stroke-width:0.8;"/>
   </g>
   <g id="patch_4">
    <path d="M 179.106818 109.835582 
L 179.106818 10.999219 
" style="fill:none;stroke:#000000;stroke-linecap:square;stroke-linejoin:miter;stroke-width:0.8;"/>
   </g>
   <g id="patch_5">
    <path d="M 26.925 109.835582 
L 179.106818 109.835582 
" style="fill:none;stroke:#000000;stroke-linecap:square;stroke-linejoin:miter;stroke-width:0.8;"/>
   </g>
   <g id="patch_6">
    <path d="M 26.925 10.999219 
L 179.106818 10.999219 
" style="fill:none;stroke:#000000;stroke-linecap:square;stroke-linejoin:miter;stroke-width:0.8;"/>
   </g>
   <g id="PathCollection_1">
    <defs>
     <path d="M 0 1.118034 
C 0.296506 1.118034 0.580908 1.000231 0.790569 0.790569 
C 1.000231 0.580908 1.118034 0.296506 1.118034 0 
C 1.118034 -0.296506 1.000231 -0.580908 0.790569 -0.790569 
C 0.580908 -1.000231 0.296506 -1.118034 0 -1.118034 
C -0.296506 -1.118034 -0.580908 -1.000231 -0.790569 -0.790569 
C -1.000231 -0.580908 -1.118034 -0.296506 -1.118034 0 
C -1.118034 0.296506 -1.000231 0.580908 -0.790569 0.790569 
C -0.580908 1.000231 -0.296506 1.118034 0 1.118034 
z
" id="madb9224e64" style="stroke:#1f77b4;"/>
    </defs>
    <g clip-path="url(#p01ec483f64)">
     <use style="fill:#1f77b4;stroke:#1f77b4;" x="102.623384" xlink:href="#madb9224e64" y="84.893673"/>
     <use style="fill:#1f77b4;stroke:#1f77b4;" x="60.971951" xlink:href="#madb9224e64" y="94.102728"/>
     <use style="fill:#1f77b4;stroke:#1f77b4;" x="157.920136" xlink:href="#madb9224e64" y="29.100109"/>
     <use style="fill:#1f77b4;stroke:#1f77b4;" x="57.512065" xlink:href="#madb9224e64" y="86.990595"/>
    </g>
   </g>
  </g>
  <g id="axes_2">
   <g id="patch_7">
    <path d="M 209.543182 109.835582 
L 361.725 109.835582 
L 361.725 10.999219 
L 209.543182 10.999219 
z
" style="fill:#ffffff;"/>
   </g>
   <g id="matplotlib.axis_3">
    <g id="xtick_6">
     <g id="line2d_13">
      <g>
       <use style="stroke:#000000;stroke-width:0.8;" x="216.460537" xlink:href="#mfb9b410af2" y="109.835582"/>
      </g>
     </g>
     <g id="text_9">
      <!-- −10 -->
      <g transform="translate(205.908193 124.43402)scale(0.1 -0.1)">
       <use xlink:href="#DejaVuSans-8722"/>
       <use x="83.789062" xlink:href="#DejaVuSans-49"/>
       <use x="147.412109" xlink:href="#DejaVuSans-48"/>
      </g>
     </g>
    </g>
    <g id="xtick_7">
     <g id="line2d_14">
      <g>
       <use style="stroke:#000000;stroke-width:0.8;" x="251.047314" xlink:href="#mfb9b410af2" y="109.835582"/>
      </g>
     </g>
     <g id="text_10">
      <!-- 0 -->
      <g transform="translate(247.866064 124.43402)scale(0.1 -0.1)">
       <use xlink:href="#DejaVuSans-48"/>
      </g>
     </g>
    </g>
    <g id="xtick_8">
     <g id="line2d_15">
      <g>
       <use style="stroke:#000000;stroke-width:0.8;" x="285.634091" xlink:href="#mfb9b410af2" y="109.835582"/>
      </g>
     </g>
     <g id="text_11">
      <!-- 10 -->
      <g transform="translate(279.271591 124.43402)scale(0.1 -0.1)">
       <use xlink:href="#DejaVuSans-49"/>
       <use x="63.623047" xlink:href="#DejaVuSans-48"/>
      </g>
     </g>
    </g>
    <g id="xtick_9">
     <g id="line2d_16">
      <g>
       <use style="stroke:#000000;stroke-width:0.8;" x="320.220868" xlink:href="#mfb9b410af2" y="109.835582"/>
      </g>
     </g>
     <g id="text_12">
      <!-- 20 -->
      <g transform="translate(313.858368 124.43402)scale(0.1 -0.1)">
       <use xlink:href="#DejaVuSans-50"/>
       <use x="63.623047" xlink:href="#DejaVuSans-48"/>
      </g>
     </g>
    </g>
    <g id="xtick_10">
     <g id="line2d_17">
      <g>
       <use style="stroke:#000000;stroke-width:0.8;" x="354.807645" xlink:href="#mfb9b410af2" y="109.835582"/>
      </g>
     </g>
     <g id="text_13">
      <!-- 30 -->
      <g transform="translate(348.445145 124.43402)scale(0.1 -0.1)">
       <use xlink:href="#DejaVuSans-51"/>
       <use x="63.623047" xlink:href="#DejaVuSans-48"/>
      </g>
     </g>
    </g>
   </g>
   <g id="matplotlib.axis_4">
    <g id="ytick_4">
     <g id="line2d_18">
      <g>
       <use style="stroke:#000000;stroke-width:0.8;" x="209.543182" xlink:href="#m7b87521953" y="90.06831"/>
      </g>
     </g>
     <g id="text_14">
      <!-- 0 -->
      <g transform="translate(196.180682 93.867528)scale(0.1 -0.1)">
       <use xlink:href="#DejaVuSans-48"/>
      </g>
     </g>
    </g>
    <g id="ytick_5">
     <g id="line2d_19">
      <g>
       <use style="stroke:#000000;stroke-width:0.8;" x="209.543182" xlink:href="#m7b87521953" y="50.533764"/>
      </g>
     </g>
     <g id="text_15">
      <!-- 10 -->
      <g transform="translate(189.818182 54.332983)scale(0.1 -0.1)">
       <use xlink:href="#DejaVuSans-49"/>
       <use x="63.623047" xlink:href="#DejaVuSans-48"/>
      </g>
     </g>
    </g>
    <g id="ytick_6">
     <g id="line2d_20">
      <g>
       <use style="stroke:#000000;stroke-width:0.8;" x="209.543182" xlink:href="#m7b87521953" y="10.999219"/>
      </g>
     </g>
     <g id="text_16">
      <!-- 20 -->
      <g transform="translate(189.818182 14.798437)scale(0.1 -0.1)">
       <use xlink:href="#DejaVuSans-50"/>
       <use x="63.623047" xlink:href="#DejaVuSans-48"/>
      </g>
     </g>
    </g>
   </g>
   <g id="line2d_21">
    <path clip-path="url(#p0b6626a95f)" d="M 216.460537 79.132092 
L 218.399335 82.182243 
L 220.615105 85.583005 
L 221.861475 87.109658 
L 222.830874 87.993069 
L 223.800274 88.568298 
L 224.631187 88.80474 
L 225.462101 88.809255 
L 226.293014 88.599811 
L 227.262413 88.125202 
L 228.508784 87.251684 
L 231.970924 84.650176 
L 232.940323 84.235141 
L 233.771236 84.079712 
L 234.60215 84.132214 
L 235.433063 84.401451 
L 236.402463 84.983132 
L 237.510347 85.96377 
L 238.895203 87.547057 
L 242.7728 92.257984 
L 243.880685 93.15817 
L 244.850084 93.643557 
L 245.680997 93.809539 
L 246.511911 93.738342 
L 247.342824 93.437527 
L 248.312224 92.823919 
L 249.420108 91.840987 
L 251.081935 90.028727 
L 253.297705 87.636493 
L 254.544075 86.628474 
L 255.513474 86.121789 
L 256.344388 85.911832 
L 257.175302 85.918638 
L 258.006215 86.137813 
L 258.975614 86.638342 
L 260.083499 87.473514 
L 261.883812 89.17244 
L 263.82261 90.943174 
L 264.930495 91.680674 
L 265.899894 92.061108 
L 266.730807 92.152935 
L 267.561721 92.011124 
L 268.392635 91.632533 
L 269.362034 90.905461 
L 270.469918 89.745306 
L 271.854774 87.932359 
L 275.732371 82.61267 
L 276.840256 81.535694 
L 277.809655 80.881457 
L 278.640568 80.553431 
L 279.471482 80.4406 
L 280.302396 80.52981 
L 281.271795 80.854824 
L 282.518165 81.529599 
L 285.980305 83.577587 
L 286.949704 83.830415 
L 287.780618 83.837316 
L 288.611531 83.622773 
L 289.442445 83.173066 
L 290.411844 82.350853 
L 291.381243 81.228973 
L 292.627613 79.418119 
L 294.427926 76.341633 
L 297.059152 71.8632 
L 298.305523 70.147763 
L 299.413407 68.981033 
L 300.382807 68.271047 
L 301.352206 67.853312 
L 302.321605 67.705067 
L 303.291004 67.781442 
L 304.67586 68.151308 
L 307.307086 68.917084 
L 308.276485 68.954943 
L 309.107399 68.795817 
L 309.938312 68.426401 
L 310.769226 67.826922 
L 311.738625 66.827952 
L 312.84651 65.306852 
L 314.09288 63.178395 
L 315.893193 59.58393 
L 318.939876 53.435399 
L 320.324732 51.16478 
L 321.432617 49.740741 
L 322.402016 48.80903 
L 323.371415 48.165264 
L 324.340814 47.779852 
L 325.448699 47.589697 
L 327.110526 47.580994 
L 328.772353 47.530972 
L 329.880238 47.267431 
L 330.849637 46.787835 
L 331.819036 46.022033 
L 332.788435 44.940573 
L 333.89632 43.311641 
L 335.14269 41.016248 
L 336.666032 37.690252 
L 341.651513 26.323471 
L 342.897884 24.198003 
L 344.005768 22.710919 
L 345.113653 21.601967 
L 346.221538 20.829155 
L 347.467908 20.263226 
L 351.345505 18.808422 
L 352.314904 18.089939 
L 353.284303 17.097202 
L 354.253702 15.794612 
L 354.807645 14.905357 
L 354.807645 14.905357 
" style="fill:none;stroke:#1f77b4;stroke-linecap:square;stroke-width:1.5;"/>
   </g>
   <g id="line2d_22">
    <path clip-path="url(#p0b6626a95f)" d="M 216.460537 96.274839 
L 354.807645 44.38484 
L 354.807645 44.38484 
" style="fill:none;stroke:#ff7f0e;stroke-linecap:square;stroke-width:1.5;"/>
   </g>
   <g id="line2d_23">
    <path clip-path="url(#p0b6626a95f)" d="M 216.460537 82.939368 
L 220.892076 84.487504 
L 225.323615 85.801336 
L 229.755154 86.880863 
L 234.186693 87.726086 
L 238.479746 88.32146 
L 242.7728 88.696945 
L 247.065853 88.85254 
L 251.358907 88.788247 
L 255.65196 88.504064 
L 259.945013 87.999991 
L 264.238067 87.27603 
L 268.53112 86.332179 
L 272.962659 85.127238 
L 277.394198 83.687993 
L 281.825737 82.014443 
L 286.257276 80.106589 
L 290.827301 77.893713 
L 295.397325 75.431659 
L 299.96735 72.720428 
L 304.67586 69.666421 
L 309.38437 66.347905 
L 314.231366 62.655495 
L 319.078362 58.682789 
L 324.063843 54.304154 
L 329.049324 49.628978 
L 334.173291 44.514924 
L 339.297258 39.087625 
L 344.559711 33.187583 
L 349.960649 26.788715 
L 354.807645 20.749828 
L 354.807645 20.749828 
" style="fill:none;stroke:#2ca02c;stroke-linecap:square;stroke-width:1.5;"/>
   </g>
   <g id="line2d_24">
    <path clip-path="url(#p0b6626a95f)" d="M 216.460537 85.166008 
L 220.476619 85.166008 
L 220.615105 86.036513 
L 228.924241 86.036513 
L 229.062726 85.415441 
L 244.573113 85.415441 
L 244.711598 86.272265 
L 254.682561 86.272265 
L 254.821046 85.85658 
L 260.221985 85.85658 
L 260.36047 92.98798 
L 271.162346 92.98798 
L 271.300832 81.439129 
L 295.120354 81.439129 
L 295.25884 67.64076 
L 322.125045 67.64076 
L 322.26353 45.801832 
L 334.727234 45.801832 
L 334.865719 40.529955 
L 354.807645 40.529955 
L 354.807645 40.529955 
" style="fill:none;stroke:#d62728;stroke-linecap:square;stroke-width:1.5;"/>
   </g>
   <g id="patch_8">
    <path d="M 209.543182 109.835582 
L 209.543182 10.999219 
" style="fill:none;stroke:#000000;stroke-linecap:square;stroke-linejoin:miter;stroke-width:0.8;"/>
   </g>
   <g id="patch_9">
    <path d="M 361.725 109.835582 
L 361.725 10.999219 
" style="fill:none;stroke:#000000;stroke-linecap:square;stroke-linejoin:miter;stroke-width:0.8;"/>
   </g>
   <g id="patch_10">
    <path d="M 209.543182 109.835582 
L 361.725 109.835582 
" style="fill:none;stroke:#000000;stroke-linecap:square;stroke-linejoin:miter;stroke-width:0.8;"/>
   </g>
   <g id="patch_11">
    <path d="M 209.543182 10.999219 
L 361.725 10.999219 
" style="fill:none;stroke:#000000;stroke-linecap:square;stroke-linejoin:miter;stroke-width:0.8;"/>
   </g>
   <g id="PathCollection_2">
    <g clip-path="url(#p0b6626a95f)">
     <use style="fill:#1f77b4;stroke:#1f77b4;" x="252.18945" xlink:href="#madb9224e64" y="86.272265"/>
     <use style="fill:#1f77b4;stroke:#1f77b4;" x="220.372191" xlink:href="#madb9224e64" y="85.166008"/>
     <use style="fill:#1f77b4;stroke:#1f77b4;" x="263.172944" xlink:href="#madb9224e64" y="92.98798"/>
     <use style="fill:#1f77b4;stroke:#1f77b4;" x="237.165773" xlink:href="#madb9224e64" y="85.415441"/>
     <use style="fill:#1f77b4;stroke:#1f77b4;" x="336.393611" xlink:href="#madb9224e64" y="40.529955"/>
     <use style="fill:#1f77b4;stroke:#1f77b4;" x="257.429521" xlink:href="#madb9224e64" y="85.85658"/>
     <use style="fill:#1f77b4;stroke:#1f77b4;" x="311.151182" xlink:href="#madb9224e64" y="67.64076"/>
     <use style="fill:#1f77b4;stroke:#1f77b4;" x="220.69624" xlink:href="#madb9224e64" y="86.036513"/>
     <use style="fill:#1f77b4;stroke:#1f77b4;" x="279.258475" xlink:href="#madb9224e64" y="81.439129"/>
     <use style="fill:#1f77b4;stroke:#1f77b4;" x="333.139969" xlink:href="#madb9224e64" y="45.801832"/>
    </g>
   </g>
  </g>
  <g id="axes_3">
   <g id="patch_12">
    <path d="M 26.925 228.439219 
L 179.106818 228.439219 
L 179.106818 129.602855 
L 26.925 129.602855 
z
" style="fill:#ffffff;"/>
   </g>
   <g id="matplotlib.axis_5">
    <g id="xtick_11">
     <g id="line2d_25">
      <g>
       <use style="stroke:#000000;stroke-width:0.8;" x="33.842355" xlink:href="#mfb9b410af2" y="228.439219"/>
      </g>
     </g>
     <g id="text_17">
      <!-- −10 -->
      <g transform="translate(23.290012 243.037656)scale(0.1 -0.1)">
       <use xlink:href="#DejaVuSans-8722"/>
       <use x="83.789062" xlink:href="#DejaVuSans-49"/>
       <use x="147.412109" xlink:href="#DejaVuSans-48"/>
      </g>
     </g>
    </g>
    <g id="xtick_12">
     <g id="line2d_26">
      <g>
       <use style="stroke:#000000;stroke-width:0.8;" x="68.429132" xlink:href="#mfb9b410af2" y="228.439219"/>
      </g>
     </g>
     <g id="text_18">
      <!-- 0 -->
      <g transform="translate(65.247882 243.037656)scale(0.1 -0.1)">
       <use xlink:href="#DejaVuSans-48"/>
      </g>
     </g>
    </g>
    <g id="xtick_13">
     <g id="line2d_27">
      <g>
       <use style="stroke:#000000;stroke-width:0.8;" x="103.015909" xlink:href="#mfb9b410af2" y="228.439219"/>
      </g>
     </g>
     <g id="text_19">
      <!-- 10 -->
      <g transform="translate(96.653409 243.037656)scale(0.1 -0.1)">
       <use xlink:href="#DejaVuSans-49"/>
       <use x="63.623047" xlink:href="#DejaVuSans-48"/>
      </g>
     </g>
    </g>
    <g id="xtick_14">
     <g id="line2d_28">
      <g>
       <use style="stroke:#000000;stroke-width:0.8;" x="137.602686" xlink:href="#mfb9b410af2" y="228.439219"/>
      </g>
     </g>
     <g id="text_20">
      <!-- 20 -->
      <g transform="translate(131.240186 243.037656)scale(0.1 -0.1)">
       <use xlink:href="#DejaVuSans-50"/>
       <use x="63.623047" xlink:href="#DejaVuSans-48"/>
      </g>
     </g>
    </g>
    <g id="xtick_15">
     <g id="line2d_29">
      <g>
       <use style="stroke:#000000;stroke-width:0.8;" x="172.189463" xlink:href="#mfb9b410af2" y="228.439219"/>
      </g>
     </g>
     <g id="text_21">
      <!-- 30 -->
      <g transform="translate(165.826963 243.037656)scale(0.1 -0.1)">
       <use xlink:href="#DejaVuSans-51"/>
       <use x="63.623047" xlink:href="#DejaVuSans-48"/>
      </g>
     </g>
    </g>
   </g>
   <g id="matplotlib.axis_6">
    <g id="ytick_7">
     <g id="line2d_30">
      <g>
       <use style="stroke:#000000;stroke-width:0.8;" x="26.925" xlink:href="#m7b87521953" y="208.671946"/>
      </g>
     </g>
     <g id="text_22">
      <!-- 0 -->
      <g transform="translate(13.5625 212.471165)scale(0.1 -0.1)">
       <use xlink:href="#DejaVuSans-48"/>
      </g>
     </g>
    </g>
    <g id="ytick_8">
     <g id="line2d_31">
      <g>
       <use style="stroke:#000000;stroke-width:0.8;" x="26.925" xlink:href="#m7b87521953" y="169.137401"/>
      </g>
     </g>
     <g id="text_23">
      <!-- 10 -->
      <g transform="translate(7.2 172.936619)scale(0.1 -0.1)">
       <use xlink:href="#DejaVuSans-49"/>
       <use x="63.623047" xlink:href="#DejaVuSans-48"/>
      </g>
     </g>
    </g>
    <g id="ytick_9">
     <g id="line2d_32">
      <g>
       <use style="stroke:#000000;stroke-width:0.8;" x="26.925" xlink:href="#m7b87521953" y="129.602855"/>
      </g>
     </g>
     <g id="text_24">
      <!-- 20 -->
      <g transform="translate(7.2 133.402074)scale(0.1 -0.1)">
       <use xlink:href="#DejaVuSans-50"/>
       <use x="63.623047" xlink:href="#DejaVuSans-48"/>
      </g>
     </g>
    </g>
   </g>
   <g id="line2d_33">
    <path clip-path="url(#pda8d3990ed)" d="M 33.842355 197.735729 
L 35.781154 200.78588 
L 37.996923 204.186641 
L 39.243294 205.713294 
L 40.212693 206.596706 
L 41.182092 207.171934 
L 42.013005 207.408377 
L 42.843919 207.412892 
L 43.674832 207.203447 
L 44.644232 206.728839 
L 45.890602 205.855321 
L 49.352742 203.253813 
L 50.322141 202.838777 
L 51.153055 202.683348 
L 51.983968 202.73585 
L 52.814882 203.005087 
L 53.784281 203.586768 
L 54.892166 204.567407 
L 56.277021 206.150694 
L 60.154618 210.86162 
L 61.262503 211.761806 
L 62.231902 212.247193 
L 63.062816 212.413175 
L 63.893729 212.341979 
L 64.724643 212.041163 
L 65.694042 211.427555 
L 66.801927 210.444624 
L 68.463754 208.632364 
L 70.679523 206.240129 
L 71.925893 205.232111 
L 72.895293 204.725425 
L 73.726206 204.515468 
L 74.55712 204.522275 
L 75.388033 204.741449 
L 76.357432 205.241978 
L 77.465317 206.07715 
L 79.26563 207.776076 
L 81.204428 209.546811 
L 82.312313 210.28431 
L 83.281712 210.664744 
L 84.112626 210.756572 
L 84.943539 210.61476 
L 85.774453 210.23617 
L 86.743852 209.509098 
L 87.851737 208.348942 
L 89.236593 206.535996 
L 93.114189 201.216306 
L 94.222074 200.13933 
L 95.191473 199.485093 
L 96.022387 199.157067 
L 96.8533 199.044236 
L 97.684214 199.133446 
L 98.653613 199.458461 
L 99.899983 200.133236 
L 103.362123 202.181223 
L 104.331522 202.434051 
L 105.162436 202.440952 
L 105.993349 202.226409 
L 106.824263 201.776702 
L 107.793662 200.954489 
L 108.763061 199.832609 
L 110.009432 198.021755 
L 111.809744 194.94527 
L 114.440971 190.466836 
L 115.687341 188.751399 
L 116.795226 187.58467 
L 117.764625 186.874683 
L 118.734024 186.456948 
L 119.703423 186.308704 
L 120.672822 186.385079 
L 122.057678 186.754944 
L 124.688904 187.52072 
L 125.658304 187.558579 
L 126.489217 187.399453 
L 127.320131 187.030038 
L 128.151044 186.430558 
L 129.120443 185.431588 
L 130.228328 183.910488 
L 131.474698 181.782031 
L 133.275011 178.187566 
L 136.321694 172.039035 
L 137.70655 169.768416 
L 138.814435 168.344377 
L 139.783834 167.412667 
L 140.753233 166.7689 
L 141.722632 166.383488 
L 142.830517 166.193333 
L 144.492344 166.184631 
L 146.154171 166.134609 
L 147.262056 165.871068 
L 148.231455 165.391471 
L 149.200854 164.62567 
L 150.170254 163.544209 
L 151.278138 161.915277 
L 152.524509 159.619885 
L 154.04785 156.293888 
L 159.033331 144.927107 
L 160.279702 142.801639 
L 161.387587 141.314555 
L 162.495471 140.205603 
L 163.603356 139.432792 
L 164.849726 138.866862 
L 168.727323 137.412059 
L 169.696722 136.693576 
L 170.666121 135.700838 
L 171.63552 134.398249 
L 172.189463 133.508993 
L 172.189463 133.508993 
" style="fill:none;stroke:#1f77b4;stroke-linecap:square;stroke-width:1.5;"/>
   </g>
   <g id="line2d_34">
    <path clip-path="url(#pda8d3990ed)" d="M 33.842355 227.231187 
L 172.189463 149.798045 
L 172.189463 149.798045 
" style="fill:none;stroke:#ff7f0e;stroke-linecap:square;stroke-width:1.5;"/>
   </g>
   <g id="line2d_35">
    <path clip-path="url(#pda8d3990ed)" d="M 33.842355 201.259015 
L 37.996923 203.049797 
L 42.151491 204.596265 
L 46.167573 205.85895 
L 50.183655 206.893337 
L 54.199738 207.699425 
L 58.21582 208.277216 
L 62.231902 208.626709 
L 66.247984 208.747904 
L 70.264066 208.6408 
L 74.280149 208.305399 
L 78.296231 207.7417 
L 82.312313 206.949702 
L 86.328395 205.929407 
L 90.344477 204.680814 
L 94.36056 203.203922 
L 98.515127 201.435861 
L 102.669695 199.423486 
L 106.824263 197.166797 
L 111.117316 194.578219 
L 115.41037 191.728768 
L 119.841909 188.513767 
L 124.273448 185.020791 
L 128.843472 181.127519 
L 133.413497 176.938626 
L 138.122007 172.313605 
L 142.830517 167.374775 
L 147.677513 161.962897 
L 152.524509 156.218481 
L 157.50999 149.963012 
L 162.633957 143.167173 
L 167.757924 135.999706 
L 172.189463 129.501123 
L 172.189463 129.501123 
" style="fill:none;stroke:#2ca02c;stroke-linecap:square;stroke-width:1.5;"/>
   </g>
   <g id="line2d_36">
    <path clip-path="url(#pda8d3990ed)" d="M 33.842355 207.090892 
L 46.998487 207.090892 
L 47.136972 204.334115 
L 56.969449 204.334115 
L 57.107935 210.677997 
L 69.017696 210.677997 
L 69.156182 206.320431 
L 74.695605 206.320431 
L 74.834091 204.286177 
L 80.512 204.286177 
L 80.650486 209.681777 
L 87.297794 209.681777 
L 87.43628 206.790246 
L 93.39116 206.790246 
L 93.529646 201.36279 
L 105.02395 201.36279 
L 105.162436 194.524845 
L 119.287966 194.524845 
L 119.426452 186.649461 
L 132.582583 186.649461 
L 132.721069 167.14965 
L 138.95292 167.14965 
L 139.091406 165.562524 
L 139.783834 165.562524 
L 139.92232 168.140625 
L 142.276575 168.140625 
L 142.41506 163.830042 
L 146.431143 163.830042 
L 146.569628 164.415581 
L 149.754797 164.415581 
L 149.893282 160.234941 
L 151.555109 160.234941 
L 151.693595 159.582551 
L 152.524509 159.582551 
L 152.662994 160.963159 
L 154.463307 160.963159 
L 154.601792 151.818637 
L 158.340904 151.818637 
L 158.479389 140.849234 
L 172.189463 140.849234 
L 172.189463 140.849234 
" style="fill:none;stroke:#d62728;stroke-linecap:square;stroke-width:1.5;"/>
   </g>
   <g id="patch_13">
    <path d="M 26.925 228.439219 
L 26.925 129.602855 
" style="fill:none;stroke:#000000;stroke-linecap:square;stroke-linejoin:miter;stroke-width:0.8;"/>
   </g>
   <g id="patch_14">
    <path d="M 179.106818 228.439219 
L 179.106818 129.602855 
" style="fill:none;stroke:#000000;stroke-linecap:square;stroke-linejoin:miter;stroke-width:0.8;"/>
   </g>
   <g id="patch_15">
    <path d="M 26.925 228.439219 
L 179.106818 228.439219 
" style="fill:none;stroke:#000000;stroke-linecap:square;stroke-linejoin:miter;stroke-width:0.8;"/>
   </g>
   <g id="patch_16">
    <path d="M 26.925 129.602855 
L 179.106818 129.602855 
" style="fill:none;stroke:#000000;stroke-linecap:square;stroke-linejoin:miter;stroke-width:0.8;"/>
   </g>
   <g id="PathCollection_3">
    <g clip-path="url(#pda8d3990ed)">
     <use style="fill:#1f77b4;stroke:#1f77b4;" x="151.909051" xlink:href="#madb9224e64" y="159.582551"/>
     <use style="fill:#1f77b4;stroke:#1f77b4;" x="86.228059" xlink:href="#madb9224e64" y="209.681777"/>
     <use style="fill:#1f77b4;stroke:#1f77b4;" x="50.74225" xlink:href="#madb9224e64" y="204.334115"/>
     <use style="fill:#1f77b4;stroke:#1f77b4;" x="153.396287" xlink:href="#madb9224e64" y="160.963159"/>
     <use style="fill:#1f77b4;stroke:#1f77b4;" x="155.671857" xlink:href="#madb9224e64" y="151.818637"/>
     <use style="fill:#1f77b4;stroke:#1f77b4;" x="139.499819" xlink:href="#madb9224e64" y="165.562524"/>
     <use style="fill:#1f77b4;stroke:#1f77b4;" x="138.52248" xlink:href="#madb9224e64" y="167.14965"/>
     <use style="fill:#1f77b4;stroke:#1f77b4;" x="151.288776" xlink:href="#madb9224e64" y="160.234941"/>
     <use style="fill:#1f77b4;stroke:#1f77b4;" x="161.027636" xlink:href="#madb9224e64" y="140.849234"/>
     <use style="fill:#1f77b4;stroke:#1f77b4;" x="88.590708" xlink:href="#madb9224e64" y="206.790246"/>
     <use style="fill:#1f77b4;stroke:#1f77b4;" x="144.649147" xlink:href="#madb9224e64" y="163.830042"/>
     <use style="fill:#1f77b4;stroke:#1f77b4;" x="98.280608" xlink:href="#madb9224e64" y="201.36279"/>
     <use style="fill:#1f77b4;stroke:#1f77b4;" x="43.389897" xlink:href="#madb9224e64" y="207.090892"/>
     <use style="fill:#1f77b4;stroke:#1f77b4;" x="74.861794" xlink:href="#madb9224e64" y="204.286177"/>
     <use style="fill:#1f77b4;stroke:#1f77b4;" x="148.237937" xlink:href="#madb9224e64" y="164.415581"/>
     <use style="fill:#1f77b4;stroke:#1f77b4;" x="63.432016" xlink:href="#madb9224e64" y="210.677997"/>
     <use style="fill:#1f77b4;stroke:#1f77b4;" x="140.110108" xlink:href="#madb9224e64" y="168.140625"/>
     <use style="fill:#1f77b4;stroke:#1f77b4;" x="74.751428" xlink:href="#madb9224e64" y="206.320431"/>
     <use style="fill:#1f77b4;stroke:#1f77b4;" x="126.722072" xlink:href="#madb9224e64" y="186.649461"/>
     <use style="fill:#1f77b4;stroke:#1f77b4;" x="111.897572" xlink:href="#madb9224e64" y="194.524845"/>
    </g>
   </g>
  </g>
  <g id="axes_4">
   <g id="patch_17">
    <path d="M 209.543182 228.439219 
L 361.725 228.439219 
L 361.725 129.602855 
L 209.543182 129.602855 
z
" style="fill:#ffffff;"/>
   </g>
   <g id="matplotlib.axis_7">
    <g id="xtick_16">
     <g id="line2d_37">
      <g>
       <use style="stroke:#000000;stroke-width:0.8;" x="216.460537" xlink:href="#mfb9b410af2" y="228.439219"/>
      </g>
     </g>
     <g id="text_25">
      <!-- −10 -->
      <g transform="translate(205.908193 243.037656)scale(0.1 -0.1)">
       <use xlink:href="#DejaVuSans-8722"/>
       <use x="83.789062" xlink:href="#DejaVuSans-49"/>
       <use x="147.412109" xlink:href="#DejaVuSans-48"/>
      </g>
     </g>
    </g>
    <g id="xtick_17">
     <g id="line2d_38">
      <g>
       <use style="stroke:#000000;stroke-width:0.8;" x="251.047314" xlink:href="#mfb9b410af2" y="228.439219"/>
      </g>
     </g>
     <g id="text_26">
      <!-- 0 -->
      <g transform="translate(247.866064 243.037656)scale(0.1 -0.1)">
       <use xlink:href="#DejaVuSans-48"/>
      </g>
     </g>
    </g>
    <g id="xtick_18">
     <g id="line2d_39">
      <g>
       <use style="stroke:#000000;stroke-width:0.8;" x="285.634091" xlink:href="#mfb9b410af2" y="228.439219"/>
      </g>
     </g>
     <g id="text_27">
      <!-- 10 -->
      <g transform="translate(279.271591 243.037656)scale(0.1 -0.1)">
       <use xlink:href="#DejaVuSans-49"/>
       <use x="63.623047" xlink:href="#DejaVuSans-48"/>
      </g>
     </g>
    </g>
    <g id="xtick_19">
     <g id="line2d_40">
      <g>
       <use style="stroke:#000000;stroke-width:0.8;" x="320.220868" xlink:href="#mfb9b410af2" y="228.439219"/>
      </g>
     </g>
     <g id="text_28">
      <!-- 20 -->
      <g transform="translate(313.858368 243.037656)scale(0.1 -0.1)">
       <use xlink:href="#DejaVuSans-50"/>
       <use x="63.623047" xlink:href="#DejaVuSans-48"/>
      </g>
     </g>
    </g>
    <g id="xtick_20">
     <g id="line2d_41">
      <g>
       <use style="stroke:#000000;stroke-width:0.8;" x="354.807645" xlink:href="#mfb9b410af2" y="228.439219"/>
      </g>
     </g>
     <g id="text_29">
      <!-- 30 -->
      <g transform="translate(348.445145 243.037656)scale(0.1 -0.1)">
       <use xlink:href="#DejaVuSans-51"/>
       <use x="63.623047" xlink:href="#DejaVuSans-48"/>
      </g>
     </g>
    </g>
   </g>
   <g id="matplotlib.axis_8">
    <g id="ytick_10">
     <g id="line2d_42">
      <g>
       <use style="stroke:#000000;stroke-width:0.8;" x="209.543182" xlink:href="#m7b87521953" y="208.671946"/>
      </g>
     </g>
     <g id="text_30">
      <!-- 0 -->
      <g transform="translate(196.180682 212.471165)scale(0.1 -0.1)">
       <use xlink:href="#DejaVuSans-48"/>
      </g>
     </g>
    </g>
    <g id="ytick_11">
     <g id="line2d_43">
      <g>
       <use style="stroke:#000000;stroke-width:0.8;" x="209.543182" xlink:href="#m7b87521953" y="169.137401"/>
      </g>
     </g>
     <g id="text_31">
      <!-- 10 -->
      <g transform="translate(189.818182 172.936619)scale(0.1 -0.1)">
       <use xlink:href="#DejaVuSans-49"/>
       <use x="63.623047" xlink:href="#DejaVuSans-48"/>
      </g>
     </g>
    </g>
    <g id="ytick_12">
     <g id="line2d_44">
      <g>
       <use style="stroke:#000000;stroke-width:0.8;" x="209.543182" xlink:href="#m7b87521953" y="129.602855"/>
      </g>
     </g>
     <g id="text_32">
      <!-- 20 -->
      <g transform="translate(189.818182 133.402074)scale(0.1 -0.1)">
       <use xlink:href="#DejaVuSans-50"/>
       <use x="63.623047" xlink:href="#DejaVuSans-48"/>
      </g>
     </g>
    </g>
   </g>
   <g id="line2d_45">
    <path clip-path="url(#p776fc51d5e)" d="M 216.460537 197.735729 
L 218.399335 200.78588 
L 220.615105 204.186641 
L 221.861475 205.713294 
L 222.830874 206.596706 
L 223.800274 207.171934 
L 224.631187 207.408377 
L 225.462101 207.412892 
L 226.293014 207.203447 
L 227.262413 206.728839 
L 228.508784 205.855321 
L 231.970924 203.253813 
L 232.940323 202.838777 
L 233.771236 202.683348 
L 234.60215 202.73585 
L 235.433063 203.005087 
L 236.402463 203.586768 
L 237.510347 204.567407 
L 238.895203 206.150694 
L 242.7728 210.86162 
L 243.880685 211.761806 
L 244.850084 212.247193 
L 245.680997 212.413175 
L 246.511911 212.341979 
L 247.342824 212.041163 
L 248.312224 211.427555 
L 249.420108 210.444624 
L 251.081935 208.632364 
L 253.297705 206.240129 
L 254.544075 205.232111 
L 255.513474 204.725425 
L 256.344388 204.515468 
L 257.175302 204.522275 
L 258.006215 204.741449 
L 258.975614 205.241978 
L 260.083499 206.07715 
L 261.883812 207.776076 
L 263.82261 209.546811 
L 264.930495 210.28431 
L 265.899894 210.664744 
L 266.730807 210.756572 
L 267.561721 210.61476 
L 268.392635 210.23617 
L 269.362034 209.509098 
L 270.469918 208.348942 
L 271.854774 206.535996 
L 275.732371 201.216306 
L 276.840256 200.13933 
L 277.809655 199.485093 
L 278.640568 199.157067 
L 279.471482 199.044236 
L 280.302396 199.133446 
L 281.271795 199.458461 
L 282.518165 200.133236 
L 285.980305 202.181223 
L 286.949704 202.434051 
L 287.780618 202.440952 
L 288.611531 202.226409 
L 289.442445 201.776702 
L 290.411844 200.954489 
L 291.381243 199.832609 
L 292.627613 198.021755 
L 294.427926 194.94527 
L 297.059152 190.466836 
L 298.305523 188.751399 
L 299.413407 187.58467 
L 300.382807 186.874683 
L 301.352206 186.456948 
L 302.321605 186.308704 
L 303.291004 186.385079 
L 304.67586 186.754944 
L 307.307086 187.52072 
L 308.276485 187.558579 
L 309.107399 187.399453 
L 309.938312 187.030038 
L 310.769226 186.430558 
L 311.738625 185.431588 
L 312.84651 183.910488 
L 314.09288 181.782031 
L 315.893193 178.187566 
L 318.939876 172.039035 
L 320.324732 169.768416 
L 321.432617 168.344377 
L 322.402016 167.412667 
L 323.371415 166.7689 
L 324.340814 166.383488 
L 325.448699 166.193333 
L 327.110526 166.184631 
L 328.772353 166.134609 
L 329.880238 165.871068 
L 330.849637 165.391471 
L 331.819036 164.62567 
L 332.788435 163.544209 
L 333.89632 161.915277 
L 335.14269 159.619885 
L 336.666032 156.293888 
L 341.651513 144.927107 
L 342.897884 142.801639 
L 344.005768 141.314555 
L 345.113653 140.205603 
L 346.221538 139.432792 
L 347.467908 138.866862 
L 351.345505 137.412059 
L 352.314904 136.693576 
L 353.284303 135.700838 
L 354.253702 134.398249 
L 354.807645 133.508993 
L 354.807645 133.508993 
" style="fill:none;stroke:#1f77b4;stroke-linecap:square;stroke-width:1.5;"/>
   </g>
   <g id="line2d_46">
    <path clip-path="url(#p776fc51d5e)" d="M 216.460537 222.201836 
L 354.807645 160.754848 
L 354.807645 160.754848 
" style="fill:none;stroke:#ff7f0e;stroke-linecap:square;stroke-width:1.5;"/>
   </g>
   <g id="line2d_47">
    <path clip-path="url(#p776fc51d5e)" d="M 216.460537 199.588047 
L 220.615105 201.521365 
L 224.769673 203.210706 
L 228.924241 204.65607 
L 232.940323 205.821341 
L 236.956405 206.758628 
L 240.972487 207.467933 
L 244.988569 207.949255 
L 249.004652 208.202593 
L 253.020734 208.227949 
L 257.036816 208.025321 
L 261.052898 207.594711 
L 265.06898 206.936117 
L 269.085063 206.04954 
L 273.101145 204.93498 
L 277.117227 203.592437 
L 281.271795 201.963688 
L 285.426363 200.090963 
L 289.58093 197.97426 
L 293.873984 195.530689 
L 298.167037 192.826604 
L 302.46009 189.862006 
L 306.891629 186.528522 
L 311.323168 182.917446 
L 315.893193 178.902784 
L 320.463218 174.59291 
L 325.171728 169.843667 
L 329.880238 164.781049 
L 334.727234 159.242194 
L 339.712715 153.198639 
L 344.698196 146.803757 
L 349.822163 139.865138 
L 354.807645 132.757842 
L 354.807645 132.757842 
" style="fill:none;stroke:#2ca02c;stroke-linecap:square;stroke-width:1.5;"/>
   </g>
   <g id="line2d_48">
    <path clip-path="url(#p776fc51d5e)" d="M 216.460537 203.804718 
L 222.96936 203.804718 
L 223.107846 207.513294 
L 226.293014 207.513294 
L 226.4315 206.779812 
L 231.14001 206.779812 
L 231.278496 202.677549 
L 233.909722 202.677549 
L 234.048208 203.165628 
L 235.571549 203.165628 
L 235.710035 202.608143 
L 238.895203 202.608143 
L 239.033689 211.292335 
L 244.988569 211.292335 
L 245.127055 209.798285 
L 250.112536 209.798285 
L 250.251022 207.881627 
L 253.159219 207.881627 
L 253.297705 207.518351 
L 255.65196 207.518351 
L 255.790446 204.351343 
L 257.729244 204.351343 
L 257.86773 205.258579 
L 259.529557 205.258579 
L 259.668042 205.474795 
L 261.052898 205.474795 
L 261.191384 206.638304 
L 261.883812 206.638304 
L 262.022297 208.697428 
L 265.06898 208.697428 
L 265.207466 209.910081 
L 269.362034 209.910081 
L 269.500519 208.025491 
L 271.023861 208.025491 
L 271.162346 206.498252 
L 272.962659 206.498252 
L 273.101145 203.585297 
L 275.732371 203.585297 
L 275.870857 199.18102 
L 278.225112 199.18102 
L 278.363597 199.999296 
L 282.241194 199.999296 
L 282.379679 201.147939 
L 286.257276 201.147939 
L 286.395762 202.160199 
L 290.827301 202.160199 
L 290.965786 194.922042 
L 294.843383 194.922042 
L 294.981868 194.131629 
L 296.643696 194.131629 
L 296.782181 189.350861 
L 301.075235 189.350861 
L 301.21372 188.171205 
L 305.091317 188.171205 
L 305.229802 186.301443 
L 306.337687 186.301443 
L 306.476173 187.529652 
L 307.584057 187.529652 
L 307.722543 188.748975 
L 308.691942 188.748975 
L 308.830428 187.912925 
L 310.353769 187.912925 
L 310.492255 186.051077 
L 311.738625 186.051077 
L 311.877111 184.35988 
L 317.693506 184.35988 
L 317.831991 167.846074 
L 327.110526 167.846074 
L 327.249012 163.921178 
L 331.819036 163.921178 
L 331.957522 161.890917 
L 332.788435 161.890917 
L 332.926921 162.806308 
L 334.311777 162.806308 
L 334.450262 157.007389 
L 335.973604 157.007389 
L 336.11209 160.82796 
L 340.682114 160.82796 
L 340.8206 140.352011 
L 354.807645 140.352011 
L 354.807645 140.352011 
" style="fill:none;stroke:#d62728;stroke-linecap:square;stroke-width:1.5;"/>
   </g>
   <g id="patch_18">
    <path d="M 209.543182 228.439219 
L 209.543182 129.602855 
" style="fill:none;stroke:#000000;stroke-linecap:square;stroke-linejoin:miter;stroke-width:0.8;"/>
   </g>
   <g id="patch_19">
    <path d="M 361.725 228.439219 
L 361.725 129.602855 
" style="fill:none;stroke:#000000;stroke-linecap:square;stroke-linejoin:miter;stroke-width:0.8;"/>
   </g>
   <g id="patch_20">
    <path d="M 209.543182 228.439219 
L 361.725 228.439219 
" style="fill:none;stroke:#000000;stroke-linecap:square;stroke-linejoin:miter;stroke-width:0.8;"/>
   </g>
   <g id="patch_21">
    <path d="M 209.543182 129.602855 
L 361.725 129.602855 
" style="fill:none;stroke:#000000;stroke-linecap:square;stroke-linejoin:miter;stroke-width:0.8;"/>
   </g>
   <g id="PathCollection_4">
    <g clip-path="url(#p776fc51d5e)">
     <use style="fill:#1f77b4;stroke:#1f77b4;" x="222.973504" xlink:href="#madb9224e64" y="203.804718"/>
     <use style="fill:#1f77b4;stroke:#1f77b4;" x="258.628998" xlink:href="#madb9224e64" y="205.258579"/>
     <use style="fill:#1f77b4;stroke:#1f77b4;" x="223.0135" xlink:href="#madb9224e64" y="207.513294"/>
     <use style="fill:#1f77b4;stroke:#1f77b4;" x="251.941143" xlink:href="#madb9224e64" y="207.881627"/>
     <use style="fill:#1f77b4;stroke:#1f77b4;" x="268.381943" xlink:href="#madb9224e64" y="209.910081"/>
     <use style="fill:#1f77b4;stroke:#1f77b4;" x="332.904162" xlink:href="#madb9224e64" y="162.806308"/>
     <use style="fill:#1f77b4;stroke:#1f77b4;" x="285.335101" xlink:href="#madb9224e64" y="201.147939"/>
     <use style="fill:#1f77b4;stroke:#1f77b4;" x="309.388717" xlink:href="#madb9224e64" y="187.912925"/>
     <use style="fill:#1f77b4;stroke:#1f77b4;" x="260.537131" xlink:href="#madb9224e64" y="205.474795"/>
     <use style="fill:#1f77b4;stroke:#1f77b4;" x="235.403624" xlink:href="#madb9224e64" y="203.165628"/>
     <use style="fill:#1f77b4;stroke:#1f77b4;" x="248.287825" xlink:href="#madb9224e64" y="209.798285"/>
     <use style="fill:#1f77b4;stroke:#1f77b4;" x="279.260253" xlink:href="#madb9224e64" y="199.999296"/>
     <use style="fill:#1f77b4;stroke:#1f77b4;" x="256.982557" xlink:href="#madb9224e64" y="204.351343"/>
     <use style="fill:#1f77b4;stroke:#1f77b4;" x="236.003182" xlink:href="#madb9224e64" y="202.608143"/>
     <use style="fill:#1f77b4;stroke:#1f77b4;" x="332.866437" xlink:href="#madb9224e64" y="161.890917"/>
     <use style="fill:#1f77b4;stroke:#1f77b4;" x="297.926136" xlink:href="#madb9224e64" y="189.350861"/>
     <use style="fill:#1f77b4;stroke:#1f77b4;" x="261.770933" xlink:href="#madb9224e64" y="206.638304"/>
     <use style="fill:#1f77b4;stroke:#1f77b4;" x="335.878935" xlink:href="#madb9224e64" y="157.007389"/>
     <use style="fill:#1f77b4;stroke:#1f77b4;" x="271.738622" xlink:href="#madb9224e64" y="206.498252"/>
     <use style="fill:#1f77b4;stroke:#1f77b4;" x="307.012449" xlink:href="#madb9224e64" y="187.529652"/>
     <use style="fill:#1f77b4;stroke:#1f77b4;" x="287.357269" xlink:href="#madb9224e64" y="202.160199"/>
     <use style="fill:#1f77b4;stroke:#1f77b4;" x="294.392686" xlink:href="#madb9224e64" y="194.922042"/>
     <use style="fill:#1f77b4;stroke:#1f77b4;" x="261.997135" xlink:href="#madb9224e64" y="208.697428"/>
     <use style="fill:#1f77b4;stroke:#1f77b4;" x="254.466708" xlink:href="#madb9224e64" y="207.518351"/>
     <use style="fill:#1f77b4;stroke:#1f77b4;" x="308.160194" xlink:href="#madb9224e64" y="188.748975"/>
     <use style="fill:#1f77b4;stroke:#1f77b4;" x="305.783322" xlink:href="#madb9224e64" y="186.301443"/>
     <use style="fill:#1f77b4;stroke:#1f77b4;" x="323.250727" xlink:href="#madb9224e64" y="167.846074"/>
     <use style="fill:#1f77b4;stroke:#1f77b4;" x="336.121217" xlink:href="#madb9224e64" y="160.82796"/>
     <use style="fill:#1f77b4;stroke:#1f77b4;" x="232.650702" xlink:href="#madb9224e64" y="202.677549"/>
     <use style="fill:#1f77b4;stroke:#1f77b4;" x="295.462892" xlink:href="#madb9224e64" y="194.131629"/>
     <use style="fill:#1f77b4;stroke:#1f77b4;" x="312.184076" xlink:href="#madb9224e64" y="184.35988"/>
     <use style="fill:#1f77b4;stroke:#1f77b4;" x="311.565861" xlink:href="#madb9224e64" y="186.051077"/>
     <use style="fill:#1f77b4;stroke:#1f77b4;" x="330.97942" xlink:href="#madb9224e64" y="163.921178"/>
     <use style="fill:#1f77b4;stroke:#1f77b4;" x="304.464646" xlink:href="#madb9224e64" y="188.171205"/>
     <use style="fill:#1f77b4;stroke:#1f77b4;" x="274.216532" xlink:href="#madb9224e64" y="203.585297"/>
     <use style="fill:#1f77b4;stroke:#1f77b4;" x="229.737419" xlink:href="#madb9224e64" y="206.779812"/>
     <use style="fill:#1f77b4;stroke:#1f77b4;" x="270.515069" xlink:href="#madb9224e64" y="208.025491"/>
     <use style="fill:#1f77b4;stroke:#1f77b4;" x="345.399494" xlink:href="#madb9224e64" y="140.352011"/>
     <use style="fill:#1f77b4;stroke:#1f77b4;" x="277.445757" xlink:href="#madb9224e64" y="199.18102"/>
     <use style="fill:#1f77b4;stroke:#1f77b4;" x="241.792723" xlink:href="#madb9224e64" y="211.292335"/>
    </g>
   </g>
  </g>
 </g>
 <defs>
  <clipPath id="p01ec483f64">
   <rect height="98.836364" width="152.181818" x="26.925" y="10.999219"/>
  </clipPath>
  <clipPath id="p0b6626a95f">
   <rect height="98.836364" width="152.181818" x="209.543182" y="10.999219"/>
  </clipPath>
  <clipPath id="pda8d3990ed">
   <rect height="98.836364" width="152.181818" x="26.925" y="129.602855"/>
  </clipPath>
  <clipPath id="p776fc51d5e">
   <rect height="98.836364" width="152.181818" x="209.543182" y="129.602855"/>
  </clipPath>
 </defs>
</svg>
