<?xml version="1.0" encoding="utf-8" standalone="no"?>
<!DOCTYPE svg PUBLIC "-//W3C//DTD SVG 1.1//EN"
  "http://www.w3.org/Graphics/SVG/1.1/DTD/svg11.dtd">
<!-- Created with matplotlib (https://matplotlib.org/) -->
<svg height="252.317344pt" version="1.1" viewBox="0 0 370.942187 252.317344" width="370.942187pt" xmlns="http://www.w3.org/2000/svg" xmlns:xlink="http://www.w3.org/1999/xlink">
 <defs>
  <style type="text/css">
*{stroke-linecap:butt;stroke-linejoin:round;}
  </style>
 </defs>
 <g id="figure_1">
  <g id="patch_1">
   <path d="M 0 252.317344 
L 370.942187 252.317344 
L 370.942187 0 
L 0 0 
z
" style="fill:#ffffff;"/>
  </g>
  <g id="axes_1">
   <g id="patch_2">
    <path d="M 28.942188 109.835582 
L 127.412776 109.835582 
L 127.412776 10.999219 
L 28.942188 10.999219 
z
" style="fill:#ffffff;"/>
   </g>
   <g id="PolyCollection_1">
    <path clip-path="url(#pae5d4076da)" d="M 33.418123 67.245316 
L 33.418123 59.053927 
L 34.322353 59.053927 
L 35.226582 59.053927 
L 36.130812 59.053927 
L 37.035041 59.053927 
L 37.939271 59.053927 
L 38.8435 59.053927 
L 39.74773 59.053927 
L 40.651959 59.053927 
L 41.556188 59.053927 
L 42.460418 59.053927 
L 43.364647 59.053927 
L 44.268877 59.053927 
L 45.173106 59.053927 
L 46.077336 59.053927 
L 46.981565 59.053927 
L 47.885795 59.053927 
L 48.790024 59.053927 
L 49.694254 59.053927 
L 50.598483 59.053927 
L 51.502713 59.053927 
L 52.406942 59.053927 
L 53.311171 59.053927 
L 54.215401 59.053927 
L 55.11963 59.053927 
L 56.02386 59.053927 
L 56.928089 59.053927 
L 57.832319 59.053927 
L 58.736548 59.053927 
L 59.640778 59.053927 
L 60.545007 59.053927 
L 61.449237 59.053927 
L 62.353466 59.053927 
L 63.257696 59.053927 
L 64.161925 59.053927 
L 65.066154 59.053927 
L 65.970384 59.053927 
L 66.874613 59.053927 
L 67.778843 59.053927 
L 68.683072 59.053927 
L 69.587302 59.053927 
L 70.491531 59.053927 
L 71.395761 59.053927 
L 72.29999 59.053927 
L 73.20422 59.053927 
L 74.108449 59.053927 
L 75.012679 59.053927 
L 75.916908 59.053927 
L 76.821137 59.053927 
L 77.725367 59.053927 
L 78.629596 59.053927 
L 79.533826 59.053927 
L 80.438055 59.053927 
L 81.342285 59.053927 
L 82.246514 59.053927 
L 83.150744 59.053927 
L 84.054973 59.053927 
L 84.959203 59.053927 
L 85.863432 59.053927 
L 86.767661 59.053927 
L 87.671891 59.053927 
L 88.57612 59.053927 
L 89.48035 59.053927 
L 90.384579 59.053927 
L 91.288809 59.053927 
L 92.193038 59.053927 
L 93.097268 59.053927 
L 94.001497 59.053927 
L 94.905727 59.053927 
L 95.809956 59.053927 
L 96.714186 59.053927 
L 97.618415 59.053927 
L 98.522644 59.053927 
L 99.426874 59.053927 
L 100.331103 59.053927 
L 101.235333 59.053927 
L 102.139562 59.053927 
L 103.043792 59.053927 
L 103.948021 59.053927 
L 104.852251 59.053927 
L 105.75648 59.053927 
L 106.66071 59.053927 
L 107.564939 59.053927 
L 108.469169 59.053927 
L 109.373398 59.053927 
L 110.277627 59.053927 
L 111.181857 59.053927 
L 112.086086 59.053927 
L 112.990316 59.053927 
L 113.894545 59.053927 
L 114.798775 59.053927 
L 115.703004 59.053927 
L 116.607234 59.053927 
L 117.511463 59.053927 
L 118.415693 59.053927 
L 119.319922 59.053927 
L 120.224152 59.053927 
L 121.128381 59.053927 
L 122.03261 59.053927 
L 122.93684 59.053927 
L 122.93684 67.245316 
L 122.93684 67.245316 
L 122.03261 67.245316 
L 121.128381 67.245316 
L 120.224152 67.245316 
L 119.319922 67.245316 
L 118.415693 67.245316 
L 117.511463 67.245316 
L 116.607234 67.245316 
L 115.703004 67.245316 
L 114.798775 67.245316 
L 113.894545 67.245316 
L 112.990316 67.245316 
L 112.086086 67.245316 
L 111.181857 67.245316 
L 110.277627 67.245316 
L 109.373398 67.245316 
L 108.469169 67.245316 
L 107.564939 67.245316 
L 106.66071 67.245316 
L 105.75648 67.245316 
L 104.852251 67.245316 
L 103.948021 67.245316 
L 103.043792 67.245316 
L 102.139562 67.245316 
L 101.235333 67.245316 
L 100.331103 67.245316 
L 99.426874 67.245316 
L 98.522644 67.245316 
L 97.618415 67.245316 
L 96.714186 67.245316 
L 95.809956 67.245316 
L 94.905727 67.245316 
L 94.001497 67.245316 
L 93.097268 67.245316 
L 92.193038 67.245316 
L 91.288809 67.245316 
L 90.384579 67.245316 
L 89.48035 67.245316 
L 88.57612 67.245316 
L 87.671891 67.245316 
L 86.767661 67.245316 
L 85.863432 67.245316 
L 84.959203 67.245316 
L 84.054973 67.245316 
L 83.150744 67.245316 
L 82.246514 67.245316 
L 81.342285 67.245316 
L 80.438055 67.245316 
L 79.533826 67.245316 
L 78.629596 67.245316 
L 77.725367 67.245316 
L 76.821137 67.245316 
L 75.916908 67.245316 
L 75.012679 67.245316 
L 74.108449 67.245316 
L 73.20422 67.245316 
L 72.29999 67.245316 
L 71.395761 67.245316 
L 70.491531 67.245316 
L 69.587302 67.245316 
L 68.683072 67.245316 
L 67.778843 67.245316 
L 66.874613 67.245316 
L 65.970384 67.245316 
L 65.066154 67.245316 
L 64.161925 67.245316 
L 63.257696 67.245316 
L 62.353466 67.245316 
L 61.449237 67.245316 
L 60.545007 67.245316 
L 59.640778 67.245316 
L 58.736548 67.245316 
L 57.832319 67.245316 
L 56.928089 67.245316 
L 56.02386 67.245316 
L 55.11963 67.245316 
L 54.215401 67.245316 
L 53.311171 67.245316 
L 52.406942 67.245316 
L 51.502713 67.245316 
L 50.598483 67.245316 
L 49.694254 67.245316 
L 48.790024 67.245316 
L 47.885795 67.245316 
L 46.981565 67.245316 
L 46.077336 67.245316 
L 45.173106 67.245316 
L 44.268877 67.245316 
L 43.364647 67.245316 
L 42.460418 67.245316 
L 41.556188 67.245316 
L 40.651959 67.245316 
L 39.74773 67.245316 
L 38.8435 67.245316 
L 37.939271 67.245316 
L 37.035041 67.245316 
L 36.130812 67.245316 
L 35.226582 67.245316 
L 34.322353 67.245316 
L 33.418123 67.245316 
z
" style="fill:#bfbf00;fill-opacity:0.2;"/>
   </g>
   <g id="PathCollection_1">
    <defs>
     <path d="M 0 1.581139 
C 0.419323 1.581139 0.821528 1.41454 1.118034 1.118034 
C 1.41454 0.821528 1.581139 0.419323 1.581139 0 
C 1.581139 -0.419323 1.41454 -0.821528 1.118034 -1.118034 
C 0.821528 -1.41454 0.419323 -1.581139 0 -1.581139 
C -0.419323 -1.581139 -0.821528 -1.41454 -1.118034 -1.118034 
C -1.41454 -0.821528 -1.581139 -0.419323 -1.581139 0 
C -1.581139 0.419323 -1.41454 0.821528 -1.118034 1.118034 
C -0.821528 1.41454 -0.419323 1.581139 0 1.581139 
z
" id="m62c4ee27cf" style="stroke:#1f77b4;"/>
    </defs>
    <g clip-path="url(#pae5d4076da)">
     <use style="fill:#1f77b4;stroke:#1f77b4;" x="65.340082" xlink:href="#m62c4ee27cf" y="46.902074"/>
     <use style="fill:#1f77b4;stroke:#1f77b4;" x="101.633" xlink:href="#m62c4ee27cf" y="74.182075"/>
     <use style="fill:#1f77b4;stroke:#1f77b4;" x="52.835274" xlink:href="#m62c4ee27cf" y="46.972768"/>
     <use style="fill:#1f77b4;stroke:#1f77b4;" x="111.930463" xlink:href="#m62c4ee27cf" y="73.822399"/>
     <use style="fill:#1f77b4;stroke:#1f77b4;" x="98.021447" xlink:href="#m62c4ee27cf" y="71.523204"/>
     <use style="fill:#1f77b4;stroke:#1f77b4;" x="114.342284" xlink:href="#m62c4ee27cf" y="71.341312"/>
     <use style="fill:#1f77b4;stroke:#1f77b4;" x="96.145062" xlink:href="#m62c4ee27cf" y="73.251968"/>
     <use style="fill:#1f77b4;stroke:#1f77b4;" x="44.839163" xlink:href="#m62c4ee27cf" y="46.465869"/>
     <use style="fill:#1f77b4;stroke:#1f77b4;" x="104.087847" xlink:href="#m62c4ee27cf" y="66.545707"/>
     <use style="fill:#1f77b4;stroke:#1f77b4;" x="121.591586" xlink:href="#m62c4ee27cf" y="60.762062"/>
    </g>
   </g>
   <g id="matplotlib.axis_1">
    <g id="xtick_1">
     <g id="line2d_1">
      <defs>
       <path d="M 0 0 
L 0 3.5 
" id="m14b34bc508" style="stroke:#000000;stroke-width:0.8;"/>
      </defs>
      <g>
       <use style="stroke:#000000;stroke-width:0.8;" x="33.418123" xlink:href="#m14b34bc508" y="109.835582"/>
      </g>
     </g>
     <g id="text_1">
      <!-- 0.0 -->
      <defs>
       <path d="M 31.78125 66.40625 
Q 24.171875 66.40625 20.328125 58.90625 
Q 16.5 51.421875 16.5 36.375 
Q 16.5 21.390625 20.328125 13.890625 
Q 24.171875 6.390625 31.78125 6.390625 
Q 39.453125 6.390625 43.28125 13.890625 
Q 47.125 21.390625 47.125 36.375 
Q 47.125 51.421875 43.28125 58.90625 
Q 39.453125 66.40625 31.78125 66.40625 
z
M 31.78125 74.21875 
Q 44.046875 74.21875 50.515625 64.515625 
Q 56.984375 54.828125 56.984375 36.375 
Q 56.984375 17.96875 50.515625 8.265625 
Q 44.046875 -1.421875 31.78125 -1.421875 
Q 19.53125 -1.421875 13.0625 8.265625 
Q 6.59375 17.96875 6.59375 36.375 
Q 6.59375 54.828125 13.0625 64.515625 
Q 19.53125 74.21875 31.78125 74.21875 
z
" id="DejaVuSans-48"/>
       <path d="M 10.6875 12.40625 
L 21 12.40625 
L 21 0 
L 10.6875 0 
z
" id="DejaVuSans-46"/>
      </defs>
      <g transform="translate(25.466561 124.43402)scale(0.1 -0.1)">
       <use xlink:href="#DejaVuSans-48"/>
       <use x="63.623047" xlink:href="#DejaVuSans-46"/>
       <use x="95.410156" xlink:href="#DejaVuSans-48"/>
      </g>
     </g>
    </g>
    <g id="xtick_2">
     <g id="line2d_2">
      <g>
       <use style="stroke:#000000;stroke-width:0.8;" x="69.036489" xlink:href="#m14b34bc508" y="109.835582"/>
      </g>
     </g>
     <g id="text_2">
      <!-- 2.5 -->
      <defs>
       <path d="M 19.1875 8.296875 
L 53.609375 8.296875 
L 53.609375 0 
L 7.328125 0 
L 7.328125 8.296875 
Q 12.9375 14.109375 22.625 23.890625 
Q 32.328125 33.6875 34.8125 36.53125 
Q 39.546875 41.84375 41.421875 45.53125 
Q 43.3125 49.21875 43.3125 52.78125 
Q 43.3125 58.59375 39.234375 62.25 
Q 35.15625 65.921875 28.609375 65.921875 
Q 23.96875 65.921875 18.8125 64.3125 
Q 13.671875 62.703125 7.8125 59.421875 
L 7.8125 69.390625 
Q 13.765625 71.78125 18.9375 73 
Q 24.125 74.21875 28.421875 74.21875 
Q 39.75 74.21875 46.484375 68.546875 
Q 53.21875 62.890625 53.21875 53.421875 
Q 53.21875 48.921875 51.53125 44.890625 
Q 49.859375 40.875 45.40625 35.40625 
Q 44.1875 33.984375 37.640625 27.21875 
Q 31.109375 20.453125 19.1875 8.296875 
z
" id="DejaVuSans-50"/>
       <path d="M 10.796875 72.90625 
L 49.515625 72.90625 
L 49.515625 64.59375 
L 19.828125 64.59375 
L 19.828125 46.734375 
Q 21.96875 47.46875 24.109375 47.828125 
Q 26.265625 48.1875 28.421875 48.1875 
Q 40.625 48.1875 47.75 41.5 
Q 54.890625 34.8125 54.890625 23.390625 
Q 54.890625 11.625 47.5625 5.09375 
Q 40.234375 -1.421875 26.90625 -1.421875 
Q 22.3125 -1.421875 17.546875 -0.640625 
Q 12.796875 0.140625 7.71875 1.703125 
L 7.71875 11.625 
Q 12.109375 9.234375 16.796875 8.0625 
Q 21.484375 6.890625 26.703125 6.890625 
Q 35.15625 6.890625 40.078125 11.328125 
Q 45.015625 15.765625 45.015625 23.390625 
Q 45.015625 31 40.078125 35.4375 
Q 35.15625 39.890625 26.703125 39.890625 
Q 22.75 39.890625 18.8125 39.015625 
Q 14.890625 38.140625 10.796875 36.28125 
z
" id="DejaVuSans-53"/>
      </defs>
      <g transform="translate(61.084926 124.43402)scale(0.1 -0.1)">
       <use xlink:href="#DejaVuSans-50"/>
       <use x="63.623047" xlink:href="#DejaVuSans-46"/>
       <use x="95.410156" xlink:href="#DejaVuSans-53"/>
      </g>
     </g>
    </g>
    <g id="xtick_3">
     <g id="line2d_3">
      <g>
       <use style="stroke:#000000;stroke-width:0.8;" x="104.654855" xlink:href="#m14b34bc508" y="109.835582"/>
      </g>
     </g>
     <g id="text_3">
      <!-- 5.0 -->
      <g transform="translate(96.703292 124.43402)scale(0.1 -0.1)">
       <use xlink:href="#DejaVuSans-53"/>
       <use x="63.623047" xlink:href="#DejaVuSans-46"/>
       <use x="95.410156" xlink:href="#DejaVuSans-48"/>
      </g>
     </g>
    </g>
   </g>
   <g id="matplotlib.axis_2">
    <g id="ytick_1">
     <g id="line2d_4">
      <defs>
       <path d="M 0 0 
L -3.5 0 
" id="m0f78ebe54e" style="stroke:#000000;stroke-width:0.8;"/>
      </defs>
      <g>
       <use style="stroke:#000000;stroke-width:0.8;" x="28.942188" xlink:href="#m0f78ebe54e" y="109.835582"/>
      </g>
     </g>
     <g id="text_4">
      <!-- −4 -->
      <defs>
       <path d="M 10.59375 35.5 
L 73.1875 35.5 
L 73.1875 27.203125 
L 10.59375 27.203125 
z
" id="DejaVuSans-8722"/>
       <path d="M 37.796875 64.3125 
L 12.890625 25.390625 
L 37.796875 25.390625 
z
M 35.203125 72.90625 
L 47.609375 72.90625 
L 47.609375 25.390625 
L 58.015625 25.390625 
L 58.015625 17.1875 
L 47.609375 17.1875 
L 47.609375 0 
L 37.796875 0 
L 37.796875 17.1875 
L 4.890625 17.1875 
L 4.890625 26.703125 
z
" id="DejaVuSans-52"/>
      </defs>
      <g transform="translate(7.2 113.634801)scale(0.1 -0.1)">
       <use xlink:href="#DejaVuSans-8722"/>
       <use x="83.789062" xlink:href="#DejaVuSans-52"/>
      </g>
     </g>
    </g>
    <g id="ytick_2">
     <g id="line2d_5">
      <g>
       <use style="stroke:#000000;stroke-width:0.8;" x="28.942188" xlink:href="#m0f78ebe54e" y="85.126491"/>
      </g>
     </g>
     <g id="text_5">
      <!-- −2 -->
      <g transform="translate(7.2 88.92571)scale(0.1 -0.1)">
       <use xlink:href="#DejaVuSans-8722"/>
       <use x="83.789062" xlink:href="#DejaVuSans-50"/>
      </g>
     </g>
    </g>
    <g id="ytick_3">
     <g id="line2d_6">
      <g>
       <use style="stroke:#000000;stroke-width:0.8;" x="28.942188" xlink:href="#m0f78ebe54e" y="60.417401"/>
      </g>
     </g>
     <g id="text_6">
      <!-- 0 -->
      <g transform="translate(15.579688 64.216619)scale(0.1 -0.1)">
       <use xlink:href="#DejaVuSans-48"/>
      </g>
     </g>
    </g>
    <g id="ytick_4">
     <g id="line2d_7">
      <g>
       <use style="stroke:#000000;stroke-width:0.8;" x="28.942188" xlink:href="#m0f78ebe54e" y="35.70831"/>
      </g>
     </g>
     <g id="text_7">
      <!-- 2 -->
      <g transform="translate(15.579688 39.507528)scale(0.1 -0.1)">
       <use xlink:href="#DejaVuSans-50"/>
      </g>
     </g>
    </g>
    <g id="ytick_5">
     <g id="line2d_8">
      <g>
       <use style="stroke:#000000;stroke-width:0.8;" x="28.942188" xlink:href="#m0f78ebe54e" y="10.999219"/>
      </g>
     </g>
     <g id="text_8">
      <!-- 4 -->
      <g transform="translate(15.579688 14.798437)scale(0.1 -0.1)">
       <use xlink:href="#DejaVuSans-52"/>
      </g>
     </g>
    </g>
   </g>
   <g id="line2d_9">
    <path clip-path="url(#pae5d4076da)" d="M 33.418123 63.149622 
L 34.322353 63.149622 
L 35.226582 63.149622 
L 36.130812 63.149622 
L 37.035041 63.149622 
L 37.939271 63.149622 
L 38.8435 63.149622 
L 39.74773 63.149622 
L 40.651959 63.149622 
L 41.556188 63.149622 
L 42.460418 63.149622 
L 43.364647 63.149622 
L 44.268877 63.149622 
L 45.173106 63.149622 
L 46.077336 63.149622 
L 46.981565 63.149622 
L 47.885795 63.149622 
L 48.790024 63.149622 
L 49.694254 63.149622 
L 50.598483 63.149622 
L 51.502713 63.149622 
L 52.406942 63.149622 
L 53.311171 63.149622 
L 54.215401 63.149622 
L 55.11963 63.149622 
L 56.02386 63.149622 
L 56.928089 63.149622 
L 57.832319 63.149622 
L 58.736548 63.149622 
L 59.640778 63.149622 
L 60.545007 63.149622 
L 61.449237 63.149622 
L 62.353466 63.149622 
L 63.257696 63.149622 
L 64.161925 63.149622 
L 65.066154 63.149622 
L 65.970384 63.149622 
L 66.874613 63.149622 
L 67.778843 63.149622 
L 68.683072 63.149622 
L 69.587302 63.149622 
L 70.491531 63.149622 
L 71.395761 63.149622 
L 72.29999 63.149622 
L 73.20422 63.149622 
L 74.108449 63.149622 
L 75.012679 63.149622 
L 75.916908 63.149622 
L 76.821137 63.149622 
L 77.725367 63.149622 
L 78.629596 63.149622 
L 79.533826 63.149622 
L 80.438055 63.149622 
L 81.342285 63.149622 
L 82.246514 63.149622 
L 83.150744 63.149622 
L 84.054973 63.149622 
L 84.959203 63.149622 
L 85.863432 63.149622 
L 86.767661 63.149622 
L 87.671891 63.149622 
L 88.57612 63.149622 
L 89.48035 63.149622 
L 90.384579 63.149622 
L 91.288809 63.149622 
L 92.193038 63.149622 
L 93.097268 63.149622 
L 94.001497 63.149622 
L 94.905727 63.149622 
L 95.809956 63.149622 
L 96.714186 63.149622 
L 97.618415 63.149622 
L 98.522644 63.149622 
L 99.426874 63.149622 
L 100.331103 63.149622 
L 101.235333 63.149622 
L 102.139562 63.149622 
L 103.043792 63.149622 
L 103.948021 63.149622 
L 104.852251 63.149622 
L 105.75648 63.149622 
L 106.66071 63.149622 
L 107.564939 63.149622 
L 108.469169 63.149622 
L 109.373398 63.149622 
L 110.277627 63.149622 
L 111.181857 63.149622 
L 112.086086 63.149622 
L 112.990316 63.149622 
L 113.894545 63.149622 
L 114.798775 63.149622 
L 115.703004 63.149622 
L 116.607234 63.149622 
L 117.511463 63.149622 
L 118.415693 63.149622 
L 119.319922 63.149622 
L 120.224152 63.149622 
L 121.128381 63.149622 
L 122.03261 63.149622 
L 122.93684 63.149622 
" style="fill:none;stroke:#ffa500;stroke-linecap:square;stroke-width:1.5;"/>
   </g>
   <g id="patch_3">
    <path d="M 28.942188 109.835582 
L 28.942188 10.999219 
" style="fill:none;stroke:#000000;stroke-linecap:square;stroke-linejoin:miter;stroke-width:0.8;"/>
   </g>
   <g id="patch_4">
    <path d="M 127.412776 109.835582 
L 127.412776 10.999219 
" style="fill:none;stroke:#000000;stroke-linecap:square;stroke-linejoin:miter;stroke-width:0.8;"/>
   </g>
   <g id="patch_5">
    <path d="M 28.942188 109.835582 
L 127.412776 109.835582 
" style="fill:none;stroke:#000000;stroke-linecap:square;stroke-linejoin:miter;stroke-width:0.8;"/>
   </g>
   <g id="patch_6">
    <path d="M 28.942188 10.999219 
L 127.412776 10.999219 
" style="fill:none;stroke:#000000;stroke-linecap:square;stroke-linejoin:miter;stroke-width:0.8;"/>
   </g>
   <g id="text_9">
    <!-- M = 1 -->
    <defs>
     <path d="M 9.8125 72.90625 
L 24.515625 72.90625 
L 43.109375 23.296875 
L 61.8125 72.90625 
L 76.515625 72.90625 
L 76.515625 0 
L 66.890625 0 
L 66.890625 64.015625 
L 48.09375 14.015625 
L 38.1875 14.015625 
L 19.390625 64.015625 
L 19.390625 0 
L 9.8125 0 
z
" id="DejaVuSans-77"/>
     <path id="DejaVuSans-32"/>
     <path d="M 10.59375 45.40625 
L 73.1875 45.40625 
L 73.1875 37.203125 
L 10.59375 37.203125 
z
M 10.59375 25.484375 
L 73.1875 25.484375 
L 73.1875 17.1875 
L 10.59375 17.1875 
z
" id="DejaVuSans-61"/>
     <path d="M 12.40625 8.296875 
L 28.515625 8.296875 
L 28.515625 63.921875 
L 10.984375 60.40625 
L 10.984375 69.390625 
L 28.421875 72.90625 
L 38.28125 72.90625 
L 38.28125 8.296875 
L 54.390625 8.296875 
L 54.390625 0 
L 12.40625 0 
z
" id="DejaVuSans-49"/>
    </defs>
    <g transform="translate(33.418123 23.353764)scale(0.1 -0.1)">
     <use xlink:href="#DejaVuSans-77"/>
     <use x="86.279297" xlink:href="#DejaVuSans-32"/>
     <use x="118.066406" xlink:href="#DejaVuSans-61"/>
     <use x="201.855469" xlink:href="#DejaVuSans-32"/>
     <use x="233.642578" xlink:href="#DejaVuSans-49"/>
    </g>
   </g>
  </g>
  <g id="axes_2">
   <g id="patch_7">
    <path d="M 147.106893 109.835582 
L 245.577482 109.835582 
L 245.577482 10.999219 
L 147.106893 10.999219 
z
" style="fill:#ffffff;"/>
   </g>
   <g id="PolyCollection_2">
    <path clip-path="url(#p8ff147c808)" d="M 151.582829 47.833949 
L 151.582829 38.033728 
L 152.487059 38.377193 
L 153.391288 38.720396 
L 154.295518 39.063333 
L 155.199747 39.405999 
L 156.103977 39.748392 
L 157.008206 40.090507 
L 157.912435 40.43234 
L 158.816665 40.773888 
L 159.720894 41.115147 
L 160.625124 41.456112 
L 161.529353 41.79678 
L 162.433583 42.137147 
L 163.337812 42.47721 
L 164.242042 42.816963 
L 165.146271 43.156403 
L 166.050501 43.495526 
L 166.95473 43.834329 
L 167.858959 44.172806 
L 168.763189 44.510955 
L 169.667418 44.848771 
L 170.571648 45.186251 
L 171.475877 45.52339 
L 172.380107 45.860184 
L 173.284336 46.196631 
L 174.188566 46.532725 
L 175.092795 46.868463 
L 175.997025 47.203841 
L 176.901254 47.538856 
L 177.805484 47.873503 
L 178.709713 48.20778 
L 179.613942 48.541682 
L 180.518172 48.875205 
L 181.422401 49.208348 
L 182.326631 49.541105 
L 183.23086 49.873473 
L 184.13509 50.20545 
L 185.039319 50.537032 
L 185.943549 50.868215 
L 186.847778 51.198997 
L 187.752008 51.529374 
L 188.656237 51.859344 
L 189.560467 52.188904 
L 190.464696 52.518051 
L 191.368925 52.846783 
L 192.273155 53.175096 
L 193.177384 53.502988 
L 194.081614 53.830458 
L 194.985843 54.157502 
L 195.890073 54.48412 
L 196.794302 54.810308 
L 197.698532 55.136064 
L 198.602761 55.461388 
L 199.506991 55.786278 
L 200.41122 56.110731 
L 201.31545 56.434747 
L 202.219679 56.758325 
L 203.123908 57.081463 
L 204.028138 57.404161 
L 204.932367 57.726417 
L 205.836597 58.048231 
L 206.740826 58.369602 
L 207.645056 58.690531 
L 208.549285 59.011016 
L 209.453515 59.331058 
L 210.357744 59.650657 
L 211.261974 59.969813 
L 212.166203 60.288526 
L 213.070433 60.606798 
L 213.974662 60.924627 
L 214.878891 61.242016 
L 215.783121 61.558965 
L 216.68735 61.875475 
L 217.59158 62.191547 
L 218.495809 62.507183 
L 219.400039 62.822384 
L 220.304268 63.137152 
L 221.208498 63.451488 
L 222.112727 63.765395 
L 223.016957 64.078873 
L 223.921186 64.391926 
L 224.825416 64.704555 
L 225.729645 65.016764 
L 226.633874 65.328553 
L 227.538104 65.639926 
L 228.442333 65.950885 
L 229.346563 66.261433 
L 230.250792 66.571574 
L 231.155022 66.881309 
L 232.059251 67.190641 
L 232.963481 67.499575 
L 233.86771 67.808113 
L 234.77194 68.116257 
L 235.676169 68.424013 
L 236.580398 68.731382 
L 237.484628 69.038369 
L 238.388857 69.344977 
L 239.293087 69.651209 
L 240.197316 69.95707 
L 241.101546 70.262562 
L 241.101546 79.005584 
L 241.101546 79.005584 
L 240.197316 78.670667 
L 239.293087 78.336119 
L 238.388857 78.001942 
L 237.484628 77.668141 
L 236.580398 77.334719 
L 235.676169 77.00168 
L 234.77194 76.669027 
L 233.86771 76.336763 
L 232.963481 76.004892 
L 232.059251 75.673417 
L 231.155022 75.34234 
L 230.250792 75.011667 
L 229.346563 74.681398 
L 228.442333 74.351538 
L 227.538104 74.022088 
L 226.633874 73.693052 
L 225.729645 73.364433 
L 224.825416 73.036232 
L 223.921186 72.708453 
L 223.016957 72.381097 
L 222.112727 72.054167 
L 221.208498 71.727664 
L 220.304268 71.401592 
L 219.400039 71.075951 
L 218.495809 70.750743 
L 217.59158 70.42597 
L 216.68735 70.101634 
L 215.783121 69.777735 
L 214.878891 69.454275 
L 213.974662 69.131255 
L 213.070433 68.808676 
L 212.166203 68.486538 
L 211.261974 68.164843 
L 210.357744 67.84359 
L 209.453515 67.52278 
L 208.549285 67.202413 
L 207.645056 66.88249 
L 206.740826 66.56301 
L 205.836597 66.243973 
L 204.932367 65.925378 
L 204.028138 65.607225 
L 203.123908 65.289514 
L 202.219679 64.972243 
L 201.31545 64.655412 
L 200.41122 64.339019 
L 199.506991 64.023064 
L 198.602761 63.707545 
L 197.698532 63.39246 
L 196.794302 63.077808 
L 195.890073 62.763587 
L 194.985843 62.449795 
L 194.081614 62.136431 
L 193.177384 61.823492 
L 192.273155 61.510976 
L 191.368925 61.19888 
L 190.464696 60.887203 
L 189.560467 60.575941 
L 188.656237 60.265092 
L 187.752008 59.954653 
L 186.847778 59.644622 
L 185.943549 59.334995 
L 185.039319 59.02577 
L 184.13509 58.716943 
L 183.23086 58.408511 
L 182.326631 58.10047 
L 181.422401 57.792819 
L 180.518172 57.485552 
L 179.613942 57.178667 
L 178.709713 56.87216 
L 177.805484 56.566028 
L 176.901254 56.260267 
L 175.997025 55.954873 
L 175.092795 55.649842 
L 174.188566 55.345171 
L 173.284336 55.040857 
L 172.380107 54.736894 
L 171.475877 54.43328 
L 170.571648 54.13001 
L 169.667418 53.827081 
L 168.763189 53.524488 
L 167.858959 53.222228 
L 166.95473 52.920297 
L 166.050501 52.618691 
L 165.146271 52.317405 
L 164.242042 52.016437 
L 163.337812 51.715781 
L 162.433583 51.415434 
L 161.529353 51.115393 
L 160.625124 50.815652 
L 159.720894 50.516209 
L 158.816665 50.217059 
L 157.912435 49.918198 
L 157.008206 49.619622 
L 156.103977 49.321328 
L 155.199747 49.023312 
L 154.295518 48.72557 
L 153.391288 48.428098 
L 152.487059 48.130892 
L 151.582829 47.833949 
z
" style="fill:#bfbf00;fill-opacity:0.2;"/>
   </g>
   <g id="PathCollection_2">
    <g clip-path="url(#p8ff147c808)">
     <use style="fill:#1f77b4;stroke:#1f77b4;" x="183.504788" xlink:href="#m62c4ee27cf" y="46.902074"/>
     <use style="fill:#1f77b4;stroke:#1f77b4;" x="219.797706" xlink:href="#m62c4ee27cf" y="74.182075"/>
     <use style="fill:#1f77b4;stroke:#1f77b4;" x="170.99998" xlink:href="#m62c4ee27cf" y="46.972768"/>
     <use style="fill:#1f77b4;stroke:#1f77b4;" x="230.095169" xlink:href="#m62c4ee27cf" y="73.822399"/>
     <use style="fill:#1f77b4;stroke:#1f77b4;" x="216.186153" xlink:href="#m62c4ee27cf" y="71.523204"/>
     <use style="fill:#1f77b4;stroke:#1f77b4;" x="232.506989" xlink:href="#m62c4ee27cf" y="71.341312"/>
     <use style="fill:#1f77b4;stroke:#1f77b4;" x="214.309768" xlink:href="#m62c4ee27cf" y="73.251968"/>
     <use style="fill:#1f77b4;stroke:#1f77b4;" x="163.003869" xlink:href="#m62c4ee27cf" y="46.465869"/>
     <use style="fill:#1f77b4;stroke:#1f77b4;" x="222.252553" xlink:href="#m62c4ee27cf" y="66.545707"/>
     <use style="fill:#1f77b4;stroke:#1f77b4;" x="239.756292" xlink:href="#m62c4ee27cf" y="60.762062"/>
    </g>
   </g>
   <g id="matplotlib.axis_3">
    <g id="xtick_4">
     <g id="line2d_10">
      <g>
       <use style="stroke:#000000;stroke-width:0.8;" x="151.582829" xlink:href="#m14b34bc508" y="109.835582"/>
      </g>
     </g>
     <g id="text_10">
      <!-- 0.0 -->
      <g transform="translate(143.631267 124.43402)scale(0.1 -0.1)">
       <use xlink:href="#DejaVuSans-48"/>
       <use x="63.623047" xlink:href="#DejaVuSans-46"/>
       <use x="95.410156" xlink:href="#DejaVuSans-48"/>
      </g>
     </g>
    </g>
    <g id="xtick_5">
     <g id="line2d_11">
      <g>
       <use style="stroke:#000000;stroke-width:0.8;" x="187.201195" xlink:href="#m14b34bc508" y="109.835582"/>
      </g>
     </g>
     <g id="text_11">
      <!-- 2.5 -->
      <g transform="translate(179.249632 124.43402)scale(0.1 -0.1)">
       <use xlink:href="#DejaVuSans-50"/>
       <use x="63.623047" xlink:href="#DejaVuSans-46"/>
       <use x="95.410156" xlink:href="#DejaVuSans-53"/>
      </g>
     </g>
    </g>
    <g id="xtick_6">
     <g id="line2d_12">
      <g>
       <use style="stroke:#000000;stroke-width:0.8;" x="222.81956" xlink:href="#m14b34bc508" y="109.835582"/>
      </g>
     </g>
     <g id="text_12">
      <!-- 5.0 -->
      <g transform="translate(214.867998 124.43402)scale(0.1 -0.1)">
       <use xlink:href="#DejaVuSans-53"/>
       <use x="63.623047" xlink:href="#DejaVuSans-46"/>
       <use x="95.410156" xlink:href="#DejaVuSans-48"/>
      </g>
     </g>
    </g>
   </g>
   <g id="matplotlib.axis_4">
    <g id="ytick_6">
     <g id="line2d_13">
      <g>
       <use style="stroke:#000000;stroke-width:0.8;" x="147.106893" xlink:href="#m0f78ebe54e" y="109.835582"/>
      </g>
     </g>
     <g id="text_13">
      <!-- −4 -->
      <g transform="translate(125.364706 113.634801)scale(0.1 -0.1)">
       <use xlink:href="#DejaVuSans-8722"/>
       <use x="83.789062" xlink:href="#DejaVuSans-52"/>
      </g>
     </g>
    </g>
    <g id="ytick_7">
     <g id="line2d_14">
      <g>
       <use style="stroke:#000000;stroke-width:0.8;" x="147.106893" xlink:href="#m0f78ebe54e" y="85.126491"/>
      </g>
     </g>
     <g id="text_14">
      <!-- −2 -->
      <g transform="translate(125.364706 88.92571)scale(0.1 -0.1)">
       <use xlink:href="#DejaVuSans-8722"/>
       <use x="83.789062" xlink:href="#DejaVuSans-50"/>
      </g>
     </g>
    </g>
    <g id="ytick_8">
     <g id="line2d_15">
      <g>
       <use style="stroke:#000000;stroke-width:0.8;" x="147.106893" xlink:href="#m0f78ebe54e" y="60.417401"/>
      </g>
     </g>
     <g id="text_15">
      <!-- 0 -->
      <g transform="translate(133.744393 64.216619)scale(0.1 -0.1)">
       <use xlink:href="#DejaVuSans-48"/>
      </g>
     </g>
    </g>
    <g id="ytick_9">
     <g id="line2d_16">
      <g>
       <use style="stroke:#000000;stroke-width:0.8;" x="147.106893" xlink:href="#m0f78ebe54e" y="35.70831"/>
      </g>
     </g>
     <g id="text_16">
      <!-- 2 -->
      <g transform="translate(133.744393 39.507528)scale(0.1 -0.1)">
       <use xlink:href="#DejaVuSans-50"/>
      </g>
     </g>
    </g>
    <g id="ytick_10">
     <g id="line2d_17">
      <g>
       <use style="stroke:#000000;stroke-width:0.8;" x="147.106893" xlink:href="#m0f78ebe54e" y="10.999219"/>
      </g>
     </g>
     <g id="text_17">
      <!-- 4 -->
      <g transform="translate(133.744393 14.798437)scale(0.1 -0.1)">
       <use xlink:href="#DejaVuSans-52"/>
      </g>
     </g>
    </g>
   </g>
   <g id="line2d_18">
    <path clip-path="url(#p8ff147c808)" d="M 151.582829 42.933838 
L 152.487059 43.254043 
L 153.391288 43.574247 
L 154.295518 43.894451 
L 155.199747 44.214656 
L 156.103977 44.53486 
L 157.008206 44.855065 
L 157.912435 45.175269 
L 158.816665 45.495473 
L 159.720894 45.815678 
L 160.625124 46.135882 
L 161.529353 46.456087 
L 162.433583 46.776291 
L 163.337812 47.096495 
L 164.242042 47.4167 
L 165.146271 47.736904 
L 166.050501 48.057109 
L 166.95473 48.377313 
L 167.858959 48.697517 
L 168.763189 49.017722 
L 169.667418 49.337926 
L 170.571648 49.65813 
L 171.475877 49.978335 
L 172.380107 50.298539 
L 173.284336 50.618744 
L 174.188566 50.938948 
L 175.092795 51.259152 
L 175.997025 51.579357 
L 176.901254 51.899561 
L 177.805484 52.219766 
L 178.709713 52.53997 
L 179.613942 52.860174 
L 180.518172 53.180379 
L 181.422401 53.500583 
L 182.326631 53.820788 
L 183.23086 54.140992 
L 184.13509 54.461196 
L 185.039319 54.781401 
L 185.943549 55.101605 
L 186.847778 55.421809 
L 187.752008 55.742014 
L 188.656237 56.062218 
L 189.560467 56.382423 
L 190.464696 56.702627 
L 191.368925 57.022831 
L 192.273155 57.343036 
L 193.177384 57.66324 
L 194.081614 57.983445 
L 194.985843 58.303649 
L 195.890073 58.623853 
L 196.794302 58.944058 
L 197.698532 59.264262 
L 198.602761 59.584467 
L 199.506991 59.904671 
L 200.41122 60.224875 
L 201.31545 60.54508 
L 202.219679 60.865284 
L 203.123908 61.185488 
L 204.028138 61.505693 
L 204.932367 61.825897 
L 205.836597 62.146102 
L 206.740826 62.466306 
L 207.645056 62.78651 
L 208.549285 63.106715 
L 209.453515 63.426919 
L 210.357744 63.747124 
L 211.261974 64.067328 
L 212.166203 64.387532 
L 213.070433 64.707737 
L 213.974662 65.027941 
L 214.878891 65.348146 
L 215.783121 65.66835 
L 216.68735 65.988554 
L 217.59158 66.308759 
L 218.495809 66.628963 
L 219.400039 66.949167 
L 220.304268 67.269372 
L 221.208498 67.589576 
L 222.112727 67.909781 
L 223.016957 68.229985 
L 223.921186 68.550189 
L 224.825416 68.870394 
L 225.729645 69.190598 
L 226.633874 69.510803 
L 227.538104 69.831007 
L 228.442333 70.151211 
L 229.346563 70.471416 
L 230.250792 70.79162 
L 231.155022 71.111824 
L 232.059251 71.432029 
L 232.963481 71.752233 
L 233.86771 72.072438 
L 234.77194 72.392642 
L 235.676169 72.712846 
L 236.580398 73.033051 
L 237.484628 73.353255 
L 238.388857 73.67346 
L 239.293087 73.993664 
L 240.197316 74.313868 
L 241.101546 74.634073 
" style="fill:none;stroke:#ffa500;stroke-linecap:square;stroke-width:1.5;"/>
   </g>
   <g id="patch_8">
    <path d="M 147.106893 109.835582 
L 147.106893 10.999219 
" style="fill:none;stroke:#000000;stroke-linecap:square;stroke-linejoin:miter;stroke-width:0.8;"/>
   </g>
   <g id="patch_9">
    <path d="M 245.577482 109.835582 
L 245.577482 10.999219 
" style="fill:none;stroke:#000000;stroke-linecap:square;stroke-linejoin:miter;stroke-width:0.8;"/>
   </g>
   <g id="patch_10">
    <path d="M 147.106893 109.835582 
L 245.577482 109.835582 
" style="fill:none;stroke:#000000;stroke-linecap:square;stroke-linejoin:miter;stroke-width:0.8;"/>
   </g>
   <g id="patch_11">
    <path d="M 147.106893 10.999219 
L 245.577482 10.999219 
" style="fill:none;stroke:#000000;stroke-linecap:square;stroke-linejoin:miter;stroke-width:0.8;"/>
   </g>
   <g id="text_18">
    <!-- M = 2 -->
    <g transform="translate(151.582829 23.353764)scale(0.1 -0.1)">
     <use xlink:href="#DejaVuSans-77"/>
     <use x="86.279297" xlink:href="#DejaVuSans-32"/>
     <use x="118.066406" xlink:href="#DejaVuSans-61"/>
     <use x="201.855469" xlink:href="#DejaVuSans-32"/>
     <use x="233.642578" xlink:href="#DejaVuSans-50"/>
    </g>
   </g>
  </g>
  <g id="axes_3">
   <g id="patch_12">
    <path d="M 265.271599 109.835582 
L 363.742188 109.835582 
L 363.742188 10.999219 
L 265.271599 10.999219 
z
" style="fill:#ffffff;"/>
   </g>
   <g id="PolyCollection_3">
    <path clip-path="url(#p8f1d47202c)" d="M 269.747535 41.041647 
L 269.747535 28.776241 
L 270.651765 29.690003 
L 271.555994 30.588656 
L 272.460223 31.472167 
L 273.364453 32.340509 
L 274.268682 33.193674 
L 275.172912 34.031662 
L 276.077141 34.854492 
L 276.981371 35.6622 
L 277.8856 36.45484 
L 278.78983 37.232484 
L 279.694059 37.995226 
L 280.598289 38.743179 
L 281.502518 39.476479 
L 282.406748 40.19528 
L 283.310977 40.899759 
L 284.215206 41.59011 
L 285.119436 42.266547 
L 286.023665 42.929298 
L 286.927895 43.578607 
L 287.832124 44.214732 
L 288.736354 44.837938 
L 289.640583 45.4485 
L 290.544813 46.046698 
L 291.449042 46.632817 
L 292.353272 47.207141 
L 293.257501 47.769952 
L 294.161731 48.321533 
L 295.06596 48.862158 
L 295.970189 49.392097 
L 296.874419 49.911611 
L 297.778648 50.420954 
L 298.682878 50.920368 
L 299.587107 51.410086 
L 300.491337 51.89033 
L 301.395566 52.361309 
L 302.299796 52.823221 
L 303.204025 53.276253 
L 304.108255 53.72058 
L 305.012484 54.156363 
L 305.916714 54.583754 
L 306.820943 55.002892 
L 307.725172 55.413905 
L 308.629402 55.81691 
L 309.533631 56.212011 
L 310.437861 56.599305 
L 311.34209 56.978876 
L 312.24632 57.350798 
L 313.150549 57.715136 
L 314.054779 58.071944 
L 314.959008 58.421266 
L 315.863238 58.763139 
L 316.767467 59.097587 
L 317.671696 59.424627 
L 318.575926 59.744266 
L 319.480155 60.0565 
L 320.384385 60.361319 
L 321.288614 60.6587 
L 322.192844 60.948612 
L 323.097073 61.231013 
L 324.001303 61.505852 
L 324.905532 61.773067 
L 325.809762 62.032586 
L 326.713991 62.284325 
L 327.618221 62.528189 
L 328.52245 62.764072 
L 329.426679 62.991855 
L 330.330909 63.211408 
L 331.235138 63.422586 
L 332.139368 63.625232 
L 333.043597 63.819177 
L 333.947827 64.004236 
L 334.852056 64.18021 
L 335.756286 64.346888 
L 336.660515 64.504044 
L 337.564745 64.651435 
L 338.468974 64.78881 
L 339.373204 64.915901 
L 340.277433 65.032428 
L 341.181662 65.138101 
L 342.085892 65.23262 
L 342.990121 65.315677 
L 343.894351 65.386955 
L 344.79858 65.446136 
L 345.70281 65.492899 
L 346.607039 65.526925 
L 347.511269 65.547898 
L 348.415498 65.55551 
L 349.319728 65.549464 
L 350.223957 65.529475 
L 351.128187 65.495276 
L 352.032416 65.446619 
L 352.936645 65.383276 
L 353.840875 65.305044 
L 354.745104 65.211744 
L 355.649334 65.103224 
L 356.553563 64.979358 
L 357.457793 64.840045 
L 358.362022 64.685211 
L 359.266252 64.514804 
L 359.266252 74.456176 
L 359.266252 74.456176 
L 358.362022 74.433149 
L 357.457793 74.40843 
L 356.553563 74.381971 
L 355.649334 74.353695 
L 354.745104 74.323502 
L 353.840875 74.291267 
L 352.936645 74.256835 
L 352.032416 74.22003 
L 351.128187 74.180646 
L 350.223957 74.138458 
L 349.319728 74.093218 
L 348.415498 74.044656 
L 347.511269 73.99249 
L 346.607039 73.936421 
L 345.70281 73.876142 
L 344.79858 73.811337 
L 343.894351 73.741687 
L 342.990121 73.666871 
L 342.085892 73.58657 
L 341.181662 73.500468 
L 340.277433 73.408258 
L 339.373204 73.309638 
L 338.468974 73.204318 
L 337.564745 73.092019 
L 336.660515 72.972475 
L 335.756286 72.84543 
L 334.852056 72.710645 
L 333.947827 72.567893 
L 333.043597 72.416963 
L 332.139368 72.257655 
L 331.235138 72.089786 
L 330.330909 71.913185 
L 329.426679 71.727696 
L 328.52245 71.533174 
L 327.618221 71.329488 
L 326.713991 71.116521 
L 325.809762 70.894165 
L 324.905532 70.662326 
L 324.001303 70.42092 
L 323.097073 70.169875 
L 322.192844 69.909128 
L 321.288614 69.63863 
L 320.384385 69.358337 
L 319.480155 69.068219 
L 318.575926 68.768253 
L 317.671696 68.458429 
L 316.767467 68.138742 
L 315.863238 67.8092 
L 314.959008 67.46982 
L 314.054779 67.120626 
L 313.150549 66.761655 
L 312.24632 66.39295 
L 311.34209 66.014567 
L 310.437861 65.626569 
L 309.533631 65.229031 
L 308.629402 64.822037 
L 307.725172 64.405683 
L 306.820943 63.980075 
L 305.916714 63.545328 
L 305.012484 63.101571 
L 304.108255 62.648944 
L 303.204025 62.187596 
L 302.299796 61.717691 
L 301.395566 61.239403 
L 300.491337 60.752918 
L 299.587107 60.258434 
L 298.682878 59.756162 
L 297.778648 59.246323 
L 296.874419 58.729149 
L 295.970189 58.204884 
L 295.06596 57.67378 
L 294.161731 57.136099 
L 293.257501 56.592111 
L 292.353272 56.04209 
L 291.449042 55.486318 
L 290.544813 54.925078 
L 289.640583 54.358655 
L 288.736354 53.787332 
L 287.832124 53.21139 
L 286.927895 52.631102 
L 286.023665 52.046737 
L 285.119436 51.458551 
L 284.215206 50.866786 
L 283.310977 50.271673 
L 282.406748 49.673425 
L 281.502518 49.072236 
L 280.598289 48.468282 
L 279.694059 47.861718 
L 278.78983 47.25268 
L 277.8856 46.641281 
L 276.981371 46.027614 
L 276.077141 45.411753 
L 275.172912 44.79375 
L 274.268682 44.173642 
L 273.364453 43.551448 
L 272.460223 42.927168 
L 271.555994 42.300793 
L 270.651765 41.672297 
L 269.747535 41.041647 
z
" style="fill:#bfbf00;fill-opacity:0.2;"/>
   </g>
   <g id="PathCollection_3">
    <g clip-path="url(#p8f1d47202c)">
     <use style="fill:#1f77b4;stroke:#1f77b4;" x="301.669494" xlink:href="#m62c4ee27cf" y="46.902074"/>
     <use style="fill:#1f77b4;stroke:#1f77b4;" x="337.962411" xlink:href="#m62c4ee27cf" y="74.182075"/>
     <use style="fill:#1f77b4;stroke:#1f77b4;" x="289.164686" xlink:href="#m62c4ee27cf" y="46.972768"/>
     <use style="fill:#1f77b4;stroke:#1f77b4;" x="348.259875" xlink:href="#m62c4ee27cf" y="73.822399"/>
     <use style="fill:#1f77b4;stroke:#1f77b4;" x="334.350859" xlink:href="#m62c4ee27cf" y="71.523204"/>
     <use style="fill:#1f77b4;stroke:#1f77b4;" x="350.671695" xlink:href="#m62c4ee27cf" y="71.341312"/>
     <use style="fill:#1f77b4;stroke:#1f77b4;" x="332.474474" xlink:href="#m62c4ee27cf" y="73.251968"/>
     <use style="fill:#1f77b4;stroke:#1f77b4;" x="281.168575" xlink:href="#m62c4ee27cf" y="46.465869"/>
     <use style="fill:#1f77b4;stroke:#1f77b4;" x="340.417258" xlink:href="#m62c4ee27cf" y="66.545707"/>
     <use style="fill:#1f77b4;stroke:#1f77b4;" x="357.920998" xlink:href="#m62c4ee27cf" y="60.762062"/>
    </g>
   </g>
   <g id="matplotlib.axis_5">
    <g id="xtick_7">
     <g id="line2d_19">
      <g>
       <use style="stroke:#000000;stroke-width:0.8;" x="269.747535" xlink:href="#m14b34bc508" y="109.835582"/>
      </g>
     </g>
     <g id="text_19">
      <!-- 0.0 -->
      <g transform="translate(261.795973 124.43402)scale(0.1 -0.1)">
       <use xlink:href="#DejaVuSans-48"/>
       <use x="63.623047" xlink:href="#DejaVuSans-46"/>
       <use x="95.410156" xlink:href="#DejaVuSans-48"/>
      </g>
     </g>
    </g>
    <g id="xtick_8">
     <g id="line2d_20">
      <g>
       <use style="stroke:#000000;stroke-width:0.8;" x="305.365901" xlink:href="#m14b34bc508" y="109.835582"/>
      </g>
     </g>
     <g id="text_20">
      <!-- 2.5 -->
      <g transform="translate(297.414338 124.43402)scale(0.1 -0.1)">
       <use xlink:href="#DejaVuSans-50"/>
       <use x="63.623047" xlink:href="#DejaVuSans-46"/>
       <use x="95.410156" xlink:href="#DejaVuSans-53"/>
      </g>
     </g>
    </g>
    <g id="xtick_9">
     <g id="line2d_21">
      <g>
       <use style="stroke:#000000;stroke-width:0.8;" x="340.984266" xlink:href="#m14b34bc508" y="109.835582"/>
      </g>
     </g>
     <g id="text_21">
      <!-- 5.0 -->
      <g transform="translate(333.032704 124.43402)scale(0.1 -0.1)">
       <use xlink:href="#DejaVuSans-53"/>
       <use x="63.623047" xlink:href="#DejaVuSans-46"/>
       <use x="95.410156" xlink:href="#DejaVuSans-48"/>
      </g>
     </g>
    </g>
   </g>
   <g id="matplotlib.axis_6">
    <g id="ytick_11">
     <g id="line2d_22">
      <g>
       <use style="stroke:#000000;stroke-width:0.8;" x="265.271599" xlink:href="#m0f78ebe54e" y="109.835582"/>
      </g>
     </g>
     <g id="text_22">
      <!-- −4 -->
      <g transform="translate(243.529412 113.634801)scale(0.1 -0.1)">
       <use xlink:href="#DejaVuSans-8722"/>
       <use x="83.789062" xlink:href="#DejaVuSans-52"/>
      </g>
     </g>
    </g>
    <g id="ytick_12">
     <g id="line2d_23">
      <g>
       <use style="stroke:#000000;stroke-width:0.8;" x="265.271599" xlink:href="#m0f78ebe54e" y="85.126491"/>
      </g>
     </g>
     <g id="text_23">
      <!-- −2 -->
      <g transform="translate(243.529412 88.92571)scale(0.1 -0.1)">
       <use xlink:href="#DejaVuSans-8722"/>
       <use x="83.789062" xlink:href="#DejaVuSans-50"/>
      </g>
     </g>
    </g>
    <g id="ytick_13">
     <g id="line2d_24">
      <g>
       <use style="stroke:#000000;stroke-width:0.8;" x="265.271599" xlink:href="#m0f78ebe54e" y="60.417401"/>
      </g>
     </g>
     <g id="text_24">
      <!-- 0 -->
      <g transform="translate(251.909099 64.216619)scale(0.1 -0.1)">
       <use xlink:href="#DejaVuSans-48"/>
      </g>
     </g>
    </g>
    <g id="ytick_14">
     <g id="line2d_25">
      <g>
       <use style="stroke:#000000;stroke-width:0.8;" x="265.271599" xlink:href="#m0f78ebe54e" y="35.70831"/>
      </g>
     </g>
     <g id="text_25">
      <!-- 2 -->
      <g transform="translate(251.909099 39.507528)scale(0.1 -0.1)">
       <use xlink:href="#DejaVuSans-50"/>
      </g>
     </g>
    </g>
    <g id="ytick_15">
     <g id="line2d_26">
      <g>
       <use style="stroke:#000000;stroke-width:0.8;" x="265.271599" xlink:href="#m0f78ebe54e" y="10.999219"/>
      </g>
     </g>
     <g id="text_26">
      <!-- 4 -->
      <g transform="translate(251.909099 14.798437)scale(0.1 -0.1)">
       <use xlink:href="#DejaVuSans-52"/>
      </g>
     </g>
    </g>
   </g>
   <g id="line2d_27">
    <path clip-path="url(#p8f1d47202c)" d="M 269.747535 34.908944 
L 270.651765 35.68115 
L 271.555994 36.444725 
L 272.460223 37.199667 
L 273.364453 37.945978 
L 274.268682 38.683658 
L 275.172912 39.412706 
L 276.077141 40.133122 
L 276.981371 40.844907 
L 277.8856 41.54806 
L 278.78983 42.242582 
L 279.694059 42.928472 
L 280.598289 43.60573 
L 281.502518 44.274357 
L 282.406748 44.934353 
L 283.310977 45.585716 
L 284.215206 46.228448 
L 285.119436 46.862549 
L 286.023665 47.488018 
L 286.927895 48.104855 
L 287.832124 48.713061 
L 288.736354 49.312635 
L 289.640583 49.903577 
L 290.544813 50.485888 
L 291.449042 51.059568 
L 292.353272 51.624615 
L 293.257501 52.181032 
L 294.161731 52.728816 
L 295.06596 53.267969 
L 295.970189 53.798491 
L 296.874419 54.32038 
L 297.778648 54.833639 
L 298.682878 55.338265 
L 299.587107 55.83426 
L 300.491337 56.321624 
L 301.395566 56.800356 
L 302.299796 57.270456 
L 303.204025 57.731925 
L 304.108255 58.184762 
L 305.012484 58.628967 
L 305.916714 59.064541 
L 306.820943 59.491484 
L 307.725172 59.909794 
L 308.629402 60.319473 
L 309.533631 60.720521 
L 310.437861 61.112937 
L 311.34209 61.496721 
L 312.24632 61.871874 
L 313.150549 62.238395 
L 314.054779 62.596285 
L 314.959008 62.945543 
L 315.863238 63.28617 
L 316.767467 63.618164 
L 317.671696 63.941528 
L 318.575926 64.256259 
L 319.480155 64.562359 
L 320.384385 64.859828 
L 321.288614 65.148665 
L 322.192844 65.42887 
L 323.097073 65.700444 
L 324.001303 65.963386 
L 324.905532 66.217697 
L 325.809762 66.463376 
L 326.713991 66.700423 
L 327.618221 66.928839 
L 328.52245 67.148623 
L 329.426679 67.359775 
L 330.330909 67.562297 
L 331.235138 67.756186 
L 332.139368 67.941444 
L 333.043597 68.11807 
L 333.947827 68.286065 
L 334.852056 68.445428 
L 335.756286 68.596159 
L 336.660515 68.738259 
L 337.564745 68.871727 
L 338.468974 68.996564 
L 339.373204 69.112769 
L 340.277433 69.220343 
L 341.181662 69.319285 
L 342.085892 69.409595 
L 342.990121 69.491274 
L 343.894351 69.564321 
L 344.79858 69.628737 
L 345.70281 69.684521 
L 346.607039 69.731673 
L 347.511269 69.770194 
L 348.415498 69.800083 
L 349.319728 69.821341 
L 350.223957 69.833967 
L 351.128187 69.837961 
L 352.032416 69.833324 
L 352.936645 69.820055 
L 353.840875 69.798155 
L 354.745104 69.767623 
L 355.649334 69.72846 
L 356.553563 69.680665 
L 357.457793 69.624238 
L 358.362022 69.55918 
L 359.266252 69.48549 
" style="fill:none;stroke:#ffa500;stroke-linecap:square;stroke-width:1.5;"/>
   </g>
   <g id="patch_13">
    <path d="M 265.271599 109.835582 
L 265.271599 10.999219 
" style="fill:none;stroke:#000000;stroke-linecap:square;stroke-linejoin:miter;stroke-width:0.8;"/>
   </g>
   <g id="patch_14">
    <path d="M 363.742188 109.835582 
L 363.742188 10.999219 
" style="fill:none;stroke:#000000;stroke-linecap:square;stroke-linejoin:miter;stroke-width:0.8;"/>
   </g>
   <g id="patch_15">
    <path d="M 265.271599 109.835582 
L 363.742188 109.835582 
" style="fill:none;stroke:#000000;stroke-linecap:square;stroke-linejoin:miter;stroke-width:0.8;"/>
   </g>
   <g id="patch_16">
    <path d="M 265.271599 10.999219 
L 363.742188 10.999219 
" style="fill:none;stroke:#000000;stroke-linecap:square;stroke-linejoin:miter;stroke-width:0.8;"/>
   </g>
   <g id="text_27">
    <!-- M = 3 -->
    <defs>
     <path d="M 40.578125 39.3125 
Q 47.65625 37.796875 51.625 33 
Q 55.609375 28.21875 55.609375 21.1875 
Q 55.609375 10.40625 48.1875 4.484375 
Q 40.765625 -1.421875 27.09375 -1.421875 
Q 22.515625 -1.421875 17.65625 -0.515625 
Q 12.796875 0.390625 7.625 2.203125 
L 7.625 11.71875 
Q 11.71875 9.328125 16.59375 8.109375 
Q 21.484375 6.890625 26.8125 6.890625 
Q 36.078125 6.890625 40.9375 10.546875 
Q 45.796875 14.203125 45.796875 21.1875 
Q 45.796875 27.640625 41.28125 31.265625 
Q 36.765625 34.90625 28.71875 34.90625 
L 20.21875 34.90625 
L 20.21875 43.015625 
L 29.109375 43.015625 
Q 36.375 43.015625 40.234375 45.921875 
Q 44.09375 48.828125 44.09375 54.296875 
Q 44.09375 59.90625 40.109375 62.90625 
Q 36.140625 65.921875 28.71875 65.921875 
Q 24.65625 65.921875 20.015625 65.03125 
Q 15.375 64.15625 9.8125 62.3125 
L 9.8125 71.09375 
Q 15.4375 72.65625 20.34375 73.4375 
Q 25.25 74.21875 29.59375 74.21875 
Q 40.828125 74.21875 47.359375 69.109375 
Q 53.90625 64.015625 53.90625 55.328125 
Q 53.90625 49.265625 50.4375 45.09375 
Q 46.96875 40.921875 40.578125 39.3125 
z
" id="DejaVuSans-51"/>
    </defs>
    <g transform="translate(269.747535 23.353764)scale(0.1 -0.1)">
     <use xlink:href="#DejaVuSans-77"/>
     <use x="86.279297" xlink:href="#DejaVuSans-32"/>
     <use x="118.066406" xlink:href="#DejaVuSans-61"/>
     <use x="201.855469" xlink:href="#DejaVuSans-32"/>
     <use x="233.642578" xlink:href="#DejaVuSans-51"/>
    </g>
   </g>
  </g>
  <g id="axes_4">
   <g id="patch_17">
    <path d="M 28.942188 228.439219 
L 127.412776 228.439219 
L 127.412776 129.602855 
L 28.942188 129.602855 
z
" style="fill:#ffffff;"/>
   </g>
   <g id="PolyCollection_4">
    <path clip-path="url(#p7b22348491)" d="M 33.418123 178.906182 
L 33.418123 163.768199 
L 34.322353 163.220547 
L 35.226582 162.713129 
L 36.130812 162.244662 
L 37.035041 161.813936 
L 37.939271 161.419834 
L 38.8435 161.061351 
L 39.74773 160.737615 
L 40.651959 160.4479 
L 41.556188 160.191641 
L 42.460418 159.968434 
L 43.364647 159.778033 
L 44.268877 159.620333 
L 45.173106 159.495348 
L 46.077336 159.403181 
L 46.981565 159.343994 
L 47.885795 159.317966 
L 48.790024 159.325266 
L 49.694254 159.366014 
L 50.598483 159.440263 
L 51.502713 159.547974 
L 52.406942 159.689004 
L 53.311171 159.863095 
L 54.215401 160.069875 
L 55.11963 160.30885 
L 56.02386 160.579418 
L 56.928089 160.880864 
L 57.832319 161.212374 
L 58.736548 161.573039 
L 59.640778 161.961866 
L 60.545007 162.377784 
L 61.449237 162.81965 
L 62.353466 163.286263 
L 63.257696 163.776365 
L 64.161925 164.28865 
L 65.066154 164.82177 
L 65.970384 165.374341 
L 66.874613 165.944947 
L 67.778843 166.532147 
L 68.683072 167.134476 
L 69.587302 167.750452 
L 70.491531 168.378579 
L 71.395761 169.017348 
L 72.29999 169.665245 
L 73.20422 170.320748 
L 74.108449 170.982334 
L 75.012679 171.648482 
L 75.916908 172.317671 
L 76.821137 172.988385 
L 77.725367 173.659116 
L 78.629596 174.328362 
L 79.533826 174.994632 
L 80.438055 175.656447 
L 81.342285 176.312338 
L 82.246514 176.96085 
L 83.150744 177.600541 
L 84.054973 178.229984 
L 84.959203 178.847763 
L 85.863432 179.452479 
L 86.767661 180.042745 
L 87.671891 180.617184 
L 88.57612 181.174433 
L 89.48035 181.713139 
L 90.384579 182.231954 
L 91.288809 182.72954 
L 92.193038 183.204561 
L 93.097268 183.655682 
L 94.001497 184.081567 
L 94.905727 184.480876 
L 95.809956 184.85226 
L 96.714186 185.194358 
L 97.618415 185.505793 
L 98.522644 185.785169 
L 99.426874 186.031061 
L 100.331103 186.242017 
L 101.235333 186.416545 
L 102.139562 186.553113 
L 103.043792 186.65014 
L 103.948021 186.705988 
L 104.852251 186.718957 
L 105.75648 186.687278 
L 106.66071 186.609103 
L 107.564939 186.482502 
L 108.469169 186.305456 
L 109.373398 186.07585 
L 110.277627 185.791473 
L 111.181857 185.450014 
L 112.086086 185.049065 
L 112.990316 184.586129 
L 113.894545 184.058627 
L 114.798775 183.463914 
L 115.703004 182.799295 
L 116.607234 182.062054 
L 117.511463 181.249473 
L 118.415693 180.358862 
L 119.319922 179.387586 
L 120.224152 178.333093 
L 121.128381 177.192925 
L 122.03261 175.964742 
L 122.93684 174.646327 
L 122.93684 185.370558 
L 122.93684 185.370558 
L 122.03261 186.320103 
L 121.128381 187.219767 
L 120.224152 188.070123 
L 119.319922 188.871622 
L 118.415693 189.624599 
L 117.511463 190.329291 
L 116.607234 190.985856 
L 115.703004 191.594395 
L 114.798775 192.154982 
L 113.894545 192.66769 
L 112.990316 193.132619 
L 112.086086 193.549913 
L 111.181857 193.919785 
L 110.277627 194.242528 
L 109.373398 194.518527 
L 108.469169 194.748263 
L 107.564939 194.932314 
L 106.66071 195.071359 
L 105.75648 195.166168 
L 104.852251 195.217603 
L 103.948021 195.226609 
L 103.043792 195.194206 
L 102.139562 195.121488 
L 101.235333 195.009606 
L 100.331103 194.859772 
L 99.426874 194.673243 
L 98.522644 194.451322 
L 97.618415 194.195345 
L 96.714186 193.90668 
L 95.809956 193.586723 
L 94.905727 193.236886 
L 94.001497 192.858602 
L 93.097268 192.453312 
L 92.193038 192.022467 
L 91.288809 191.567523 
L 90.384579 191.089937 
L 89.48035 190.591164 
L 88.57612 190.072656 
L 87.671891 189.535858 
L 86.767661 188.982208 
L 85.863432 188.413133 
L 84.959203 187.83005 
L 84.054973 187.234362 
L 83.150744 186.62746 
L 82.246514 186.010721 
L 81.342285 185.38551 
L 80.438055 184.753174 
L 79.533826 184.115052 
L 78.629596 183.472465 
L 77.725367 182.826725 
L 76.821137 182.179132 
L 75.916908 181.530978 
L 75.012679 180.883543 
L 74.108449 180.238105 
L 73.20422 179.595934 
L 72.29999 178.958299 
L 71.395761 178.326468 
L 70.491531 177.701713 
L 69.587302 177.085308 
L 68.683072 176.478539 
L 67.778843 175.882699 
L 66.874613 175.299097 
L 65.970384 174.729062 
L 65.066154 174.173942 
L 64.161925 173.635113 
L 63.257696 173.113982 
L 62.353466 172.611993 
L 61.449237 172.130631 
L 60.545007 171.67143 
L 59.640778 171.235979 
L 58.736548 170.825928 
L 57.832319 170.442997 
L 56.928089 170.088983 
L 56.02386 169.76577 
L 55.11963 169.475334 
L 54.215401 169.219754 
L 53.311171 169.001215 
L 52.406942 168.822019 
L 51.502713 168.684582 
L 50.598483 168.591439 
L 49.694254 168.545237 
L 48.790024 168.54873 
L 47.885795 168.604761 
L 46.981565 168.716243 
L 46.077336 168.886135 
L 45.173106 169.117409 
L 44.268877 169.413015 
L 43.364647 169.775851 
L 42.460418 170.20872 
L 41.556188 170.714311 
L 40.651959 171.295166 
L 39.74773 171.953675 
L 38.8435 172.692062 
L 37.939271 173.512394 
L 37.035041 174.416591 
L 36.130812 175.406439 
L 35.226582 176.483611 
L 34.322353 177.649688 
L 33.418123 178.906182 
z
" style="fill:#bfbf00;fill-opacity:0.2;"/>
   </g>
   <g id="PathCollection_4">
    <g clip-path="url(#p7b22348491)">
     <use style="fill:#1f77b4;stroke:#1f77b4;" x="65.340082" xlink:href="#m62c4ee27cf" y="165.505711"/>
     <use style="fill:#1f77b4;stroke:#1f77b4;" x="101.633" xlink:href="#m62c4ee27cf" y="192.785711"/>
     <use style="fill:#1f77b4;stroke:#1f77b4;" x="52.835274" xlink:href="#m62c4ee27cf" y="165.576405"/>
     <use style="fill:#1f77b4;stroke:#1f77b4;" x="111.930463" xlink:href="#m62c4ee27cf" y="192.426036"/>
     <use style="fill:#1f77b4;stroke:#1f77b4;" x="98.021447" xlink:href="#m62c4ee27cf" y="190.12684"/>
     <use style="fill:#1f77b4;stroke:#1f77b4;" x="114.342284" xlink:href="#m62c4ee27cf" y="189.944948"/>
     <use style="fill:#1f77b4;stroke:#1f77b4;" x="96.145062" xlink:href="#m62c4ee27cf" y="191.855604"/>
     <use style="fill:#1f77b4;stroke:#1f77b4;" x="44.839163" xlink:href="#m62c4ee27cf" y="165.069505"/>
     <use style="fill:#1f77b4;stroke:#1f77b4;" x="104.087847" xlink:href="#m62c4ee27cf" y="185.149343"/>
     <use style="fill:#1f77b4;stroke:#1f77b4;" x="121.591586" xlink:href="#m62c4ee27cf" y="179.365698"/>
    </g>
   </g>
   <g id="matplotlib.axis_7">
    <g id="xtick_10">
     <g id="line2d_28">
      <g>
       <use style="stroke:#000000;stroke-width:0.8;" x="33.418123" xlink:href="#m14b34bc508" y="228.439219"/>
      </g>
     </g>
     <g id="text_28">
      <!-- 0.0 -->
      <g transform="translate(25.466561 243.037656)scale(0.1 -0.1)">
       <use xlink:href="#DejaVuSans-48"/>
       <use x="63.623047" xlink:href="#DejaVuSans-46"/>
       <use x="95.410156" xlink:href="#DejaVuSans-48"/>
      </g>
     </g>
    </g>
    <g id="xtick_11">
     <g id="line2d_29">
      <g>
       <use style="stroke:#000000;stroke-width:0.8;" x="69.036489" xlink:href="#m14b34bc508" y="228.439219"/>
      </g>
     </g>
     <g id="text_29">
      <!-- 2.5 -->
      <g transform="translate(61.084926 243.037656)scale(0.1 -0.1)">
       <use xlink:href="#DejaVuSans-50"/>
       <use x="63.623047" xlink:href="#DejaVuSans-46"/>
       <use x="95.410156" xlink:href="#DejaVuSans-53"/>
      </g>
     </g>
    </g>
    <g id="xtick_12">
     <g id="line2d_30">
      <g>
       <use style="stroke:#000000;stroke-width:0.8;" x="104.654855" xlink:href="#m14b34bc508" y="228.439219"/>
      </g>
     </g>
     <g id="text_30">
      <!-- 5.0 -->
      <g transform="translate(96.703292 243.037656)scale(0.1 -0.1)">
       <use xlink:href="#DejaVuSans-53"/>
       <use x="63.623047" xlink:href="#DejaVuSans-46"/>
       <use x="95.410156" xlink:href="#DejaVuSans-48"/>
      </g>
     </g>
    </g>
   </g>
   <g id="matplotlib.axis_8">
    <g id="ytick_16">
     <g id="line2d_31">
      <g>
       <use style="stroke:#000000;stroke-width:0.8;" x="28.942188" xlink:href="#m0f78ebe54e" y="228.439219"/>
      </g>
     </g>
     <g id="text_31">
      <!-- −4 -->
      <g transform="translate(7.2 232.238437)scale(0.1 -0.1)">
       <use xlink:href="#DejaVuSans-8722"/>
       <use x="83.789062" xlink:href="#DejaVuSans-52"/>
      </g>
     </g>
    </g>
    <g id="ytick_17">
     <g id="line2d_32">
      <g>
       <use style="stroke:#000000;stroke-width:0.8;" x="28.942188" xlink:href="#m0f78ebe54e" y="203.730128"/>
      </g>
     </g>
     <g id="text_32">
      <!-- −2 -->
      <g transform="translate(7.2 207.529347)scale(0.1 -0.1)">
       <use xlink:href="#DejaVuSans-8722"/>
       <use x="83.789062" xlink:href="#DejaVuSans-50"/>
      </g>
     </g>
    </g>
    <g id="ytick_18">
     <g id="line2d_33">
      <g>
       <use style="stroke:#000000;stroke-width:0.8;" x="28.942188" xlink:href="#m0f78ebe54e" y="179.021037"/>
      </g>
     </g>
     <g id="text_33">
      <!-- 0 -->
      <g transform="translate(15.579688 182.820256)scale(0.1 -0.1)">
       <use xlink:href="#DejaVuSans-48"/>
      </g>
     </g>
    </g>
    <g id="ytick_19">
     <g id="line2d_34">
      <g>
       <use style="stroke:#000000;stroke-width:0.8;" x="28.942188" xlink:href="#m0f78ebe54e" y="154.311946"/>
      </g>
     </g>
     <g id="text_34">
      <!-- 2 -->
      <g transform="translate(15.579688 158.111165)scale(0.1 -0.1)">
       <use xlink:href="#DejaVuSans-50"/>
      </g>
     </g>
    </g>
    <g id="ytick_20">
     <g id="line2d_35">
      <g>
       <use style="stroke:#000000;stroke-width:0.8;" x="28.942188" xlink:href="#m0f78ebe54e" y="129.602855"/>
      </g>
     </g>
     <g id="text_35">
      <!-- 4 -->
      <g transform="translate(15.579688 133.402074)scale(0.1 -0.1)">
       <use xlink:href="#DejaVuSans-52"/>
      </g>
     </g>
    </g>
   </g>
   <g id="line2d_36">
    <path clip-path="url(#p7b22348491)" d="M 33.418123 171.33719 
L 34.322353 170.435118 
L 35.226582 169.59837 
L 36.130812 168.82555 
L 37.035041 168.115264 
L 37.939271 167.466114 
L 38.8435 166.876707 
L 39.74773 166.345645 
L 40.651959 165.871533 
L 41.556188 165.452976 
L 42.460418 165.088577 
L 43.364647 164.776942 
L 44.268877 164.516674 
L 45.173106 164.306378 
L 46.077336 164.144658 
L 46.981565 164.030119 
L 47.885795 163.961364 
L 48.790024 163.936998 
L 49.694254 163.955625 
L 50.598483 164.015851 
L 51.502713 164.116278 
L 52.406942 164.255511 
L 53.311171 164.432155 
L 54.215401 164.644814 
L 55.11963 164.892092 
L 56.02386 165.172594 
L 56.928089 165.484924 
L 57.832319 165.827685 
L 58.736548 166.199484 
L 59.640778 166.598923 
L 60.545007 167.024607 
L 61.449237 167.475141 
L 62.353466 167.949128 
L 63.257696 168.445173 
L 64.161925 168.961881 
L 65.066154 169.497856 
L 65.970384 170.051701 
L 66.874613 170.622022 
L 67.778843 171.207423 
L 68.683072 171.806507 
L 69.587302 172.41788 
L 70.491531 173.040146 
L 71.395761 173.671908 
L 72.29999 174.311772 
L 73.20422 174.958341 
L 74.108449 175.61022 
L 75.012679 176.266013 
L 75.916908 176.924324 
L 76.821137 177.583759 
L 77.725367 178.24292 
L 78.629596 178.900413 
L 79.533826 179.554842 
L 80.438055 180.204811 
L 81.342285 180.848924 
L 82.246514 181.485786 
L 83.150744 182.114 
L 84.054973 182.732173 
L 84.959203 183.338907 
L 85.863432 183.932806 
L 86.767661 184.512476 
L 87.671891 185.076521 
L 88.57612 185.623545 
L 89.48035 186.152151 
L 90.384579 186.660946 
L 91.288809 187.148532 
L 92.193038 187.613514 
L 93.097268 188.054497 
L 94.001497 188.470084 
L 94.905727 188.858881 
L 95.809956 189.219491 
L 96.714186 189.550519 
L 97.618415 189.850569 
L 98.522644 190.118245 
L 99.426874 190.352152 
L 100.331103 190.550894 
L 101.235333 190.713076 
L 102.139562 190.8373 
L 103.043792 190.922173 
L 103.948021 190.966299 
L 104.852251 190.96828 
L 105.75648 190.926723 
L 106.66071 190.840231 
L 107.564939 190.707408 
L 108.469169 190.526859 
L 109.373398 190.297189 
L 110.277627 190.017 
L 111.181857 189.684899 
L 112.086086 189.299489 
L 112.990316 188.859374 
L 113.894545 188.363159 
L 114.798775 187.809448 
L 115.703004 187.196845 
L 116.607234 186.523955 
L 117.511463 185.789382 
L 118.415693 184.99173 
L 119.319922 184.129604 
L 120.224152 183.201608 
L 121.128381 182.206346 
L 122.03261 181.142423 
L 122.93684 180.008442 
" style="fill:none;stroke:#ffa500;stroke-linecap:square;stroke-width:1.5;"/>
   </g>
   <g id="patch_18">
    <path d="M 28.942188 228.439219 
L 28.942188 129.602855 
" style="fill:none;stroke:#000000;stroke-linecap:square;stroke-linejoin:miter;stroke-width:0.8;"/>
   </g>
   <g id="patch_19">
    <path d="M 127.412776 228.439219 
L 127.412776 129.602855 
" style="fill:none;stroke:#000000;stroke-linecap:square;stroke-linejoin:miter;stroke-width:0.8;"/>
   </g>
   <g id="patch_20">
    <path d="M 28.942188 228.439219 
L 127.412776 228.439219 
" style="fill:none;stroke:#000000;stroke-linecap:square;stroke-linejoin:miter;stroke-width:0.8;"/>
   </g>
   <g id="patch_21">
    <path d="M 28.942188 129.602855 
L 127.412776 129.602855 
" style="fill:none;stroke:#000000;stroke-linecap:square;stroke-linejoin:miter;stroke-width:0.8;"/>
   </g>
   <g id="text_36">
    <!-- M = 4 -->
    <g transform="translate(33.418123 141.957401)scale(0.1 -0.1)">
     <use xlink:href="#DejaVuSans-77"/>
     <use x="86.279297" xlink:href="#DejaVuSans-32"/>
     <use x="118.066406" xlink:href="#DejaVuSans-61"/>
     <use x="201.855469" xlink:href="#DejaVuSans-32"/>
     <use x="233.642578" xlink:href="#DejaVuSans-52"/>
    </g>
   </g>
  </g>
  <g id="axes_5">
   <g id="patch_22">
    <path d="M 147.106893 228.439219 
L 245.577482 228.439219 
L 245.577482 129.602855 
L 147.106893 129.602855 
z
" style="fill:#ffffff;"/>
   </g>
   <g id="PolyCollection_5">
    <path clip-path="url(#pf8171fde06)" d="M 151.582829 177.964804 
L 151.582829 162.77715 
L 152.487059 162.779788 
L 153.391288 162.742246 
L 154.295518 162.670071 
L 155.199747 162.568651 
L 156.103977 162.443166 
L 157.008206 162.298543 
L 157.912435 162.139409 
L 158.816665 161.970062 
L 159.720894 161.794446 
L 160.625124 161.61614 
L 161.529353 161.438359 
L 162.433583 161.263966 
L 163.337812 161.095489 
L 164.242042 160.935152 
L 165.146271 160.784905 
L 166.050501 160.646461 
L 166.95473 160.521332 
L 167.858959 160.410864 
L 168.763189 160.316277 
L 169.667418 160.238689 
L 170.571648 160.179153 
L 171.475877 160.138672 
L 172.380107 160.118219 
L 173.284336 160.11875 
L 174.188566 160.14121 
L 175.092795 160.186529 
L 175.997025 160.255626 
L 176.901254 160.349398 
L 177.805484 160.46871 
L 178.709713 160.614387 
L 179.613942 160.787198 
L 180.518172 160.987849 
L 181.422401 161.216966 
L 182.326631 161.475091 
L 183.23086 161.762664 
L 184.13509 162.080021 
L 185.039319 162.427387 
L 185.943549 162.804864 
L 186.847778 163.212432 
L 187.752008 163.649942 
L 188.656237 164.117115 
L 189.560467 164.613535 
L 190.464696 165.138653 
L 191.368925 165.691782 
L 192.273155 166.272094 
L 193.177384 166.878624 
L 194.081614 167.510267 
L 194.985843 168.165775 
L 195.890073 168.843761 
L 196.794302 169.542699 
L 197.698532 170.260919 
L 198.602761 170.996614 
L 199.506991 171.747836 
L 200.41122 172.5125 
L 201.31545 173.288386 
L 202.219679 174.073137 
L 203.123908 174.864269 
L 204.028138 175.65917 
L 204.932367 176.455107 
L 205.836597 177.249233 
L 206.740826 178.038596 
L 207.645056 178.820147 
L 208.549285 179.590754 
L 209.453515 180.347216 
L 210.357744 181.086276 
L 211.261974 181.804642 
L 212.166203 182.499001 
L 213.070433 183.166043 
L 213.974662 183.802472 
L 214.878891 184.405031 
L 215.783121 184.970506 
L 216.68735 185.495744 
L 217.59158 185.977657 
L 218.495809 186.413216 
L 219.400039 186.799452 
L 220.304268 187.133436 
L 221.208498 187.412266 
L 222.112727 187.633038 
L 223.016957 187.792814 
L 223.921186 187.888587 
L 224.825416 187.917239 
L 225.729645 187.875491 
L 226.633874 187.759847 
L 227.538104 187.566534 
L 228.442333 187.291432 
L 229.346563 186.929988 
L 230.250792 186.477131 
L 231.155022 185.927171 
L 232.059251 185.273689 
L 232.963481 184.509439 
L 233.86771 183.626249 
L 234.77194 182.614967 
L 235.676169 181.465462 
L 236.580398 180.166701 
L 237.484628 178.706948 
L 238.388857 177.07405 
L 239.293087 175.255812 
L 240.197316 173.240375 
L 241.101546 171.016542 
L 241.101546 182.506509 
L 241.101546 182.506509 
L 240.197316 184.067442 
L 239.293087 185.542125 
L 238.388857 186.929623 
L 237.484628 188.228193 
L 236.580398 189.4356 
L 235.676169 190.549506 
L 234.77194 191.567831 
L 233.86771 192.489056 
L 232.963481 193.312406 
L 232.059251 194.037937 
L 231.155022 194.666537 
L 230.250792 195.199862 
L 229.346563 195.640252 
L 228.442333 195.990618 
L 227.538104 196.254343 
L 226.633874 196.435179 
L 225.729645 196.537156 
L 224.825416 196.5645 
L 223.921186 196.521567 
L 223.016957 196.412776 
L 222.112727 196.242556 
L 221.208498 196.015298 
L 220.304268 195.73531 
L 219.400039 195.406784 
L 218.495809 195.03376 
L 217.59158 194.620104 
L 216.68735 194.169489 
L 215.783121 193.685379 
L 214.878891 193.171024 
L 213.974662 192.629461 
L 213.070433 192.063518 
L 212.166203 191.475822 
L 211.261974 190.868816 
L 210.357744 190.244775 
L 209.453515 189.605823 
L 208.549285 188.95395 
L 207.645056 188.291034 
L 206.740826 187.618855 
L 205.836597 186.939114 
L 204.932367 186.253442 
L 204.028138 185.563416 
L 203.123908 184.870569 
L 202.219679 184.176395 
L 201.31545 183.482359 
L 200.41122 182.789903 
L 199.506991 182.100446 
L 198.602761 181.415392 
L 197.698532 180.736127 
L 196.794302 180.064029 
L 195.890073 179.40046 
L 194.985843 178.746772 
L 194.081614 178.104308 
L 193.177384 177.474398 
L 192.273155 176.858366 
L 191.368925 176.257521 
L 190.464696 175.673164 
L 189.560467 175.106583 
L 188.656237 174.559056 
L 187.752008 174.031845 
L 186.847778 173.526198 
L 185.943549 173.043347 
L 185.039319 172.584504 
L 184.13509 172.150858 
L 183.23086 171.743571 
L 182.326631 171.363774 
L 181.422401 171.01256 
L 180.518172 170.690978 
L 179.613942 170.400022 
L 178.709713 170.140623 
L 177.805484 169.913641 
L 176.901254 169.719846 
L 175.997025 169.559916 
L 175.092795 169.434416 
L 174.188566 169.343792 
L 173.284336 169.288362 
L 172.380107 169.268305 
L 171.475877 169.283662 
L 170.571648 169.334334 
L 169.667418 169.42009 
L 168.763189 169.540578 
L 167.858959 169.695342 
L 166.95473 169.883846 
L 166.050501 170.105498 
L 165.146271 170.359686 
L 164.242042 170.645812 
L 163.337812 170.963327 
L 162.433583 171.311769 
L 161.529353 171.690798 
L 160.625124 172.10023 
L 159.720894 172.540061 
L 158.816665 173.010492 
L 157.912435 173.511934 
L 157.008206 174.045014 
L 156.103977 174.610561 
L 155.199747 175.209582 
L 154.295518 175.843235 
L 153.391288 176.512778 
L 152.487059 177.219527 
L 151.582829 177.964804 
z
" style="fill:#bfbf00;fill-opacity:0.2;"/>
   </g>
   <g id="PathCollection_5">
    <g clip-path="url(#pf8171fde06)">
     <use style="fill:#1f77b4;stroke:#1f77b4;" x="183.504788" xlink:href="#m62c4ee27cf" y="165.505711"/>
     <use style="fill:#1f77b4;stroke:#1f77b4;" x="219.797706" xlink:href="#m62c4ee27cf" y="192.785711"/>
     <use style="fill:#1f77b4;stroke:#1f77b4;" x="170.99998" xlink:href="#m62c4ee27cf" y="165.576405"/>
     <use style="fill:#1f77b4;stroke:#1f77b4;" x="230.095169" xlink:href="#m62c4ee27cf" y="192.426036"/>
     <use style="fill:#1f77b4;stroke:#1f77b4;" x="216.186153" xlink:href="#m62c4ee27cf" y="190.12684"/>
     <use style="fill:#1f77b4;stroke:#1f77b4;" x="232.506989" xlink:href="#m62c4ee27cf" y="189.944948"/>
     <use style="fill:#1f77b4;stroke:#1f77b4;" x="214.309768" xlink:href="#m62c4ee27cf" y="191.855604"/>
     <use style="fill:#1f77b4;stroke:#1f77b4;" x="163.003869" xlink:href="#m62c4ee27cf" y="165.069505"/>
     <use style="fill:#1f77b4;stroke:#1f77b4;" x="222.252553" xlink:href="#m62c4ee27cf" y="185.149343"/>
     <use style="fill:#1f77b4;stroke:#1f77b4;" x="239.756292" xlink:href="#m62c4ee27cf" y="179.365698"/>
    </g>
   </g>
   <g id="matplotlib.axis_9">
    <g id="xtick_13">
     <g id="line2d_37">
      <g>
       <use style="stroke:#000000;stroke-width:0.8;" x="151.582829" xlink:href="#m14b34bc508" y="228.439219"/>
      </g>
     </g>
     <g id="text_37">
      <!-- 0.0 -->
      <g transform="translate(143.631267 243.037656)scale(0.1 -0.1)">
       <use xlink:href="#DejaVuSans-48"/>
       <use x="63.623047" xlink:href="#DejaVuSans-46"/>
       <use x="95.410156" xlink:href="#DejaVuSans-48"/>
      </g>
     </g>
    </g>
    <g id="xtick_14">
     <g id="line2d_38">
      <g>
       <use style="stroke:#000000;stroke-width:0.8;" x="187.201195" xlink:href="#m14b34bc508" y="228.439219"/>
      </g>
     </g>
     <g id="text_38">
      <!-- 2.5 -->
      <g transform="translate(179.249632 243.037656)scale(0.1 -0.1)">
       <use xlink:href="#DejaVuSans-50"/>
       <use x="63.623047" xlink:href="#DejaVuSans-46"/>
       <use x="95.410156" xlink:href="#DejaVuSans-53"/>
      </g>
     </g>
    </g>
    <g id="xtick_15">
     <g id="line2d_39">
      <g>
       <use style="stroke:#000000;stroke-width:0.8;" x="222.81956" xlink:href="#m14b34bc508" y="228.439219"/>
      </g>
     </g>
     <g id="text_39">
      <!-- 5.0 -->
      <g transform="translate(214.867998 243.037656)scale(0.1 -0.1)">
       <use xlink:href="#DejaVuSans-53"/>
       <use x="63.623047" xlink:href="#DejaVuSans-46"/>
       <use x="95.410156" xlink:href="#DejaVuSans-48"/>
      </g>
     </g>
    </g>
   </g>
   <g id="matplotlib.axis_10">
    <g id="ytick_21">
     <g id="line2d_40">
      <g>
       <use style="stroke:#000000;stroke-width:0.8;" x="147.106893" xlink:href="#m0f78ebe54e" y="228.439219"/>
      </g>
     </g>
     <g id="text_40">
      <!-- −4 -->
      <g transform="translate(125.364706 232.238437)scale(0.1 -0.1)">
       <use xlink:href="#DejaVuSans-8722"/>
       <use x="83.789062" xlink:href="#DejaVuSans-52"/>
      </g>
     </g>
    </g>
    <g id="ytick_22">
     <g id="line2d_41">
      <g>
       <use style="stroke:#000000;stroke-width:0.8;" x="147.106893" xlink:href="#m0f78ebe54e" y="203.730128"/>
      </g>
     </g>
     <g id="text_41">
      <!-- −2 -->
      <g transform="translate(125.364706 207.529347)scale(0.1 -0.1)">
       <use xlink:href="#DejaVuSans-8722"/>
       <use x="83.789062" xlink:href="#DejaVuSans-50"/>
      </g>
     </g>
    </g>
    <g id="ytick_23">
     <g id="line2d_42">
      <g>
       <use style="stroke:#000000;stroke-width:0.8;" x="147.106893" xlink:href="#m0f78ebe54e" y="179.021037"/>
      </g>
     </g>
     <g id="text_42">
      <!-- 0 -->
      <g transform="translate(133.744393 182.820256)scale(0.1 -0.1)">
       <use xlink:href="#DejaVuSans-48"/>
      </g>
     </g>
    </g>
    <g id="ytick_24">
     <g id="line2d_43">
      <g>
       <use style="stroke:#000000;stroke-width:0.8;" x="147.106893" xlink:href="#m0f78ebe54e" y="154.311946"/>
      </g>
     </g>
     <g id="text_43">
      <!-- 2 -->
      <g transform="translate(133.744393 158.111165)scale(0.1 -0.1)">
       <use xlink:href="#DejaVuSans-50"/>
      </g>
     </g>
    </g>
    <g id="ytick_25">
     <g id="line2d_44">
      <g>
       <use style="stroke:#000000;stroke-width:0.8;" x="147.106893" xlink:href="#m0f78ebe54e" y="129.602855"/>
      </g>
     </g>
     <g id="text_44">
      <!-- 4 -->
      <g transform="translate(133.744393 133.402074)scale(0.1 -0.1)">
       <use xlink:href="#DejaVuSans-52"/>
      </g>
     </g>
    </g>
   </g>
   <g id="line2d_45">
    <path clip-path="url(#pf8171fde06)" d="M 151.582829 170.370977 
L 152.487059 169.999657 
L 153.391288 169.627512 
L 154.295518 169.256653 
L 155.199747 168.889117 
L 156.103977 168.526863 
L 157.008206 168.171778 
L 157.912435 167.825672 
L 158.816665 167.490277 
L 159.720894 167.167254 
L 160.625124 166.858185 
L 161.529353 166.564579 
L 162.433583 166.287867 
L 163.337812 166.029408 
L 164.242042 165.790482 
L 165.146271 165.572296 
L 166.050501 165.37598 
L 166.95473 165.202589 
L 167.858959 165.053103 
L 168.763189 164.928427 
L 169.667418 164.82939 
L 170.571648 164.756743 
L 171.475877 164.711167 
L 172.380107 164.693262 
L 173.284336 164.703556 
L 174.188566 164.742501 
L 175.092795 164.810472 
L 175.997025 164.907771 
L 176.901254 165.034622 
L 177.805484 165.191175 
L 178.709713 165.377505 
L 179.613942 165.59361 
L 180.518172 165.839413 
L 181.422401 166.114763 
L 182.326631 166.419432 
L 183.23086 166.753117 
L 184.13509 167.11544 
L 185.039319 167.505945 
L 185.943549 167.924106 
L 186.847778 168.369315 
L 187.752008 168.840893 
L 188.656237 169.338085 
L 189.560467 169.860059 
L 190.464696 170.405909 
L 191.368925 170.974651 
L 192.273155 171.56523 
L 193.177384 172.176511 
L 194.081614 172.807287 
L 194.985843 173.456273 
L 195.890073 174.122111 
L 196.794302 174.803364 
L 197.698532 175.498523 
L 198.602761 176.206003 
L 199.506991 176.924141 
L 200.41122 177.651202 
L 201.31545 178.385373 
L 202.219679 179.124766 
L 203.123908 179.867419 
L 204.028138 180.611293 
L 204.932367 181.354275 
L 205.836597 182.094174 
L 206.740826 182.828726 
L 207.645056 183.55559 
L 208.549285 184.272352 
L 209.453515 184.976519 
L 210.357744 185.665526 
L 211.261974 186.336729 
L 212.166203 186.987411 
L 213.070433 187.61478 
L 213.974662 188.215967 
L 214.878891 188.788027 
L 215.783121 189.327942 
L 216.68735 189.832617 
L 217.59158 190.298881 
L 218.495809 190.723488 
L 219.400039 191.103118 
L 220.304268 191.434373 
L 221.208498 191.713782 
L 222.112727 191.937797 
L 223.016957 192.102795 
L 223.921186 192.205077 
L 224.825416 192.240869 
L 225.729645 192.206323 
L 226.633874 192.097513 
L 227.538104 191.910439 
L 228.442333 191.641025 
L 229.346563 191.28512 
L 230.250792 190.838497 
L 231.155022 190.296854 
L 232.059251 189.655813 
L 232.963481 188.910922 
L 233.86771 188.057652 
L 234.77194 187.091399 
L 235.676169 186.007484 
L 236.580398 184.801151 
L 237.484628 183.46757 
L 238.388857 182.001837 
L 239.293087 180.398968 
L 240.197316 178.653908 
L 241.101546 176.761525 
" style="fill:none;stroke:#ffa500;stroke-linecap:square;stroke-width:1.5;"/>
   </g>
   <g id="patch_23">
    <path d="M 147.106893 228.439219 
L 147.106893 129.602855 
" style="fill:none;stroke:#000000;stroke-linecap:square;stroke-linejoin:miter;stroke-width:0.8;"/>
   </g>
   <g id="patch_24">
    <path d="M 245.577482 228.439219 
L 245.577482 129.602855 
" style="fill:none;stroke:#000000;stroke-linecap:square;stroke-linejoin:miter;stroke-width:0.8;"/>
   </g>
   <g id="patch_25">
    <path d="M 147.106893 228.439219 
L 245.577482 228.439219 
" style="fill:none;stroke:#000000;stroke-linecap:square;stroke-linejoin:miter;stroke-width:0.8;"/>
   </g>
   <g id="patch_26">
    <path d="M 147.106893 129.602855 
L 245.577482 129.602855 
" style="fill:none;stroke:#000000;stroke-linecap:square;stroke-linejoin:miter;stroke-width:0.8;"/>
   </g>
   <g id="text_45">
    <!-- M = 5 -->
    <g transform="translate(151.582829 141.957401)scale(0.1 -0.1)">
     <use xlink:href="#DejaVuSans-77"/>
     <use x="86.279297" xlink:href="#DejaVuSans-32"/>
     <use x="118.066406" xlink:href="#DejaVuSans-61"/>
     <use x="201.855469" xlink:href="#DejaVuSans-32"/>
     <use x="233.642578" xlink:href="#DejaVuSans-53"/>
    </g>
   </g>
  </g>
  <g id="axes_6">
   <g id="patch_27">
    <path d="M 265.271599 228.439219 
L 363.742188 228.439219 
L 363.742188 129.602855 
L 265.271599 129.602855 
z
" style="fill:#ffffff;"/>
   </g>
   <g id="PolyCollection_6">
    <path clip-path="url(#pd74995fed0)" d="M 269.747535 179.017791 
L 269.747535 161.663461 
L 270.651765 161.766515 
L 271.555994 161.848553 
L 272.460223 161.912501 
L 273.364453 161.960494 
L 274.268682 161.993871 
L 275.172912 162.013115 
L 276.077141 162.017767 
L 276.981371 162.006346 
L 277.8856 161.976333 
L 278.78983 161.924269 
L 279.694059 161.846007 
L 280.598289 161.737191 
L 281.502518 161.593939 
L 282.406748 161.4137 
L 283.310977 161.196121 
L 284.215206 160.943719 
L 285.119436 160.662147 
L 286.023665 160.359962 
L 286.927895 160.047966 
L 287.832124 159.738307 
L 288.736354 159.443535 
L 289.640583 159.175787 
L 290.544813 158.946117 
L 291.449042 158.763995 
L 292.353272 158.636914 
L 293.257501 158.570072 
L 294.161731 158.566098 
L 295.06596 158.624828 
L 295.970189 158.743151 
L 296.874419 158.915016 
L 297.778648 159.131724 
L 298.682878 159.382644 
L 299.587107 159.656485 
L 300.491337 159.943023 
L 301.395566 160.234959 
L 302.299796 160.529333 
L 303.204025 160.828006 
L 304.108255 161.137106 
L 305.012484 161.465766 
L 305.916714 161.82465 
L 306.820943 162.224646 
L 307.725172 162.675913 
L 308.629402 163.187255 
L 309.533631 163.765759 
L 310.437861 164.416597 
L 311.34209 165.142946 
L 312.24632 165.94595 
L 313.150549 166.824744 
L 314.054779 167.77649 
L 314.959008 168.796447 
L 315.863238 169.87806 
L 316.767467 171.013084 
L 317.671696 172.191723 
L 318.575926 173.402807 
L 319.480155 174.633992 
L 320.384385 175.871989 
L 321.288614 177.102823 
L 322.192844 178.312109 
L 323.097073 179.485345 
L 324.001303 180.60822 
L 324.905532 181.666919 
L 325.809762 182.648414 
L 326.713991 183.540736 
L 327.618221 184.333198 
L 328.52245 185.016577 
L 329.426679 185.583232 
L 330.330909 186.027194 
L 331.235138 186.344257 
L 332.139368 186.532179 
L 333.043597 186.591103 
L 333.947827 186.524315 
L 334.852056 186.339326 
L 335.756286 186.04903 
L 336.660515 185.672488 
L 337.564745 185.23487 
L 338.468974 184.766461 
L 339.373204 184.300977 
L 340.277433 183.873604 
L 341.181662 183.519018 
L 342.085892 183.269408 
L 342.990121 183.152333 
L 343.894351 183.18819 
L 344.79858 183.387028 
L 345.70281 183.744538 
L 346.607039 184.237276 
L 347.511269 184.817997 
L 348.415498 185.413909 
L 349.319728 185.933059 
L 350.223957 186.282402 
L 351.128187 186.390032 
L 352.032416 186.214539 
L 352.936645 185.735613 
L 353.840875 184.936589 
L 354.745104 183.786465 
L 355.649334 182.211607 
L 356.553563 180.011644 
L 357.457793 176.551273 
L 358.362022 170.082355 
L 359.266252 158.670258 
L 359.266252 178.750156 
L 359.266252 178.750156 
L 358.362022 182.553325 
L 357.457793 187.375035 
L 356.553563 192.017143 
L 355.649334 195.366614 
L 354.745104 197.332128 
L 353.840875 198.175664 
L 352.936645 198.21309 
L 352.032416 197.738162 
L 351.128187 197.001686 
L 350.223957 196.200387 
L 349.319728 195.465737 
L 348.415498 194.860297 
L 347.511269 194.392304 
L 346.607039 194.042653 
L 345.70281 193.787268 
L 344.79858 193.60738 
L 343.894351 193.491258 
L 342.990121 193.432674 
L 342.085892 193.428905 
L 341.181662 193.479181 
L 340.277433 193.58367 
L 339.373204 193.742837 
L 338.468974 193.956942 
L 337.564745 194.225473 
L 336.660515 194.546359 
L 335.756286 194.915012 
L 334.852056 195.323468 
L 333.947827 195.760045 
L 333.043597 196.209811 
L 332.139368 196.655749 
L 331.235138 197.08018 
L 330.330909 197.466013 
L 329.426679 197.797571 
L 328.52245 198.061008 
L 327.618221 198.244428 
L 326.713991 198.337845 
L 325.809762 198.333081 
L 324.905532 198.223662 
L 324.001303 198.004738 
L 323.097073 197.673021 
L 322.192844 197.226757 
L 321.288614 196.665696 
L 320.384385 195.991081 
L 319.480155 195.205629 
L 318.575926 194.313506 
L 317.671696 193.320294 
L 316.767467 192.232944 
L 315.863238 191.059721 
L 314.959008 189.810134 
L 314.054779 188.494864 
L 313.150549 187.125674 
L 312.24632 185.715325 
L 311.34209 184.277483 
L 310.437861 182.82663 
L 309.533631 181.37797 
L 308.629402 179.94734 
L 307.725172 178.551093 
L 306.820943 177.205956 
L 305.916714 175.928798 
L 305.012484 174.736254 
L 304.108255 173.644112 
L 303.204025 172.666385 
L 302.299796 171.814056 
L 301.395566 171.09367 
L 300.491337 170.506149 
L 299.587107 170.046338 
L 298.682878 169.703589 
L 297.778648 169.463298 
L 296.874419 169.308878 
L 295.970189 169.223627 
L 295.06596 169.192121 
L 294.161731 169.201074 
L 293.257501 169.239759 
L 292.353272 169.300145 
L 291.449042 169.376877 
L 290.544813 169.467162 
L 289.640583 169.570618 
L 288.736354 169.68905 
L 287.832124 169.826153 
L 286.927895 169.98709 
L 286.023665 170.177889 
L 285.119436 170.404675 
L 284.215206 170.672773 
L 283.310977 170.985823 
L 282.406748 171.345133 
L 281.502518 171.749437 
L 280.598289 172.195141 
L 279.694059 172.676962 
L 278.78983 173.188746 
L 277.8856 173.724267 
L 276.981371 174.27785 
L 276.077141 174.84477 
L 275.172912 175.42144 
L 274.268682 176.00543 
L 273.364453 176.595381 
L 272.460223 177.190865 
L 271.555994 177.792256 
L 270.651765 178.400636 
L 269.747535 179.017791 
z
" style="fill:#bfbf00;fill-opacity:0.2;"/>
   </g>
   <g id="PathCollection_6">
    <g clip-path="url(#pd74995fed0)">
     <use style="fill:#1f77b4;stroke:#1f77b4;" x="301.669494" xlink:href="#m62c4ee27cf" y="165.505711"/>
     <use style="fill:#1f77b4;stroke:#1f77b4;" x="337.962411" xlink:href="#m62c4ee27cf" y="192.785711"/>
     <use style="fill:#1f77b4;stroke:#1f77b4;" x="289.164686" xlink:href="#m62c4ee27cf" y="165.576405"/>
     <use style="fill:#1f77b4;stroke:#1f77b4;" x="348.259875" xlink:href="#m62c4ee27cf" y="192.426036"/>
     <use style="fill:#1f77b4;stroke:#1f77b4;" x="334.350859" xlink:href="#m62c4ee27cf" y="190.12684"/>
     <use style="fill:#1f77b4;stroke:#1f77b4;" x="350.671695" xlink:href="#m62c4ee27cf" y="189.944948"/>
     <use style="fill:#1f77b4;stroke:#1f77b4;" x="332.474474" xlink:href="#m62c4ee27cf" y="191.855604"/>
     <use style="fill:#1f77b4;stroke:#1f77b4;" x="281.168575" xlink:href="#m62c4ee27cf" y="165.069505"/>
     <use style="fill:#1f77b4;stroke:#1f77b4;" x="340.417258" xlink:href="#m62c4ee27cf" y="185.149343"/>
     <use style="fill:#1f77b4;stroke:#1f77b4;" x="357.920998" xlink:href="#m62c4ee27cf" y="179.365698"/>
    </g>
   </g>
   <g id="matplotlib.axis_11">
    <g id="xtick_16">
     <g id="line2d_46">
      <g>
       <use style="stroke:#000000;stroke-width:0.8;" x="269.747535" xlink:href="#m14b34bc508" y="228.439219"/>
      </g>
     </g>
     <g id="text_46">
      <!-- 0.0 -->
      <g transform="translate(261.795973 243.037656)scale(0.1 -0.1)">
       <use xlink:href="#DejaVuSans-48"/>
       <use x="63.623047" xlink:href="#DejaVuSans-46"/>
       <use x="95.410156" xlink:href="#DejaVuSans-48"/>
      </g>
     </g>
    </g>
    <g id="xtick_17">
     <g id="line2d_47">
      <g>
       <use style="stroke:#000000;stroke-width:0.8;" x="305.365901" xlink:href="#m14b34bc508" y="228.439219"/>
      </g>
     </g>
     <g id="text_47">
      <!-- 2.5 -->
      <g transform="translate(297.414338 243.037656)scale(0.1 -0.1)">
       <use xlink:href="#DejaVuSans-50"/>
       <use x="63.623047" xlink:href="#DejaVuSans-46"/>
       <use x="95.410156" xlink:href="#DejaVuSans-53"/>
      </g>
     </g>
    </g>
    <g id="xtick_18">
     <g id="line2d_48">
      <g>
       <use style="stroke:#000000;stroke-width:0.8;" x="340.984266" xlink:href="#m14b34bc508" y="228.439219"/>
      </g>
     </g>
     <g id="text_48">
      <!-- 5.0 -->
      <g transform="translate(333.032704 243.037656)scale(0.1 -0.1)">
       <use xlink:href="#DejaVuSans-53"/>
       <use x="63.623047" xlink:href="#DejaVuSans-46"/>
       <use x="95.410156" xlink:href="#DejaVuSans-48"/>
      </g>
     </g>
    </g>
   </g>
   <g id="matplotlib.axis_12">
    <g id="ytick_26">
     <g id="line2d_49">
      <g>
       <use style="stroke:#000000;stroke-width:0.8;" x="265.271599" xlink:href="#m0f78ebe54e" y="228.439219"/>
      </g>
     </g>
     <g id="text_49">
      <!-- −4 -->
      <g transform="translate(243.529412 232.238437)scale(0.1 -0.1)">
       <use xlink:href="#DejaVuSans-8722"/>
       <use x="83.789062" xlink:href="#DejaVuSans-52"/>
      </g>
     </g>
    </g>
    <g id="ytick_27">
     <g id="line2d_50">
      <g>
       <use style="stroke:#000000;stroke-width:0.8;" x="265.271599" xlink:href="#m0f78ebe54e" y="203.730128"/>
      </g>
     </g>
     <g id="text_50">
      <!-- −2 -->
      <g transform="translate(243.529412 207.529347)scale(0.1 -0.1)">
       <use xlink:href="#DejaVuSans-8722"/>
       <use x="83.789062" xlink:href="#DejaVuSans-50"/>
      </g>
     </g>
    </g>
    <g id="ytick_28">
     <g id="line2d_51">
      <g>
       <use style="stroke:#000000;stroke-width:0.8;" x="265.271599" xlink:href="#m0f78ebe54e" y="179.021037"/>
      </g>
     </g>
     <g id="text_51">
      <!-- 0 -->
      <g transform="translate(251.909099 182.820256)scale(0.1 -0.1)">
       <use xlink:href="#DejaVuSans-48"/>
      </g>
     </g>
    </g>
    <g id="ytick_29">
     <g id="line2d_52">
      <g>
       <use style="stroke:#000000;stroke-width:0.8;" x="265.271599" xlink:href="#m0f78ebe54e" y="154.311946"/>
      </g>
     </g>
     <g id="text_52">
      <!-- 2 -->
      <g transform="translate(251.909099 158.111165)scale(0.1 -0.1)">
       <use xlink:href="#DejaVuSans-50"/>
      </g>
     </g>
    </g>
    <g id="ytick_30">
     <g id="line2d_53">
      <g>
       <use style="stroke:#000000;stroke-width:0.8;" x="265.271599" xlink:href="#m0f78ebe54e" y="129.602855"/>
      </g>
     </g>
     <g id="text_53">
      <!-- 4 -->
      <g transform="translate(251.909099 133.402074)scale(0.1 -0.1)">
       <use xlink:href="#DejaVuSans-52"/>
      </g>
     </g>
    </g>
   </g>
   <g id="line2d_54">
    <path clip-path="url(#pd74995fed0)" d="M 269.747535 170.340626 
L 270.651765 170.083575 
L 271.555994 169.820404 
L 272.460223 169.551683 
L 273.364453 169.277937 
L 274.268682 168.999651 
L 275.172912 168.717278 
L 276.077141 168.431269 
L 276.981371 168.142098 
L 277.8856 167.8503 
L 278.78983 167.556508 
L 279.694059 167.261485 
L 280.598289 166.966166 
L 281.502518 166.671688 
L 282.406748 166.379417 
L 283.310977 166.090972 
L 284.215206 165.808246 
L 285.119436 165.533411 
L 286.023665 165.268925 
L 286.927895 165.017528 
L 287.832124 164.78223 
L 288.736354 164.566293 
L 289.640583 164.373203 
L 290.544813 164.20664 
L 291.449042 164.070436 
L 292.353272 163.96853 
L 293.257501 163.904915 
L 294.161731 163.883586 
L 295.06596 163.908475 
L 295.970189 163.983389 
L 296.874419 164.111947 
L 297.778648 164.297511 
L 298.682878 164.543116 
L 299.587107 164.851411 
L 300.491337 165.224586 
L 301.395566 165.664315 
L 302.299796 166.171695 
L 303.204025 166.747195 
L 304.108255 167.390609 
L 305.012484 168.10101 
L 305.916714 168.876724 
L 306.820943 169.715301 
L 307.725172 170.613503 
L 308.629402 171.567298 
L 309.533631 172.571865 
L 310.437861 173.621614 
L 311.34209 174.710214 
L 312.24632 175.830638 
L 313.150549 176.975209 
L 314.054779 178.135677 
L 314.959008 179.30329 
L 315.863238 180.46889 
L 316.767467 181.623014 
L 317.671696 182.756009 
L 318.575926 183.858157 
L 319.480155 184.91981 
L 320.384385 185.931535 
L 321.288614 186.884259 
L 322.192844 187.769433 
L 323.097073 188.579183 
L 324.001303 189.306479 
L 324.905532 189.94529 
L 325.809762 190.490747 
L 326.713991 190.93929 
L 327.618221 191.288813 
L 328.52245 191.538792 
L 329.426679 191.690401 
L 330.330909 191.746603 
L 331.235138 191.712218 
L 332.139368 191.593964 
L 333.043597 191.400457 
L 333.947827 191.14218 
L 334.852056 190.831397 
L 335.756286 190.482021 
L 336.660515 190.109423 
L 337.564745 189.730171 
L 338.468974 189.361701 
L 339.373204 189.021907 
L 340.277433 188.728637 
L 341.181662 188.499099 
L 342.085892 188.349156 
L 342.990121 188.292504 
L 343.894351 188.339724 
L 344.79858 188.497204 
L 345.70281 188.765903 
L 346.607039 189.139964 
L 347.511269 189.605151 
L 348.415498 190.137103 
L 349.319728 190.699398 
L 350.223957 191.241394 
L 351.128187 191.695859 
L 352.032416 191.976351 
L 352.936645 191.974352 
L 353.840875 191.556126 
L 354.745104 190.559296 
L 355.649334 188.789111 
L 356.553563 186.014393 
L 357.457793 181.963154 
L 358.362022 176.31784 
L 359.266252 168.710207 
" style="fill:none;stroke:#ffa500;stroke-linecap:square;stroke-width:1.5;"/>
   </g>
   <g id="patch_28">
    <path d="M 265.271599 228.439219 
L 265.271599 129.602855 
" style="fill:none;stroke:#000000;stroke-linecap:square;stroke-linejoin:miter;stroke-width:0.8;"/>
   </g>
   <g id="patch_29">
    <path d="M 363.742188 228.439219 
L 363.742188 129.602855 
" style="fill:none;stroke:#000000;stroke-linecap:square;stroke-linejoin:miter;stroke-width:0.8;"/>
   </g>
   <g id="patch_30">
    <path d="M 265.271599 228.439219 
L 363.742188 228.439219 
" style="fill:none;stroke:#000000;stroke-linecap:square;stroke-linejoin:miter;stroke-width:0.8;"/>
   </g>
   <g id="patch_31">
    <path d="M 265.271599 129.602855 
L 363.742188 129.602855 
" style="fill:none;stroke:#000000;stroke-linecap:square;stroke-linejoin:miter;stroke-width:0.8;"/>
   </g>
   <g id="text_54">
    <!-- M = 10 -->
    <g transform="translate(269.747535 141.957401)scale(0.1 -0.1)">
     <use xlink:href="#DejaVuSans-77"/>
     <use x="86.279297" xlink:href="#DejaVuSans-32"/>
     <use x="118.066406" xlink:href="#DejaVuSans-61"/>
     <use x="201.855469" xlink:href="#DejaVuSans-32"/>
     <use x="233.642578" xlink:href="#DejaVuSans-49"/>
     <use x="297.265625" xlink:href="#DejaVuSans-48"/>
    </g>
   </g>
  </g>
 </g>
 <defs>
  <clipPath id="pae5d4076da">
   <rect height="98.836364" width="98.470588" x="28.942188" y="10.999219"/>
  </clipPath>
  <clipPath id="p8ff147c808">
   <rect height="98.836364" width="98.470588" x="147.106893" y="10.999219"/>
  </clipPath>
  <clipPath id="p8f1d47202c">
   <rect height="98.836364" width="98.470588" x="265.271599" y="10.999219"/>
  </clipPath>
  <clipPath id="p7b22348491">
   <rect height="98.836364" width="98.470588" x="28.942188" y="129.602855"/>
  </clipPath>
  <clipPath id="pf8171fde06">
   <rect height="98.836364" width="98.470588" x="147.106893" y="129.602855"/>
  </clipPath>
  <clipPath id="pd74995fed0">
   <rect height="98.836364" width="98.470588" x="265.271599" y="129.602855"/>
  </clipPath>
 </defs>
</svg>
