<?xml version="1.0" encoding="utf-8" standalone="no"?>
<!DOCTYPE svg PUBLIC "-//W3C//DTD SVG 1.1//EN"
  "http://www.w3.org/Graphics/SVG/1.1/DTD/svg11.dtd">
<!-- Created with matplotlib (https://matplotlib.org/) -->
<svg height="252.317344pt" version="1.1" viewBox="0 0 370.942187 252.317344" width="370.942187pt" xmlns="http://www.w3.org/2000/svg" xmlns:xlink="http://www.w3.org/1999/xlink">
 <defs>
  <style type="text/css">
*{stroke-linecap:butt;stroke-linejoin:round;}
  </style>
 </defs>
 <g id="figure_1">
  <g id="patch_1">
   <path d="M 0 252.317344 
L 370.942187 252.317344 
L 370.942187 0 
L 0 0 
z
" style="fill:#ffffff;"/>
  </g>
  <g id="axes_1">
   <g id="patch_2">
    <path d="M 28.942188 109.835582 
L 127.412776 109.835582 
L 127.412776 10.999219 
L 28.942188 10.999219 
z
" style="fill:#ffffff;"/>
   </g>
   <g id="PolyCollection_1">
    <path clip-path="url(#pbe8e02629d)" d="M 33.418123 66.957847 
L 33.418123 58.766458 
L 34.322353 58.766458 
L 35.226582 58.766458 
L 36.130812 58.766458 
L 37.035041 58.766458 
L 37.939271 58.766458 
L 38.8435 58.766458 
L 39.74773 58.766458 
L 40.651959 58.766458 
L 41.556188 58.766458 
L 42.460418 58.766458 
L 43.364647 58.766458 
L 44.268877 58.766458 
L 45.173106 58.766458 
L 46.077336 58.766458 
L 46.981565 58.766458 
L 47.885795 58.766458 
L 48.790024 58.766458 
L 49.694254 58.766458 
L 50.598483 58.766458 
L 51.502713 58.766458 
L 52.406942 58.766458 
L 53.311171 58.766458 
L 54.215401 58.766458 
L 55.11963 58.766458 
L 56.02386 58.766458 
L 56.928089 58.766458 
L 57.832319 58.766458 
L 58.736548 58.766458 
L 59.640778 58.766458 
L 60.545007 58.766458 
L 61.449237 58.766458 
L 62.353466 58.766458 
L 63.257696 58.766458 
L 64.161925 58.766458 
L 65.066154 58.766458 
L 65.970384 58.766458 
L 66.874613 58.766458 
L 67.778843 58.766458 
L 68.683072 58.766458 
L 69.587302 58.766458 
L 70.491531 58.766458 
L 71.395761 58.766458 
L 72.29999 58.766458 
L 73.20422 58.766458 
L 74.108449 58.766458 
L 75.012679 58.766458 
L 75.916908 58.766458 
L 76.821137 58.766458 
L 77.725367 58.766458 
L 78.629596 58.766458 
L 79.533826 58.766458 
L 80.438055 58.766458 
L 81.342285 58.766458 
L 82.246514 58.766458 
L 83.150744 58.766458 
L 84.054973 58.766458 
L 84.959203 58.766458 
L 85.863432 58.766458 
L 86.767661 58.766458 
L 87.671891 58.766458 
L 88.57612 58.766458 
L 89.48035 58.766458 
L 90.384579 58.766458 
L 91.288809 58.766458 
L 92.193038 58.766458 
L 93.097268 58.766458 
L 94.001497 58.766458 
L 94.905727 58.766458 
L 95.809956 58.766458 
L 96.714186 58.766458 
L 97.618415 58.766458 
L 98.522644 58.766458 
L 99.426874 58.766458 
L 100.331103 58.766458 
L 101.235333 58.766458 
L 102.139562 58.766458 
L 103.043792 58.766458 
L 103.948021 58.766458 
L 104.852251 58.766458 
L 105.75648 58.766458 
L 106.66071 58.766458 
L 107.564939 58.766458 
L 108.469169 58.766458 
L 109.373398 58.766458 
L 110.277627 58.766458 
L 111.181857 58.766458 
L 112.086086 58.766458 
L 112.990316 58.766458 
L 113.894545 58.766458 
L 114.798775 58.766458 
L 115.703004 58.766458 
L 116.607234 58.766458 
L 117.511463 58.766458 
L 118.415693 58.766458 
L 119.319922 58.766458 
L 120.224152 58.766458 
L 121.128381 58.766458 
L 122.03261 58.766458 
L 122.93684 58.766458 
L 122.93684 66.957847 
L 122.93684 66.957847 
L 122.03261 66.957847 
L 121.128381 66.957847 
L 120.224152 66.957847 
L 119.319922 66.957847 
L 118.415693 66.957847 
L 117.511463 66.957847 
L 116.607234 66.957847 
L 115.703004 66.957847 
L 114.798775 66.957847 
L 113.894545 66.957847 
L 112.990316 66.957847 
L 112.086086 66.957847 
L 111.181857 66.957847 
L 110.277627 66.957847 
L 109.373398 66.957847 
L 108.469169 66.957847 
L 107.564939 66.957847 
L 106.66071 66.957847 
L 105.75648 66.957847 
L 104.852251 66.957847 
L 103.948021 66.957847 
L 103.043792 66.957847 
L 102.139562 66.957847 
L 101.235333 66.957847 
L 100.331103 66.957847 
L 99.426874 66.957847 
L 98.522644 66.957847 
L 97.618415 66.957847 
L 96.714186 66.957847 
L 95.809956 66.957847 
L 94.905727 66.957847 
L 94.001497 66.957847 
L 93.097268 66.957847 
L 92.193038 66.957847 
L 91.288809 66.957847 
L 90.384579 66.957847 
L 89.48035 66.957847 
L 88.57612 66.957847 
L 87.671891 66.957847 
L 86.767661 66.957847 
L 85.863432 66.957847 
L 84.959203 66.957847 
L 84.054973 66.957847 
L 83.150744 66.957847 
L 82.246514 66.957847 
L 81.342285 66.957847 
L 80.438055 66.957847 
L 79.533826 66.957847 
L 78.629596 66.957847 
L 77.725367 66.957847 
L 76.821137 66.957847 
L 75.916908 66.957847 
L 75.012679 66.957847 
L 74.108449 66.957847 
L 73.20422 66.957847 
L 72.29999 66.957847 
L 71.395761 66.957847 
L 70.491531 66.957847 
L 69.587302 66.957847 
L 68.683072 66.957847 
L 67.778843 66.957847 
L 66.874613 66.957847 
L 65.970384 66.957847 
L 65.066154 66.957847 
L 64.161925 66.957847 
L 63.257696 66.957847 
L 62.353466 66.957847 
L 61.449237 66.957847 
L 60.545007 66.957847 
L 59.640778 66.957847 
L 58.736548 66.957847 
L 57.832319 66.957847 
L 56.928089 66.957847 
L 56.02386 66.957847 
L 55.11963 66.957847 
L 54.215401 66.957847 
L 53.311171 66.957847 
L 52.406942 66.957847 
L 51.502713 66.957847 
L 50.598483 66.957847 
L 49.694254 66.957847 
L 48.790024 66.957847 
L 47.885795 66.957847 
L 46.981565 66.957847 
L 46.077336 66.957847 
L 45.173106 66.957847 
L 44.268877 66.957847 
L 43.364647 66.957847 
L 42.460418 66.957847 
L 41.556188 66.957847 
L 40.651959 66.957847 
L 39.74773 66.957847 
L 38.8435 66.957847 
L 37.939271 66.957847 
L 37.035041 66.957847 
L 36.130812 66.957847 
L 35.226582 66.957847 
L 34.322353 66.957847 
L 33.418123 66.957847 
z
" style="fill:#bfbf00;fill-opacity:0.2;"/>
   </g>
   <g id="PathCollection_1">
    <defs>
     <path d="M 0 1.581139 
C 0.419323 1.581139 0.821528 1.41454 1.118034 1.118034 
C 1.41454 0.821528 1.581139 0.419323 1.581139 0 
C 1.581139 -0.419323 1.41454 -0.821528 1.118034 -1.118034 
C 0.821528 -1.41454 0.419323 -1.581139 0 -1.581139 
C -0.419323 -1.581139 -0.821528 -1.41454 -1.118034 -1.118034 
C -1.41454 -0.821528 -1.581139 -0.419323 -1.581139 0 
C -1.581139 0.419323 -1.41454 0.821528 -1.118034 1.118034 
C -0.821528 1.41454 -0.419323 1.581139 0 1.581139 
z
" id="m67d881b7cc" style="stroke:#1f77b4;"/>
    </defs>
    <g clip-path="url(#pbe8e02629d)">
     <use style="fill:#1f77b4;stroke:#1f77b4;" x="115.30213" xlink:href="#m67d881b7cc" y="67.376969"/>
     <use style="fill:#1f77b4;stroke:#1f77b4;" x="36.259098" xlink:href="#m67d881b7cc" y="58.901743"/>
     <use style="fill:#1f77b4;stroke:#1f77b4;" x="105.689001" xlink:href="#m67d881b7cc" y="70.996817"/>
     <use style="fill:#1f77b4;stroke:#1f77b4;" x="68.348142" xlink:href="#m67d881b7cc" y="53.840559"/>
     <use style="fill:#1f77b4;stroke:#1f77b4;" x="34.596574" xlink:href="#m67d881b7cc" y="57.592778"/>
     <use style="fill:#1f77b4;stroke:#1f77b4;" x="91.964201" xlink:href="#m67d881b7cc" y="68.742538"/>
     <use style="fill:#1f77b4;stroke:#1f77b4;" x="40.311804" xlink:href="#m67d881b7cc" y="54.982889"/>
     <use style="fill:#1f77b4;stroke:#1f77b4;" x="65.536142" xlink:href="#m67d881b7cc" y="54.262434"/>
     <use style="fill:#1f77b4;stroke:#1f77b4;" x="80.177988" xlink:href="#m67d881b7cc" y="64.653917"/>
     <use style="fill:#1f77b4;stroke:#1f77b4;" x="105.445515" xlink:href="#m67d881b7cc" y="77.515359"/>
    </g>
   </g>
   <g id="matplotlib.axis_1">
    <g id="xtick_1">
     <g id="line2d_1">
      <defs>
       <path d="M 0 0 
L 0 3.5 
" id="mbf8debbf0f" style="stroke:#000000;stroke-width:0.8;"/>
      </defs>
      <g>
       <use style="stroke:#000000;stroke-width:0.8;" x="33.418123" xlink:href="#mbf8debbf0f" y="109.835582"/>
      </g>
     </g>
     <g id="text_1">
      <!-- 0.0 -->
      <defs>
       <path d="M 31.78125 66.40625 
Q 24.171875 66.40625 20.328125 58.90625 
Q 16.5 51.421875 16.5 36.375 
Q 16.5 21.390625 20.328125 13.890625 
Q 24.171875 6.390625 31.78125 6.390625 
Q 39.453125 6.390625 43.28125 13.890625 
Q 47.125 21.390625 47.125 36.375 
Q 47.125 51.421875 43.28125 58.90625 
Q 39.453125 66.40625 31.78125 66.40625 
z
M 31.78125 74.21875 
Q 44.046875 74.21875 50.515625 64.515625 
Q 56.984375 54.828125 56.984375 36.375 
Q 56.984375 17.96875 50.515625 8.265625 
Q 44.046875 -1.421875 31.78125 -1.421875 
Q 19.53125 -1.421875 13.0625 8.265625 
Q 6.59375 17.96875 6.59375 36.375 
Q 6.59375 54.828125 13.0625 64.515625 
Q 19.53125 74.21875 31.78125 74.21875 
z
" id="DejaVuSans-48"/>
       <path d="M 10.6875 12.40625 
L 21 12.40625 
L 21 0 
L 10.6875 0 
z
" id="DejaVuSans-46"/>
      </defs>
      <g transform="translate(25.466561 124.43402)scale(0.1 -0.1)">
       <use xlink:href="#DejaVuSans-48"/>
       <use x="63.623047" xlink:href="#DejaVuSans-46"/>
       <use x="95.410156" xlink:href="#DejaVuSans-48"/>
      </g>
     </g>
    </g>
    <g id="xtick_2">
     <g id="line2d_2">
      <g>
       <use style="stroke:#000000;stroke-width:0.8;" x="69.036489" xlink:href="#mbf8debbf0f" y="109.835582"/>
      </g>
     </g>
     <g id="text_2">
      <!-- 2.5 -->
      <defs>
       <path d="M 19.1875 8.296875 
L 53.609375 8.296875 
L 53.609375 0 
L 7.328125 0 
L 7.328125 8.296875 
Q 12.9375 14.109375 22.625 23.890625 
Q 32.328125 33.6875 34.8125 36.53125 
Q 39.546875 41.84375 41.421875 45.53125 
Q 43.3125 49.21875 43.3125 52.78125 
Q 43.3125 58.59375 39.234375 62.25 
Q 35.15625 65.921875 28.609375 65.921875 
Q 23.96875 65.921875 18.8125 64.3125 
Q 13.671875 62.703125 7.8125 59.421875 
L 7.8125 69.390625 
Q 13.765625 71.78125 18.9375 73 
Q 24.125 74.21875 28.421875 74.21875 
Q 39.75 74.21875 46.484375 68.546875 
Q 53.21875 62.890625 53.21875 53.421875 
Q 53.21875 48.921875 51.53125 44.890625 
Q 49.859375 40.875 45.40625 35.40625 
Q 44.1875 33.984375 37.640625 27.21875 
Q 31.109375 20.453125 19.1875 8.296875 
z
" id="DejaVuSans-50"/>
       <path d="M 10.796875 72.90625 
L 49.515625 72.90625 
L 49.515625 64.59375 
L 19.828125 64.59375 
L 19.828125 46.734375 
Q 21.96875 47.46875 24.109375 47.828125 
Q 26.265625 48.1875 28.421875 48.1875 
Q 40.625 48.1875 47.75 41.5 
Q 54.890625 34.8125 54.890625 23.390625 
Q 54.890625 11.625 47.5625 5.09375 
Q 40.234375 -1.421875 26.90625 -1.421875 
Q 22.3125 -1.421875 17.546875 -0.640625 
Q 12.796875 0.140625 7.71875 1.703125 
L 7.71875 11.625 
Q 12.109375 9.234375 16.796875 8.0625 
Q 21.484375 6.890625 26.703125 6.890625 
Q 35.15625 6.890625 40.078125 11.328125 
Q 45.015625 15.765625 45.015625 23.390625 
Q 45.015625 31 40.078125 35.4375 
Q 35.15625 39.890625 26.703125 39.890625 
Q 22.75 39.890625 18.8125 39.015625 
Q 14.890625 38.140625 10.796875 36.28125 
z
" id="DejaVuSans-53"/>
      </defs>
      <g transform="translate(61.084926 124.43402)scale(0.1 -0.1)">
       <use xlink:href="#DejaVuSans-50"/>
       <use x="63.623047" xlink:href="#DejaVuSans-46"/>
       <use x="95.410156" xlink:href="#DejaVuSans-53"/>
      </g>
     </g>
    </g>
    <g id="xtick_3">
     <g id="line2d_3">
      <g>
       <use style="stroke:#000000;stroke-width:0.8;" x="104.654855" xlink:href="#mbf8debbf0f" y="109.835582"/>
      </g>
     </g>
     <g id="text_3">
      <!-- 5.0 -->
      <g transform="translate(96.703292 124.43402)scale(0.1 -0.1)">
       <use xlink:href="#DejaVuSans-53"/>
       <use x="63.623047" xlink:href="#DejaVuSans-46"/>
       <use x="95.410156" xlink:href="#DejaVuSans-48"/>
      </g>
     </g>
    </g>
   </g>
   <g id="matplotlib.axis_2">
    <g id="ytick_1">
     <g id="line2d_4">
      <defs>
       <path d="M 0 0 
L -3.5 0 
" id="m97b525fdfe" style="stroke:#000000;stroke-width:0.8;"/>
      </defs>
      <g>
       <use style="stroke:#000000;stroke-width:0.8;" x="28.942188" xlink:href="#m97b525fdfe" y="109.835582"/>
      </g>
     </g>
     <g id="text_4">
      <!-- −4 -->
      <defs>
       <path d="M 10.59375 35.5 
L 73.1875 35.5 
L 73.1875 27.203125 
L 10.59375 27.203125 
z
" id="DejaVuSans-8722"/>
       <path d="M 37.796875 64.3125 
L 12.890625 25.390625 
L 37.796875 25.390625 
z
M 35.203125 72.90625 
L 47.609375 72.90625 
L 47.609375 25.390625 
L 58.015625 25.390625 
L 58.015625 17.1875 
L 47.609375 17.1875 
L 47.609375 0 
L 37.796875 0 
L 37.796875 17.1875 
L 4.890625 17.1875 
L 4.890625 26.703125 
z
" id="DejaVuSans-52"/>
      </defs>
      <g transform="translate(7.2 113.634801)scale(0.1 -0.1)">
       <use xlink:href="#DejaVuSans-8722"/>
       <use x="83.789062" xlink:href="#DejaVuSans-52"/>
      </g>
     </g>
    </g>
    <g id="ytick_2">
     <g id="line2d_5">
      <g>
       <use style="stroke:#000000;stroke-width:0.8;" x="28.942188" xlink:href="#m97b525fdfe" y="85.126491"/>
      </g>
     </g>
     <g id="text_5">
      <!-- −2 -->
      <g transform="translate(7.2 88.92571)scale(0.1 -0.1)">
       <use xlink:href="#DejaVuSans-8722"/>
       <use x="83.789062" xlink:href="#DejaVuSans-50"/>
      </g>
     </g>
    </g>
    <g id="ytick_3">
     <g id="line2d_6">
      <g>
       <use style="stroke:#000000;stroke-width:0.8;" x="28.942188" xlink:href="#m97b525fdfe" y="60.417401"/>
      </g>
     </g>
     <g id="text_6">
      <!-- 0 -->
      <g transform="translate(15.579688 64.216619)scale(0.1 -0.1)">
       <use xlink:href="#DejaVuSans-48"/>
      </g>
     </g>
    </g>
    <g id="ytick_4">
     <g id="line2d_7">
      <g>
       <use style="stroke:#000000;stroke-width:0.8;" x="28.942188" xlink:href="#m97b525fdfe" y="35.70831"/>
      </g>
     </g>
     <g id="text_7">
      <!-- 2 -->
      <g transform="translate(15.579688 39.507528)scale(0.1 -0.1)">
       <use xlink:href="#DejaVuSans-50"/>
      </g>
     </g>
    </g>
    <g id="ytick_5">
     <g id="line2d_8">
      <g>
       <use style="stroke:#000000;stroke-width:0.8;" x="28.942188" xlink:href="#m97b525fdfe" y="10.999219"/>
      </g>
     </g>
     <g id="text_8">
      <!-- 4 -->
      <g transform="translate(15.579688 14.798437)scale(0.1 -0.1)">
       <use xlink:href="#DejaVuSans-52"/>
      </g>
     </g>
    </g>
   </g>
   <g id="line2d_9">
    <path clip-path="url(#pbe8e02629d)" d="M 33.418123 62.862153 
L 34.322353 62.862153 
L 35.226582 62.862153 
L 36.130812 62.862153 
L 37.035041 62.862153 
L 37.939271 62.862153 
L 38.8435 62.862153 
L 39.74773 62.862153 
L 40.651959 62.862153 
L 41.556188 62.862153 
L 42.460418 62.862153 
L 43.364647 62.862153 
L 44.268877 62.862153 
L 45.173106 62.862153 
L 46.077336 62.862153 
L 46.981565 62.862153 
L 47.885795 62.862153 
L 48.790024 62.862153 
L 49.694254 62.862153 
L 50.598483 62.862153 
L 51.502713 62.862153 
L 52.406942 62.862153 
L 53.311171 62.862153 
L 54.215401 62.862153 
L 55.11963 62.862153 
L 56.02386 62.862153 
L 56.928089 62.862153 
L 57.832319 62.862153 
L 58.736548 62.862153 
L 59.640778 62.862153 
L 60.545007 62.862153 
L 61.449237 62.862153 
L 62.353466 62.862153 
L 63.257696 62.862153 
L 64.161925 62.862153 
L 65.066154 62.862153 
L 65.970384 62.862153 
L 66.874613 62.862153 
L 67.778843 62.862153 
L 68.683072 62.862153 
L 69.587302 62.862153 
L 70.491531 62.862153 
L 71.395761 62.862153 
L 72.29999 62.862153 
L 73.20422 62.862153 
L 74.108449 62.862153 
L 75.012679 62.862153 
L 75.916908 62.862153 
L 76.821137 62.862153 
L 77.725367 62.862153 
L 78.629596 62.862153 
L 79.533826 62.862153 
L 80.438055 62.862153 
L 81.342285 62.862153 
L 82.246514 62.862153 
L 83.150744 62.862153 
L 84.054973 62.862153 
L 84.959203 62.862153 
L 85.863432 62.862153 
L 86.767661 62.862153 
L 87.671891 62.862153 
L 88.57612 62.862153 
L 89.48035 62.862153 
L 90.384579 62.862153 
L 91.288809 62.862153 
L 92.193038 62.862153 
L 93.097268 62.862153 
L 94.001497 62.862153 
L 94.905727 62.862153 
L 95.809956 62.862153 
L 96.714186 62.862153 
L 97.618415 62.862153 
L 98.522644 62.862153 
L 99.426874 62.862153 
L 100.331103 62.862153 
L 101.235333 62.862153 
L 102.139562 62.862153 
L 103.043792 62.862153 
L 103.948021 62.862153 
L 104.852251 62.862153 
L 105.75648 62.862153 
L 106.66071 62.862153 
L 107.564939 62.862153 
L 108.469169 62.862153 
L 109.373398 62.862153 
L 110.277627 62.862153 
L 111.181857 62.862153 
L 112.086086 62.862153 
L 112.990316 62.862153 
L 113.894545 62.862153 
L 114.798775 62.862153 
L 115.703004 62.862153 
L 116.607234 62.862153 
L 117.511463 62.862153 
L 118.415693 62.862153 
L 119.319922 62.862153 
L 120.224152 62.862153 
L 121.128381 62.862153 
L 122.03261 62.862153 
L 122.93684 62.862153 
" style="fill:none;stroke:#ffa500;stroke-linecap:square;stroke-width:1.5;"/>
   </g>
   <g id="patch_3">
    <path d="M 28.942188 109.835582 
L 28.942188 10.999219 
" style="fill:none;stroke:#000000;stroke-linecap:square;stroke-linejoin:miter;stroke-width:0.8;"/>
   </g>
   <g id="patch_4">
    <path d="M 127.412776 109.835582 
L 127.412776 10.999219 
" style="fill:none;stroke:#000000;stroke-linecap:square;stroke-linejoin:miter;stroke-width:0.8;"/>
   </g>
   <g id="patch_5">
    <path d="M 28.942188 109.835582 
L 127.412776 109.835582 
" style="fill:none;stroke:#000000;stroke-linecap:square;stroke-linejoin:miter;stroke-width:0.8;"/>
   </g>
   <g id="patch_6">
    <path d="M 28.942188 10.999219 
L 127.412776 10.999219 
" style="fill:none;stroke:#000000;stroke-linecap:square;stroke-linejoin:miter;stroke-width:0.8;"/>
   </g>
   <g id="text_9">
    <!-- M = 1 -->
    <defs>
     <path d="M 9.8125 72.90625 
L 24.515625 72.90625 
L 43.109375 23.296875 
L 61.8125 72.90625 
L 76.515625 72.90625 
L 76.515625 0 
L 66.890625 0 
L 66.890625 64.015625 
L 48.09375 14.015625 
L 38.1875 14.015625 
L 19.390625 64.015625 
L 19.390625 0 
L 9.8125 0 
z
" id="DejaVuSans-77"/>
     <path id="DejaVuSans-32"/>
     <path d="M 10.59375 45.40625 
L 73.1875 45.40625 
L 73.1875 37.203125 
L 10.59375 37.203125 
z
M 10.59375 25.484375 
L 73.1875 25.484375 
L 73.1875 17.1875 
L 10.59375 17.1875 
z
" id="DejaVuSans-61"/>
     <path d="M 12.40625 8.296875 
L 28.515625 8.296875 
L 28.515625 63.921875 
L 10.984375 60.40625 
L 10.984375 69.390625 
L 28.421875 72.90625 
L 38.28125 72.90625 
L 38.28125 8.296875 
L 54.390625 8.296875 
L 54.390625 0 
L 12.40625 0 
z
" id="DejaVuSans-49"/>
    </defs>
    <g transform="translate(33.418123 23.353764)scale(0.1 -0.1)">
     <use xlink:href="#DejaVuSans-77"/>
     <use x="86.279297" xlink:href="#DejaVuSans-32"/>
     <use x="118.066406" xlink:href="#DejaVuSans-61"/>
     <use x="201.855469" xlink:href="#DejaVuSans-32"/>
     <use x="233.642578" xlink:href="#DejaVuSans-49"/>
    </g>
   </g>
  </g>
  <g id="axes_2">
   <g id="patch_7">
    <path d="M 147.106893 109.835582 
L 245.577482 109.835582 
L 245.577482 10.999219 
L 147.106893 10.999219 
z
" style="fill:#ffffff;"/>
   </g>
   <g id="PolyCollection_2">
    <path clip-path="url(#pccadfa164e)" d="M 151.582829 58.785437 
L 151.582829 49.899549 
L 152.487059 50.104323 
L 153.391288 50.308812 
L 154.295518 50.513013 
L 155.199747 50.716923 
L 156.103977 50.92054 
L 157.008206 51.123861 
L 157.912435 51.326884 
L 158.816665 51.529604 
L 159.720894 51.732021 
L 160.625124 51.934131 
L 161.529353 52.135931 
L 162.433583 52.33742 
L 163.337812 52.538594 
L 164.242042 52.739451 
L 165.146271 52.939989 
L 166.050501 53.140206 
L 166.95473 53.340098 
L 167.858959 53.539664 
L 168.763189 53.738902 
L 169.667418 53.937809 
L 170.571648 54.136383 
L 171.475877 54.334622 
L 172.380107 54.532525 
L 173.284336 54.730089 
L 174.188566 54.927313 
L 175.092795 55.124194 
L 175.997025 55.320732 
L 176.901254 55.516923 
L 177.805484 55.712768 
L 178.709713 55.908264 
L 179.613942 56.103411 
L 180.518172 56.298206 
L 181.422401 56.492648 
L 182.326631 56.686737 
L 183.23086 56.880471 
L 184.13509 57.07385 
L 185.039319 57.266872 
L 185.943549 57.459537 
L 186.847778 57.651844 
L 187.752008 57.843792 
L 188.656237 58.035381 
L 189.560467 58.226611 
L 190.464696 58.417481 
L 191.368925 58.607991 
L 192.273155 58.798141 
L 193.177384 58.987931 
L 194.081614 59.177361 
L 194.985843 59.366431 
L 195.890073 59.555141 
L 196.794302 59.743492 
L 197.698532 59.931484 
L 198.602761 60.119117 
L 199.506991 60.306393 
L 200.41122 60.493312 
L 201.31545 60.679874 
L 202.219679 60.866081 
L 203.123908 61.051934 
L 204.028138 61.237434 
L 204.932367 61.422582 
L 205.836597 61.607379 
L 206.740826 61.791826 
L 207.645056 61.975925 
L 208.549285 62.159678 
L 209.453515 62.343085 
L 210.357744 62.52615 
L 211.261974 62.708872 
L 212.166203 62.891255 
L 213.070433 63.073299 
L 213.974662 63.255008 
L 214.878891 63.436382 
L 215.783121 63.617425 
L 216.68735 63.798137 
L 217.59158 63.978522 
L 218.495809 64.158581 
L 219.400039 64.338317 
L 220.304268 64.517733 
L 221.208498 64.696829 
L 222.112727 64.87561 
L 223.016957 65.054077 
L 223.921186 65.232233 
L 224.825416 65.41008 
L 225.729645 65.587622 
L 226.633874 65.76486 
L 227.538104 65.941798 
L 228.442333 66.118438 
L 229.346563 66.294782 
L 230.250792 66.470835 
L 231.155022 66.646597 
L 232.059251 66.822073 
L 232.963481 66.997265 
L 233.86771 67.172175 
L 234.77194 67.346808 
L 235.676169 67.521164 
L 236.580398 67.695248 
L 237.484628 67.869063 
L 238.388857 68.04261 
L 239.293087 68.215894 
L 240.197316 68.388916 
L 241.101546 68.561681 
L 241.101546 77.749236 
L 241.101546 77.749236 
L 240.197316 77.541941 
L 239.293087 77.334903 
L 238.388857 77.128127 
L 237.484628 76.921615 
L 236.580398 76.715369 
L 235.676169 76.509393 
L 234.77194 76.30369 
L 233.86771 76.098262 
L 232.963481 75.893113 
L 232.059251 75.688245 
L 231.155022 75.483661 
L 230.250792 75.279363 
L 229.346563 75.075356 
L 228.442333 74.871641 
L 227.538104 74.66822 
L 226.633874 74.465098 
L 225.729645 74.262277 
L 224.825416 74.059758 
L 223.921186 73.857546 
L 223.016957 73.655642 
L 222.112727 73.454049 
L 221.208498 73.25277 
L 220.304268 73.051807 
L 219.400039 72.851162 
L 218.495809 72.650838 
L 217.59158 72.450837 
L 216.68735 72.251162 
L 215.783121 72.051815 
L 214.878891 71.852797 
L 213.974662 71.654112 
L 213.070433 71.455761 
L 212.166203 71.257745 
L 211.261974 71.060068 
L 210.357744 70.862731 
L 209.453515 70.665735 
L 208.549285 70.469083 
L 207.645056 70.272775 
L 206.740826 70.076815 
L 205.836597 69.881202 
L 204.932367 69.685939 
L 204.028138 69.491027 
L 203.123908 69.296467 
L 202.219679 69.10226 
L 201.31545 68.908407 
L 200.41122 68.71491 
L 199.506991 68.521769 
L 198.602761 68.328985 
L 197.698532 68.136558 
L 196.794302 67.94449 
L 195.890073 67.752781 
L 194.985843 67.561431 
L 194.081614 67.370441 
L 193.177384 67.179811 
L 192.273155 66.989541 
L 191.368925 66.799631 
L 190.464696 66.610081 
L 189.560467 66.420891 
L 188.656237 66.232061 
L 187.752008 66.043591 
L 186.847778 65.855479 
L 185.943549 65.667726 
L 185.039319 65.480331 
L 184.13509 65.293293 
L 183.23086 65.106612 
L 182.326631 64.920287 
L 181.422401 64.734315 
L 180.518172 64.548698 
L 179.613942 64.363433 
L 178.709713 64.178519 
L 177.805484 63.993956 
L 176.901254 63.809741 
L 175.997025 63.625873 
L 175.092795 63.44235 
L 174.188566 63.259172 
L 173.284336 63.076335 
L 172.380107 62.893839 
L 171.475877 62.711682 
L 170.571648 62.529862 
L 169.667418 62.348376 
L 168.763189 62.167223 
L 167.858959 61.986401 
L 166.95473 61.805907 
L 166.050501 61.62574 
L 165.146271 61.445896 
L 164.242042 61.266374 
L 163.337812 61.087171 
L 162.433583 60.908286 
L 161.529353 60.729714 
L 160.625124 60.551455 
L 159.720894 60.373505 
L 158.816665 60.195862 
L 157.912435 60.018522 
L 157.008206 59.841485 
L 156.103977 59.664746 
L 155.199747 59.488303 
L 154.295518 59.312154 
L 153.391288 59.136295 
L 152.487059 58.960724 
L 151.582829 58.785437 
z
" style="fill:#bfbf00;fill-opacity:0.2;"/>
   </g>
   <g id="PathCollection_2">
    <g clip-path="url(#pccadfa164e)">
     <use style="fill:#1f77b4;stroke:#1f77b4;" x="233.466836" xlink:href="#m67d881b7cc" y="67.376969"/>
     <use style="fill:#1f77b4;stroke:#1f77b4;" x="154.423804" xlink:href="#m67d881b7cc" y="58.901743"/>
     <use style="fill:#1f77b4;stroke:#1f77b4;" x="223.853707" xlink:href="#m67d881b7cc" y="70.996817"/>
     <use style="fill:#1f77b4;stroke:#1f77b4;" x="186.512848" xlink:href="#m67d881b7cc" y="53.840559"/>
     <use style="fill:#1f77b4;stroke:#1f77b4;" x="152.76128" xlink:href="#m67d881b7cc" y="57.592778"/>
     <use style="fill:#1f77b4;stroke:#1f77b4;" x="210.128907" xlink:href="#m67d881b7cc" y="68.742538"/>
     <use style="fill:#1f77b4;stroke:#1f77b4;" x="158.47651" xlink:href="#m67d881b7cc" y="54.982889"/>
     <use style="fill:#1f77b4;stroke:#1f77b4;" x="183.700848" xlink:href="#m67d881b7cc" y="54.262434"/>
     <use style="fill:#1f77b4;stroke:#1f77b4;" x="198.342694" xlink:href="#m67d881b7cc" y="64.653917"/>
     <use style="fill:#1f77b4;stroke:#1f77b4;" x="223.610221" xlink:href="#m67d881b7cc" y="77.515359"/>
    </g>
   </g>
   <g id="matplotlib.axis_3">
    <g id="xtick_4">
     <g id="line2d_10">
      <g>
       <use style="stroke:#000000;stroke-width:0.8;" x="151.582829" xlink:href="#mbf8debbf0f" y="109.835582"/>
      </g>
     </g>
     <g id="text_10">
      <!-- 0.0 -->
      <g transform="translate(143.631267 124.43402)scale(0.1 -0.1)">
       <use xlink:href="#DejaVuSans-48"/>
       <use x="63.623047" xlink:href="#DejaVuSans-46"/>
       <use x="95.410156" xlink:href="#DejaVuSans-48"/>
      </g>
     </g>
    </g>
    <g id="xtick_5">
     <g id="line2d_11">
      <g>
       <use style="stroke:#000000;stroke-width:0.8;" x="187.201195" xlink:href="#mbf8debbf0f" y="109.835582"/>
      </g>
     </g>
     <g id="text_11">
      <!-- 2.5 -->
      <g transform="translate(179.249632 124.43402)scale(0.1 -0.1)">
       <use xlink:href="#DejaVuSans-50"/>
       <use x="63.623047" xlink:href="#DejaVuSans-46"/>
       <use x="95.410156" xlink:href="#DejaVuSans-53"/>
      </g>
     </g>
    </g>
    <g id="xtick_6">
     <g id="line2d_12">
      <g>
       <use style="stroke:#000000;stroke-width:0.8;" x="222.81956" xlink:href="#mbf8debbf0f" y="109.835582"/>
      </g>
     </g>
     <g id="text_12">
      <!-- 5.0 -->
      <g transform="translate(214.867998 124.43402)scale(0.1 -0.1)">
       <use xlink:href="#DejaVuSans-53"/>
       <use x="63.623047" xlink:href="#DejaVuSans-46"/>
       <use x="95.410156" xlink:href="#DejaVuSans-48"/>
      </g>
     </g>
    </g>
   </g>
   <g id="matplotlib.axis_4">
    <g id="ytick_6">
     <g id="line2d_13">
      <g>
       <use style="stroke:#000000;stroke-width:0.8;" x="147.106893" xlink:href="#m97b525fdfe" y="109.835582"/>
      </g>
     </g>
     <g id="text_13">
      <!-- −4 -->
      <g transform="translate(125.364706 113.634801)scale(0.1 -0.1)">
       <use xlink:href="#DejaVuSans-8722"/>
       <use x="83.789062" xlink:href="#DejaVuSans-52"/>
      </g>
     </g>
    </g>
    <g id="ytick_7">
     <g id="line2d_14">
      <g>
       <use style="stroke:#000000;stroke-width:0.8;" x="147.106893" xlink:href="#m97b525fdfe" y="85.126491"/>
      </g>
     </g>
     <g id="text_14">
      <!-- −2 -->
      <g transform="translate(125.364706 88.92571)scale(0.1 -0.1)">
       <use xlink:href="#DejaVuSans-8722"/>
       <use x="83.789062" xlink:href="#DejaVuSans-50"/>
      </g>
     </g>
    </g>
    <g id="ytick_8">
     <g id="line2d_15">
      <g>
       <use style="stroke:#000000;stroke-width:0.8;" x="147.106893" xlink:href="#m97b525fdfe" y="60.417401"/>
      </g>
     </g>
     <g id="text_15">
      <!-- 0 -->
      <g transform="translate(133.744393 64.216619)scale(0.1 -0.1)">
       <use xlink:href="#DejaVuSans-48"/>
      </g>
     </g>
    </g>
    <g id="ytick_9">
     <g id="line2d_16">
      <g>
       <use style="stroke:#000000;stroke-width:0.8;" x="147.106893" xlink:href="#m97b525fdfe" y="35.70831"/>
      </g>
     </g>
     <g id="text_16">
      <!-- 2 -->
      <g transform="translate(133.744393 39.507528)scale(0.1 -0.1)">
       <use xlink:href="#DejaVuSans-50"/>
      </g>
     </g>
    </g>
    <g id="ytick_10">
     <g id="line2d_17">
      <g>
       <use style="stroke:#000000;stroke-width:0.8;" x="147.106893" xlink:href="#m97b525fdfe" y="10.999219"/>
      </g>
     </g>
     <g id="text_17">
      <!-- 4 -->
      <g transform="translate(133.744393 14.798437)scale(0.1 -0.1)">
       <use xlink:href="#DejaVuSans-52"/>
      </g>
     </g>
    </g>
   </g>
   <g id="line2d_18">
    <path clip-path="url(#pccadfa164e)" d="M 151.582829 54.342493 
L 152.487059 54.532523 
L 153.391288 54.722553 
L 154.295518 54.912583 
L 155.199747 55.102613 
L 156.103977 55.292643 
L 157.008206 55.482673 
L 157.912435 55.672703 
L 158.816665 55.862733 
L 159.720894 56.052763 
L 160.625124 56.242793 
L 161.529353 56.432823 
L 162.433583 56.622853 
L 163.337812 56.812883 
L 164.242042 57.002913 
L 165.146271 57.192943 
L 166.050501 57.382973 
L 166.95473 57.573003 
L 167.858959 57.763033 
L 168.763189 57.953062 
L 169.667418 58.143092 
L 170.571648 58.333122 
L 171.475877 58.523152 
L 172.380107 58.713182 
L 173.284336 58.903212 
L 174.188566 59.093242 
L 175.092795 59.283272 
L 175.997025 59.473302 
L 176.901254 59.663332 
L 177.805484 59.853362 
L 178.709713 60.043392 
L 179.613942 60.233422 
L 180.518172 60.423452 
L 181.422401 60.613482 
L 182.326631 60.803512 
L 183.23086 60.993542 
L 184.13509 61.183572 
L 185.039319 61.373602 
L 185.943549 61.563632 
L 186.847778 61.753661 
L 187.752008 61.943691 
L 188.656237 62.133721 
L 189.560467 62.323751 
L 190.464696 62.513781 
L 191.368925 62.703811 
L 192.273155 62.893841 
L 193.177384 63.083871 
L 194.081614 63.273901 
L 194.985843 63.463931 
L 195.890073 63.653961 
L 196.794302 63.843991 
L 197.698532 64.034021 
L 198.602761 64.224051 
L 199.506991 64.414081 
L 200.41122 64.604111 
L 201.31545 64.794141 
L 202.219679 64.984171 
L 203.123908 65.174201 
L 204.028138 65.364231 
L 204.932367 65.55426 
L 205.836597 65.74429 
L 206.740826 65.93432 
L 207.645056 66.12435 
L 208.549285 66.31438 
L 209.453515 66.50441 
L 210.357744 66.69444 
L 211.261974 66.88447 
L 212.166203 67.0745 
L 213.070433 67.26453 
L 213.974662 67.45456 
L 214.878891 67.64459 
L 215.783121 67.83462 
L 216.68735 68.02465 
L 217.59158 68.21468 
L 218.495809 68.40471 
L 219.400039 68.59474 
L 220.304268 68.78477 
L 221.208498 68.9748 
L 222.112727 69.16483 
L 223.016957 69.354859 
L 223.921186 69.544889 
L 224.825416 69.734919 
L 225.729645 69.924949 
L 226.633874 70.114979 
L 227.538104 70.305009 
L 228.442333 70.495039 
L 229.346563 70.685069 
L 230.250792 70.875099 
L 231.155022 71.065129 
L 232.059251 71.255159 
L 232.963481 71.445189 
L 233.86771 71.635219 
L 234.77194 71.825249 
L 235.676169 72.015279 
L 236.580398 72.205309 
L 237.484628 72.395339 
L 238.388857 72.585369 
L 239.293087 72.775399 
L 240.197316 72.965429 
L 241.101546 73.155458 
" style="fill:none;stroke:#ffa500;stroke-linecap:square;stroke-width:1.5;"/>
   </g>
   <g id="patch_8">
    <path d="M 147.106893 109.835582 
L 147.106893 10.999219 
" style="fill:none;stroke:#000000;stroke-linecap:square;stroke-linejoin:miter;stroke-width:0.8;"/>
   </g>
   <g id="patch_9">
    <path d="M 245.577482 109.835582 
L 245.577482 10.999219 
" style="fill:none;stroke:#000000;stroke-linecap:square;stroke-linejoin:miter;stroke-width:0.8;"/>
   </g>
   <g id="patch_10">
    <path d="M 147.106893 109.835582 
L 245.577482 109.835582 
" style="fill:none;stroke:#000000;stroke-linecap:square;stroke-linejoin:miter;stroke-width:0.8;"/>
   </g>
   <g id="patch_11">
    <path d="M 147.106893 10.999219 
L 245.577482 10.999219 
" style="fill:none;stroke:#000000;stroke-linecap:square;stroke-linejoin:miter;stroke-width:0.8;"/>
   </g>
   <g id="text_18">
    <!-- M = 2 -->
    <g transform="translate(151.582829 23.353764)scale(0.1 -0.1)">
     <use xlink:href="#DejaVuSans-77"/>
     <use x="86.279297" xlink:href="#DejaVuSans-32"/>
     <use x="118.066406" xlink:href="#DejaVuSans-61"/>
     <use x="201.855469" xlink:href="#DejaVuSans-32"/>
     <use x="233.642578" xlink:href="#DejaVuSans-50"/>
    </g>
   </g>
  </g>
  <g id="axes_3">
   <g id="patch_12">
    <path d="M 265.271599 109.835582 
L 363.742188 109.835582 
L 363.742188 10.999219 
L 265.271599 10.999219 
z
" style="fill:#ffffff;"/>
   </g>
   <g id="PolyCollection_3">
    <path clip-path="url(#p02604067b9)" d="M 269.747535 61.257102 
L 269.747535 51.959267 
L 270.651765 51.975811 
L 271.555994 51.993037 
L 272.460223 52.011083 
L 273.364453 52.030096 
L 274.268682 52.050235 
L 275.172912 52.071671 
L 276.077141 52.094582 
L 276.981371 52.119155 
L 277.8856 52.145581 
L 278.78983 52.174058 
L 279.694059 52.204789 
L 280.598289 52.237976 
L 281.502518 52.273824 
L 282.406748 52.312537 
L 283.310977 52.354317 
L 284.215206 52.399364 
L 285.119436 52.447873 
L 286.023665 52.500037 
L 286.927895 52.55604 
L 287.832124 52.616062 
L 288.736354 52.680278 
L 289.640583 52.748853 
L 290.544813 52.821946 
L 291.449042 52.899708 
L 292.353272 52.982284 
L 293.257501 53.069807 
L 294.161731 53.162407 
L 295.06596 53.260202 
L 295.970189 53.363305 
L 296.874419 53.47182 
L 297.778648 53.585842 
L 298.682878 53.70546 
L 299.587107 53.830755 
L 300.491337 53.961801 
L 301.395566 54.098663 
L 302.299796 54.241403 
L 303.204025 54.390071 
L 304.108255 54.544713 
L 305.012484 54.705368 
L 305.916714 54.872068 
L 306.820943 55.044839 
L 307.725172 55.223698 
L 308.629402 55.40866 
L 309.533631 55.59973 
L 310.437861 55.796907 
L 311.34209 56.000185 
L 312.24632 56.209552 
L 313.150549 56.424986 
L 314.054779 56.646462 
L 314.959008 56.873947 
L 315.863238 57.107402 
L 316.767467 57.34678 
L 317.671696 57.592029 
L 318.575926 57.843086 
L 319.480155 58.099887 
L 320.384385 58.362354 
L 321.288614 58.630407 
L 322.192844 58.903955 
L 323.097073 59.1829 
L 324.001303 59.467136 
L 324.905532 59.756551 
L 325.809762 60.051022 
L 326.713991 60.35042 
L 327.618221 60.654607 
L 328.52245 60.963436 
L 329.426679 61.276754 
L 330.330909 61.594399 
L 331.235138 61.916202 
L 332.139368 62.241986 
L 333.043597 62.571569 
L 333.947827 62.90476 
L 334.852056 63.241367 
L 335.756286 63.581188 
L 336.660515 63.924023 
L 337.564745 64.269663 
L 338.468974 64.617904 
L 339.373204 64.968536 
L 340.277433 65.321355 
L 341.181662 65.676156 
L 342.085892 66.032739 
L 342.990121 66.390909 
L 343.894351 66.75048 
L 344.79858 67.111272 
L 345.70281 67.473114 
L 346.607039 67.835848 
L 347.511269 68.199326 
L 348.415498 68.563414 
L 349.319728 68.927989 
L 350.223957 69.292944 
L 351.128187 69.658185 
L 352.032416 70.023632 
L 352.936645 70.389219 
L 353.840875 70.754894 
L 354.745104 71.120618 
L 355.649334 71.486363 
L 356.553563 71.852114 
L 357.457793 72.217868 
L 358.362022 72.583628 
L 359.266252 72.94941 
L 359.266252 84.247203 
L 359.266252 84.247203 
L 358.362022 83.652489 
L 357.457793 83.06829 
L 356.553563 82.494618 
L 355.649334 81.931481 
L 354.745104 81.378873 
L 353.840875 80.836779 
L 352.936645 80.305173 
L 352.032416 79.784014 
L 351.128187 79.273251 
L 350.223957 78.772817 
L 349.319728 78.282634 
L 348.415498 77.802606 
L 347.511269 77.332626 
L 346.607039 76.872573 
L 345.70281 76.422312 
L 344.79858 75.981694 
L 343.894351 75.550561 
L 342.990121 75.128744 
L 342.085892 74.716062 
L 341.181662 74.312328 
L 340.277433 73.917347 
L 339.373204 73.53092 
L 338.468974 73.152843 
L 337.564745 72.782909 
L 336.660515 72.420912 
L 335.756286 72.066643 
L 334.852056 71.719898 
L 333.947827 71.380473 
L 333.043597 71.04817 
L 332.139368 70.722793 
L 331.235138 70.404153 
L 330.330909 70.092068 
L 329.426679 69.78636 
L 328.52245 69.486862 
L 327.618221 69.19341 
L 326.713991 68.905851 
L 325.809762 68.62404 
L 324.905532 68.347837 
L 324.001303 68.077114 
L 323.097073 67.811749 
L 322.192844 67.551627 
L 321.288614 67.296644 
L 320.384385 67.046702 
L 319.480155 66.80171 
L 318.575926 66.561586 
L 317.671696 66.326257 
L 316.767467 66.095653 
L 315.863238 65.869715 
L 314.959008 65.648389 
L 314.054779 65.431629 
L 313.150549 65.219396 
L 312.24632 65.011657 
L 311.34209 64.808385 
L 310.437861 64.609562 
L 309.533631 64.415173 
L 308.629402 64.225212 
L 307.725172 64.039679 
L 306.820943 63.85858 
L 305.916714 63.681927 
L 305.012484 63.50974 
L 304.108255 63.342043 
L 303.204025 63.178869 
L 302.299796 63.020257 
L 301.395566 62.866252 
L 300.491337 62.716906 
L 299.587107 62.572278 
L 298.682878 62.432436 
L 297.778648 62.297452 
L 296.874419 62.167408 
L 295.970189 62.042393 
L 295.06596 61.922501 
L 294.161731 61.807838 
L 293.257501 61.698515 
L 292.353272 61.594651 
L 291.449042 61.496375 
L 290.544813 61.403822 
L 289.640583 61.317135 
L 288.736354 61.236465 
L 287.832124 61.161972 
L 286.927895 61.093822 
L 286.023665 61.032188 
L 285.119436 60.97725 
L 284.215206 60.929194 
L 283.310977 60.888211 
L 282.406748 60.854497 
L 281.502518 60.828252 
L 280.598289 60.809677 
L 279.694059 60.798977 
L 278.78983 60.796357 
L 277.8856 60.802019 
L 276.981371 60.816165 
L 276.077141 60.838994 
L 275.172912 60.870696 
L 274.268682 60.91146 
L 273.364453 60.961463 
L 272.460223 61.020875 
L 271.555994 61.089856 
L 270.651765 61.168552 
L 269.747535 61.257102 
z
" style="fill:#bfbf00;fill-opacity:0.2;"/>
   </g>
   <g id="PathCollection_3">
    <g clip-path="url(#p02604067b9)">
     <use style="fill:#1f77b4;stroke:#1f77b4;" x="351.631542" xlink:href="#m67d881b7cc" y="67.376969"/>
     <use style="fill:#1f77b4;stroke:#1f77b4;" x="272.58851" xlink:href="#m67d881b7cc" y="58.901743"/>
     <use style="fill:#1f77b4;stroke:#1f77b4;" x="342.018413" xlink:href="#m67d881b7cc" y="70.996817"/>
     <use style="fill:#1f77b4;stroke:#1f77b4;" x="304.677554" xlink:href="#m67d881b7cc" y="53.840559"/>
     <use style="fill:#1f77b4;stroke:#1f77b4;" x="270.925986" xlink:href="#m67d881b7cc" y="57.592778"/>
     <use style="fill:#1f77b4;stroke:#1f77b4;" x="328.293613" xlink:href="#m67d881b7cc" y="68.742538"/>
     <use style="fill:#1f77b4;stroke:#1f77b4;" x="276.641216" xlink:href="#m67d881b7cc" y="54.982889"/>
     <use style="fill:#1f77b4;stroke:#1f77b4;" x="301.865554" xlink:href="#m67d881b7cc" y="54.262434"/>
     <use style="fill:#1f77b4;stroke:#1f77b4;" x="316.507399" xlink:href="#m67d881b7cc" y="64.653917"/>
     <use style="fill:#1f77b4;stroke:#1f77b4;" x="341.774927" xlink:href="#m67d881b7cc" y="77.515359"/>
    </g>
   </g>
   <g id="matplotlib.axis_5">
    <g id="xtick_7">
     <g id="line2d_19">
      <g>
       <use style="stroke:#000000;stroke-width:0.8;" x="269.747535" xlink:href="#mbf8debbf0f" y="109.835582"/>
      </g>
     </g>
     <g id="text_19">
      <!-- 0.0 -->
      <g transform="translate(261.795973 124.43402)scale(0.1 -0.1)">
       <use xlink:href="#DejaVuSans-48"/>
       <use x="63.623047" xlink:href="#DejaVuSans-46"/>
       <use x="95.410156" xlink:href="#DejaVuSans-48"/>
      </g>
     </g>
    </g>
    <g id="xtick_8">
     <g id="line2d_20">
      <g>
       <use style="stroke:#000000;stroke-width:0.8;" x="305.365901" xlink:href="#mbf8debbf0f" y="109.835582"/>
      </g>
     </g>
     <g id="text_20">
      <!-- 2.5 -->
      <g transform="translate(297.414338 124.43402)scale(0.1 -0.1)">
       <use xlink:href="#DejaVuSans-50"/>
       <use x="63.623047" xlink:href="#DejaVuSans-46"/>
       <use x="95.410156" xlink:href="#DejaVuSans-53"/>
      </g>
     </g>
    </g>
    <g id="xtick_9">
     <g id="line2d_21">
      <g>
       <use style="stroke:#000000;stroke-width:0.8;" x="340.984266" xlink:href="#mbf8debbf0f" y="109.835582"/>
      </g>
     </g>
     <g id="text_21">
      <!-- 5.0 -->
      <g transform="translate(333.032704 124.43402)scale(0.1 -0.1)">
       <use xlink:href="#DejaVuSans-53"/>
       <use x="63.623047" xlink:href="#DejaVuSans-46"/>
       <use x="95.410156" xlink:href="#DejaVuSans-48"/>
      </g>
     </g>
    </g>
   </g>
   <g id="matplotlib.axis_6">
    <g id="ytick_11">
     <g id="line2d_22">
      <g>
       <use style="stroke:#000000;stroke-width:0.8;" x="265.271599" xlink:href="#m97b525fdfe" y="109.835582"/>
      </g>
     </g>
     <g id="text_22">
      <!-- −4 -->
      <g transform="translate(243.529412 113.634801)scale(0.1 -0.1)">
       <use xlink:href="#DejaVuSans-8722"/>
       <use x="83.789062" xlink:href="#DejaVuSans-52"/>
      </g>
     </g>
    </g>
    <g id="ytick_12">
     <g id="line2d_23">
      <g>
       <use style="stroke:#000000;stroke-width:0.8;" x="265.271599" xlink:href="#m97b525fdfe" y="85.126491"/>
      </g>
     </g>
     <g id="text_23">
      <!-- −2 -->
      <g transform="translate(243.529412 88.92571)scale(0.1 -0.1)">
       <use xlink:href="#DejaVuSans-8722"/>
       <use x="83.789062" xlink:href="#DejaVuSans-50"/>
      </g>
     </g>
    </g>
    <g id="ytick_13">
     <g id="line2d_24">
      <g>
       <use style="stroke:#000000;stroke-width:0.8;" x="265.271599" xlink:href="#m97b525fdfe" y="60.417401"/>
      </g>
     </g>
     <g id="text_24">
      <!-- 0 -->
      <g transform="translate(251.909099 64.216619)scale(0.1 -0.1)">
       <use xlink:href="#DejaVuSans-48"/>
      </g>
     </g>
    </g>
    <g id="ytick_14">
     <g id="line2d_25">
      <g>
       <use style="stroke:#000000;stroke-width:0.8;" x="265.271599" xlink:href="#m97b525fdfe" y="35.70831"/>
      </g>
     </g>
     <g id="text_25">
      <!-- 2 -->
      <g transform="translate(251.909099 39.507528)scale(0.1 -0.1)">
       <use xlink:href="#DejaVuSans-50"/>
      </g>
     </g>
    </g>
    <g id="ytick_15">
     <g id="line2d_26">
      <g>
       <use style="stroke:#000000;stroke-width:0.8;" x="265.271599" xlink:href="#m97b525fdfe" y="10.999219"/>
      </g>
     </g>
     <g id="text_26">
      <!-- 4 -->
      <g transform="translate(251.909099 14.798437)scale(0.1 -0.1)">
       <use xlink:href="#DejaVuSans-52"/>
      </g>
     </g>
    </g>
   </g>
   <g id="line2d_27">
    <path clip-path="url(#p02604067b9)" d="M 269.747535 56.608185 
L 270.651765 56.572181 
L 271.555994 56.541446 
L 272.460223 56.515979 
L 273.364453 56.495779 
L 274.268682 56.480848 
L 275.172912 56.471184 
L 276.077141 56.466788 
L 276.981371 56.46766 
L 277.8856 56.4738 
L 278.78983 56.485208 
L 279.694059 56.501883 
L 280.598289 56.523827 
L 281.502518 56.551038 
L 282.406748 56.583517 
L 283.310977 56.621264 
L 284.215206 56.664279 
L 285.119436 56.712562 
L 286.023665 56.766112 
L 286.927895 56.824931 
L 287.832124 56.889017 
L 288.736354 56.958372 
L 289.640583 57.032994 
L 290.544813 57.112884 
L 291.449042 57.198042 
L 292.353272 57.288467 
L 293.257501 57.384161 
L 294.161731 57.485122 
L 295.06596 57.591352 
L 295.970189 57.702849 
L 296.874419 57.819614 
L 297.778648 57.941647 
L 298.682878 58.068948 
L 299.587107 58.201517 
L 300.491337 58.339353 
L 301.395566 58.482457 
L 302.299796 58.63083 
L 303.204025 58.78447 
L 304.108255 58.943378 
L 305.012484 59.107554 
L 305.916714 59.276998 
L 306.820943 59.451709 
L 307.725172 59.631689 
L 308.629402 59.816936 
L 309.533631 60.007451 
L 310.437861 60.203234 
L 311.34209 60.404285 
L 312.24632 60.610604 
L 313.150549 60.822191 
L 314.054779 61.039046 
L 314.959008 61.261168 
L 315.863238 61.488558 
L 316.767467 61.721216 
L 317.671696 61.959143 
L 318.575926 62.202336 
L 319.480155 62.450798 
L 320.384385 62.704528 
L 321.288614 62.963525 
L 322.192844 63.227791 
L 323.097073 63.497324 
L 324.001303 63.772125 
L 324.905532 64.052194 
L 325.809762 64.337531 
L 326.713991 64.628136 
L 327.618221 64.924008 
L 328.52245 65.225149 
L 329.426679 65.531557 
L 330.330909 65.843233 
L 331.235138 66.160178 
L 332.139368 66.482389 
L 333.043597 66.809869 
L 333.947827 67.142617 
L 334.852056 67.480633 
L 335.756286 67.823916 
L 336.660515 68.172467 
L 337.564745 68.526286 
L 338.468974 68.885373 
L 339.373204 69.249728 
L 340.277433 69.619351 
L 341.181662 69.994242 
L 342.085892 70.3744 
L 342.990121 70.759827 
L 343.894351 71.150521 
L 344.79858 71.546483 
L 345.70281 71.947713 
L 346.607039 72.354211 
L 347.511269 72.765976 
L 348.415498 73.18301 
L 349.319728 73.605311 
L 350.223957 74.032881 
L 351.128187 74.465718 
L 352.032416 74.903823 
L 352.936645 75.347196 
L 353.840875 75.795837 
L 354.745104 76.249745 
L 355.649334 76.708922 
L 356.553563 77.173366 
L 357.457793 77.643079 
L 358.362022 78.118059 
L 359.266252 78.598307 
" style="fill:none;stroke:#ffa500;stroke-linecap:square;stroke-width:1.5;"/>
   </g>
   <g id="patch_13">
    <path d="M 265.271599 109.835582 
L 265.271599 10.999219 
" style="fill:none;stroke:#000000;stroke-linecap:square;stroke-linejoin:miter;stroke-width:0.8;"/>
   </g>
   <g id="patch_14">
    <path d="M 363.742188 109.835582 
L 363.742188 10.999219 
" style="fill:none;stroke:#000000;stroke-linecap:square;stroke-linejoin:miter;stroke-width:0.8;"/>
   </g>
   <g id="patch_15">
    <path d="M 265.271599 109.835582 
L 363.742188 109.835582 
" style="fill:none;stroke:#000000;stroke-linecap:square;stroke-linejoin:miter;stroke-width:0.8;"/>
   </g>
   <g id="patch_16">
    <path d="M 265.271599 10.999219 
L 363.742188 10.999219 
" style="fill:none;stroke:#000000;stroke-linecap:square;stroke-linejoin:miter;stroke-width:0.8;"/>
   </g>
   <g id="text_27">
    <!-- M = 3 -->
    <defs>
     <path d="M 40.578125 39.3125 
Q 47.65625 37.796875 51.625 33 
Q 55.609375 28.21875 55.609375 21.1875 
Q 55.609375 10.40625 48.1875 4.484375 
Q 40.765625 -1.421875 27.09375 -1.421875 
Q 22.515625 -1.421875 17.65625 -0.515625 
Q 12.796875 0.390625 7.625 2.203125 
L 7.625 11.71875 
Q 11.71875 9.328125 16.59375 8.109375 
Q 21.484375 6.890625 26.8125 6.890625 
Q 36.078125 6.890625 40.9375 10.546875 
Q 45.796875 14.203125 45.796875 21.1875 
Q 45.796875 27.640625 41.28125 31.265625 
Q 36.765625 34.90625 28.71875 34.90625 
L 20.21875 34.90625 
L 20.21875 43.015625 
L 29.109375 43.015625 
Q 36.375 43.015625 40.234375 45.921875 
Q 44.09375 48.828125 44.09375 54.296875 
Q 44.09375 59.90625 40.109375 62.90625 
Q 36.140625 65.921875 28.71875 65.921875 
Q 24.65625 65.921875 20.015625 65.03125 
Q 15.375 64.15625 9.8125 62.3125 
L 9.8125 71.09375 
Q 15.4375 72.65625 20.34375 73.4375 
Q 25.25 74.21875 29.59375 74.21875 
Q 40.828125 74.21875 47.359375 69.109375 
Q 53.90625 64.015625 53.90625 55.328125 
Q 53.90625 49.265625 50.4375 45.09375 
Q 46.96875 40.921875 40.578125 39.3125 
z
" id="DejaVuSans-51"/>
    </defs>
    <g transform="translate(269.747535 23.353764)scale(0.1 -0.1)">
     <use xlink:href="#DejaVuSans-77"/>
     <use x="86.279297" xlink:href="#DejaVuSans-32"/>
     <use x="118.066406" xlink:href="#DejaVuSans-61"/>
     <use x="201.855469" xlink:href="#DejaVuSans-32"/>
     <use x="233.642578" xlink:href="#DejaVuSans-51"/>
    </g>
   </g>
  </g>
  <g id="axes_4">
   <g id="patch_17">
    <path d="M 28.942188 228.439219 
L 127.412776 228.439219 
L 127.412776 129.602855 
L 28.942188 129.602855 
z
" style="fill:#ffffff;"/>
   </g>
   <g id="PolyCollection_4">
    <path clip-path="url(#p0a5b8ec7d9)" d="M 33.418123 183.040951 
L 33.418123 173.469931 
L 34.322353 172.688869 
L 35.226582 171.939313 
L 36.130812 171.222708 
L 37.035041 170.540703 
L 37.939271 169.895048 
L 38.8435 169.287475 
L 39.74773 168.719609 
L 40.651959 168.192892 
L 41.556188 167.708533 
L 42.460418 167.267479 
L 43.364647 166.870408 
L 44.268877 166.517729 
L 45.173106 166.209597 
L 46.077336 165.945934 
L 46.981565 165.726451 
L 47.885795 165.550667 
L 48.790024 165.417934 
L 49.694254 165.327458 
L 50.598483 165.278316 
L 51.502713 165.269473 
L 52.406942 165.299798 
L 53.311171 165.368075 
L 54.215401 165.473018 
L 55.11963 165.613276 
L 56.02386 165.787445 
L 56.928089 165.994076 
L 57.832319 166.231681 
L 58.736548 166.498739 
L 59.640778 166.793702 
L 60.545007 167.115 
L 61.449237 167.461048 
L 62.353466 167.830251 
L 63.257696 168.221004 
L 64.161925 168.631705 
L 65.066154 169.060753 
L 65.970384 169.506557 
L 66.874613 169.967538 
L 67.778843 170.442137 
L 68.683072 170.928816 
L 69.587302 171.426068 
L 70.491531 171.932416 
L 71.395761 172.446421 
L 72.29999 172.966681 
L 73.20422 173.491839 
L 74.108449 174.020584 
L 75.012679 174.551649 
L 75.916908 175.083817 
L 76.821137 175.615917 
L 77.725367 176.146823 
L 78.629596 176.675455 
L 79.533826 177.200774 
L 80.438055 177.721779 
L 81.342285 178.237503 
L 82.246514 178.74701 
L 83.150744 179.249387 
L 84.054973 179.743742 
L 84.959203 180.229197 
L 85.863432 180.704881 
L 86.767661 181.169929 
L 87.671891 181.623471 
L 88.57612 182.064628 
L 89.48035 182.492508 
L 90.384579 182.906198 
L 91.288809 183.304757 
L 92.193038 183.687211 
L 93.097268 184.052544 
L 94.001497 184.399692 
L 94.905727 184.727535 
L 95.809956 185.034884 
L 96.714186 185.320474 
L 97.618415 185.582951 
L 98.522644 185.820861 
L 99.426874 186.032631 
L 100.331103 186.216557 
L 101.235333 186.370788 
L 102.139562 186.493303 
L 103.043792 186.581899 
L 103.948021 186.63417 
L 104.852251 186.647494 
L 105.75648 186.619022 
L 106.66071 186.545679 
L 107.564939 186.424166 
L 108.469169 186.250987 
L 109.373398 186.022487 
L 110.277627 185.7349 
L 111.181857 185.384426 
L 112.086086 184.96731 
L 112.990316 184.479928 
L 113.894545 183.918865 
L 114.798775 183.280985 
L 115.703004 182.563469 
L 116.607234 181.763837 
L 117.511463 180.879934 
L 118.415693 179.909903 
L 119.319922 178.852143 
L 120.224152 177.705252 
L 121.128381 176.467977 
L 122.03261 175.139171 
L 122.93684 173.717743 
L 122.93684 189.841831 
L 122.93684 189.841831 
L 122.03261 190.346254 
L 121.128381 190.823647 
L 120.224152 191.275363 
L 119.319922 191.702692 
L 118.415693 192.106821 
L 117.511463 192.48879 
L 116.607234 192.849436 
L 115.703004 193.189343 
L 114.798775 193.508796 
L 113.894545 193.807754 
L 112.990316 194.08584 
L 112.086086 194.342356 
L 111.181857 194.576329 
L 110.277627 194.786574 
L 109.373398 194.971775 
L 108.469169 195.130573 
L 107.564939 195.261644 
L 106.66071 195.36377 
L 105.75648 195.435895 
L 104.852251 195.477162 
L 103.948021 195.486935 
L 103.043792 195.464805 
L 102.139562 195.410591 
L 101.235333 195.324327 
L 100.331103 195.206248 
L 99.426874 195.056775 
L 98.522644 194.876496 
L 97.618415 194.666147 
L 96.714186 194.426596 
L 95.809956 194.158828 
L 94.905727 193.86393 
L 94.001497 193.543075 
L 93.097268 193.197517 
L 92.193038 192.828575 
L 91.288809 192.437623 
L 90.384579 192.026087 
L 89.48035 191.595433 
L 88.57612 191.14716 
L 87.671891 190.682795 
L 86.767661 190.203884 
L 85.863432 189.711991 
L 84.959203 189.208685 
L 84.054973 188.69554 
L 83.150744 188.174126 
L 82.246514 187.646005 
L 81.342285 187.112725 
L 80.438055 186.575813 
L 79.533826 186.036773 
L 78.629596 185.497077 
L 77.725367 184.958166 
L 76.821137 184.421439 
L 75.916908 183.888257 
L 75.012679 183.359935 
L 74.108449 182.837741 
L 73.20422 182.322898 
L 72.29999 181.81658 
L 71.395761 181.319914 
L 70.491531 180.833983 
L 69.587302 180.359828 
L 68.683072 179.898448 
L 67.778843 179.450807 
L 66.874613 179.017836 
L 65.970384 178.600439 
L 65.066154 178.199496 
L 64.161925 177.815868 
L 63.257696 177.450405 
L 62.353466 177.103946 
L 61.449237 176.777328 
L 60.545007 176.471387 
L 59.640778 176.186967 
L 58.736548 175.924923 
L 57.832319 175.686126 
L 56.928089 175.471467 
L 56.02386 175.281867 
L 55.11963 175.118276 
L 54.215401 174.981686 
L 53.311171 174.873132 
L 52.406942 174.793704 
L 51.502713 174.744556 
L 50.598483 174.726912 
L 49.694254 174.74208 
L 48.790024 174.791467 
L 47.885795 174.876588 
L 46.981565 174.99909 
L 46.077336 175.160765 
L 45.173106 175.363573 
L 44.268877 175.609663 
L 43.364647 175.901397 
L 42.460418 176.241372 
L 41.556188 176.632437 
L 40.651959 177.077709 
L 39.74773 177.580574 
L 38.8435 178.144683 
L 37.939271 178.773916 
L 37.035041 179.47234 
L 36.130812 180.244127 
L 35.226582 181.093465 
L 34.322353 182.024445 
L 33.418123 183.040951 
z
" style="fill:#bfbf00;fill-opacity:0.2;"/>
   </g>
   <g id="PathCollection_4">
    <g clip-path="url(#p0a5b8ec7d9)">
     <use style="fill:#1f77b4;stroke:#1f77b4;" x="115.30213" xlink:href="#m67d881b7cc" y="185.980605"/>
     <use style="fill:#1f77b4;stroke:#1f77b4;" x="36.259098" xlink:href="#m67d881b7cc" y="177.505379"/>
     <use style="fill:#1f77b4;stroke:#1f77b4;" x="105.689001" xlink:href="#m67d881b7cc" y="189.600453"/>
     <use style="fill:#1f77b4;stroke:#1f77b4;" x="68.348142" xlink:href="#m67d881b7cc" y="172.444196"/>
     <use style="fill:#1f77b4;stroke:#1f77b4;" x="34.596574" xlink:href="#m67d881b7cc" y="176.196414"/>
     <use style="fill:#1f77b4;stroke:#1f77b4;" x="91.964201" xlink:href="#m67d881b7cc" y="187.346175"/>
     <use style="fill:#1f77b4;stroke:#1f77b4;" x="40.311804" xlink:href="#m67d881b7cc" y="173.586525"/>
     <use style="fill:#1f77b4;stroke:#1f77b4;" x="65.536142" xlink:href="#m67d881b7cc" y="172.86607"/>
     <use style="fill:#1f77b4;stroke:#1f77b4;" x="80.177988" xlink:href="#m67d881b7cc" y="183.257553"/>
     <use style="fill:#1f77b4;stroke:#1f77b4;" x="105.445515" xlink:href="#m67d881b7cc" y="196.118996"/>
    </g>
   </g>
   <g id="matplotlib.axis_7">
    <g id="xtick_10">
     <g id="line2d_28">
      <g>
       <use style="stroke:#000000;stroke-width:0.8;" x="33.418123" xlink:href="#mbf8debbf0f" y="228.439219"/>
      </g>
     </g>
     <g id="text_28">
      <!-- 0.0 -->
      <g transform="translate(25.466561 243.037656)scale(0.1 -0.1)">
       <use xlink:href="#DejaVuSans-48"/>
       <use x="63.623047" xlink:href="#DejaVuSans-46"/>
       <use x="95.410156" xlink:href="#DejaVuSans-48"/>
      </g>
     </g>
    </g>
    <g id="xtick_11">
     <g id="line2d_29">
      <g>
       <use style="stroke:#000000;stroke-width:0.8;" x="69.036489" xlink:href="#mbf8debbf0f" y="228.439219"/>
      </g>
     </g>
     <g id="text_29">
      <!-- 2.5 -->
      <g transform="translate(61.084926 243.037656)scale(0.1 -0.1)">
       <use xlink:href="#DejaVuSans-50"/>
       <use x="63.623047" xlink:href="#DejaVuSans-46"/>
       <use x="95.410156" xlink:href="#DejaVuSans-53"/>
      </g>
     </g>
    </g>
    <g id="xtick_12">
     <g id="line2d_30">
      <g>
       <use style="stroke:#000000;stroke-width:0.8;" x="104.654855" xlink:href="#mbf8debbf0f" y="228.439219"/>
      </g>
     </g>
     <g id="text_30">
      <!-- 5.0 -->
      <g transform="translate(96.703292 243.037656)scale(0.1 -0.1)">
       <use xlink:href="#DejaVuSans-53"/>
       <use x="63.623047" xlink:href="#DejaVuSans-46"/>
       <use x="95.410156" xlink:href="#DejaVuSans-48"/>
      </g>
     </g>
    </g>
   </g>
   <g id="matplotlib.axis_8">
    <g id="ytick_16">
     <g id="line2d_31">
      <g>
       <use style="stroke:#000000;stroke-width:0.8;" x="28.942188" xlink:href="#m97b525fdfe" y="228.439219"/>
      </g>
     </g>
     <g id="text_31">
      <!-- −4 -->
      <g transform="translate(7.2 232.238437)scale(0.1 -0.1)">
       <use xlink:href="#DejaVuSans-8722"/>
       <use x="83.789062" xlink:href="#DejaVuSans-52"/>
      </g>
     </g>
    </g>
    <g id="ytick_17">
     <g id="line2d_32">
      <g>
       <use style="stroke:#000000;stroke-width:0.8;" x="28.942188" xlink:href="#m97b525fdfe" y="203.730128"/>
      </g>
     </g>
     <g id="text_32">
      <!-- −2 -->
      <g transform="translate(7.2 207.529347)scale(0.1 -0.1)">
       <use xlink:href="#DejaVuSans-8722"/>
       <use x="83.789062" xlink:href="#DejaVuSans-50"/>
      </g>
     </g>
    </g>
    <g id="ytick_18">
     <g id="line2d_33">
      <g>
       <use style="stroke:#000000;stroke-width:0.8;" x="28.942188" xlink:href="#m97b525fdfe" y="179.021037"/>
      </g>
     </g>
     <g id="text_33">
      <!-- 0 -->
      <g transform="translate(15.579688 182.820256)scale(0.1 -0.1)">
       <use xlink:href="#DejaVuSans-48"/>
      </g>
     </g>
    </g>
    <g id="ytick_19">
     <g id="line2d_34">
      <g>
       <use style="stroke:#000000;stroke-width:0.8;" x="28.942188" xlink:href="#m97b525fdfe" y="154.311946"/>
      </g>
     </g>
     <g id="text_34">
      <!-- 2 -->
      <g transform="translate(15.579688 158.111165)scale(0.1 -0.1)">
       <use xlink:href="#DejaVuSans-50"/>
      </g>
     </g>
    </g>
    <g id="ytick_20">
     <g id="line2d_35">
      <g>
       <use style="stroke:#000000;stroke-width:0.8;" x="28.942188" xlink:href="#m97b525fdfe" y="129.602855"/>
      </g>
     </g>
     <g id="text_35">
      <!-- 4 -->
      <g transform="translate(15.579688 133.402074)scale(0.1 -0.1)">
       <use xlink:href="#DejaVuSans-52"/>
      </g>
     </g>
    </g>
   </g>
   <g id="line2d_36">
    <path clip-path="url(#p0a5b8ec7d9)" d="M 33.418123 178.255441 
L 34.322353 177.356657 
L 35.226582 176.516389 
L 36.130812 175.733417 
L 37.035041 175.006522 
L 37.939271 174.334482 
L 38.8435 173.716079 
L 39.74773 173.150091 
L 40.651959 172.6353 
L 41.556188 172.170485 
L 42.460418 171.754426 
L 43.364647 171.385903 
L 44.268877 171.063696 
L 45.173106 170.786585 
L 46.077336 170.55335 
L 46.981565 170.362771 
L 47.885795 170.213628 
L 48.790024 170.1047 
L 49.694254 170.034769 
L 50.598483 170.002614 
L 51.502713 170.007015 
L 52.406942 170.046751 
L 53.311171 170.120604 
L 54.215401 170.227352 
L 55.11963 170.365776 
L 56.02386 170.534656 
L 56.928089 170.732772 
L 57.832319 170.958903 
L 58.736548 171.211831 
L 59.640778 171.490334 
L 60.545007 171.793193 
L 61.449237 172.119188 
L 62.353466 172.467099 
L 63.257696 172.835705 
L 64.161925 173.223787 
L 65.066154 173.630125 
L 65.970384 174.053498 
L 66.874613 174.492687 
L 67.778843 174.946472 
L 68.683072 175.413632 
L 69.587302 175.892948 
L 70.491531 176.3832 
L 71.395761 176.883167 
L 72.29999 177.39163 
L 73.20422 177.907369 
L 74.108449 178.429163 
L 75.012679 178.955792 
L 75.916908 179.486037 
L 76.821137 180.018678 
L 77.725367 180.552494 
L 78.629596 181.086266 
L 79.533826 181.618773 
L 80.438055 182.148796 
L 81.342285 182.675114 
L 82.246514 183.196508 
L 83.150744 183.711757 
L 84.054973 184.219641 
L 84.959203 184.718941 
L 85.863432 185.208436 
L 86.767661 185.686907 
L 87.671891 186.153133 
L 88.57612 186.605894 
L 89.48035 187.043971 
L 90.384579 187.466143 
L 91.288809 187.87119 
L 92.193038 188.257893 
L 93.097268 188.625031 
L 94.001497 188.971384 
L 94.905727 189.295732 
L 95.809956 189.596856 
L 96.714186 189.873535 
L 97.618415 190.124549 
L 98.522644 190.348678 
L 99.426874 190.544703 
L 100.331103 190.711402 
L 101.235333 190.847557 
L 102.139562 190.951947 
L 103.043792 191.023352 
L 103.948021 191.060553 
L 104.852251 191.062328 
L 105.75648 191.027459 
L 106.66071 190.954724 
L 107.564939 190.842905 
L 108.469169 190.69078 
L 109.373398 190.497131 
L 110.277627 190.260737 
L 111.181857 189.980377 
L 112.086086 189.654833 
L 112.990316 189.282884 
L 113.894545 188.86331 
L 114.798775 188.39489 
L 115.703004 187.876406 
L 116.607234 187.306636 
L 117.511463 186.684362 
L 118.415693 186.008362 
L 119.319922 185.277417 
L 120.224152 184.490307 
L 121.128381 183.645812 
L 122.03261 182.742712 
L 122.93684 181.779787 
" style="fill:none;stroke:#ffa500;stroke-linecap:square;stroke-width:1.5;"/>
   </g>
   <g id="patch_18">
    <path d="M 28.942188 228.439219 
L 28.942188 129.602855 
" style="fill:none;stroke:#000000;stroke-linecap:square;stroke-linejoin:miter;stroke-width:0.8;"/>
   </g>
   <g id="patch_19">
    <path d="M 127.412776 228.439219 
L 127.412776 129.602855 
" style="fill:none;stroke:#000000;stroke-linecap:square;stroke-linejoin:miter;stroke-width:0.8;"/>
   </g>
   <g id="patch_20">
    <path d="M 28.942188 228.439219 
L 127.412776 228.439219 
" style="fill:none;stroke:#000000;stroke-linecap:square;stroke-linejoin:miter;stroke-width:0.8;"/>
   </g>
   <g id="patch_21">
    <path d="M 28.942188 129.602855 
L 127.412776 129.602855 
" style="fill:none;stroke:#000000;stroke-linecap:square;stroke-linejoin:miter;stroke-width:0.8;"/>
   </g>
   <g id="text_36">
    <!-- M = 4 -->
    <g transform="translate(33.418123 141.957401)scale(0.1 -0.1)">
     <use xlink:href="#DejaVuSans-77"/>
     <use x="86.279297" xlink:href="#DejaVuSans-32"/>
     <use x="118.066406" xlink:href="#DejaVuSans-61"/>
     <use x="201.855469" xlink:href="#DejaVuSans-32"/>
     <use x="233.642578" xlink:href="#DejaVuSans-52"/>
    </g>
   </g>
  </g>
  <g id="axes_5">
   <g id="patch_22">
    <path d="M 147.106893 228.439219 
L 245.577482 228.439219 
L 245.577482 129.602855 
L 147.106893 129.602855 
z
" style="fill:#ffffff;"/>
   </g>
   <g id="PolyCollection_5">
    <path clip-path="url(#pe4b4770330)" d="M 151.582829 181.852905 
L 151.582829 172.147163 
L 152.487059 172.010862 
L 153.391288 171.808888 
L 154.295518 171.553481 
L 155.199747 171.256891 
L 156.103977 170.930694 
L 157.008206 170.585329 
L 157.912435 170.229852 
L 158.816665 169.871905 
L 159.720894 169.517798 
L 160.625124 169.172669 
L 161.529353 168.840652 
L 162.433583 168.525051 
L 163.337812 168.228489 
L 164.242042 167.953041 
L 165.146271 167.700331 
L 166.050501 167.471632 
L 166.95473 167.267922 
L 167.858959 167.089953 
L 168.763189 166.938288 
L 169.667418 166.813341 
L 170.571648 166.71541 
L 171.475877 166.644696 
L 172.380107 166.601326 
L 173.284336 166.585369 
L 174.188566 166.596848 
L 175.092795 166.635749 
L 175.997025 166.702033 
L 176.901254 166.795634 
L 177.805484 166.916469 
L 178.709713 167.064432 
L 179.613942 167.239398 
L 180.518172 167.441217 
L 181.422401 167.669712 
L 182.326631 167.924672 
L 183.23086 168.205844 
L 184.13509 168.512929 
L 185.039319 168.845571 
L 185.943549 169.203351 
L 186.847778 169.585776 
L 187.752008 169.992278 
L 188.656237 170.422198 
L 189.560467 170.874786 
L 190.464696 171.349193 
L 191.368925 171.84447 
L 192.273155 172.359557 
L 193.177384 172.893289 
L 194.081614 173.444392 
L 194.985843 174.011479 
L 195.890073 174.593058 
L 196.794302 175.187533 
L 197.698532 175.793203 
L 198.602761 176.408271 
L 199.506991 177.030853 
L 200.41122 177.658975 
L 201.31545 178.290589 
L 202.219679 178.923578 
L 203.123908 179.555761 
L 204.028138 180.184906 
L 204.932367 180.808734 
L 205.836597 181.424924 
L 206.740826 182.031124 
L 207.645056 182.624952 
L 208.549285 183.203998 
L 209.453515 183.765827 
L 210.357744 184.307979 
L 211.261974 184.82796 
L 212.166203 185.32324 
L 213.070433 185.791246 
L 213.974662 186.229344 
L 214.878891 186.634827 
L 215.783121 187.004894 
L 216.68735 187.336629 
L 217.59158 187.626965 
L 218.495809 187.872655 
L 219.400039 188.070223 
L 220.304268 188.215913 
L 221.208498 188.305625 
L 222.112727 188.334835 
L 223.016957 188.298508 
L 223.921186 188.190987 
L 224.825416 188.005877 
L 225.729645 187.73592 
L 226.633874 187.372873 
L 227.538104 186.907423 
L 228.442333 186.32915 
L 229.346563 185.626595 
L 230.250792 184.78746 
L 231.155022 183.79895 
L 232.059251 182.648233 
L 232.963481 181.322934 
L 233.86771 179.811561 
L 234.77194 178.103758 
L 235.676169 176.190349 
L 236.580398 174.063194 
L 237.484628 171.714928 
L 238.388857 169.138675 
L 239.293087 166.327776 
L 240.197316 163.275583 
L 241.101546 159.975314 
L 241.101546 181.460634 
L 241.101546 181.460634 
L 240.197316 182.895337 
L 239.293087 184.249185 
L 238.388857 185.526714 
L 237.484628 186.732428 
L 236.580398 187.87065 
L 235.676169 188.945314 
L 234.77194 189.9597 
L 233.86771 190.916142 
L 232.963481 191.81577 
L 232.059251 192.658365 
L 231.155022 193.442402 
L 230.250792 194.165304 
L 229.346563 194.82387 
L 228.442333 195.414766 
L 227.538104 195.934984 
L 226.633874 196.382191 
L 225.729645 196.754919 
L 224.825416 197.05264 
L 223.921186 197.275729 
L 223.016957 197.425372 
L 222.112727 197.503455 
L 221.208498 197.51243 
L 220.304268 197.455201 
L 219.400039 197.335017 
L 218.495809 197.15538 
L 217.59158 196.919966 
L 216.68735 196.632567 
L 215.783121 196.297027 
L 214.878891 195.917211 
L 213.974662 195.496956 
L 213.070433 195.040053 
L 212.166203 194.550213 
L 211.261974 194.031056 
L 210.357744 193.486087 
L 209.453515 192.91869 
L 208.549285 192.332118 
L 207.645056 191.729483 
L 206.740826 191.113757 
L 205.836597 190.487769 
L 204.932367 189.854204 
L 204.028138 189.215608 
L 203.123908 188.574393 
L 202.219679 187.932841 
L 201.31545 187.293111 
L 200.41122 186.657247 
L 199.506991 186.027187 
L 198.602761 185.404766 
L 197.698532 184.791732 
L 196.794302 184.189744 
L 195.890073 183.600385 
L 194.985843 183.025167 
L 194.081614 182.465531 
L 193.177384 181.922859 
L 192.273155 181.398468 
L 191.368925 180.893617 
L 190.464696 180.409505 
L 189.560467 179.947272 
L 188.656237 179.507993 
L 187.752008 179.092679 
L 186.847778 178.702268 
L 185.943549 178.337625 
L 185.039319 177.99953 
L 184.13509 177.688674 
L 183.23086 177.405651 
L 182.326631 177.150952 
L 181.422401 176.924951 
L 180.518172 176.727904 
L 179.613942 176.559938 
L 178.709713 176.421043 
L 177.805484 176.31107 
L 176.901254 176.229726 
L 175.997025 176.176567 
L 175.092795 176.151002 
L 174.188566 176.152292 
L 173.284336 176.179549 
L 172.380107 176.231749 
L 171.475877 176.307732 
L 170.571648 176.406215 
L 169.667418 176.525804 
L 168.763189 176.665012 
L 167.858959 176.822277 
L 166.95473 176.995986 
L 166.050501 177.184508 
L 165.146271 177.386227 
L 164.242042 177.59959 
L 163.337812 177.823163 
L 162.433583 178.055702 
L 161.529353 178.296239 
L 160.625124 178.544187 
L 159.720894 178.799472 
L 158.816665 179.062681 
L 157.912435 179.335233 
L 157.008206 179.619555 
L 156.103977 179.919232 
L 155.199747 180.239099 
L 154.295518 180.5852 
L 153.391288 180.964552 
L 152.487059 181.384674 
L 151.582829 181.852905 
z
" style="fill:#bfbf00;fill-opacity:0.2;"/>
   </g>
   <g id="PathCollection_5">
    <g clip-path="url(#pe4b4770330)">
     <use style="fill:#1f77b4;stroke:#1f77b4;" x="233.466836" xlink:href="#m67d881b7cc" y="185.980605"/>
     <use style="fill:#1f77b4;stroke:#1f77b4;" x="154.423804" xlink:href="#m67d881b7cc" y="177.505379"/>
     <use style="fill:#1f77b4;stroke:#1f77b4;" x="223.853707" xlink:href="#m67d881b7cc" y="189.600453"/>
     <use style="fill:#1f77b4;stroke:#1f77b4;" x="186.512848" xlink:href="#m67d881b7cc" y="172.444196"/>
     <use style="fill:#1f77b4;stroke:#1f77b4;" x="152.76128" xlink:href="#m67d881b7cc" y="176.196414"/>
     <use style="fill:#1f77b4;stroke:#1f77b4;" x="210.128907" xlink:href="#m67d881b7cc" y="187.346175"/>
     <use style="fill:#1f77b4;stroke:#1f77b4;" x="158.47651" xlink:href="#m67d881b7cc" y="173.586525"/>
     <use style="fill:#1f77b4;stroke:#1f77b4;" x="183.700848" xlink:href="#m67d881b7cc" y="172.86607"/>
     <use style="fill:#1f77b4;stroke:#1f77b4;" x="198.342694" xlink:href="#m67d881b7cc" y="183.257553"/>
     <use style="fill:#1f77b4;stroke:#1f77b4;" x="223.610221" xlink:href="#m67d881b7cc" y="196.118996"/>
    </g>
   </g>
   <g id="matplotlib.axis_9">
    <g id="xtick_13">
     <g id="line2d_37">
      <g>
       <use style="stroke:#000000;stroke-width:0.8;" x="151.582829" xlink:href="#mbf8debbf0f" y="228.439219"/>
      </g>
     </g>
     <g id="text_37">
      <!-- 0.0 -->
      <g transform="translate(143.631267 243.037656)scale(0.1 -0.1)">
       <use xlink:href="#DejaVuSans-48"/>
       <use x="63.623047" xlink:href="#DejaVuSans-46"/>
       <use x="95.410156" xlink:href="#DejaVuSans-48"/>
      </g>
     </g>
    </g>
    <g id="xtick_14">
     <g id="line2d_38">
      <g>
       <use style="stroke:#000000;stroke-width:0.8;" x="187.201195" xlink:href="#mbf8debbf0f" y="228.439219"/>
      </g>
     </g>
     <g id="text_38">
      <!-- 2.5 -->
      <g transform="translate(179.249632 243.037656)scale(0.1 -0.1)">
       <use xlink:href="#DejaVuSans-50"/>
       <use x="63.623047" xlink:href="#DejaVuSans-46"/>
       <use x="95.410156" xlink:href="#DejaVuSans-53"/>
      </g>
     </g>
    </g>
    <g id="xtick_15">
     <g id="line2d_39">
      <g>
       <use style="stroke:#000000;stroke-width:0.8;" x="222.81956" xlink:href="#mbf8debbf0f" y="228.439219"/>
      </g>
     </g>
     <g id="text_39">
      <!-- 5.0 -->
      <g transform="translate(214.867998 243.037656)scale(0.1 -0.1)">
       <use xlink:href="#DejaVuSans-53"/>
       <use x="63.623047" xlink:href="#DejaVuSans-46"/>
       <use x="95.410156" xlink:href="#DejaVuSans-48"/>
      </g>
     </g>
    </g>
   </g>
   <g id="matplotlib.axis_10">
    <g id="ytick_21">
     <g id="line2d_40">
      <g>
       <use style="stroke:#000000;stroke-width:0.8;" x="147.106893" xlink:href="#m97b525fdfe" y="228.439219"/>
      </g>
     </g>
     <g id="text_40">
      <!-- −4 -->
      <g transform="translate(125.364706 232.238437)scale(0.1 -0.1)">
       <use xlink:href="#DejaVuSans-8722"/>
       <use x="83.789062" xlink:href="#DejaVuSans-52"/>
      </g>
     </g>
    </g>
    <g id="ytick_22">
     <g id="line2d_41">
      <g>
       <use style="stroke:#000000;stroke-width:0.8;" x="147.106893" xlink:href="#m97b525fdfe" y="203.730128"/>
      </g>
     </g>
     <g id="text_41">
      <!-- −2 -->
      <g transform="translate(125.364706 207.529347)scale(0.1 -0.1)">
       <use xlink:href="#DejaVuSans-8722"/>
       <use x="83.789062" xlink:href="#DejaVuSans-50"/>
      </g>
     </g>
    </g>
    <g id="ytick_23">
     <g id="line2d_42">
      <g>
       <use style="stroke:#000000;stroke-width:0.8;" x="147.106893" xlink:href="#m97b525fdfe" y="179.021037"/>
      </g>
     </g>
     <g id="text_42">
      <!-- 0 -->
      <g transform="translate(133.744393 182.820256)scale(0.1 -0.1)">
       <use xlink:href="#DejaVuSans-48"/>
      </g>
     </g>
    </g>
    <g id="ytick_24">
     <g id="line2d_43">
      <g>
       <use style="stroke:#000000;stroke-width:0.8;" x="147.106893" xlink:href="#m97b525fdfe" y="154.311946"/>
      </g>
     </g>
     <g id="text_43">
      <!-- 2 -->
      <g transform="translate(133.744393 158.111165)scale(0.1 -0.1)">
       <use xlink:href="#DejaVuSans-50"/>
      </g>
     </g>
    </g>
    <g id="ytick_25">
     <g id="line2d_44">
      <g>
       <use style="stroke:#000000;stroke-width:0.8;" x="147.106893" xlink:href="#m97b525fdfe" y="129.602855"/>
      </g>
     </g>
     <g id="text_44">
      <!-- 4 -->
      <g transform="translate(133.744393 133.402074)scale(0.1 -0.1)">
       <use xlink:href="#DejaVuSans-52"/>
      </g>
     </g>
    </g>
   </g>
   <g id="line2d_45">
    <path clip-path="url(#pe4b4770330)" d="M 151.582829 177.000034 
L 152.487059 176.697768 
L 153.391288 176.38672 
L 154.295518 176.069341 
L 155.199747 175.747995 
L 156.103977 175.424963 
L 157.008206 175.102442 
L 157.912435 174.782542 
L 158.816665 174.467293 
L 159.720894 174.158635 
L 160.625124 173.858428 
L 161.529353 173.568445 
L 162.433583 173.290376 
L 163.337812 173.025826 
L 164.242042 172.776315 
L 165.146271 172.543279 
L 166.050501 172.32807 
L 166.95473 172.131954 
L 167.858959 171.956115 
L 168.763189 171.80165 
L 169.667418 171.669573 
L 170.571648 171.560813 
L 171.475877 171.476214 
L 172.380107 171.416538 
L 173.284336 171.382459 
L 174.188566 171.37457 
L 175.092795 171.393376 
L 175.997025 171.4393 
L 176.901254 171.51268 
L 177.805484 171.61377 
L 178.709713 171.742737 
L 179.613942 171.899668 
L 180.518172 172.084561 
L 181.422401 172.297332 
L 182.326631 172.537812 
L 183.23086 172.805748 
L 184.13509 173.100801 
L 185.039319 173.42255 
L 185.943549 173.770488 
L 186.847778 174.144022 
L 187.752008 174.542478 
L 188.656237 174.965095 
L 189.560467 175.411029 
L 190.464696 175.879349 
L 191.368925 176.369043 
L 192.273155 176.879012 
L 193.177384 177.408074 
L 194.081614 177.954962 
L 194.985843 178.518323 
L 195.890073 179.096722 
L 196.794302 179.688638 
L 197.698532 180.292467 
L 198.602761 180.906519 
L 199.506991 181.52902 
L 200.41122 182.158111 
L 201.31545 182.79185 
L 202.219679 183.428209 
L 203.123908 184.065077 
L 204.028138 184.700257 
L 204.932367 185.331469 
L 205.836597 185.956346 
L 206.740826 186.572441 
L 207.645056 187.177217 
L 208.549285 187.768058 
L 209.453515 188.342259 
L 210.357744 188.897033 
L 211.261974 189.429508 
L 212.166203 189.936727 
L 213.070433 190.41565 
L 213.974662 190.86315 
L 214.878891 191.276019 
L 215.783121 191.650961 
L 216.68735 191.984598 
L 217.59158 192.273466 
L 218.495809 192.514017 
L 219.400039 192.70262 
L 220.304268 192.835557 
L 221.208498 192.909028 
L 222.112727 192.919145 
L 223.016957 192.86194 
L 223.921186 192.733358 
L 224.825416 192.529259 
L 225.729645 192.245419 
L 226.633874 191.877532 
L 227.538104 191.421204 
L 228.442333 190.871958 
L 229.346563 190.225233 
L 230.250792 189.476382 
L 231.155022 188.620676 
L 232.059251 187.653299 
L 232.963481 186.569352 
L 233.86771 185.363852 
L 234.77194 184.031729 
L 235.676169 182.567832 
L 236.580398 180.966922 
L 237.484628 179.223678 
L 238.388857 177.332695 
L 239.293087 175.28848 
L 240.197316 173.08546 
L 241.101546 170.717974 
" style="fill:none;stroke:#ffa500;stroke-linecap:square;stroke-width:1.5;"/>
   </g>
   <g id="patch_23">
    <path d="M 147.106893 228.439219 
L 147.106893 129.602855 
" style="fill:none;stroke:#000000;stroke-linecap:square;stroke-linejoin:miter;stroke-width:0.8;"/>
   </g>
   <g id="patch_24">
    <path d="M 245.577482 228.439219 
L 245.577482 129.602855 
" style="fill:none;stroke:#000000;stroke-linecap:square;stroke-linejoin:miter;stroke-width:0.8;"/>
   </g>
   <g id="patch_25">
    <path d="M 147.106893 228.439219 
L 245.577482 228.439219 
" style="fill:none;stroke:#000000;stroke-linecap:square;stroke-linejoin:miter;stroke-width:0.8;"/>
   </g>
   <g id="patch_26">
    <path d="M 147.106893 129.602855 
L 245.577482 129.602855 
" style="fill:none;stroke:#000000;stroke-linecap:square;stroke-linejoin:miter;stroke-width:0.8;"/>
   </g>
   <g id="text_45">
    <!-- M = 5 -->
    <g transform="translate(151.582829 141.957401)scale(0.1 -0.1)">
     <use xlink:href="#DejaVuSans-77"/>
     <use x="86.279297" xlink:href="#DejaVuSans-32"/>
     <use x="118.066406" xlink:href="#DejaVuSans-61"/>
     <use x="201.855469" xlink:href="#DejaVuSans-32"/>
     <use x="233.642578" xlink:href="#DejaVuSans-53"/>
    </g>
   </g>
  </g>
  <g id="axes_6">
   <g id="patch_27">
    <path d="M 265.271599 228.439219 
L 363.742188 228.439219 
L 363.742188 129.602855 
L 265.271599 129.602855 
z
" style="fill:#ffffff;"/>
   </g>
   <g id="PolyCollection_6">
    <path clip-path="url(#p7c273b1e10)" d="M 269.747535 181.815944 
L 269.747535 171.838363 
L 270.651765 171.843559 
L 271.555994 171.774521 
L 272.460223 171.629574 
L 273.364453 171.406616 
L 274.268682 171.104006 
L 275.172912 170.721597 
L 276.077141 170.261654 
L 276.981371 169.729409 
L 277.8856 169.133137 
L 278.78983 168.483797 
L 279.694059 167.794455 
L 280.598289 167.079616 
L 281.502518 166.354622 
L 282.406748 165.635121 
L 283.310977 164.93662 
L 284.215206 164.274109 
L 285.119436 163.66172 
L 286.023665 163.112436 
L 286.927895 162.637819 
L 287.832124 162.247778 
L 288.736354 161.950356 
L 289.640583 161.751552 
L 290.544813 161.655173 
L 291.449042 161.662713 
L 292.353272 161.77327 
L 293.257501 161.983476 
L 294.161731 162.287479 
L 295.06596 162.676951 
L 295.970189 163.141165 
L 296.874419 163.667178 
L 297.778648 164.240203 
L 298.682878 164.844284 
L 299.587107 165.46342 
L 300.491337 166.083188 
L 301.395566 166.692709 
L 302.299796 167.286423 
L 303.204025 167.864911 
L 304.108255 168.434226 
L 305.012484 169.003877 
L 305.916714 169.584227 
L 306.820943 170.184167 
L 307.725172 170.809539 
L 308.629402 171.462373 
L 309.533631 172.140769 
L 310.437861 172.839255 
L 311.34209 173.549478 
L 312.24632 174.261167 
L 313.150549 174.963303 
L 314.054779 175.645399 
L 314.959008 176.298744 
L 315.863238 176.917398 
L 316.767467 177.498763 
L 317.671696 178.043584 
L 318.575926 178.555417 
L 319.480155 179.039639 
L 320.384385 179.502156 
L 321.288614 179.947934 
L 322.192844 180.379404 
L 323.097073 180.794798 
L 324.001303 181.186508 
L 324.905532 181.53974 
L 325.809762 181.832219 
L 326.713991 182.036199 
L 327.618221 182.12415 
L 328.52245 182.077827 
L 329.426679 181.897274 
L 330.330909 181.604807 
L 331.235138 181.242301 
L 332.139368 180.864728 
L 333.043597 180.533747 
L 333.947827 180.312992 
L 334.852056 180.264705 
L 335.756286 180.446734 
L 336.660515 180.90889 
L 337.564745 181.687501 
L 338.468974 182.795995 
L 339.373204 184.20609 
L 340.277433 185.804836 
L 341.181662 187.297357 
L 342.085892 188.110442 
L 342.990121 187.766502 
L 343.894351 186.446103 
L 344.79858 184.573237 
L 345.70281 182.471055 
L 346.607039 180.402992 
L 347.511269 178.638324 
L 348.415498 177.484475 
L 349.319728 177.295113 
L 350.223957 178.424146 
L 351.128187 180.706596 
L 352.032416 176.280055 
L 352.936645 157.215146 
L 353.840875 129.073116 
L 354.745104 91.080756 
L 355.649334 41.328767 
L 356.553563 -22.505917 
L 357.457793 -103.113749 
L 358.362022 -203.572187 
L 359.266252 -327.379803 
L 359.266252 475.1421 
L 359.266252 475.1421 
L 358.362022 401.767169 
L 357.457793 343.179027 
L 356.553563 297.033348 
L 355.649334 261.284012 
L 354.745104 234.159116 
L 353.840875 214.150846 
L 352.936645 200.070743 
L 352.032416 191.78036 
L 351.128187 195.397399 
L 350.223957 203.4779 
L 349.319728 208.580597 
L 348.415498 210.903676 
L 347.511269 211.112079 
L 346.607039 209.823801 
L 345.70281 207.568902 
L 344.79858 204.802238 
L 343.894351 201.94004 
L 342.990121 199.429393 
L 342.085892 197.792965 
L 341.181662 197.288035 
L 340.277433 197.494768 
L 339.373204 197.881476 
L 338.468974 198.181058 
L 337.564745 198.296817 
L 336.660515 198.207223 
L 335.756286 197.924744 
L 334.852056 197.478644 
L 333.947827 196.906985 
L 333.043597 196.25243 
L 332.139368 195.559686 
L 331.235138 194.873454 
L 330.330909 194.235871 
L 329.426679 193.682478 
L 328.52245 193.23639 
L 327.618221 192.902297 
L 326.713991 192.66413 
L 325.809762 192.489333 
L 324.905532 192.338076 
L 324.001303 192.17247 
L 323.097073 191.962334 
L 322.192844 191.687237 
L 321.288614 191.336177 
L 320.384385 190.906179 
L 319.480155 190.40056 
L 318.575926 189.827131 
L 317.671696 189.196463 
L 316.767467 188.520242 
L 315.863238 187.809793 
L 314.959008 187.0749 
L 314.054779 186.323062 
L 313.150549 185.559302 
L 312.24632 184.786518 
L 311.34209 184.006281 
L 310.437861 183.219879 
L 309.533631 182.429407 
L 308.629402 181.63875 
L 307.725172 180.854378 
L 306.820943 180.085878 
L 305.916714 179.346164 
L 305.012484 178.651234 
L 304.108255 178.019286 
L 303.204025 177.469051 
L 302.299796 177.017373 
L 301.395566 176.676555 
L 300.491337 176.452286 
L 299.587107 176.342944 
L 298.682878 176.340403 
L 297.778648 176.431807 
L 296.874419 176.601553 
L 295.970189 176.832948 
L 295.06596 177.109372 
L 294.161731 177.415012 
L 293.257501 177.735303 
L 292.353272 178.057193 
L 291.449042 178.369303 
L 290.544813 178.662038 
L 289.640583 178.927665 
L 288.736354 179.160358 
L 287.832124 179.356223 
L 286.927895 179.51329 
L 286.023665 179.631486 
L 285.119436 179.712563 
L 284.215206 179.760003 
L 283.310977 179.778892 
L 282.406748 179.77575 
L 281.502518 179.758333 
L 280.598289 179.735387 
L 279.694059 179.716341 
L 278.78983 179.710934 
L 277.8856 179.728737 
L 276.981371 179.778588 
L 276.077141 179.86796 
L 275.172912 180.002386 
L 274.268682 180.185105 
L 273.364453 180.41711 
L 272.460223 180.697668 
L 271.555994 181.025183 
L 270.651765 181.398147 
L 269.747535 181.815944 
z
" style="fill:#bfbf00;fill-opacity:0.2;"/>
   </g>
   <g id="PathCollection_6">
    <g clip-path="url(#p7c273b1e10)">
     <use style="fill:#1f77b4;stroke:#1f77b4;" x="351.631542" xlink:href="#m67d881b7cc" y="185.980605"/>
     <use style="fill:#1f77b4;stroke:#1f77b4;" x="272.58851" xlink:href="#m67d881b7cc" y="177.505379"/>
     <use style="fill:#1f77b4;stroke:#1f77b4;" x="342.018413" xlink:href="#m67d881b7cc" y="189.600453"/>
     <use style="fill:#1f77b4;stroke:#1f77b4;" x="304.677554" xlink:href="#m67d881b7cc" y="172.444196"/>
     <use style="fill:#1f77b4;stroke:#1f77b4;" x="270.925986" xlink:href="#m67d881b7cc" y="176.196414"/>
     <use style="fill:#1f77b4;stroke:#1f77b4;" x="328.293613" xlink:href="#m67d881b7cc" y="187.346175"/>
     <use style="fill:#1f77b4;stroke:#1f77b4;" x="276.641216" xlink:href="#m67d881b7cc" y="173.586525"/>
     <use style="fill:#1f77b4;stroke:#1f77b4;" x="301.865554" xlink:href="#m67d881b7cc" y="172.86607"/>
     <use style="fill:#1f77b4;stroke:#1f77b4;" x="316.507399" xlink:href="#m67d881b7cc" y="183.257553"/>
     <use style="fill:#1f77b4;stroke:#1f77b4;" x="341.774927" xlink:href="#m67d881b7cc" y="196.118996"/>
    </g>
   </g>
   <g id="matplotlib.axis_11">
    <g id="xtick_16">
     <g id="line2d_46">
      <g>
       <use style="stroke:#000000;stroke-width:0.8;" x="269.747535" xlink:href="#mbf8debbf0f" y="228.439219"/>
      </g>
     </g>
     <g id="text_46">
      <!-- 0.0 -->
      <g transform="translate(261.795973 243.037656)scale(0.1 -0.1)">
       <use xlink:href="#DejaVuSans-48"/>
       <use x="63.623047" xlink:href="#DejaVuSans-46"/>
       <use x="95.410156" xlink:href="#DejaVuSans-48"/>
      </g>
     </g>
    </g>
    <g id="xtick_17">
     <g id="line2d_47">
      <g>
       <use style="stroke:#000000;stroke-width:0.8;" x="305.365901" xlink:href="#mbf8debbf0f" y="228.439219"/>
      </g>
     </g>
     <g id="text_47">
      <!-- 2.5 -->
      <g transform="translate(297.414338 243.037656)scale(0.1 -0.1)">
       <use xlink:href="#DejaVuSans-50"/>
       <use x="63.623047" xlink:href="#DejaVuSans-46"/>
       <use x="95.410156" xlink:href="#DejaVuSans-53"/>
      </g>
     </g>
    </g>
    <g id="xtick_18">
     <g id="line2d_48">
      <g>
       <use style="stroke:#000000;stroke-width:0.8;" x="340.984266" xlink:href="#mbf8debbf0f" y="228.439219"/>
      </g>
     </g>
     <g id="text_48">
      <!-- 5.0 -->
      <g transform="translate(333.032704 243.037656)scale(0.1 -0.1)">
       <use xlink:href="#DejaVuSans-53"/>
       <use x="63.623047" xlink:href="#DejaVuSans-46"/>
       <use x="95.410156" xlink:href="#DejaVuSans-48"/>
      </g>
     </g>
    </g>
   </g>
   <g id="matplotlib.axis_12">
    <g id="ytick_26">
     <g id="line2d_49">
      <g>
       <use style="stroke:#000000;stroke-width:0.8;" x="265.271599" xlink:href="#m97b525fdfe" y="228.439219"/>
      </g>
     </g>
     <g id="text_49">
      <!-- −4 -->
      <g transform="translate(243.529412 232.238437)scale(0.1 -0.1)">
       <use xlink:href="#DejaVuSans-8722"/>
       <use x="83.789062" xlink:href="#DejaVuSans-52"/>
      </g>
     </g>
    </g>
    <g id="ytick_27">
     <g id="line2d_50">
      <g>
       <use style="stroke:#000000;stroke-width:0.8;" x="265.271599" xlink:href="#m97b525fdfe" y="203.730128"/>
      </g>
     </g>
     <g id="text_50">
      <!-- −2 -->
      <g transform="translate(243.529412 207.529347)scale(0.1 -0.1)">
       <use xlink:href="#DejaVuSans-8722"/>
       <use x="83.789062" xlink:href="#DejaVuSans-50"/>
      </g>
     </g>
    </g>
    <g id="ytick_28">
     <g id="line2d_51">
      <g>
       <use style="stroke:#000000;stroke-width:0.8;" x="265.271599" xlink:href="#m97b525fdfe" y="179.021037"/>
      </g>
     </g>
     <g id="text_51">
      <!-- 0 -->
      <g transform="translate(251.909099 182.820256)scale(0.1 -0.1)">
       <use xlink:href="#DejaVuSans-48"/>
      </g>
     </g>
    </g>
    <g id="ytick_29">
     <g id="line2d_52">
      <g>
       <use style="stroke:#000000;stroke-width:0.8;" x="265.271599" xlink:href="#m97b525fdfe" y="154.311946"/>
      </g>
     </g>
     <g id="text_52">
      <!-- 2 -->
      <g transform="translate(251.909099 158.111165)scale(0.1 -0.1)">
       <use xlink:href="#DejaVuSans-50"/>
      </g>
     </g>
    </g>
    <g id="ytick_30">
     <g id="line2d_53">
      <g>
       <use style="stroke:#000000;stroke-width:0.8;" x="265.271599" xlink:href="#m97b525fdfe" y="129.602855"/>
      </g>
     </g>
     <g id="text_53">
      <!-- 4 -->
      <g transform="translate(251.909099 133.402074)scale(0.1 -0.1)">
       <use xlink:href="#DejaVuSans-52"/>
      </g>
     </g>
    </g>
   </g>
   <g id="line2d_54">
    <path clip-path="url(#p7c273b1e10)" d="M 269.747535 176.827153 
L 270.651765 176.620853 
L 271.555994 176.399852 
L 272.460223 176.163621 
L 273.364453 175.911863 
L 274.268682 175.644555 
L 275.172912 175.361991 
L 276.077141 175.064807 
L 276.981371 174.753999 
L 277.8856 174.430937 
L 278.78983 174.097366 
L 279.694059 173.755398 
L 280.598289 173.407501 
L 281.502518 173.056477 
L 282.406748 172.705435 
L 283.310977 172.357756 
L 284.215206 172.017056 
L 285.119436 171.687141 
L 286.023665 171.371961 
L 286.927895 171.075555 
L 287.832124 170.802 
L 288.736354 170.555357 
L 289.640583 170.339609 
L 290.544813 170.158606 
L 291.449042 170.016008 
L 292.353272 169.915231 
L 293.257501 169.859389 
L 294.161731 169.851245 
L 295.06596 169.893162 
L 295.970189 169.987057 
L 296.874419 170.134366 
L 297.778648 170.336005 
L 298.682878 170.592343 
L 299.587107 170.903182 
L 300.491337 171.267737 
L 301.395566 171.684632 
L 302.299796 172.151898 
L 303.204025 172.666981 
L 304.108255 173.226756 
L 305.012484 173.827555 
L 305.916714 174.465195 
L 306.820943 175.135022 
L 307.725172 175.831958 
L 308.629402 176.550561 
L 309.533631 177.285088 
L 310.437861 178.029567 
L 311.34209 178.777879 
L 312.24632 179.523842 
L 313.150549 180.261303 
L 314.054779 180.984231 
L 314.959008 181.686822 
L 315.863238 182.363596 
L 316.767467 183.009503 
L 317.671696 183.620024 
L 318.575926 184.191274 
L 319.480155 184.720099 
L 320.384385 185.204168 
L 321.288614 185.642055 
L 322.192844 186.03332 
L 323.097073 186.378566 
L 324.001303 186.679489 
L 324.905532 186.938908 
L 325.809762 187.160776 
L 326.713991 187.350165 
L 327.618221 187.513223 
L 328.52245 187.657108 
L 329.426679 187.789876 
L 330.330909 187.920339 
L 331.235138 188.057878 
L 332.139368 188.212207 
L 333.043597 188.393088 
L 333.947827 188.609989 
L 334.852056 188.871674 
L 335.756286 189.185739 
L 336.660515 189.558056 
L 337.564745 189.992159 
L 338.468974 190.488526 
L 339.373204 191.043783 
L 340.277433 191.649802 
L 341.181662 192.292696 
L 342.085892 192.951703 
L 342.990121 193.597947 
L 343.894351 194.193071 
L 344.79858 194.687738 
L 345.70281 195.019978 
L 346.607039 195.113396 
L 347.511269 194.875201 
L 348.415498 194.194075 
L 349.319728 192.937855 
L 350.223957 190.951023 
L 351.128187 188.051998 
L 352.032416 184.030208 
L 352.936645 178.642945 
L 353.840875 171.611981 
L 354.745104 162.619936 
L 355.649334 151.306389 
L 356.553563 137.263715 
L 357.457793 120.032639 
L 358.362022 99.097491 
L 359.266252 73.881148 
" style="fill:none;stroke:#ffa500;stroke-linecap:square;stroke-width:1.5;"/>
   </g>
   <g id="patch_28">
    <path d="M 265.271599 228.439219 
L 265.271599 129.602855 
" style="fill:none;stroke:#000000;stroke-linecap:square;stroke-linejoin:miter;stroke-width:0.8;"/>
   </g>
   <g id="patch_29">
    <path d="M 363.742188 228.439219 
L 363.742188 129.602855 
" style="fill:none;stroke:#000000;stroke-linecap:square;stroke-linejoin:miter;stroke-width:0.8;"/>
   </g>
   <g id="patch_30">
    <path d="M 265.271599 228.439219 
L 363.742188 228.439219 
" style="fill:none;stroke:#000000;stroke-linecap:square;stroke-linejoin:miter;stroke-width:0.8;"/>
   </g>
   <g id="patch_31">
    <path d="M 265.271599 129.602855 
L 363.742188 129.602855 
" style="fill:none;stroke:#000000;stroke-linecap:square;stroke-linejoin:miter;stroke-width:0.8;"/>
   </g>
   <g id="text_54">
    <!-- M = 10 -->
    <g transform="translate(269.747535 141.957401)scale(0.1 -0.1)">
     <use xlink:href="#DejaVuSans-77"/>
     <use x="86.279297" xlink:href="#DejaVuSans-32"/>
     <use x="118.066406" xlink:href="#DejaVuSans-61"/>
     <use x="201.855469" xlink:href="#DejaVuSans-32"/>
     <use x="233.642578" xlink:href="#DejaVuSans-49"/>
     <use x="297.265625" xlink:href="#DejaVuSans-48"/>
    </g>
   </g>
  </g>
 </g>
 <defs>
  <clipPath id="pbe8e02629d">
   <rect height="98.836364" width="98.470588" x="28.942188" y="10.999219"/>
  </clipPath>
  <clipPath id="pccadfa164e">
   <rect height="98.836364" width="98.470588" x="147.106893" y="10.999219"/>
  </clipPath>
  <clipPath id="p02604067b9">
   <rect height="98.836364" width="98.470588" x="265.271599" y="10.999219"/>
  </clipPath>
  <clipPath id="p0a5b8ec7d9">
   <rect height="98.836364" width="98.470588" x="28.942188" y="129.602855"/>
  </clipPath>
  <clipPath id="pe4b4770330">
   <rect height="98.836364" width="98.470588" x="147.106893" y="129.602855"/>
  </clipPath>
  <clipPath id="p7c273b1e10">
   <rect height="98.836364" width="98.470588" x="265.271599" y="129.602855"/>
  </clipPath>
 </defs>
</svg>
