<?xml version="1.0" encoding="utf-8" standalone="no"?>
<!DOCTYPE svg PUBLIC "-//W3C//DTD SVG 1.1//EN"
  "http://www.w3.org/Graphics/SVG/1.1/DTD/svg11.dtd">
<!-- Created with matplotlib (https://matplotlib.org/) -->
<svg height="248.518125pt" version="1.1" viewBox="0 0 382.075 248.518125" width="382.075pt" xmlns="http://www.w3.org/2000/svg" xmlns:xlink="http://www.w3.org/1999/xlink">
 <defs>
  <style type="text/css">
*{stroke-linecap:butt;stroke-linejoin:round;}
  </style>
 </defs>
 <g id="figure_1">
  <g id="patch_1">
   <path d="M 0 248.518125 
L 382.075 248.518125 
L 382.075 0 
L 0 0 
z
" style="fill:#ffffff;"/>
  </g>
  <g id="axes_1">
   <g id="patch_2">
    <path d="M 28.942188 224.64 
L 363.742188 224.64 
L 363.742188 7.2 
L 28.942188 7.2 
z
" style="fill:#ffffff;"/>
   </g>
   <g id="PathCollection_1">
    <defs>
     <path d="M 0 3 
C 0.795609 3 1.55874 2.683901 2.12132 2.12132 
C 2.683901 1.55874 3 0.795609 3 0 
C 3 -0.795609 2.683901 -1.55874 2.12132 -2.12132 
C 1.55874 -2.683901 0.795609 -3 0 -3 
C -0.795609 -3 -1.55874 -2.683901 -2.12132 -2.12132 
C -2.683901 -1.55874 -3 -0.795609 -3 0 
C -3 0.795609 -2.683901 1.55874 -2.12132 2.12132 
C -1.55874 2.683901 -0.795609 3 0 3 
z
" id="m35e548f495" style="stroke:#1f77b4;"/>
    </defs>
    <g clip-path="url(#p36a4ae63f8)">
     <use style="fill:#1f77b4;stroke:#1f77b4;" x="28.942188" xlink:href="#m35e548f495" y="20.965811"/>
     <use style="fill:#1f77b4;stroke:#1f77b4;" x="40.487015" xlink:href="#m35e548f495" y="27.245837"/>
     <use style="fill:#1f77b4;stroke:#1f77b4;" x="52.031843" xlink:href="#m35e548f495" y="17.083636"/>
     <use style="fill:#1f77b4;stroke:#1f77b4;" x="63.57667" xlink:href="#m35e548f495" y="33.370963"/>
     <use style="fill:#1f77b4;stroke:#1f77b4;" x="75.121498" xlink:href="#m35e548f495" y="31.804396"/>
     <use style="fill:#1f77b4;stroke:#1f77b4;" x="86.666325" xlink:href="#m35e548f495" y="60.619492"/>
     <use style="fill:#1f77b4;stroke:#1f77b4;" x="98.211153" xlink:href="#m35e548f495" y="68.225853"/>
     <use style="fill:#1f77b4;stroke:#1f77b4;" x="109.755981" xlink:href="#m35e548f495" y="67.462672"/>
     <use style="fill:#1f77b4;stroke:#1f77b4;" x="121.300808" xlink:href="#m35e548f495" y="47.762406"/>
     <use style="fill:#1f77b4;stroke:#1f77b4;" x="132.845636" xlink:href="#m35e548f495" y="63.875673"/>
     <use style="fill:#1f77b4;stroke:#1f77b4;" x="144.390463" xlink:href="#m35e548f495" y="64.301163"/>
     <use style="fill:#1f77b4;stroke:#1f77b4;" x="155.935291" xlink:href="#m35e548f495" y="60.812824"/>
     <use style="fill:#1f77b4;stroke:#1f77b4;" x="167.480119" xlink:href="#m35e548f495" y="59.995459"/>
     <use style="fill:#1f77b4;stroke:#1f77b4;" x="179.024946" xlink:href="#m35e548f495" y="70.632342"/>
     <use style="fill:#1f77b4;stroke:#1f77b4;" x="190.569774" xlink:href="#m35e548f495" y="58.137592"/>
     <use style="fill:#1f77b4;stroke:#1f77b4;" x="202.114601" xlink:href="#m35e548f495" y="68.037861"/>
     <use style="fill:#1f77b4;stroke:#1f77b4;" x="213.659429" xlink:href="#m35e548f495" y="89.707549"/>
     <use style="fill:#1f77b4;stroke:#1f77b4;" x="225.204256" xlink:href="#m35e548f495" y="86.946128"/>
     <use style="fill:#1f77b4;stroke:#1f77b4;" x="236.749084" xlink:href="#m35e548f495" y="80.864468"/>
     <use style="fill:#1f77b4;stroke:#1f77b4;" x="248.293912" xlink:href="#m35e548f495" y="65.579829"/>
     <use style="fill:#1f77b4;stroke:#1f77b4;" x="259.838739" xlink:href="#m35e548f495" y="86.276811"/>
     <use style="fill:#1f77b4;stroke:#1f77b4;" x="271.383567" xlink:href="#m35e548f495" y="71.99091"/>
     <use style="fill:#1f77b4;stroke:#1f77b4;" x="282.928394" xlink:href="#m35e548f495" y="110.555007"/>
     <use style="fill:#1f77b4;stroke:#1f77b4;" x="294.473222" xlink:href="#m35e548f495" y="118.786127"/>
     <use style="fill:#1f77b4;stroke:#1f77b4;" x="306.01805" xlink:href="#m35e548f495" y="140.260201"/>
     <use style="fill:#1f77b4;stroke:#1f77b4;" x="317.562877" xlink:href="#m35e548f495" y="134.019069"/>
     <use style="fill:#1f77b4;stroke:#1f77b4;" x="329.107705" xlink:href="#m35e548f495" y="146.152922"/>
     <use style="fill:#1f77b4;stroke:#1f77b4;" x="340.652532" xlink:href="#m35e548f495" y="186.448208"/>
     <use style="fill:#1f77b4;stroke:#1f77b4;" x="352.19736" xlink:href="#m35e548f495" y="159.934422"/>
     <use style="fill:#1f77b4;stroke:#1f77b4;" x="363.742188" xlink:href="#m35e548f495" y="214.756364"/>
    </g>
   </g>
   <g id="matplotlib.axis_1">
    <g id="xtick_1">
     <g id="line2d_1">
      <defs>
       <path d="M 0 0 
L 0 3.5 
" id="m4058fc79b4" style="stroke:#000000;stroke-width:0.8;"/>
      </defs>
      <g>
       <use style="stroke:#000000;stroke-width:0.8;" x="28.942188" xlink:href="#m4058fc79b4" y="224.64"/>
      </g>
     </g>
     <g id="text_1">
      <!-- −1.00 -->
      <defs>
       <path d="M 10.59375 35.5 
L 73.1875 35.5 
L 73.1875 27.203125 
L 10.59375 27.203125 
z
" id="DejaVuSans-8722"/>
       <path d="M 12.40625 8.296875 
L 28.515625 8.296875 
L 28.515625 63.921875 
L 10.984375 60.40625 
L 10.984375 69.390625 
L 28.421875 72.90625 
L 38.28125 72.90625 
L 38.28125 8.296875 
L 54.390625 8.296875 
L 54.390625 0 
L 12.40625 0 
z
" id="DejaVuSans-49"/>
       <path d="M 10.6875 12.40625 
L 21 12.40625 
L 21 0 
L 10.6875 0 
z
" id="DejaVuSans-46"/>
       <path d="M 31.78125 66.40625 
Q 24.171875 66.40625 20.328125 58.90625 
Q 16.5 51.421875 16.5 36.375 
Q 16.5 21.390625 20.328125 13.890625 
Q 24.171875 6.390625 31.78125 6.390625 
Q 39.453125 6.390625 43.28125 13.890625 
Q 47.125 21.390625 47.125 36.375 
Q 47.125 51.421875 43.28125 58.90625 
Q 39.453125 66.40625 31.78125 66.40625 
z
M 31.78125 74.21875 
Q 44.046875 74.21875 50.515625 64.515625 
Q 56.984375 54.828125 56.984375 36.375 
Q 56.984375 17.96875 50.515625 8.265625 
Q 44.046875 -1.421875 31.78125 -1.421875 
Q 19.53125 -1.421875 13.0625 8.265625 
Q 6.59375 17.96875 6.59375 36.375 
Q 6.59375 54.828125 13.0625 64.515625 
Q 19.53125 74.21875 31.78125 74.21875 
z
" id="DejaVuSans-48"/>
      </defs>
      <g transform="translate(13.619531 239.238437)scale(0.1 -0.1)">
       <use xlink:href="#DejaVuSans-8722"/>
       <use x="83.789062" xlink:href="#DejaVuSans-49"/>
       <use x="147.412109" xlink:href="#DejaVuSans-46"/>
       <use x="179.199219" xlink:href="#DejaVuSans-48"/>
       <use x="242.822266" xlink:href="#DejaVuSans-48"/>
      </g>
     </g>
    </g>
    <g id="xtick_2">
     <g id="line2d_2">
      <g>
       <use style="stroke:#000000;stroke-width:0.8;" x="70.792188" xlink:href="#m4058fc79b4" y="224.64"/>
      </g>
     </g>
     <g id="text_2">
      <!-- −0.75 -->
      <defs>
       <path d="M 8.203125 72.90625 
L 55.078125 72.90625 
L 55.078125 68.703125 
L 28.609375 0 
L 18.3125 0 
L 43.21875 64.59375 
L 8.203125 64.59375 
z
" id="DejaVuSans-55"/>
       <path d="M 10.796875 72.90625 
L 49.515625 72.90625 
L 49.515625 64.59375 
L 19.828125 64.59375 
L 19.828125 46.734375 
Q 21.96875 47.46875 24.109375 47.828125 
Q 26.265625 48.1875 28.421875 48.1875 
Q 40.625 48.1875 47.75 41.5 
Q 54.890625 34.8125 54.890625 23.390625 
Q 54.890625 11.625 47.5625 5.09375 
Q 40.234375 -1.421875 26.90625 -1.421875 
Q 22.3125 -1.421875 17.546875 -0.640625 
Q 12.796875 0.140625 7.71875 1.703125 
L 7.71875 11.625 
Q 12.109375 9.234375 16.796875 8.0625 
Q 21.484375 6.890625 26.703125 6.890625 
Q 35.15625 6.890625 40.078125 11.328125 
Q 45.015625 15.765625 45.015625 23.390625 
Q 45.015625 31 40.078125 35.4375 
Q 35.15625 39.890625 26.703125 39.890625 
Q 22.75 39.890625 18.8125 39.015625 
Q 14.890625 38.140625 10.796875 36.28125 
z
" id="DejaVuSans-53"/>
      </defs>
      <g transform="translate(55.469531 239.238437)scale(0.1 -0.1)">
       <use xlink:href="#DejaVuSans-8722"/>
       <use x="83.789062" xlink:href="#DejaVuSans-48"/>
       <use x="147.412109" xlink:href="#DejaVuSans-46"/>
       <use x="179.199219" xlink:href="#DejaVuSans-55"/>
       <use x="242.822266" xlink:href="#DejaVuSans-53"/>
      </g>
     </g>
    </g>
    <g id="xtick_3">
     <g id="line2d_3">
      <g>
       <use style="stroke:#000000;stroke-width:0.8;" x="112.642188" xlink:href="#m4058fc79b4" y="224.64"/>
      </g>
     </g>
     <g id="text_3">
      <!-- −0.50 -->
      <g transform="translate(97.319531 239.238437)scale(0.1 -0.1)">
       <use xlink:href="#DejaVuSans-8722"/>
       <use x="83.789062" xlink:href="#DejaVuSans-48"/>
       <use x="147.412109" xlink:href="#DejaVuSans-46"/>
       <use x="179.199219" xlink:href="#DejaVuSans-53"/>
       <use x="242.822266" xlink:href="#DejaVuSans-48"/>
      </g>
     </g>
    </g>
    <g id="xtick_4">
     <g id="line2d_4">
      <g>
       <use style="stroke:#000000;stroke-width:0.8;" x="154.492188" xlink:href="#m4058fc79b4" y="224.64"/>
      </g>
     </g>
     <g id="text_4">
      <!-- −0.25 -->
      <defs>
       <path d="M 19.1875 8.296875 
L 53.609375 8.296875 
L 53.609375 0 
L 7.328125 0 
L 7.328125 8.296875 
Q 12.9375 14.109375 22.625 23.890625 
Q 32.328125 33.6875 34.8125 36.53125 
Q 39.546875 41.84375 41.421875 45.53125 
Q 43.3125 49.21875 43.3125 52.78125 
Q 43.3125 58.59375 39.234375 62.25 
Q 35.15625 65.921875 28.609375 65.921875 
Q 23.96875 65.921875 18.8125 64.3125 
Q 13.671875 62.703125 7.8125 59.421875 
L 7.8125 69.390625 
Q 13.765625 71.78125 18.9375 73 
Q 24.125 74.21875 28.421875 74.21875 
Q 39.75 74.21875 46.484375 68.546875 
Q 53.21875 62.890625 53.21875 53.421875 
Q 53.21875 48.921875 51.53125 44.890625 
Q 49.859375 40.875 45.40625 35.40625 
Q 44.1875 33.984375 37.640625 27.21875 
Q 31.109375 20.453125 19.1875 8.296875 
z
" id="DejaVuSans-50"/>
      </defs>
      <g transform="translate(139.169531 239.238437)scale(0.1 -0.1)">
       <use xlink:href="#DejaVuSans-8722"/>
       <use x="83.789062" xlink:href="#DejaVuSans-48"/>
       <use x="147.412109" xlink:href="#DejaVuSans-46"/>
       <use x="179.199219" xlink:href="#DejaVuSans-50"/>
       <use x="242.822266" xlink:href="#DejaVuSans-53"/>
      </g>
     </g>
    </g>
    <g id="xtick_5">
     <g id="line2d_5">
      <g>
       <use style="stroke:#000000;stroke-width:0.8;" x="196.342188" xlink:href="#m4058fc79b4" y="224.64"/>
      </g>
     </g>
     <g id="text_5">
      <!-- 0.00 -->
      <g transform="translate(185.209375 239.238437)scale(0.1 -0.1)">
       <use xlink:href="#DejaVuSans-48"/>
       <use x="63.623047" xlink:href="#DejaVuSans-46"/>
       <use x="95.410156" xlink:href="#DejaVuSans-48"/>
       <use x="159.033203" xlink:href="#DejaVuSans-48"/>
      </g>
     </g>
    </g>
    <g id="xtick_6">
     <g id="line2d_6">
      <g>
       <use style="stroke:#000000;stroke-width:0.8;" x="238.192188" xlink:href="#m4058fc79b4" y="224.64"/>
      </g>
     </g>
     <g id="text_6">
      <!-- 0.25 -->
      <g transform="translate(227.059375 239.238437)scale(0.1 -0.1)">
       <use xlink:href="#DejaVuSans-48"/>
       <use x="63.623047" xlink:href="#DejaVuSans-46"/>
       <use x="95.410156" xlink:href="#DejaVuSans-50"/>
       <use x="159.033203" xlink:href="#DejaVuSans-53"/>
      </g>
     </g>
    </g>
    <g id="xtick_7">
     <g id="line2d_7">
      <g>
       <use style="stroke:#000000;stroke-width:0.8;" x="280.042188" xlink:href="#m4058fc79b4" y="224.64"/>
      </g>
     </g>
     <g id="text_7">
      <!-- 0.50 -->
      <g transform="translate(268.909375 239.238437)scale(0.1 -0.1)">
       <use xlink:href="#DejaVuSans-48"/>
       <use x="63.623047" xlink:href="#DejaVuSans-46"/>
       <use x="95.410156" xlink:href="#DejaVuSans-53"/>
       <use x="159.033203" xlink:href="#DejaVuSans-48"/>
      </g>
     </g>
    </g>
    <g id="xtick_8">
     <g id="line2d_8">
      <g>
       <use style="stroke:#000000;stroke-width:0.8;" x="321.892188" xlink:href="#m4058fc79b4" y="224.64"/>
      </g>
     </g>
     <g id="text_8">
      <!-- 0.75 -->
      <g transform="translate(310.759375 239.238437)scale(0.1 -0.1)">
       <use xlink:href="#DejaVuSans-48"/>
       <use x="63.623047" xlink:href="#DejaVuSans-46"/>
       <use x="95.410156" xlink:href="#DejaVuSans-55"/>
       <use x="159.033203" xlink:href="#DejaVuSans-53"/>
      </g>
     </g>
    </g>
    <g id="xtick_9">
     <g id="line2d_9">
      <g>
       <use style="stroke:#000000;stroke-width:0.8;" x="363.742188" xlink:href="#m4058fc79b4" y="224.64"/>
      </g>
     </g>
     <g id="text_9">
      <!-- 1.00 -->
      <g transform="translate(352.609375 239.238437)scale(0.1 -0.1)">
       <use xlink:href="#DejaVuSans-49"/>
       <use x="63.623047" xlink:href="#DejaVuSans-46"/>
       <use x="95.410156" xlink:href="#DejaVuSans-48"/>
       <use x="159.033203" xlink:href="#DejaVuSans-48"/>
      </g>
     </g>
    </g>
   </g>
   <g id="matplotlib.axis_2">
    <g id="ytick_1">
     <g id="line2d_10">
      <defs>
       <path d="M 0 0 
L -3.5 0 
" id="mb2490dc9ea" style="stroke:#000000;stroke-width:0.8;"/>
      </defs>
      <g>
       <use style="stroke:#000000;stroke-width:0.8;" x="28.942188" xlink:href="#mb2490dc9ea" y="214.633431"/>
      </g>
     </g>
     <g id="text_10">
      <!-- −4 -->
      <defs>
       <path d="M 37.796875 64.3125 
L 12.890625 25.390625 
L 37.796875 25.390625 
z
M 35.203125 72.90625 
L 47.609375 72.90625 
L 47.609375 25.390625 
L 58.015625 25.390625 
L 58.015625 17.1875 
L 47.609375 17.1875 
L 47.609375 0 
L 37.796875 0 
L 37.796875 17.1875 
L 4.890625 17.1875 
L 4.890625 26.703125 
z
" id="DejaVuSans-52"/>
      </defs>
      <g transform="translate(7.2 218.43265)scale(0.1 -0.1)">
       <use xlink:href="#DejaVuSans-8722"/>
       <use x="83.789062" xlink:href="#DejaVuSans-52"/>
      </g>
     </g>
    </g>
    <g id="ytick_2">
     <g id="line2d_11">
      <g>
       <use style="stroke:#000000;stroke-width:0.8;" x="28.942188" xlink:href="#mb2490dc9ea" y="176.530749"/>
      </g>
     </g>
     <g id="text_11">
      <!-- −3 -->
      <defs>
       <path d="M 40.578125 39.3125 
Q 47.65625 37.796875 51.625 33 
Q 55.609375 28.21875 55.609375 21.1875 
Q 55.609375 10.40625 48.1875 4.484375 
Q 40.765625 -1.421875 27.09375 -1.421875 
Q 22.515625 -1.421875 17.65625 -0.515625 
Q 12.796875 0.390625 7.625 2.203125 
L 7.625 11.71875 
Q 11.71875 9.328125 16.59375 8.109375 
Q 21.484375 6.890625 26.8125 6.890625 
Q 36.078125 6.890625 40.9375 10.546875 
Q 45.796875 14.203125 45.796875 21.1875 
Q 45.796875 27.640625 41.28125 31.265625 
Q 36.765625 34.90625 28.71875 34.90625 
L 20.21875 34.90625 
L 20.21875 43.015625 
L 29.109375 43.015625 
Q 36.375 43.015625 40.234375 45.921875 
Q 44.09375 48.828125 44.09375 54.296875 
Q 44.09375 59.90625 40.109375 62.90625 
Q 36.140625 65.921875 28.71875 65.921875 
Q 24.65625 65.921875 20.015625 65.03125 
Q 15.375 64.15625 9.8125 62.3125 
L 9.8125 71.09375 
Q 15.4375 72.65625 20.34375 73.4375 
Q 25.25 74.21875 29.59375 74.21875 
Q 40.828125 74.21875 47.359375 69.109375 
Q 53.90625 64.015625 53.90625 55.328125 
Q 53.90625 49.265625 50.4375 45.09375 
Q 46.96875 40.921875 40.578125 39.3125 
z
" id="DejaVuSans-51"/>
      </defs>
      <g transform="translate(7.2 180.329967)scale(0.1 -0.1)">
       <use xlink:href="#DejaVuSans-8722"/>
       <use x="83.789062" xlink:href="#DejaVuSans-51"/>
      </g>
     </g>
    </g>
    <g id="ytick_3">
     <g id="line2d_12">
      <g>
       <use style="stroke:#000000;stroke-width:0.8;" x="28.942188" xlink:href="#mb2490dc9ea" y="138.428066"/>
      </g>
     </g>
     <g id="text_12">
      <!-- −2 -->
      <g transform="translate(7.2 142.227285)scale(0.1 -0.1)">
       <use xlink:href="#DejaVuSans-8722"/>
       <use x="83.789062" xlink:href="#DejaVuSans-50"/>
      </g>
     </g>
    </g>
    <g id="ytick_4">
     <g id="line2d_13">
      <g>
       <use style="stroke:#000000;stroke-width:0.8;" x="28.942188" xlink:href="#mb2490dc9ea" y="100.325384"/>
      </g>
     </g>
     <g id="text_13">
      <!-- −1 -->
      <g transform="translate(7.2 104.124603)scale(0.1 -0.1)">
       <use xlink:href="#DejaVuSans-8722"/>
       <use x="83.789062" xlink:href="#DejaVuSans-49"/>
      </g>
     </g>
    </g>
    <g id="ytick_5">
     <g id="line2d_14">
      <g>
       <use style="stroke:#000000;stroke-width:0.8;" x="28.942188" xlink:href="#mb2490dc9ea" y="62.222702"/>
      </g>
     </g>
     <g id="text_14">
      <!-- 0 -->
      <g transform="translate(15.579688 66.021921)scale(0.1 -0.1)">
       <use xlink:href="#DejaVuSans-48"/>
      </g>
     </g>
    </g>
    <g id="ytick_6">
     <g id="line2d_15">
      <g>
       <use style="stroke:#000000;stroke-width:0.8;" x="28.942188" xlink:href="#mb2490dc9ea" y="24.12002"/>
      </g>
     </g>
     <g id="text_15">
      <!-- 1 -->
      <g transform="translate(15.579688 27.919239)scale(0.1 -0.1)">
       <use xlink:href="#DejaVuSans-49"/>
      </g>
     </g>
    </g>
   </g>
   <g id="line2d_16">
    <path clip-path="url(#p36a4ae63f8)" d="M 28.942188 18.73182 
L 32.324006 21.233388 
L 35.705824 23.647104 
L 39.087642 25.975197 
L 42.46946 28.2199 
L 45.851278 30.383442 
L 49.233097 32.468055 
L 52.614915 34.475971 
L 55.996733 36.409419 
L 59.378551 38.270632 
L 62.760369 40.061839 
L 66.142188 41.785272 
L 69.524006 43.443163 
L 72.905824 45.037742 
L 76.287642 46.571239 
L 79.66946 48.045887 
L 83.051278 49.463916 
L 86.433097 50.827557 
L 89.814915 52.139041 
L 93.196733 53.4006 
L 96.578551 54.614463 
L 99.960369 55.782863 
L 103.342188 56.90803 
L 106.724006 57.992195 
L 110.105824 59.037589 
L 113.487642 60.046444 
L 116.86946 61.020989 
L 120.251278 61.963457 
L 123.633097 62.876079 
L 127.014915 63.761084 
L 130.396733 64.620705 
L 133.778551 65.457172 
L 137.160369 66.272717 
L 140.542188 67.06957 
L 143.924006 67.849962 
L 147.305824 68.616125 
L 150.687642 69.370289 
L 154.06946 70.114685 
L 157.451278 70.851545 
L 160.833097 71.583099 
L 164.214915 72.311579 
L 167.596733 73.039215 
L 170.978551 73.768238 
L 174.360369 74.50088 
L 177.742188 75.239372 
L 181.124006 75.985944 
L 184.505824 76.742828 
L 187.887642 77.512254 
L 191.26946 78.296453 
L 194.651278 79.097658 
L 198.033097 79.918097 
L 201.414915 80.760004 
L 204.796733 81.625608 
L 208.178551 82.51714 
L 211.560369 83.436832 
L 214.942188 84.386915 
L 218.324006 85.36962 
L 221.705824 86.387177 
L 225.087642 87.441818 
L 228.46946 88.535773 
L 231.851278 89.671274 
L 235.233097 90.850552 
L 238.614915 92.075838 
L 241.996733 93.349362 
L 245.378551 94.673356 
L 248.760369 96.050051 
L 252.142188 97.481678 
L 255.524006 98.970467 
L 258.905824 100.518651 
L 262.287642 102.128459 
L 265.66946 103.802123 
L 269.051278 105.541874 
L 272.433097 107.349943 
L 275.814915 109.22856 
L 279.196733 111.179958 
L 282.578551 113.206366 
L 285.960369 115.310016 
L 289.342188 117.49314 
L 292.724006 119.757967 
L 296.105824 122.106729 
L 299.487642 124.541657 
L 302.86946 127.064982 
L 306.251278 129.678935 
L 309.633097 132.385747 
L 313.014915 135.18765 
L 316.396733 138.086873 
L 319.778551 141.085648 
L 323.160369 144.186206 
L 326.542188 147.390779 
L 329.924006 150.701596 
L 333.305824 154.12089 
L 336.687642 157.650891 
L 340.06946 161.293829 
L 343.451278 165.051937 
L 346.833097 168.927446 
L 350.214915 172.922585 
L 353.596733 177.039586 
L 356.978551 181.280681 
L 360.360369 185.6481 
L 363.742188 190.144074 
" style="fill:none;stroke:#1f77b4;stroke-linecap:square;stroke-width:1.5;"/>
   </g>
   <g id="patch_3">
    <path d="M 28.942188 224.64 
L 28.942188 7.2 
" style="fill:none;stroke:#000000;stroke-linecap:square;stroke-linejoin:miter;stroke-width:0.8;"/>
   </g>
   <g id="patch_4">
    <path d="M 363.742188 224.64 
L 363.742188 7.2 
" style="fill:none;stroke:#000000;stroke-linecap:square;stroke-linejoin:miter;stroke-width:0.8;"/>
   </g>
   <g id="patch_5">
    <path d="M 28.942188 224.64 
L 363.742188 224.64 
" style="fill:none;stroke:#000000;stroke-linecap:square;stroke-linejoin:miter;stroke-width:0.8;"/>
   </g>
   <g id="patch_6">
    <path d="M 28.942188 7.2 
L 363.742188 7.2 
" style="fill:none;stroke:#000000;stroke-linecap:square;stroke-linejoin:miter;stroke-width:0.8;"/>
   </g>
  </g>
 </g>
 <defs>
  <clipPath id="p36a4ae63f8">
   <rect height="217.44" width="334.8" x="28.942188" y="7.2"/>
  </clipPath>
 </defs>
</svg>
